M48
; DRILL file {KiCad 6.0.4-6f826c9f35~116~ubuntu20.04.1} date Fri 01 Apr 2022 21:22:04
; FORMAT={-:-/ absolute / metric / decimal}
; #@! TF.CreationDate,2022-04-01T21:22:04+11:00
; #@! TF.GenerationSoftware,Kicad,Pcbnew,6.0.4-6f826c9f35~116~ubuntu20.04.1
; #@! TF.FileFunction,Plated,1,2,PTH
FMAT,2
METRIC
; #@! TA.AperFunction,Plated,PTH,ViaDrill
T1C0.300
; #@! TA.AperFunction,Plated,PTH,ComponentDrill
T2C0.600
; #@! TA.AperFunction,Plated,PTH,ComponentDrill
T3C0.700
%
G90
G05
T1
X33.85Y-41.75
X33.85Y-78.75
X33.875Y-60.45
X33.875Y-97.45
X33.9Y-58.875
X33.9Y-95.875
X33.925Y-61.225
X33.925Y-98.225
X33.95Y-57.375
X33.95Y-94.375
X34.0Y-59.65
X34.0Y-96.65
X34.15Y-64.025
X34.15Y-101.025
X34.95Y-43.7
X34.95Y-80.7
X35.625Y-57.175
X35.625Y-94.175
X36.0Y-39.575
X36.0Y-41.75
X36.0Y-76.575
X36.0Y-78.75
X36.05Y-45.6
X36.05Y-82.6
X36.1Y-56.3
X36.1Y-93.3
X36.15Y-65.35
X36.15Y-102.35
X36.275Y-61.525
X36.275Y-98.525
X37.325Y-65.275
X37.325Y-102.275
X37.375Y-57.05
X37.375Y-94.05
X38.325Y-45.9
X38.325Y-82.9
X38.375Y-59.625
X38.375Y-96.625
X38.4Y-65.275
X38.4Y-102.275
X38.475Y-50.4
X38.475Y-87.4
X38.525Y-41.775
X38.525Y-78.775
X38.562Y-40.662
X38.562Y-77.663
X38.575Y-51.175
X38.575Y-88.175
X38.675Y-43.0
X38.675Y-80.0
X38.725Y-63.55
X38.725Y-100.55
X38.825Y-45.025
X38.825Y-82.025
X39.392Y-40.832
X39.392Y-77.833
X39.725Y-59.425
X39.725Y-96.425
X40.25Y-60.075
X40.25Y-97.075
X40.575Y-40.55
X40.575Y-77.55
X40.85Y-59.325
X40.85Y-96.325
X41.025Y-61.025
X41.025Y-98.025
X41.55Y-40.7
X41.55Y-77.7
X41.675Y-49.825
X41.675Y-54.15
X41.675Y-86.825
X41.675Y-91.15
X41.7Y-45.85
X41.7Y-53.375
X41.7Y-55.075
X41.7Y-82.85
X41.7Y-90.375
X41.7Y-92.075
X41.725Y-45.0
X41.725Y-48.95
X41.725Y-52.45
X41.725Y-82.0
X41.725Y-85.95
X41.725Y-89.45
X41.75Y-51.625
X41.75Y-88.625
X41.775Y-44.05
X41.775Y-46.75
X41.775Y-50.775
X41.775Y-81.05
X41.775Y-83.75
X41.775Y-87.775
X41.785Y-41.74
X41.785Y-78.74
X41.825Y-43.15
X41.825Y-56.15
X41.825Y-80.15
X41.825Y-93.15
X42.4Y-40.875
X42.4Y-77.875
X42.475Y-56.6
X42.475Y-93.6
X43.125Y-63.85
X43.125Y-100.85
X43.175Y-40.85
X43.175Y-77.85
X43.25Y-57.05
X43.25Y-94.05
X43.725Y-51.425
X43.725Y-88.425
X43.975Y-48.225
X43.975Y-85.225
X44.05Y-57.075
X44.05Y-94.075
X44.275Y-40.925
X44.275Y-77.925
X44.3Y-46.95
X44.3Y-83.95
X44.375Y-52.2
X44.375Y-89.2
X44.575Y-46.15
X44.575Y-83.15
X44.7Y-47.775
X44.7Y-84.775
X44.825Y-48.625
X44.825Y-85.625
X44.875Y-57.075
X44.875Y-94.075
X44.9Y-49.55
X44.9Y-86.55
X45.2Y-46.775
X45.2Y-83.775
X45.25Y-52.9
X45.25Y-89.9
X45.45Y-40.875
X45.45Y-77.875
X45.55Y-45.85
X45.55Y-82.85
X45.6Y-60.95
X45.6Y-97.95
X45.725Y-57.1
X45.725Y-62.3
X45.725Y-94.1
X45.725Y-99.3
X45.925Y-64.975
X45.925Y-101.975
X46.075Y-46.75
X46.075Y-83.75
X46.2Y-61.45
X46.2Y-98.45
X46.35Y-40.9
X46.35Y-77.9
X46.525Y-53.375
X46.525Y-90.375
X46.55Y-45.9
X46.55Y-82.9
X46.575Y-57.1
X46.575Y-94.1
X46.9Y-60.925
X46.9Y-97.925
X47.3Y-64.075
X47.3Y-101.075
X47.55Y-45.75
X47.55Y-46.675
X47.55Y-82.75
X47.55Y-83.675
X47.575Y-57.125
X47.575Y-94.125
X47.6Y-51.825
X47.6Y-88.825
X47.65Y-40.875
X47.65Y-77.875
X48.2Y-53.55
X48.2Y-90.55
X48.375Y-63.55
X48.375Y-100.55
X48.4Y-57.125
X48.4Y-94.125
X48.45Y-45.75
X48.45Y-82.75
X48.625Y-46.725
X48.625Y-83.725
X48.65Y-40.95
X48.65Y-77.95
X49.225Y-57.125
X49.225Y-94.125
X49.425Y-45.85
X49.425Y-63.175
X49.425Y-82.85
X49.425Y-100.175
X49.475Y-53.65
X49.475Y-90.65
X49.525Y-46.775
X49.525Y-83.775
X49.575Y-40.9
X49.575Y-77.9
X50.025Y-57.125
X50.025Y-94.125
X50.2Y-51.1
X50.2Y-88.1
X50.225Y-49.925
X50.225Y-86.925
X50.275Y-62.55
X50.275Y-99.55
X50.4Y-47.625
X50.4Y-84.625
X50.425Y-48.8
X50.425Y-85.8
X50.5Y-46.475
X50.5Y-83.475
X50.525Y-40.95
X50.525Y-64.3
X50.525Y-77.95
X50.525Y-101.3
X50.575Y-53.65
X50.575Y-90.65
X50.925Y-57.1
X50.925Y-94.1
X50.975Y-51.575
X50.975Y-88.575
X51.075Y-50.5
X51.075Y-87.5
X51.2Y-49.35
X51.2Y-86.35
X51.275Y-47.1
X51.275Y-84.1
X51.325Y-48.25
X51.325Y-85.25
X51.55Y-40.95
X51.55Y-77.95
X51.625Y-56.575
X51.625Y-93.575
X51.925Y-51.65
X51.925Y-88.65
X52.3Y-56.0
X52.3Y-93.0
X52.45Y-40.925
X52.45Y-77.925
X52.8Y-53.7
X52.8Y-55.35
X52.8Y-90.7
X52.8Y-92.35
X52.85Y-54.5
X52.85Y-91.5
X52.95Y-51.75
X52.95Y-88.75
X53.025Y-58.075
X53.025Y-95.075
X53.4Y-63.525
X53.4Y-100.525
X53.475Y-41.0
X53.475Y-78.0
X53.85Y-50.25
X53.85Y-87.25
X53.875Y-55.175
X53.875Y-92.175
X53.9Y-49.4
X53.9Y-51.075
X53.9Y-54.3
X53.9Y-86.4
X53.9Y-88.075
X53.9Y-91.3
X53.925Y-51.85
X53.925Y-53.35
X53.925Y-88.85
X53.925Y-90.35
X54.0Y-57.675
X54.0Y-94.676
X54.375Y-60.875
X54.375Y-97.875
X54.475Y-48.8
X54.475Y-85.8
X54.525Y-41.0
X54.525Y-78.0
X54.975Y-48.2
X54.975Y-85.2
X55.0Y-47.275
X55.0Y-84.275
X55.225Y-46.475
X55.225Y-83.475
X55.425Y-41.0
X55.425Y-78.0
X55.875Y-45.75
X55.875Y-82.75
X56.21Y-41.74
X56.21Y-78.74
X56.225Y-42.575
X56.225Y-43.325
X56.225Y-44.15
X56.225Y-79.575
X56.225Y-80.325
X56.225Y-81.15
X56.3Y-40.8
X56.3Y-77.8
X56.4Y-45.15
X56.4Y-56.775
X56.4Y-82.15
X56.4Y-93.775
X57.2Y-40.55
X57.2Y-77.55
X57.45Y-59.55
X57.45Y-96.55
X58.05Y-40.5
X58.05Y-77.5
X58.875Y-40.55
X58.875Y-77.55
X59.05Y-55.712
X59.05Y-92.713
X59.15Y-62.15
X59.15Y-99.15
X59.175Y-58.175
X59.175Y-61.3
X59.175Y-63.725
X59.175Y-95.175
X59.175Y-98.3
X59.175Y-100.725
X59.2Y-62.95
X59.2Y-99.95
X59.65Y-46.025
X59.65Y-83.025
X59.975Y-63.275
X59.975Y-100.275
X60.05Y-61.6
X60.05Y-98.6
X60.25Y-60.375
X60.25Y-97.375
X60.425Y-62.5
X60.425Y-99.5
X60.725Y-56.525
X60.725Y-93.525
X60.95Y-61.55
X60.95Y-98.55
X61.325Y-60.325
X61.325Y-62.525
X61.325Y-97.325
X61.325Y-99.525
X61.537Y-52.237
X61.537Y-89.238
X61.55Y-40.95
X61.55Y-77.95
X61.575Y-41.825
X61.575Y-78.825
X61.6Y-44.8
X61.6Y-50.675
X61.6Y-81.8
X61.6Y-87.675
X61.625Y-42.65
X61.625Y-79.65
X61.65Y-43.45
X61.65Y-80.45
X61.775Y-49.325
X61.775Y-86.325
X63.425Y-52.8
X63.425Y-89.8
X63.6Y-56.35
X63.6Y-93.35
X63.625Y-55.55
X63.625Y-92.55
X63.7Y-51.525
X63.7Y-54.625
X63.7Y-88.525
X63.7Y-91.625
X63.75Y-46.5
X63.75Y-83.5
X63.918Y-50.696
X63.918Y-87.696
X63.95Y-47.4
X63.95Y-84.4
X64.025Y-45.7
X64.025Y-82.7
X64.125Y-40.75
X64.125Y-49.425
X64.125Y-53.525
X64.125Y-61.8
X64.125Y-77.75
X64.125Y-86.425
X64.125Y-90.525
X64.125Y-98.8
X64.15Y-43.6
X64.15Y-80.6
X64.175Y-48.475
X64.175Y-85.475
X64.225Y-62.65
X64.225Y-99.65
X64.25Y-52.3
X64.25Y-89.3
X64.325Y-60.5
X64.325Y-97.5
X64.425Y-56.35
X64.425Y-93.35
X64.575Y-51.2
X64.575Y-88.2
X64.6Y-50.125
X64.6Y-87.125
X64.725Y-47.85
X64.725Y-84.85
X64.825Y-48.925
X64.825Y-85.925
X65.1Y-53.4
X65.1Y-90.4
X65.275Y-52.375
X65.275Y-61.85
X65.275Y-89.375
X65.275Y-98.85
X65.325Y-60.5
X65.325Y-97.5
X65.35Y-50.4
X65.35Y-87.4
X65.4Y-51.4
X65.4Y-88.4
X65.45Y-49.375
X65.45Y-86.375
X65.475Y-48.4
X65.475Y-85.4
X65.65Y-64.55
X65.65Y-101.55
X65.7Y-62.9
X65.7Y-65.275
X65.7Y-99.9
X65.7Y-102.275
X65.75Y-63.75
X65.75Y-100.75
X65.9Y-53.675
X65.9Y-90.675
X66.0Y-52.825
X66.0Y-61.125
X66.0Y-89.825
X66.0Y-98.125
X66.025Y-59.9
X66.025Y-96.9
X66.075Y-62.1
X66.075Y-99.1
X66.1Y-47.775
X66.1Y-49.85
X66.1Y-51.875
X66.1Y-84.775
X66.1Y-86.85
X66.1Y-88.875
X66.125Y-56.4
X66.125Y-93.4
X66.15Y-48.975
X66.15Y-85.975
X72.35Y-41.75
X72.35Y-78.75
X72.375Y-60.45
X72.375Y-97.45
X72.4Y-58.875
X72.4Y-95.875
X72.425Y-61.225
X72.425Y-98.225
X72.45Y-57.375
X72.45Y-94.375
X72.5Y-59.65
X72.5Y-96.65
X72.65Y-64.025
X72.65Y-101.025
X73.45Y-43.7
X73.45Y-80.7
X74.125Y-57.175
X74.125Y-94.175
X74.5Y-39.575
X74.5Y-41.75
X74.5Y-76.575
X74.5Y-78.75
X74.55Y-45.6
X74.55Y-82.6
X74.6Y-56.3
X74.6Y-93.3
X74.65Y-65.35
X74.65Y-102.35
X74.775Y-61.525
X74.775Y-98.525
X75.825Y-65.275
X75.825Y-102.275
X75.875Y-57.05
X75.875Y-94.05
X76.825Y-45.9
X76.825Y-82.9
X76.875Y-59.625
X76.875Y-96.625
X76.9Y-65.275
X76.9Y-102.275
X76.975Y-50.4
X76.975Y-87.4
X77.025Y-41.775
X77.025Y-78.775
X77.063Y-40.662
X77.063Y-77.663
X77.075Y-51.175
X77.075Y-88.175
X77.175Y-43.0
X77.175Y-80.0
X77.225Y-63.55
X77.225Y-100.55
X77.325Y-45.025
X77.325Y-82.025
X77.893Y-40.832
X77.893Y-77.833
X78.225Y-59.425
X78.225Y-96.425
X78.75Y-60.075
X78.75Y-97.075
X79.075Y-40.55
X79.075Y-77.55
X79.35Y-59.325
X79.35Y-96.325
X79.525Y-61.025
X79.525Y-98.025
X80.05Y-40.7
X80.05Y-77.7
X80.175Y-49.825
X80.175Y-54.15
X80.175Y-86.825
X80.175Y-91.15
X80.2Y-45.85
X80.2Y-53.375
X80.2Y-55.075
X80.2Y-82.85
X80.2Y-90.375
X80.2Y-92.075
X80.225Y-45.0
X80.225Y-48.95
X80.225Y-52.45
X80.225Y-82.0
X80.225Y-85.95
X80.225Y-89.45
X80.25Y-51.625
X80.25Y-88.625
X80.275Y-44.05
X80.275Y-46.75
X80.275Y-50.775
X80.275Y-81.05
X80.275Y-83.75
X80.275Y-87.775
X80.285Y-41.74
X80.285Y-78.74
X80.325Y-43.15
X80.325Y-56.15
X80.325Y-80.15
X80.325Y-93.15
X80.9Y-40.875
X80.9Y-77.875
X80.975Y-56.6
X80.975Y-93.6
X81.625Y-63.85
X81.625Y-100.85
X81.675Y-40.85
X81.675Y-77.85
X81.75Y-57.05
X81.75Y-94.05
X82.225Y-51.425
X82.225Y-88.425
X82.475Y-48.225
X82.475Y-85.225
X82.55Y-57.075
X82.55Y-94.075
X82.775Y-40.925
X82.775Y-77.925
X82.8Y-46.95
X82.8Y-83.95
X82.875Y-52.2
X82.875Y-89.2
X83.075Y-46.15
X83.075Y-83.15
X83.2Y-47.775
X83.2Y-84.775
X83.325Y-48.625
X83.325Y-85.625
X83.375Y-57.075
X83.375Y-94.075
X83.4Y-49.55
X83.4Y-86.55
X83.7Y-46.775
X83.7Y-83.775
X83.75Y-52.9
X83.75Y-89.9
X83.95Y-40.875
X83.95Y-77.875
X84.05Y-45.85
X84.05Y-82.85
X84.1Y-60.95
X84.1Y-97.95
X84.225Y-57.1
X84.225Y-62.3
X84.225Y-94.1
X84.225Y-99.3
X84.425Y-64.975
X84.425Y-101.975
X84.575Y-46.75
X84.575Y-83.75
X84.7Y-61.45
X84.7Y-98.45
X84.85Y-40.9
X84.85Y-77.9
X85.025Y-53.375
X85.025Y-90.375
X85.05Y-45.9
X85.05Y-82.9
X85.075Y-57.1
X85.075Y-94.1
X85.4Y-60.925
X85.4Y-97.925
X85.8Y-64.075
X85.8Y-101.075
X86.05Y-45.75
X86.05Y-46.675
X86.05Y-82.75
X86.05Y-83.675
X86.075Y-57.125
X86.075Y-94.125
X86.1Y-51.825
X86.1Y-88.825
X86.15Y-40.875
X86.15Y-77.875
X86.7Y-53.55
X86.7Y-90.55
X86.875Y-63.55
X86.875Y-100.55
X86.9Y-57.125
X86.9Y-94.125
X86.95Y-45.75
X86.95Y-82.75
X87.125Y-46.725
X87.125Y-83.725
X87.15Y-40.95
X87.15Y-77.95
X87.725Y-57.125
X87.725Y-94.125
X87.925Y-45.85
X87.925Y-63.175
X87.925Y-82.85
X87.925Y-100.175
X87.975Y-53.65
X87.975Y-90.65
X88.025Y-46.775
X88.025Y-83.775
X88.075Y-40.9
X88.075Y-77.9
X88.525Y-57.125
X88.525Y-94.125
X88.7Y-51.1
X88.7Y-88.1
X88.725Y-49.925
X88.725Y-86.925
X88.775Y-62.55
X88.775Y-99.55
X88.9Y-47.625
X88.9Y-84.625
X88.925Y-48.8
X88.925Y-85.8
X89.0Y-46.475
X89.0Y-83.475
X89.025Y-40.95
X89.025Y-64.3
X89.025Y-77.95
X89.025Y-101.3
X89.075Y-53.65
X89.075Y-90.65
X89.425Y-57.1
X89.425Y-94.1
X89.475Y-51.575
X89.475Y-88.575
X89.575Y-50.5
X89.575Y-87.5
X89.7Y-49.35
X89.7Y-86.35
X89.775Y-47.1
X89.775Y-84.1
X89.825Y-48.25
X89.825Y-85.25
X90.05Y-40.95
X90.05Y-77.95
X90.125Y-56.575
X90.125Y-93.575
X90.425Y-51.65
X90.425Y-88.65
X90.8Y-56.0
X90.8Y-93.0
X90.95Y-40.925
X90.95Y-77.925
X91.3Y-53.7
X91.3Y-55.35
X91.3Y-90.7
X91.3Y-92.35
X91.35Y-54.5
X91.35Y-91.5
X91.45Y-51.75
X91.45Y-88.75
X91.525Y-58.075
X91.525Y-95.075
X91.9Y-63.525
X91.9Y-100.525
X91.975Y-41.0
X91.975Y-78.0
X92.35Y-50.25
X92.35Y-87.25
X92.375Y-55.175
X92.375Y-92.175
X92.4Y-49.4
X92.4Y-51.075
X92.4Y-54.3
X92.4Y-86.4
X92.4Y-88.075
X92.4Y-91.3
X92.425Y-51.85
X92.425Y-53.35
X92.425Y-88.85
X92.425Y-90.35
X92.5Y-57.675
X92.5Y-94.676
X92.875Y-60.875
X92.875Y-97.875
X92.975Y-48.8
X92.975Y-85.8
X93.025Y-41.0
X93.025Y-78.0
X93.475Y-48.2
X93.475Y-85.2
X93.5Y-47.275
X93.5Y-84.275
X93.725Y-46.475
X93.725Y-83.475
X93.925Y-41.0
X93.925Y-78.0
X94.375Y-45.75
X94.375Y-82.75
X94.71Y-41.74
X94.71Y-78.74
X94.725Y-42.575
X94.725Y-43.325
X94.725Y-44.15
X94.725Y-79.575
X94.725Y-80.325
X94.725Y-81.15
X94.8Y-40.8
X94.8Y-77.8
X94.9Y-45.15
X94.9Y-56.775
X94.9Y-82.15
X94.9Y-93.775
X95.7Y-40.55
X95.7Y-77.55
X95.95Y-59.55
X95.95Y-96.55
X96.55Y-40.5
X96.55Y-77.5
X97.375Y-40.55
X97.375Y-77.55
X97.55Y-55.712
X97.55Y-92.713
X97.65Y-62.15
X97.65Y-99.15
X97.675Y-58.175
X97.675Y-61.3
X97.675Y-63.725
X97.675Y-95.175
X97.675Y-98.3
X97.675Y-100.725
X97.7Y-62.95
X97.7Y-99.95
X98.15Y-46.025
X98.15Y-83.025
X98.475Y-63.275
X98.475Y-100.275
X98.55Y-61.6
X98.55Y-98.6
X98.75Y-60.375
X98.75Y-97.375
X98.925Y-62.5
X98.925Y-99.5
X99.225Y-56.525
X99.225Y-93.525
X99.45Y-61.55
X99.45Y-98.55
X99.825Y-60.325
X99.825Y-62.525
X99.825Y-97.325
X99.825Y-99.525
X100.038Y-52.237
X100.038Y-89.238
X100.05Y-40.95
X100.05Y-77.95
X100.075Y-41.825
X100.075Y-78.825
X100.1Y-44.8
X100.1Y-50.675
X100.1Y-81.8
X100.1Y-87.675
X100.125Y-42.65
X100.125Y-79.65
X100.15Y-43.45
X100.15Y-80.45
X100.275Y-49.325
X100.275Y-86.325
X101.925Y-52.8
X101.925Y-89.8
X102.1Y-56.35
X102.1Y-93.35
X102.125Y-55.55
X102.125Y-92.55
X102.2Y-51.525
X102.2Y-54.625
X102.2Y-88.525
X102.2Y-91.625
X102.25Y-46.5
X102.25Y-83.5
X102.418Y-50.696
X102.418Y-87.696
X102.45Y-47.4
X102.45Y-84.4
X102.525Y-45.7
X102.525Y-82.7
X102.625Y-40.75
X102.625Y-49.425
X102.625Y-53.525
X102.625Y-61.8
X102.625Y-77.75
X102.625Y-86.425
X102.625Y-90.525
X102.625Y-98.8
X102.65Y-43.6
X102.65Y-80.6
X102.675Y-48.475
X102.675Y-85.475
X102.725Y-62.65
X102.725Y-99.65
X102.75Y-52.3
X102.75Y-89.3
X102.825Y-60.5
X102.825Y-97.5
X102.925Y-56.35
X102.925Y-93.35
X103.075Y-51.2
X103.075Y-88.2
X103.1Y-50.125
X103.1Y-87.125
X103.225Y-47.85
X103.225Y-84.85
X103.325Y-48.925
X103.325Y-85.925
X103.6Y-53.4
X103.6Y-90.4
X103.775Y-52.375
X103.775Y-61.85
X103.775Y-89.375
X103.775Y-98.85
X103.825Y-60.5
X103.825Y-97.5
X103.85Y-50.4
X103.85Y-87.4
X103.9Y-51.4
X103.9Y-88.4
X103.95Y-49.375
X103.95Y-86.375
X103.975Y-48.4
X103.975Y-85.4
X104.15Y-64.55
X104.15Y-101.55
X104.2Y-62.9
X104.2Y-65.275
X104.2Y-99.9
X104.2Y-102.275
X104.25Y-63.75
X104.25Y-100.75
X104.4Y-53.675
X104.4Y-90.675
X104.5Y-52.825
X104.5Y-61.125
X104.5Y-89.825
X104.5Y-98.125
X104.525Y-59.9
X104.525Y-96.9
X104.575Y-62.1
X104.575Y-99.1
X104.6Y-47.775
X104.6Y-49.85
X104.6Y-51.875
X104.6Y-84.775
X104.6Y-86.85
X104.6Y-88.875
X104.625Y-56.4
X104.625Y-93.4
X104.65Y-48.975
X104.65Y-85.975
T3
X55.025Y-50.025
X55.025Y-51.295
X55.025Y-52.565
X55.025Y-53.835
X55.025Y-55.105
X55.025Y-56.375
X55.025Y-87.025
X55.025Y-88.295
X55.025Y-89.565
X55.025Y-90.835
X55.025Y-92.105
X55.025Y-93.375
X93.525Y-50.025
X93.525Y-51.295
X93.525Y-52.565
X93.525Y-53.835
X93.525Y-55.105
X93.525Y-56.375
X93.525Y-87.025
X93.525Y-88.295
X93.525Y-89.565
X93.525Y-90.835
X93.525Y-92.105
X93.525Y-93.375
T2
X60.57Y-46.655G85X61.67Y-46.655
G05
X60.57Y-55.295G85X61.67Y-55.295
G05
X60.57Y-83.655G85X61.67Y-83.655
G05
X60.57Y-92.295G85X61.67Y-92.295
G05
X65.0Y-46.655G85X65.6Y-46.655
G05
X65.0Y-55.295G85X65.6Y-55.295
G05
X65.0Y-83.655G85X65.6Y-83.655
G05
X65.0Y-92.295G85X65.6Y-92.295
G05
X99.07Y-46.655G85X100.17Y-46.655
G05
X99.07Y-55.295G85X100.17Y-55.295
G05
X99.07Y-83.655G85X100.17Y-83.655
G05
X99.07Y-92.295G85X100.17Y-92.295
G05
X103.5Y-46.655G85X104.1Y-46.655
G05
X103.5Y-55.295G85X104.1Y-55.295
G05
X103.5Y-83.655G85X104.1Y-83.655
G05
X103.5Y-92.295G85X104.1Y-92.295
G05
T0
M30
