G04 #@! TF.GenerationSoftware,KiCad,Pcbnew,6.0.4-6f826c9f35~116~ubuntu20.04.1*
G04 #@! TF.CreationDate,2022-04-01T21:21:36+11:00*
G04 #@! TF.ProjectId,panel,70616e65-6c2e-46b6-9963-61645f706362,rev?*
G04 #@! TF.SameCoordinates,Original*
G04 #@! TF.FileFunction,Legend,Top*
G04 #@! TF.FilePolarity,Positive*
%FSLAX46Y46*%
G04 Gerber Fmt 4.6, Leading zero omitted, Abs format (unit mm)*
G04 Created by KiCad (PCBNEW 6.0.4-6f826c9f35~116~ubuntu20.04.1) date 2022-04-01 21:21:36*
%MOMM*%
%LPD*%
G01*
G04 APERTURE LIST*
G04 Aperture macros list*
%AMRoundRect*
0 Rectangle with rounded corners*
0 $1 Rounding radius*
0 $2 $3 $4 $5 $6 $7 $8 $9 X,Y pos of 4 corners*
0 Add a 4 corners polygon primitive as box body*
4,1,4,$2,$3,$4,$5,$6,$7,$8,$9,$2,$3,0*
0 Add four circle primitives for the rounded corners*
1,1,$1+$1,$2,$3*
1,1,$1+$1,$4,$5*
1,1,$1+$1,$6,$7*
1,1,$1+$1,$8,$9*
0 Add four rect primitives between the rounded corners*
20,1,$1+$1,$2,$3,$4,$5,0*
20,1,$1+$1,$4,$5,$6,$7,0*
20,1,$1+$1,$6,$7,$8,$9,0*
20,1,$1+$1,$8,$9,$2,$3,0*%
G04 Aperture macros list end*
%ADD10C,0.150000*%
%ADD11C,0.120000*%
%ADD12C,0.310000*%
%ADD13RoundRect,0.250000X0.475000X-0.337500X0.475000X0.337500X-0.475000X0.337500X-0.475000X-0.337500X0*%
%ADD14RoundRect,0.250000X-0.450000X0.350000X-0.450000X-0.350000X0.450000X-0.350000X0.450000X0.350000X0*%
%ADD15R,3.000000X0.350000*%
%ADD16R,1.500000X0.900000*%
%ADD17R,0.900000X1.500000*%
%ADD18R,0.900000X0.900000*%
%ADD19RoundRect,0.150000X-0.587500X-0.150000X0.587500X-0.150000X0.587500X0.150000X-0.587500X0.150000X0*%
%ADD20C,0.650000*%
%ADD21R,1.450000X0.600000*%
%ADD22R,1.450000X0.300000*%
%ADD23O,2.100000X1.000000*%
%ADD24O,1.600000X1.000000*%
%ADD25RoundRect,0.250000X0.450000X-0.350000X0.450000X0.350000X-0.450000X0.350000X-0.450000X-0.350000X0*%
%ADD26R,1.000000X1.000000*%
%ADD27O,1.000000X1.000000*%
%ADD28RoundRect,0.250000X-0.475000X0.337500X-0.475000X-0.337500X0.475000X-0.337500X0.475000X0.337500X0*%
%ADD29C,1.000000*%
%ADD30R,1.500000X2.000000*%
%ADD31R,3.800000X2.000000*%
%ADD32RoundRect,0.250000X-0.350000X-0.450000X0.350000X-0.450000X0.350000X0.450000X-0.350000X0.450000X0*%
%ADD33R,1.500000X1.000000*%
%ADD34RoundRect,0.250000X-0.337500X-0.475000X0.337500X-0.475000X0.337500X0.475000X-0.337500X0.475000X0*%
%ADD35C,3.000000*%
G04 APERTURE END LIST*
D10*
X60033332Y-78382144D02*
X59985713Y-78429763D01*
X59842856Y-78477382D01*
X59747618Y-78477382D01*
X59604760Y-78429763D01*
X59509522Y-78334525D01*
X59461903Y-78239287D01*
X59414284Y-78048811D01*
X59414284Y-77905954D01*
X59461903Y-77715478D01*
X59509522Y-77620240D01*
X59604760Y-77525002D01*
X59747618Y-77477382D01*
X59842856Y-77477382D01*
X59985713Y-77525002D01*
X60033332Y-77572621D01*
X60938094Y-77477382D02*
X60461903Y-77477382D01*
X60414284Y-77953573D01*
X60461903Y-77905954D01*
X60557141Y-77858335D01*
X60795237Y-77858335D01*
X60890475Y-77905954D01*
X60938094Y-77953573D01*
X60985713Y-78048811D01*
X60985713Y-78286906D01*
X60938094Y-78382144D01*
X60890475Y-78429763D01*
X60795237Y-78477382D01*
X60557141Y-78477382D01*
X60461903Y-78429763D01*
X60414284Y-78382144D01*
X39608332Y-61477379D02*
X39274999Y-61001189D01*
X39036903Y-61477379D02*
X39036903Y-60477379D01*
X39417856Y-60477379D01*
X39513094Y-60524999D01*
X39560713Y-60572618D01*
X39608332Y-60667856D01*
X39608332Y-60810713D01*
X39560713Y-60905951D01*
X39513094Y-60953570D01*
X39417856Y-61001189D01*
X39036903Y-61001189D01*
X39941665Y-60477379D02*
X40560713Y-60477379D01*
X40227379Y-60858332D01*
X40370237Y-60858332D01*
X40465475Y-60905951D01*
X40513094Y-60953570D01*
X40560713Y-61048808D01*
X40560713Y-61286903D01*
X40513094Y-61382141D01*
X40465475Y-61429760D01*
X40370237Y-61477379D01*
X40084522Y-61477379D01*
X39989284Y-61429760D01*
X39941665Y-61382141D01*
X38022618Y-88258335D02*
X38022618Y-87782144D01*
X39022618Y-87782144D01*
X38117856Y-89163097D02*
X38070237Y-89115478D01*
X38022618Y-88972621D01*
X38022618Y-88877382D01*
X38070237Y-88734525D01*
X38165475Y-88639287D01*
X38260713Y-88591668D01*
X38451189Y-88544049D01*
X38594046Y-88544049D01*
X38784522Y-88591668D01*
X38879760Y-88639287D01*
X38974999Y-88734525D01*
X39022618Y-88877382D01*
X39022618Y-88972621D01*
X38974999Y-89115478D01*
X38927379Y-89163097D01*
X38022618Y-89591668D02*
X39022618Y-89591668D01*
X39022618Y-89829763D01*
X38974999Y-89972621D01*
X38879760Y-90067859D01*
X38784522Y-90115478D01*
X38594046Y-90163097D01*
X38451189Y-90163097D01*
X38260713Y-90115478D01*
X38165475Y-90067859D01*
X38070237Y-89972621D01*
X38022618Y-89829763D01*
X38022618Y-89591668D01*
X38022618Y-91115478D02*
X38022618Y-90544049D01*
X38022618Y-90829763D02*
X39022618Y-90829763D01*
X38879760Y-90734525D01*
X38784522Y-90639287D01*
X38736903Y-90544049D01*
X48238094Y-71827382D02*
X48238094Y-72636906D01*
X48285713Y-72732144D01*
X48333332Y-72779763D01*
X48428570Y-72827382D01*
X48619046Y-72827382D01*
X48714284Y-72779763D01*
X48761903Y-72732144D01*
X48809522Y-72636906D01*
X48809522Y-71827382D01*
X49809522Y-72827382D02*
X49238094Y-72827382D01*
X49523808Y-72827382D02*
X49523808Y-71827382D01*
X49428570Y-71970240D01*
X49333332Y-72065478D01*
X49238094Y-72113097D01*
X44288094Y-74416668D02*
X44764284Y-74416668D01*
X44192856Y-74702382D02*
X44526189Y-73702382D01*
X44859522Y-74702382D01*
X45192856Y-74035716D02*
X45192856Y-74702382D01*
X45192856Y-74130954D02*
X45240475Y-74083335D01*
X45335713Y-74035716D01*
X45478570Y-74035716D01*
X45573808Y-74083335D01*
X45621427Y-74178573D01*
X45621427Y-74702382D01*
X45954760Y-74035716D02*
X46335713Y-74035716D01*
X46097618Y-73702382D02*
X46097618Y-74559525D01*
X46145237Y-74654763D01*
X46240475Y-74702382D01*
X46335713Y-74702382D01*
X47049999Y-74654763D02*
X46954760Y-74702382D01*
X46764284Y-74702382D01*
X46669046Y-74654763D01*
X46621427Y-74559525D01*
X46621427Y-74178573D01*
X46669046Y-74083335D01*
X46764284Y-74035716D01*
X46954760Y-74035716D01*
X47049999Y-74083335D01*
X47097618Y-74178573D01*
X47097618Y-74273811D01*
X46621427Y-74369049D01*
X47526189Y-74035716D02*
X47526189Y-74702382D01*
X47526189Y-74130954D02*
X47573808Y-74083335D01*
X47669046Y-74035716D01*
X47811903Y-74035716D01*
X47907141Y-74083335D01*
X47954760Y-74178573D01*
X47954760Y-74702382D01*
X48430951Y-74035716D02*
X48430951Y-74702382D01*
X48430951Y-74130954D02*
X48478570Y-74083335D01*
X48573808Y-74035716D01*
X48716665Y-74035716D01*
X48811903Y-74083335D01*
X48859522Y-74178573D01*
X48859522Y-74702382D01*
X49764284Y-74702382D02*
X49764284Y-74178573D01*
X49716665Y-74083335D01*
X49621427Y-74035716D01*
X49430951Y-74035716D01*
X49335713Y-74083335D01*
X49764284Y-74654763D02*
X49669046Y-74702382D01*
X49430951Y-74702382D01*
X49335713Y-74654763D01*
X49288094Y-74559525D01*
X49288094Y-74464287D01*
X49335713Y-74369049D01*
X49430951Y-74321430D01*
X49669046Y-74321430D01*
X49764284Y-74273811D01*
X50954760Y-74416668D02*
X51430951Y-74416668D01*
X50859522Y-74702382D02*
X51192856Y-73702382D01*
X51526189Y-74702382D01*
X51859522Y-74702382D02*
X51859522Y-74035716D01*
X51859522Y-74226192D02*
X51907141Y-74130954D01*
X51954760Y-74083335D01*
X52049999Y-74035716D01*
X52145237Y-74035716D01*
X52859522Y-74654763D02*
X52764284Y-74702382D01*
X52573808Y-74702382D01*
X52478570Y-74654763D01*
X52430951Y-74559525D01*
X52430951Y-74178573D01*
X52478570Y-74083335D01*
X52573808Y-74035716D01*
X52764284Y-74035716D01*
X52859522Y-74083335D01*
X52907141Y-74178573D01*
X52907141Y-74273811D01*
X52430951Y-74369049D01*
X53764284Y-74702382D02*
X53764284Y-74178573D01*
X53716665Y-74083335D01*
X53621427Y-74035716D01*
X53430951Y-74035716D01*
X53335713Y-74083335D01*
X53764284Y-74654763D02*
X53669046Y-74702382D01*
X53430951Y-74702382D01*
X53335713Y-74654763D01*
X53288094Y-74559525D01*
X53288094Y-74464287D01*
X53335713Y-74369049D01*
X53430951Y-74321430D01*
X53669046Y-74321430D01*
X53764284Y-74273811D01*
X73004763Y-102872621D02*
X72909525Y-102825002D01*
X72814287Y-102729763D01*
X72671430Y-102586906D01*
X72576192Y-102539287D01*
X72480954Y-102539287D01*
X72528573Y-102777382D02*
X72433335Y-102729763D01*
X72338097Y-102634525D01*
X72290478Y-102444049D01*
X72290478Y-102110716D01*
X72338097Y-101920240D01*
X72433335Y-101825002D01*
X72528573Y-101777382D01*
X72719049Y-101777382D01*
X72814287Y-101825002D01*
X72909525Y-101920240D01*
X72957144Y-102110716D01*
X72957144Y-102444049D01*
X72909525Y-102634525D01*
X72814287Y-102729763D01*
X72719049Y-102777382D01*
X72528573Y-102777382D01*
X73909525Y-102777382D02*
X73338097Y-102777382D01*
X73623811Y-102777382D02*
X73623811Y-101777382D01*
X73528573Y-101920240D01*
X73433335Y-102015478D01*
X73338097Y-102063097D01*
X104842382Y-51508332D02*
X105556668Y-51508332D01*
X105699525Y-51555951D01*
X105794763Y-51651189D01*
X105842382Y-51794046D01*
X105842382Y-51889284D01*
X104937621Y-51079760D02*
X104890002Y-51032141D01*
X104842382Y-50936903D01*
X104842382Y-50698808D01*
X104890002Y-50603570D01*
X104937621Y-50555951D01*
X105032859Y-50508332D01*
X105128097Y-50508332D01*
X105270954Y-50555951D01*
X105842382Y-51127379D01*
X105842382Y-50508332D01*
X34504760Y-65872618D02*
X34409522Y-65824999D01*
X34314284Y-65729760D01*
X34171427Y-65586903D01*
X34076189Y-65539284D01*
X33980951Y-65539284D01*
X34028570Y-65777379D02*
X33933332Y-65729760D01*
X33838094Y-65634522D01*
X33790475Y-65444046D01*
X33790475Y-65110713D01*
X33838094Y-64920237D01*
X33933332Y-64824999D01*
X34028570Y-64777379D01*
X34219046Y-64777379D01*
X34314284Y-64824999D01*
X34409522Y-64920237D01*
X34457141Y-65110713D01*
X34457141Y-65444046D01*
X34409522Y-65634522D01*
X34314284Y-65729760D01*
X34219046Y-65777379D01*
X34028570Y-65777379D01*
X35409522Y-65777379D02*
X34838094Y-65777379D01*
X35123808Y-65777379D02*
X35123808Y-64777379D01*
X35028570Y-64920237D01*
X34933332Y-65015475D01*
X34838094Y-65063094D01*
X86738097Y-34827379D02*
X86738097Y-35636903D01*
X86785716Y-35732141D01*
X86833335Y-35779760D01*
X86928573Y-35827379D01*
X87119049Y-35827379D01*
X87214287Y-35779760D01*
X87261906Y-35732141D01*
X87309525Y-35636903D01*
X87309525Y-34827379D01*
X88309525Y-35827379D02*
X87738097Y-35827379D01*
X88023811Y-35827379D02*
X88023811Y-34827379D01*
X87928573Y-34970237D01*
X87833335Y-35065475D01*
X87738097Y-35113094D01*
X82788097Y-37416665D02*
X83264287Y-37416665D01*
X82692859Y-37702379D02*
X83026192Y-36702379D01*
X83359525Y-37702379D01*
X83692859Y-37035713D02*
X83692859Y-37702379D01*
X83692859Y-37130951D02*
X83740478Y-37083332D01*
X83835716Y-37035713D01*
X83978573Y-37035713D01*
X84073811Y-37083332D01*
X84121430Y-37178570D01*
X84121430Y-37702379D01*
X84454763Y-37035713D02*
X84835716Y-37035713D01*
X84597621Y-36702379D02*
X84597621Y-37559522D01*
X84645240Y-37654760D01*
X84740478Y-37702379D01*
X84835716Y-37702379D01*
X85550002Y-37654760D02*
X85454763Y-37702379D01*
X85264287Y-37702379D01*
X85169049Y-37654760D01*
X85121430Y-37559522D01*
X85121430Y-37178570D01*
X85169049Y-37083332D01*
X85264287Y-37035713D01*
X85454763Y-37035713D01*
X85550002Y-37083332D01*
X85597621Y-37178570D01*
X85597621Y-37273808D01*
X85121430Y-37369046D01*
X86026192Y-37035713D02*
X86026192Y-37702379D01*
X86026192Y-37130951D02*
X86073811Y-37083332D01*
X86169049Y-37035713D01*
X86311906Y-37035713D01*
X86407144Y-37083332D01*
X86454763Y-37178570D01*
X86454763Y-37702379D01*
X86930954Y-37035713D02*
X86930954Y-37702379D01*
X86930954Y-37130951D02*
X86978573Y-37083332D01*
X87073811Y-37035713D01*
X87216668Y-37035713D01*
X87311906Y-37083332D01*
X87359525Y-37178570D01*
X87359525Y-37702379D01*
X88264287Y-37702379D02*
X88264287Y-37178570D01*
X88216668Y-37083332D01*
X88121430Y-37035713D01*
X87930954Y-37035713D01*
X87835716Y-37083332D01*
X88264287Y-37654760D02*
X88169049Y-37702379D01*
X87930954Y-37702379D01*
X87835716Y-37654760D01*
X87788097Y-37559522D01*
X87788097Y-37464284D01*
X87835716Y-37369046D01*
X87930954Y-37321427D01*
X88169049Y-37321427D01*
X88264287Y-37273808D01*
X89454763Y-37416665D02*
X89930954Y-37416665D01*
X89359525Y-37702379D02*
X89692859Y-36702379D01*
X90026192Y-37702379D01*
X90359525Y-37702379D02*
X90359525Y-37035713D01*
X90359525Y-37226189D02*
X90407144Y-37130951D01*
X90454763Y-37083332D01*
X90550002Y-37035713D01*
X90645240Y-37035713D01*
X91359525Y-37654760D02*
X91264287Y-37702379D01*
X91073811Y-37702379D01*
X90978573Y-37654760D01*
X90930954Y-37559522D01*
X90930954Y-37178570D01*
X90978573Y-37083332D01*
X91073811Y-37035713D01*
X91264287Y-37035713D01*
X91359525Y-37083332D01*
X91407144Y-37178570D01*
X91407144Y-37273808D01*
X90930954Y-37369046D01*
X92264287Y-37702379D02*
X92264287Y-37178570D01*
X92216668Y-37083332D01*
X92121430Y-37035713D01*
X91930954Y-37035713D01*
X91835716Y-37083332D01*
X92264287Y-37654760D02*
X92169049Y-37702379D01*
X91930954Y-37702379D01*
X91835716Y-37654760D01*
X91788097Y-37559522D01*
X91788097Y-37464284D01*
X91835716Y-37369046D01*
X91930954Y-37321427D01*
X92169049Y-37321427D01*
X92264287Y-37273808D01*
X39352379Y-95366668D02*
X38876189Y-95700002D01*
X39352379Y-95938097D02*
X38352379Y-95938097D01*
X38352379Y-95557144D01*
X38399999Y-95461906D01*
X38447618Y-95414287D01*
X38542856Y-95366668D01*
X38685713Y-95366668D01*
X38780951Y-95414287D01*
X38828570Y-95461906D01*
X38876189Y-95557144D01*
X38876189Y-95938097D01*
X38685713Y-94509525D02*
X39352379Y-94509525D01*
X38304760Y-94747621D02*
X39019046Y-94985716D01*
X39019046Y-94366668D01*
X94116668Y-47502379D02*
X94116668Y-48216665D01*
X94069049Y-48359522D01*
X93973811Y-48454760D01*
X93830954Y-48502379D01*
X93735716Y-48502379D01*
X95116668Y-48502379D02*
X94545240Y-48502379D01*
X94830954Y-48502379D02*
X94830954Y-47502379D01*
X94735716Y-47645237D01*
X94640478Y-47740475D01*
X94545240Y-47788094D01*
X86738097Y-71827382D02*
X86738097Y-72636906D01*
X86785716Y-72732144D01*
X86833335Y-72779763D01*
X86928573Y-72827382D01*
X87119049Y-72827382D01*
X87214287Y-72779763D01*
X87261906Y-72732144D01*
X87309525Y-72636906D01*
X87309525Y-71827382D01*
X88309525Y-72827382D02*
X87738097Y-72827382D01*
X88023811Y-72827382D02*
X88023811Y-71827382D01*
X87928573Y-71970240D01*
X87833335Y-72065478D01*
X87738097Y-72113097D01*
X82788097Y-74416668D02*
X83264287Y-74416668D01*
X82692859Y-74702382D02*
X83026192Y-73702382D01*
X83359525Y-74702382D01*
X83692859Y-74035716D02*
X83692859Y-74702382D01*
X83692859Y-74130954D02*
X83740478Y-74083335D01*
X83835716Y-74035716D01*
X83978573Y-74035716D01*
X84073811Y-74083335D01*
X84121430Y-74178573D01*
X84121430Y-74702382D01*
X84454763Y-74035716D02*
X84835716Y-74035716D01*
X84597621Y-73702382D02*
X84597621Y-74559525D01*
X84645240Y-74654763D01*
X84740478Y-74702382D01*
X84835716Y-74702382D01*
X85550002Y-74654763D02*
X85454763Y-74702382D01*
X85264287Y-74702382D01*
X85169049Y-74654763D01*
X85121430Y-74559525D01*
X85121430Y-74178573D01*
X85169049Y-74083335D01*
X85264287Y-74035716D01*
X85454763Y-74035716D01*
X85550002Y-74083335D01*
X85597621Y-74178573D01*
X85597621Y-74273811D01*
X85121430Y-74369049D01*
X86026192Y-74035716D02*
X86026192Y-74702382D01*
X86026192Y-74130954D02*
X86073811Y-74083335D01*
X86169049Y-74035716D01*
X86311906Y-74035716D01*
X86407144Y-74083335D01*
X86454763Y-74178573D01*
X86454763Y-74702382D01*
X86930954Y-74035716D02*
X86930954Y-74702382D01*
X86930954Y-74130954D02*
X86978573Y-74083335D01*
X87073811Y-74035716D01*
X87216668Y-74035716D01*
X87311906Y-74083335D01*
X87359525Y-74178573D01*
X87359525Y-74702382D01*
X88264287Y-74702382D02*
X88264287Y-74178573D01*
X88216668Y-74083335D01*
X88121430Y-74035716D01*
X87930954Y-74035716D01*
X87835716Y-74083335D01*
X88264287Y-74654763D02*
X88169049Y-74702382D01*
X87930954Y-74702382D01*
X87835716Y-74654763D01*
X87788097Y-74559525D01*
X87788097Y-74464287D01*
X87835716Y-74369049D01*
X87930954Y-74321430D01*
X88169049Y-74321430D01*
X88264287Y-74273811D01*
X89454763Y-74416668D02*
X89930954Y-74416668D01*
X89359525Y-74702382D02*
X89692859Y-73702382D01*
X90026192Y-74702382D01*
X90359525Y-74702382D02*
X90359525Y-74035716D01*
X90359525Y-74226192D02*
X90407144Y-74130954D01*
X90454763Y-74083335D01*
X90550002Y-74035716D01*
X90645240Y-74035716D01*
X91359525Y-74654763D02*
X91264287Y-74702382D01*
X91073811Y-74702382D01*
X90978573Y-74654763D01*
X90930954Y-74559525D01*
X90930954Y-74178573D01*
X90978573Y-74083335D01*
X91073811Y-74035716D01*
X91264287Y-74035716D01*
X91359525Y-74083335D01*
X91407144Y-74178573D01*
X91407144Y-74273811D01*
X90930954Y-74369049D01*
X92264287Y-74702382D02*
X92264287Y-74178573D01*
X92216668Y-74083335D01*
X92121430Y-74035716D01*
X91930954Y-74035716D01*
X91835716Y-74083335D01*
X92264287Y-74654763D02*
X92169049Y-74702382D01*
X91930954Y-74702382D01*
X91835716Y-74654763D01*
X91788097Y-74559525D01*
X91788097Y-74464287D01*
X91835716Y-74369049D01*
X91930954Y-74321430D01*
X92169049Y-74321430D01*
X92264287Y-74273811D01*
X38022618Y-51258332D02*
X38022618Y-50782141D01*
X39022618Y-50782141D01*
X38117856Y-52163094D02*
X38070237Y-52115475D01*
X38022618Y-51972618D01*
X38022618Y-51877379D01*
X38070237Y-51734522D01*
X38165475Y-51639284D01*
X38260713Y-51591665D01*
X38451189Y-51544046D01*
X38594046Y-51544046D01*
X38784522Y-51591665D01*
X38879760Y-51639284D01*
X38974999Y-51734522D01*
X39022618Y-51877379D01*
X39022618Y-51972618D01*
X38974999Y-52115475D01*
X38927379Y-52163094D01*
X38022618Y-52591665D02*
X39022618Y-52591665D01*
X39022618Y-52829760D01*
X38974999Y-52972618D01*
X38879760Y-53067856D01*
X38784522Y-53115475D01*
X38594046Y-53163094D01*
X38451189Y-53163094D01*
X38260713Y-53115475D01*
X38165475Y-53067856D01*
X38070237Y-52972618D01*
X38022618Y-52829760D01*
X38022618Y-52591665D01*
X38022618Y-54115475D02*
X38022618Y-53544046D01*
X38022618Y-53829760D02*
X39022618Y-53829760D01*
X38879760Y-53734522D01*
X38784522Y-53639284D01*
X38736903Y-53544046D01*
X57658332Y-65669641D02*
X57610713Y-65717260D01*
X57467856Y-65764879D01*
X57372618Y-65764879D01*
X57229760Y-65717260D01*
X57134522Y-65622022D01*
X57086903Y-65526784D01*
X57039284Y-65336308D01*
X57039284Y-65193451D01*
X57086903Y-65002975D01*
X57134522Y-64907737D01*
X57229760Y-64812499D01*
X57372618Y-64764879D01*
X57467856Y-64764879D01*
X57610713Y-64812499D01*
X57658332Y-64860118D01*
X58515475Y-64764879D02*
X58324999Y-64764879D01*
X58229760Y-64812499D01*
X58182141Y-64860118D01*
X58086903Y-65002975D01*
X58039284Y-65193451D01*
X58039284Y-65574403D01*
X58086903Y-65669641D01*
X58134522Y-65717260D01*
X58229760Y-65764879D01*
X58420237Y-65764879D01*
X58515475Y-65717260D01*
X58563094Y-65669641D01*
X58610713Y-65574403D01*
X58610713Y-65336308D01*
X58563094Y-65241070D01*
X58515475Y-65193451D01*
X58420237Y-65145832D01*
X58229760Y-65145832D01*
X58134522Y-65193451D01*
X58086903Y-65241070D01*
X58039284Y-65336308D01*
X77852382Y-95366668D02*
X77376192Y-95700002D01*
X77852382Y-95938097D02*
X76852382Y-95938097D01*
X76852382Y-95557144D01*
X76900002Y-95461906D01*
X76947621Y-95414287D01*
X77042859Y-95366668D01*
X77185716Y-95366668D01*
X77280954Y-95414287D01*
X77328573Y-95461906D01*
X77376192Y-95557144D01*
X77376192Y-95938097D01*
X77185716Y-94509525D02*
X77852382Y-94509525D01*
X76804763Y-94747621D02*
X77519049Y-94985716D01*
X77519049Y-94366668D01*
X55208332Y-102707144D02*
X55160713Y-102754763D01*
X55017856Y-102802382D01*
X54922618Y-102802382D01*
X54779760Y-102754763D01*
X54684522Y-102659525D01*
X54636903Y-102564287D01*
X54589284Y-102373811D01*
X54589284Y-102230954D01*
X54636903Y-102040478D01*
X54684522Y-101945240D01*
X54779760Y-101850002D01*
X54922618Y-101802382D01*
X55017856Y-101802382D01*
X55160713Y-101850002D01*
X55208332Y-101897621D01*
X55541665Y-101802382D02*
X56208332Y-101802382D01*
X55779760Y-102802382D01*
X73004763Y-65872618D02*
X72909525Y-65824999D01*
X72814287Y-65729760D01*
X72671430Y-65586903D01*
X72576192Y-65539284D01*
X72480954Y-65539284D01*
X72528573Y-65777379D02*
X72433335Y-65729760D01*
X72338097Y-65634522D01*
X72290478Y-65444046D01*
X72290478Y-65110713D01*
X72338097Y-64920237D01*
X72433335Y-64824999D01*
X72528573Y-64777379D01*
X72719049Y-64777379D01*
X72814287Y-64824999D01*
X72909525Y-64920237D01*
X72957144Y-65110713D01*
X72957144Y-65444046D01*
X72909525Y-65634522D01*
X72814287Y-65729760D01*
X72719049Y-65777379D01*
X72528573Y-65777379D01*
X73909525Y-65777379D02*
X73338097Y-65777379D01*
X73623811Y-65777379D02*
X73623811Y-64777379D01*
X73528573Y-64920237D01*
X73433335Y-65015475D01*
X73338097Y-65063094D01*
X82858335Y-98707144D02*
X82810716Y-98754763D01*
X82667859Y-98802382D01*
X82572621Y-98802382D01*
X82429763Y-98754763D01*
X82334525Y-98659525D01*
X82286906Y-98564287D01*
X82239287Y-98373811D01*
X82239287Y-98230954D01*
X82286906Y-98040478D01*
X82334525Y-97945240D01*
X82429763Y-97850002D01*
X82572621Y-97802382D01*
X82667859Y-97802382D01*
X82810716Y-97850002D01*
X82858335Y-97897621D01*
X83810716Y-98802382D02*
X83239287Y-98802382D01*
X83525002Y-98802382D02*
X83525002Y-97802382D01*
X83429763Y-97945240D01*
X83334525Y-98040478D01*
X83239287Y-98088097D01*
X55616665Y-47502379D02*
X55616665Y-48216665D01*
X55569046Y-48359522D01*
X55473808Y-48454760D01*
X55330951Y-48502379D01*
X55235713Y-48502379D01*
X56616665Y-48502379D02*
X56045237Y-48502379D01*
X56330951Y-48502379D02*
X56330951Y-47502379D01*
X56235713Y-47645237D01*
X56140475Y-47740475D01*
X56045237Y-47788094D01*
X93708335Y-65707141D02*
X93660716Y-65754760D01*
X93517859Y-65802379D01*
X93422621Y-65802379D01*
X93279763Y-65754760D01*
X93184525Y-65659522D01*
X93136906Y-65564284D01*
X93089287Y-65373808D01*
X93089287Y-65230951D01*
X93136906Y-65040475D01*
X93184525Y-64945237D01*
X93279763Y-64849999D01*
X93422621Y-64802379D01*
X93517859Y-64802379D01*
X93660716Y-64849999D01*
X93708335Y-64897618D01*
X94041668Y-64802379D02*
X94708335Y-64802379D01*
X94279763Y-65802379D01*
X34277379Y-62716665D02*
X33801189Y-63049999D01*
X34277379Y-63288094D02*
X33277379Y-63288094D01*
X33277379Y-62907141D01*
X33324999Y-62811903D01*
X33372618Y-62764284D01*
X33467856Y-62716665D01*
X33610713Y-62716665D01*
X33705951Y-62764284D01*
X33753570Y-62811903D01*
X33801189Y-62907141D01*
X33801189Y-63288094D01*
X33372618Y-62335713D02*
X33324999Y-62288094D01*
X33277379Y-62192856D01*
X33277379Y-61954760D01*
X33324999Y-61859522D01*
X33372618Y-61811903D01*
X33467856Y-61764284D01*
X33563094Y-61764284D01*
X33705951Y-61811903D01*
X34277379Y-62383332D01*
X34277379Y-61764284D01*
X55616665Y-84502382D02*
X55616665Y-85216668D01*
X55569046Y-85359525D01*
X55473808Y-85454763D01*
X55330951Y-85502382D01*
X55235713Y-85502382D01*
X56616665Y-85502382D02*
X56045237Y-85502382D01*
X56330951Y-85502382D02*
X56330951Y-84502382D01*
X56235713Y-84645240D01*
X56140475Y-84740478D01*
X56045237Y-84788097D01*
X100827382Y-99386906D02*
X101636906Y-99386906D01*
X101732144Y-99339287D01*
X101779763Y-99291668D01*
X101827382Y-99196430D01*
X101827382Y-99005954D01*
X101779763Y-98910716D01*
X101732144Y-98863097D01*
X101636906Y-98815478D01*
X100827382Y-98815478D01*
X100922621Y-98386906D02*
X100875002Y-98339287D01*
X100827382Y-98244049D01*
X100827382Y-98005954D01*
X100875002Y-97910716D01*
X100922621Y-97863097D01*
X101017859Y-97815478D01*
X101113097Y-97815478D01*
X101255954Y-97863097D01*
X101827382Y-98434525D01*
X101827382Y-97815478D01*
X62708332Y-78377382D02*
X62374999Y-77901192D01*
X62136903Y-78377382D02*
X62136903Y-77377382D01*
X62517856Y-77377382D01*
X62613094Y-77425002D01*
X62660713Y-77472621D01*
X62708332Y-77567859D01*
X62708332Y-77710716D01*
X62660713Y-77805954D01*
X62613094Y-77853573D01*
X62517856Y-77901192D01*
X62136903Y-77901192D01*
X63613094Y-77377382D02*
X63136903Y-77377382D01*
X63089284Y-77853573D01*
X63136903Y-77805954D01*
X63232141Y-77758335D01*
X63470237Y-77758335D01*
X63565475Y-77805954D01*
X63613094Y-77853573D01*
X63660713Y-77948811D01*
X63660713Y-78186906D01*
X63613094Y-78282144D01*
X63565475Y-78329763D01*
X63470237Y-78377382D01*
X63232141Y-78377382D01*
X63136903Y-78329763D01*
X63089284Y-78282144D01*
X77552382Y-44616665D02*
X77076192Y-44949999D01*
X77552382Y-45188094D02*
X76552382Y-45188094D01*
X76552382Y-44807141D01*
X76600002Y-44711903D01*
X76647621Y-44664284D01*
X76742859Y-44616665D01*
X76885716Y-44616665D01*
X76980954Y-44664284D01*
X77028573Y-44711903D01*
X77076192Y-44807141D01*
X77076192Y-45188094D01*
X77552382Y-43664284D02*
X77552382Y-44235713D01*
X77552382Y-43949999D02*
X76552382Y-43949999D01*
X76695240Y-44045237D01*
X76790478Y-44140475D01*
X76838097Y-44235713D01*
X104842382Y-88508335D02*
X105556668Y-88508335D01*
X105699525Y-88555954D01*
X105794763Y-88651192D01*
X105842382Y-88794049D01*
X105842382Y-88889287D01*
X104937621Y-88079763D02*
X104890002Y-88032144D01*
X104842382Y-87936906D01*
X104842382Y-87698811D01*
X104890002Y-87603573D01*
X104937621Y-87555954D01*
X105032859Y-87508335D01*
X105128097Y-87508335D01*
X105270954Y-87555954D01*
X105842382Y-88127382D01*
X105842382Y-87508335D01*
X77852382Y-58366665D02*
X77376192Y-58699999D01*
X77852382Y-58938094D02*
X76852382Y-58938094D01*
X76852382Y-58557141D01*
X76900002Y-58461903D01*
X76947621Y-58414284D01*
X77042859Y-58366665D01*
X77185716Y-58366665D01*
X77280954Y-58414284D01*
X77328573Y-58461903D01*
X77376192Y-58557141D01*
X77376192Y-58938094D01*
X77185716Y-57509522D02*
X77852382Y-57509522D01*
X76804763Y-57747618D02*
X77519049Y-57985713D01*
X77519049Y-57366665D01*
X100827382Y-62386903D02*
X101636906Y-62386903D01*
X101732144Y-62339284D01*
X101779763Y-62291665D01*
X101827382Y-62196427D01*
X101827382Y-62005951D01*
X101779763Y-61910713D01*
X101732144Y-61863094D01*
X101636906Y-61815475D01*
X100827382Y-61815475D01*
X100922621Y-61386903D02*
X100875002Y-61339284D01*
X100827382Y-61244046D01*
X100827382Y-61005951D01*
X100875002Y-60910713D01*
X100922621Y-60863094D01*
X101017859Y-60815475D01*
X101113097Y-60815475D01*
X101255954Y-60863094D01*
X101827382Y-61434522D01*
X101827382Y-60815475D01*
X82858335Y-61707141D02*
X82810716Y-61754760D01*
X82667859Y-61802379D01*
X82572621Y-61802379D01*
X82429763Y-61754760D01*
X82334525Y-61659522D01*
X82286906Y-61564284D01*
X82239287Y-61373808D01*
X82239287Y-61230951D01*
X82286906Y-61040475D01*
X82334525Y-60945237D01*
X82429763Y-60849999D01*
X82572621Y-60802379D01*
X82667859Y-60802379D01*
X82810716Y-60849999D01*
X82858335Y-60897618D01*
X83810716Y-61802379D02*
X83239287Y-61802379D01*
X83525002Y-61802379D02*
X83525002Y-60802379D01*
X83429763Y-60945237D01*
X83334525Y-61040475D01*
X83239287Y-61088094D01*
X96158335Y-102669644D02*
X96110716Y-102717263D01*
X95967859Y-102764882D01*
X95872621Y-102764882D01*
X95729763Y-102717263D01*
X95634525Y-102622025D01*
X95586906Y-102526787D01*
X95539287Y-102336311D01*
X95539287Y-102193454D01*
X95586906Y-102002978D01*
X95634525Y-101907740D01*
X95729763Y-101812502D01*
X95872621Y-101764882D01*
X95967859Y-101764882D01*
X96110716Y-101812502D01*
X96158335Y-101860121D01*
X97015478Y-101764882D02*
X96825002Y-101764882D01*
X96729763Y-101812502D01*
X96682144Y-101860121D01*
X96586906Y-102002978D01*
X96539287Y-102193454D01*
X96539287Y-102574406D01*
X96586906Y-102669644D01*
X96634525Y-102717263D01*
X96729763Y-102764882D01*
X96920240Y-102764882D01*
X97015478Y-102717263D01*
X97063097Y-102669644D01*
X97110716Y-102574406D01*
X97110716Y-102336311D01*
X97063097Y-102241073D01*
X97015478Y-102193454D01*
X96920240Y-102145835D01*
X96729763Y-102145835D01*
X96634525Y-102193454D01*
X96586906Y-102241073D01*
X96539287Y-102336311D01*
X78108335Y-98477382D02*
X77775002Y-98001192D01*
X77536906Y-98477382D02*
X77536906Y-97477382D01*
X77917859Y-97477382D01*
X78013097Y-97525002D01*
X78060716Y-97572621D01*
X78108335Y-97667859D01*
X78108335Y-97810716D01*
X78060716Y-97905954D01*
X78013097Y-97953573D01*
X77917859Y-98001192D01*
X77536906Y-98001192D01*
X78441668Y-97477382D02*
X79060716Y-97477382D01*
X78727382Y-97858335D01*
X78870240Y-97858335D01*
X78965478Y-97905954D01*
X79013097Y-97953573D01*
X79060716Y-98048811D01*
X79060716Y-98286906D01*
X79013097Y-98382144D01*
X78965478Y-98429763D01*
X78870240Y-98477382D01*
X78584525Y-98477382D01*
X78489287Y-98429763D01*
X78441668Y-98382144D01*
X94116668Y-84502382D02*
X94116668Y-85216668D01*
X94069049Y-85359525D01*
X93973811Y-85454763D01*
X93830954Y-85502382D01*
X93735716Y-85502382D01*
X95116668Y-85502382D02*
X94545240Y-85502382D01*
X94830954Y-85502382D02*
X94830954Y-84502382D01*
X94735716Y-84645240D01*
X94640478Y-84740478D01*
X94545240Y-84788097D01*
X50436903Y-99052382D02*
X50436903Y-98052382D01*
X50674999Y-98052382D01*
X50817856Y-98100002D01*
X50913094Y-98195240D01*
X50960713Y-98290478D01*
X51008332Y-98480954D01*
X51008332Y-98623811D01*
X50960713Y-98814287D01*
X50913094Y-98909525D01*
X50817856Y-99004763D01*
X50674999Y-99052382D01*
X50436903Y-99052382D01*
X51960713Y-99052382D02*
X51389284Y-99052382D01*
X51674999Y-99052382D02*
X51674999Y-98052382D01*
X51579760Y-98195240D01*
X51484522Y-98290478D01*
X51389284Y-98338097D01*
X101208335Y-41377379D02*
X100875002Y-40901189D01*
X100636906Y-41377379D02*
X100636906Y-40377379D01*
X101017859Y-40377379D01*
X101113097Y-40424999D01*
X101160716Y-40472618D01*
X101208335Y-40567856D01*
X101208335Y-40710713D01*
X101160716Y-40805951D01*
X101113097Y-40853570D01*
X101017859Y-40901189D01*
X100636906Y-40901189D01*
X102113097Y-40377379D02*
X101636906Y-40377379D01*
X101589287Y-40853570D01*
X101636906Y-40805951D01*
X101732144Y-40758332D01*
X101970240Y-40758332D01*
X102065478Y-40805951D01*
X102113097Y-40853570D01*
X102160716Y-40948808D01*
X102160716Y-41186903D01*
X102113097Y-41282141D01*
X102065478Y-41329760D01*
X101970240Y-41377379D01*
X101732144Y-41377379D01*
X101636906Y-41329760D01*
X101589287Y-41282141D01*
X98533335Y-41382141D02*
X98485716Y-41429760D01*
X98342859Y-41477379D01*
X98247621Y-41477379D01*
X98104763Y-41429760D01*
X98009525Y-41334522D01*
X97961906Y-41239284D01*
X97914287Y-41048808D01*
X97914287Y-40905951D01*
X97961906Y-40715475D01*
X98009525Y-40620237D01*
X98104763Y-40524999D01*
X98247621Y-40477379D01*
X98342859Y-40477379D01*
X98485716Y-40524999D01*
X98533335Y-40572618D01*
X99438097Y-40477379D02*
X98961906Y-40477379D01*
X98914287Y-40953570D01*
X98961906Y-40905951D01*
X99057144Y-40858332D01*
X99295240Y-40858332D01*
X99390478Y-40905951D01*
X99438097Y-40953570D01*
X99485716Y-41048808D01*
X99485716Y-41286903D01*
X99438097Y-41382141D01*
X99390478Y-41429760D01*
X99295240Y-41477379D01*
X99057144Y-41477379D01*
X98961906Y-41429760D01*
X98914287Y-41382141D01*
X62708332Y-41377379D02*
X62374999Y-40901189D01*
X62136903Y-41377379D02*
X62136903Y-40377379D01*
X62517856Y-40377379D01*
X62613094Y-40424999D01*
X62660713Y-40472618D01*
X62708332Y-40567856D01*
X62708332Y-40710713D01*
X62660713Y-40805951D01*
X62613094Y-40853570D01*
X62517856Y-40901189D01*
X62136903Y-40901189D01*
X63613094Y-40377379D02*
X63136903Y-40377379D01*
X63089284Y-40853570D01*
X63136903Y-40805951D01*
X63232141Y-40758332D01*
X63470237Y-40758332D01*
X63565475Y-40805951D01*
X63613094Y-40853570D01*
X63660713Y-40948808D01*
X63660713Y-41186903D01*
X63613094Y-41282141D01*
X63565475Y-41329760D01*
X63470237Y-41377379D01*
X63232141Y-41377379D01*
X63136903Y-41329760D01*
X63089284Y-41282141D01*
X39052379Y-44616665D02*
X38576189Y-44949999D01*
X39052379Y-45188094D02*
X38052379Y-45188094D01*
X38052379Y-44807141D01*
X38099999Y-44711903D01*
X38147618Y-44664284D01*
X38242856Y-44616665D01*
X38385713Y-44616665D01*
X38480951Y-44664284D01*
X38528570Y-44711903D01*
X38576189Y-44807141D01*
X38576189Y-45188094D01*
X39052379Y-43664284D02*
X39052379Y-44235713D01*
X39052379Y-43949999D02*
X38052379Y-43949999D01*
X38195237Y-44045237D01*
X38290475Y-44140475D01*
X38338094Y-44235713D01*
X42083332Y-61632141D02*
X42035713Y-61679760D01*
X41892856Y-61727379D01*
X41797618Y-61727379D01*
X41654760Y-61679760D01*
X41559522Y-61584522D01*
X41511903Y-61489284D01*
X41464284Y-61298808D01*
X41464284Y-61155951D01*
X41511903Y-60965475D01*
X41559522Y-60870237D01*
X41654760Y-60774999D01*
X41797618Y-60727379D01*
X41892856Y-60727379D01*
X42035713Y-60774999D01*
X42083332Y-60822618D01*
X42654760Y-61155951D02*
X42559522Y-61108332D01*
X42511903Y-61060713D01*
X42464284Y-60965475D01*
X42464284Y-60917856D01*
X42511903Y-60822618D01*
X42559522Y-60774999D01*
X42654760Y-60727379D01*
X42845237Y-60727379D01*
X42940475Y-60774999D01*
X42988094Y-60822618D01*
X43035713Y-60917856D01*
X43035713Y-60965475D01*
X42988094Y-61060713D01*
X42940475Y-61108332D01*
X42845237Y-61155951D01*
X42654760Y-61155951D01*
X42559522Y-61203570D01*
X42511903Y-61251189D01*
X42464284Y-61346427D01*
X42464284Y-61536903D01*
X42511903Y-61632141D01*
X42559522Y-61679760D01*
X42654760Y-61727379D01*
X42845237Y-61727379D01*
X42940475Y-61679760D01*
X42988094Y-61632141D01*
X43035713Y-61536903D01*
X43035713Y-61346427D01*
X42988094Y-61251189D01*
X42940475Y-61203570D01*
X42845237Y-61155951D01*
X80583335Y-61632141D02*
X80535716Y-61679760D01*
X80392859Y-61727379D01*
X80297621Y-61727379D01*
X80154763Y-61679760D01*
X80059525Y-61584522D01*
X80011906Y-61489284D01*
X79964287Y-61298808D01*
X79964287Y-61155951D01*
X80011906Y-60965475D01*
X80059525Y-60870237D01*
X80154763Y-60774999D01*
X80297621Y-60727379D01*
X80392859Y-60727379D01*
X80535716Y-60774999D01*
X80583335Y-60822618D01*
X81154763Y-61155951D02*
X81059525Y-61108332D01*
X81011906Y-61060713D01*
X80964287Y-60965475D01*
X80964287Y-60917856D01*
X81011906Y-60822618D01*
X81059525Y-60774999D01*
X81154763Y-60727379D01*
X81345240Y-60727379D01*
X81440478Y-60774999D01*
X81488097Y-60822618D01*
X81535716Y-60917856D01*
X81535716Y-60965475D01*
X81488097Y-61060713D01*
X81440478Y-61108332D01*
X81345240Y-61155951D01*
X81154763Y-61155951D01*
X81059525Y-61203570D01*
X81011906Y-61251189D01*
X80964287Y-61346427D01*
X80964287Y-61536903D01*
X81011906Y-61632141D01*
X81059525Y-61679760D01*
X81154763Y-61727379D01*
X81345240Y-61727379D01*
X81440478Y-61679760D01*
X81488097Y-61632141D01*
X81535716Y-61536903D01*
X81535716Y-61346427D01*
X81488097Y-61251189D01*
X81440478Y-61203570D01*
X81345240Y-61155951D01*
X44358332Y-61707141D02*
X44310713Y-61754760D01*
X44167856Y-61802379D01*
X44072618Y-61802379D01*
X43929760Y-61754760D01*
X43834522Y-61659522D01*
X43786903Y-61564284D01*
X43739284Y-61373808D01*
X43739284Y-61230951D01*
X43786903Y-61040475D01*
X43834522Y-60945237D01*
X43929760Y-60849999D01*
X44072618Y-60802379D01*
X44167856Y-60802379D01*
X44310713Y-60849999D01*
X44358332Y-60897618D01*
X45310713Y-61802379D02*
X44739284Y-61802379D01*
X45024999Y-61802379D02*
X45024999Y-60802379D01*
X44929760Y-60945237D01*
X44834522Y-61040475D01*
X44739284Y-61088094D01*
X60033332Y-41382141D02*
X59985713Y-41429760D01*
X59842856Y-41477379D01*
X59747618Y-41477379D01*
X59604760Y-41429760D01*
X59509522Y-41334522D01*
X59461903Y-41239284D01*
X59414284Y-41048808D01*
X59414284Y-40905951D01*
X59461903Y-40715475D01*
X59509522Y-40620237D01*
X59604760Y-40524999D01*
X59747618Y-40477379D01*
X59842856Y-40477379D01*
X59985713Y-40524999D01*
X60033332Y-40572618D01*
X60938094Y-40477379D02*
X60461903Y-40477379D01*
X60414284Y-40953570D01*
X60461903Y-40905951D01*
X60557141Y-40858332D01*
X60795237Y-40858332D01*
X60890475Y-40905951D01*
X60938094Y-40953570D01*
X60985713Y-41048808D01*
X60985713Y-41286903D01*
X60938094Y-41382141D01*
X60890475Y-41429760D01*
X60795237Y-41477379D01*
X60557141Y-41477379D01*
X60461903Y-41429760D01*
X60414284Y-41382141D01*
X65283332Y-41377379D02*
X64949999Y-40901189D01*
X64711903Y-41377379D02*
X64711903Y-40377379D01*
X65092856Y-40377379D01*
X65188094Y-40424999D01*
X65235713Y-40472618D01*
X65283332Y-40567856D01*
X65283332Y-40710713D01*
X65235713Y-40805951D01*
X65188094Y-40853570D01*
X65092856Y-40901189D01*
X64711903Y-40901189D01*
X66140475Y-40377379D02*
X65949999Y-40377379D01*
X65854760Y-40424999D01*
X65807141Y-40472618D01*
X65711903Y-40615475D01*
X65664284Y-40805951D01*
X65664284Y-41186903D01*
X65711903Y-41282141D01*
X65759522Y-41329760D01*
X65854760Y-41377379D01*
X66045237Y-41377379D01*
X66140475Y-41329760D01*
X66188094Y-41282141D01*
X66235713Y-41186903D01*
X66235713Y-40948808D01*
X66188094Y-40853570D01*
X66140475Y-40805951D01*
X66045237Y-40758332D01*
X65854760Y-40758332D01*
X65759522Y-40805951D01*
X65711903Y-40853570D01*
X65664284Y-40948808D01*
X39052379Y-81616668D02*
X38576189Y-81950002D01*
X39052379Y-82188097D02*
X38052379Y-82188097D01*
X38052379Y-81807144D01*
X38099999Y-81711906D01*
X38147618Y-81664287D01*
X38242856Y-81616668D01*
X38385713Y-81616668D01*
X38480951Y-81664287D01*
X38528570Y-81711906D01*
X38576189Y-81807144D01*
X38576189Y-82188097D01*
X39052379Y-80664287D02*
X39052379Y-81235716D01*
X39052379Y-80950002D02*
X38052379Y-80950002D01*
X38195237Y-81045240D01*
X38290475Y-81140478D01*
X38338094Y-81235716D01*
X37033332Y-76457144D02*
X36985713Y-76504763D01*
X36842856Y-76552382D01*
X36747618Y-76552382D01*
X36604760Y-76504763D01*
X36509522Y-76409525D01*
X36461903Y-76314287D01*
X36414284Y-76123811D01*
X36414284Y-75980954D01*
X36461903Y-75790478D01*
X36509522Y-75695240D01*
X36604760Y-75600002D01*
X36747618Y-75552382D01*
X36842856Y-75552382D01*
X36985713Y-75600002D01*
X37033332Y-75647621D01*
X37366665Y-75552382D02*
X37985713Y-75552382D01*
X37652379Y-75933335D01*
X37795237Y-75933335D01*
X37890475Y-75980954D01*
X37938094Y-76028573D01*
X37985713Y-76123811D01*
X37985713Y-76361906D01*
X37938094Y-76457144D01*
X37890475Y-76504763D01*
X37795237Y-76552382D01*
X37509522Y-76552382D01*
X37414284Y-76504763D01*
X37366665Y-76457144D01*
X73358335Y-39482141D02*
X73310716Y-39529760D01*
X73167859Y-39577379D01*
X73072621Y-39577379D01*
X72929763Y-39529760D01*
X72834525Y-39434522D01*
X72786906Y-39339284D01*
X72739287Y-39148808D01*
X72739287Y-39005951D01*
X72786906Y-38815475D01*
X72834525Y-38720237D01*
X72929763Y-38624999D01*
X73072621Y-38577379D01*
X73167859Y-38577379D01*
X73310716Y-38624999D01*
X73358335Y-38672618D01*
X73739287Y-38672618D02*
X73786906Y-38624999D01*
X73882144Y-38577379D01*
X74120240Y-38577379D01*
X74215478Y-38624999D01*
X74263097Y-38672618D01*
X74310716Y-38767856D01*
X74310716Y-38863094D01*
X74263097Y-39005951D01*
X73691668Y-39577379D01*
X74310716Y-39577379D01*
X103783335Y-78377382D02*
X103450002Y-77901192D01*
X103211906Y-78377382D02*
X103211906Y-77377382D01*
X103592859Y-77377382D01*
X103688097Y-77425002D01*
X103735716Y-77472621D01*
X103783335Y-77567859D01*
X103783335Y-77710716D01*
X103735716Y-77805954D01*
X103688097Y-77853573D01*
X103592859Y-77901192D01*
X103211906Y-77901192D01*
X104640478Y-77377382D02*
X104450002Y-77377382D01*
X104354763Y-77425002D01*
X104307144Y-77472621D01*
X104211906Y-77615478D01*
X104164287Y-77805954D01*
X104164287Y-78186906D01*
X104211906Y-78282144D01*
X104259525Y-78329763D01*
X104354763Y-78377382D01*
X104545240Y-78377382D01*
X104640478Y-78329763D01*
X104688097Y-78282144D01*
X104735716Y-78186906D01*
X104735716Y-77948811D01*
X104688097Y-77853573D01*
X104640478Y-77805954D01*
X104545240Y-77758335D01*
X104354763Y-77758335D01*
X104259525Y-77805954D01*
X104211906Y-77853573D01*
X104164287Y-77948811D01*
X88936906Y-99052382D02*
X88936906Y-98052382D01*
X89175002Y-98052382D01*
X89317859Y-98100002D01*
X89413097Y-98195240D01*
X89460716Y-98290478D01*
X89508335Y-98480954D01*
X89508335Y-98623811D01*
X89460716Y-98814287D01*
X89413097Y-98909525D01*
X89317859Y-99004763D01*
X89175002Y-99052382D01*
X88936906Y-99052382D01*
X90460716Y-99052382D02*
X89889287Y-99052382D01*
X90175002Y-99052382D02*
X90175002Y-98052382D01*
X90079763Y-98195240D01*
X89984525Y-98290478D01*
X89889287Y-98338097D01*
X35808332Y-57607141D02*
X35760713Y-57654760D01*
X35617856Y-57702379D01*
X35522618Y-57702379D01*
X35379760Y-57654760D01*
X35284522Y-57559522D01*
X35236903Y-57464284D01*
X35189284Y-57273808D01*
X35189284Y-57130951D01*
X35236903Y-56940475D01*
X35284522Y-56845237D01*
X35379760Y-56749999D01*
X35522618Y-56702379D01*
X35617856Y-56702379D01*
X35760713Y-56749999D01*
X35808332Y-56797618D01*
X36665475Y-57035713D02*
X36665475Y-57702379D01*
X36427379Y-56654760D02*
X36189284Y-57369046D01*
X36808332Y-57369046D01*
X103783335Y-41377379D02*
X103450002Y-40901189D01*
X103211906Y-41377379D02*
X103211906Y-40377379D01*
X103592859Y-40377379D01*
X103688097Y-40424999D01*
X103735716Y-40472618D01*
X103783335Y-40567856D01*
X103783335Y-40710713D01*
X103735716Y-40805951D01*
X103688097Y-40853570D01*
X103592859Y-40901189D01*
X103211906Y-40901189D01*
X104640478Y-40377379D02*
X104450002Y-40377379D01*
X104354763Y-40424999D01*
X104307144Y-40472618D01*
X104211906Y-40615475D01*
X104164287Y-40805951D01*
X104164287Y-41186903D01*
X104211906Y-41282141D01*
X104259525Y-41329760D01*
X104354763Y-41377379D01*
X104545240Y-41377379D01*
X104640478Y-41329760D01*
X104688097Y-41282141D01*
X104735716Y-41186903D01*
X104735716Y-40948808D01*
X104688097Y-40853570D01*
X104640478Y-40805951D01*
X104545240Y-40758332D01*
X104354763Y-40758332D01*
X104259525Y-40805951D01*
X104211906Y-40853570D01*
X104164287Y-40948808D01*
X66342379Y-51508332D02*
X67056665Y-51508332D01*
X67199522Y-51555951D01*
X67294760Y-51651189D01*
X67342379Y-51794046D01*
X67342379Y-51889284D01*
X66437618Y-51079760D02*
X66389999Y-51032141D01*
X66342379Y-50936903D01*
X66342379Y-50698808D01*
X66389999Y-50603570D01*
X66437618Y-50555951D01*
X66532856Y-50508332D01*
X66628094Y-50508332D01*
X66770951Y-50555951D01*
X67342379Y-51127379D01*
X67342379Y-50508332D01*
X35808332Y-94607144D02*
X35760713Y-94654763D01*
X35617856Y-94702382D01*
X35522618Y-94702382D01*
X35379760Y-94654763D01*
X35284522Y-94559525D01*
X35236903Y-94464287D01*
X35189284Y-94273811D01*
X35189284Y-94130954D01*
X35236903Y-93940478D01*
X35284522Y-93845240D01*
X35379760Y-93750002D01*
X35522618Y-93702382D01*
X35617856Y-93702382D01*
X35760713Y-93750002D01*
X35808332Y-93797621D01*
X36665475Y-94035716D02*
X36665475Y-94702382D01*
X36427379Y-93654763D02*
X36189284Y-94369049D01*
X36808332Y-94369049D01*
X44358332Y-98707144D02*
X44310713Y-98754763D01*
X44167856Y-98802382D01*
X44072618Y-98802382D01*
X43929760Y-98754763D01*
X43834522Y-98659525D01*
X43786903Y-98564287D01*
X43739284Y-98373811D01*
X43739284Y-98230954D01*
X43786903Y-98040478D01*
X43834522Y-97945240D01*
X43929760Y-97850002D01*
X44072618Y-97802382D01*
X44167856Y-97802382D01*
X44310713Y-97850002D01*
X44358332Y-97897621D01*
X45310713Y-98802382D02*
X44739284Y-98802382D01*
X45024999Y-98802382D02*
X45024999Y-97802382D01*
X44929760Y-97945240D01*
X44834522Y-98040478D01*
X44739284Y-98088097D01*
X34858332Y-39482141D02*
X34810713Y-39529760D01*
X34667856Y-39577379D01*
X34572618Y-39577379D01*
X34429760Y-39529760D01*
X34334522Y-39434522D01*
X34286903Y-39339284D01*
X34239284Y-39148808D01*
X34239284Y-39005951D01*
X34286903Y-38815475D01*
X34334522Y-38720237D01*
X34429760Y-38624999D01*
X34572618Y-38577379D01*
X34667856Y-38577379D01*
X34810713Y-38624999D01*
X34858332Y-38672618D01*
X35239284Y-38672618D02*
X35286903Y-38624999D01*
X35382141Y-38577379D01*
X35620237Y-38577379D01*
X35715475Y-38624999D01*
X35763094Y-38672618D01*
X35810713Y-38767856D01*
X35810713Y-38863094D01*
X35763094Y-39005951D01*
X35191665Y-39577379D01*
X35810713Y-39577379D01*
X42083332Y-98632144D02*
X42035713Y-98679763D01*
X41892856Y-98727382D01*
X41797618Y-98727382D01*
X41654760Y-98679763D01*
X41559522Y-98584525D01*
X41511903Y-98489287D01*
X41464284Y-98298811D01*
X41464284Y-98155954D01*
X41511903Y-97965478D01*
X41559522Y-97870240D01*
X41654760Y-97775002D01*
X41797618Y-97727382D01*
X41892856Y-97727382D01*
X42035713Y-97775002D01*
X42083332Y-97822621D01*
X42654760Y-98155954D02*
X42559522Y-98108335D01*
X42511903Y-98060716D01*
X42464284Y-97965478D01*
X42464284Y-97917859D01*
X42511903Y-97822621D01*
X42559522Y-97775002D01*
X42654760Y-97727382D01*
X42845237Y-97727382D01*
X42940475Y-97775002D01*
X42988094Y-97822621D01*
X43035713Y-97917859D01*
X43035713Y-97965478D01*
X42988094Y-98060716D01*
X42940475Y-98108335D01*
X42845237Y-98155954D01*
X42654760Y-98155954D01*
X42559522Y-98203573D01*
X42511903Y-98251192D01*
X42464284Y-98346430D01*
X42464284Y-98536906D01*
X42511903Y-98632144D01*
X42559522Y-98679763D01*
X42654760Y-98727382D01*
X42845237Y-98727382D01*
X42940475Y-98679763D01*
X42988094Y-98632144D01*
X43035713Y-98536906D01*
X43035713Y-98346430D01*
X42988094Y-98251192D01*
X42940475Y-98203573D01*
X42845237Y-98155954D01*
X34277379Y-99716668D02*
X33801189Y-100050002D01*
X34277379Y-100288097D02*
X33277379Y-100288097D01*
X33277379Y-99907144D01*
X33324999Y-99811906D01*
X33372618Y-99764287D01*
X33467856Y-99716668D01*
X33610713Y-99716668D01*
X33705951Y-99764287D01*
X33753570Y-99811906D01*
X33801189Y-99907144D01*
X33801189Y-100288097D01*
X33372618Y-99335716D02*
X33324999Y-99288097D01*
X33277379Y-99192859D01*
X33277379Y-98954763D01*
X33324999Y-98859525D01*
X33372618Y-98811906D01*
X33467856Y-98764287D01*
X33563094Y-98764287D01*
X33705951Y-98811906D01*
X34277379Y-99383335D01*
X34277379Y-98764287D01*
X74308335Y-94607144D02*
X74260716Y-94654763D01*
X74117859Y-94702382D01*
X74022621Y-94702382D01*
X73879763Y-94654763D01*
X73784525Y-94559525D01*
X73736906Y-94464287D01*
X73689287Y-94273811D01*
X73689287Y-94130954D01*
X73736906Y-93940478D01*
X73784525Y-93845240D01*
X73879763Y-93750002D01*
X74022621Y-93702382D01*
X74117859Y-93702382D01*
X74260716Y-93750002D01*
X74308335Y-93797621D01*
X75165478Y-94035716D02*
X75165478Y-94702382D01*
X74927382Y-93654763D02*
X74689287Y-94369049D01*
X75308335Y-94369049D01*
X62327379Y-99386906D02*
X63136903Y-99386906D01*
X63232141Y-99339287D01*
X63279760Y-99291668D01*
X63327379Y-99196430D01*
X63327379Y-99005954D01*
X63279760Y-98910716D01*
X63232141Y-98863097D01*
X63136903Y-98815478D01*
X62327379Y-98815478D01*
X62422618Y-98386906D02*
X62374999Y-98339287D01*
X62327379Y-98244049D01*
X62327379Y-98005954D01*
X62374999Y-97910716D01*
X62422618Y-97863097D01*
X62517856Y-97815478D01*
X62613094Y-97815478D01*
X62755951Y-97863097D01*
X63327379Y-98434525D01*
X63327379Y-97815478D01*
X77552382Y-81616668D02*
X77076192Y-81950002D01*
X77552382Y-82188097D02*
X76552382Y-82188097D01*
X76552382Y-81807144D01*
X76600002Y-81711906D01*
X76647621Y-81664287D01*
X76742859Y-81616668D01*
X76885716Y-81616668D01*
X76980954Y-81664287D01*
X77028573Y-81711906D01*
X77076192Y-81807144D01*
X77076192Y-82188097D01*
X77552382Y-80664287D02*
X77552382Y-81235716D01*
X77552382Y-80950002D02*
X76552382Y-80950002D01*
X76695240Y-81045240D01*
X76790478Y-81140478D01*
X76838097Y-81235716D01*
X72777382Y-99716668D02*
X72301192Y-100050002D01*
X72777382Y-100288097D02*
X71777382Y-100288097D01*
X71777382Y-99907144D01*
X71825002Y-99811906D01*
X71872621Y-99764287D01*
X71967859Y-99716668D01*
X72110716Y-99716668D01*
X72205954Y-99764287D01*
X72253573Y-99811906D01*
X72301192Y-99907144D01*
X72301192Y-100288097D01*
X71872621Y-99335716D02*
X71825002Y-99288097D01*
X71777382Y-99192859D01*
X71777382Y-98954763D01*
X71825002Y-98859525D01*
X71872621Y-98811906D01*
X71967859Y-98764287D01*
X72063097Y-98764287D01*
X72205954Y-98811906D01*
X72777382Y-99383335D01*
X72777382Y-98764287D01*
X80583335Y-98632144D02*
X80535716Y-98679763D01*
X80392859Y-98727382D01*
X80297621Y-98727382D01*
X80154763Y-98679763D01*
X80059525Y-98584525D01*
X80011906Y-98489287D01*
X79964287Y-98298811D01*
X79964287Y-98155954D01*
X80011906Y-97965478D01*
X80059525Y-97870240D01*
X80154763Y-97775002D01*
X80297621Y-97727382D01*
X80392859Y-97727382D01*
X80535716Y-97775002D01*
X80583335Y-97822621D01*
X81154763Y-98155954D02*
X81059525Y-98108335D01*
X81011906Y-98060716D01*
X80964287Y-97965478D01*
X80964287Y-97917859D01*
X81011906Y-97822621D01*
X81059525Y-97775002D01*
X81154763Y-97727382D01*
X81345240Y-97727382D01*
X81440478Y-97775002D01*
X81488097Y-97822621D01*
X81535716Y-97917859D01*
X81535716Y-97965478D01*
X81488097Y-98060716D01*
X81440478Y-98108335D01*
X81345240Y-98155954D01*
X81154763Y-98155954D01*
X81059525Y-98203573D01*
X81011906Y-98251192D01*
X80964287Y-98346430D01*
X80964287Y-98536906D01*
X81011906Y-98632144D01*
X81059525Y-98679763D01*
X81154763Y-98727382D01*
X81345240Y-98727382D01*
X81440478Y-98679763D01*
X81488097Y-98632144D01*
X81535716Y-98536906D01*
X81535716Y-98346430D01*
X81488097Y-98251192D01*
X81440478Y-98203573D01*
X81345240Y-98155954D01*
X78108335Y-61477379D02*
X77775002Y-61001189D01*
X77536906Y-61477379D02*
X77536906Y-60477379D01*
X77917859Y-60477379D01*
X78013097Y-60524999D01*
X78060716Y-60572618D01*
X78108335Y-60667856D01*
X78108335Y-60810713D01*
X78060716Y-60905951D01*
X78013097Y-60953570D01*
X77917859Y-61001189D01*
X77536906Y-61001189D01*
X78441668Y-60477379D02*
X79060716Y-60477379D01*
X78727382Y-60858332D01*
X78870240Y-60858332D01*
X78965478Y-60905951D01*
X79013097Y-60953570D01*
X79060716Y-61048808D01*
X79060716Y-61286903D01*
X79013097Y-61382141D01*
X78965478Y-61429760D01*
X78870240Y-61477379D01*
X78584525Y-61477379D01*
X78489287Y-61429760D01*
X78441668Y-61382141D01*
X66342379Y-88508335D02*
X67056665Y-88508335D01*
X67199522Y-88555954D01*
X67294760Y-88651192D01*
X67342379Y-88794049D01*
X67342379Y-88889287D01*
X66437618Y-88079763D02*
X66389999Y-88032144D01*
X66342379Y-87936906D01*
X66342379Y-87698811D01*
X66389999Y-87603573D01*
X66437618Y-87555954D01*
X66532856Y-87508335D01*
X66628094Y-87508335D01*
X66770951Y-87555954D01*
X67342379Y-88127382D01*
X67342379Y-87508335D01*
X39352379Y-58366665D02*
X38876189Y-58699999D01*
X39352379Y-58938094D02*
X38352379Y-58938094D01*
X38352379Y-58557141D01*
X38399999Y-58461903D01*
X38447618Y-58414284D01*
X38542856Y-58366665D01*
X38685713Y-58366665D01*
X38780951Y-58414284D01*
X38828570Y-58461903D01*
X38876189Y-58557141D01*
X38876189Y-58938094D01*
X38685713Y-57509522D02*
X39352379Y-57509522D01*
X38304760Y-57747618D02*
X39019046Y-57985713D01*
X39019046Y-57366665D01*
X76522621Y-51258332D02*
X76522621Y-50782141D01*
X77522621Y-50782141D01*
X76617859Y-52163094D02*
X76570240Y-52115475D01*
X76522621Y-51972618D01*
X76522621Y-51877379D01*
X76570240Y-51734522D01*
X76665478Y-51639284D01*
X76760716Y-51591665D01*
X76951192Y-51544046D01*
X77094049Y-51544046D01*
X77284525Y-51591665D01*
X77379763Y-51639284D01*
X77475002Y-51734522D01*
X77522621Y-51877379D01*
X77522621Y-51972618D01*
X77475002Y-52115475D01*
X77427382Y-52163094D01*
X76522621Y-52591665D02*
X77522621Y-52591665D01*
X77522621Y-52829760D01*
X77475002Y-52972618D01*
X77379763Y-53067856D01*
X77284525Y-53115475D01*
X77094049Y-53163094D01*
X76951192Y-53163094D01*
X76760716Y-53115475D01*
X76665478Y-53067856D01*
X76570240Y-52972618D01*
X76522621Y-52829760D01*
X76522621Y-52591665D01*
X76522621Y-54115475D02*
X76522621Y-53544046D01*
X76522621Y-53829760D02*
X77522621Y-53829760D01*
X77379763Y-53734522D01*
X77284525Y-53639284D01*
X77236906Y-53544046D01*
X34858332Y-76482144D02*
X34810713Y-76529763D01*
X34667856Y-76577382D01*
X34572618Y-76577382D01*
X34429760Y-76529763D01*
X34334522Y-76434525D01*
X34286903Y-76339287D01*
X34239284Y-76148811D01*
X34239284Y-76005954D01*
X34286903Y-75815478D01*
X34334522Y-75720240D01*
X34429760Y-75625002D01*
X34572618Y-75577382D01*
X34667856Y-75577382D01*
X34810713Y-75625002D01*
X34858332Y-75672621D01*
X35239284Y-75672621D02*
X35286903Y-75625002D01*
X35382141Y-75577382D01*
X35620237Y-75577382D01*
X35715475Y-75625002D01*
X35763094Y-75672621D01*
X35810713Y-75767859D01*
X35810713Y-75863097D01*
X35763094Y-76005954D01*
X35191665Y-76577382D01*
X35810713Y-76577382D01*
X37033332Y-39457141D02*
X36985713Y-39504760D01*
X36842856Y-39552379D01*
X36747618Y-39552379D01*
X36604760Y-39504760D01*
X36509522Y-39409522D01*
X36461903Y-39314284D01*
X36414284Y-39123808D01*
X36414284Y-38980951D01*
X36461903Y-38790475D01*
X36509522Y-38695237D01*
X36604760Y-38599999D01*
X36747618Y-38552379D01*
X36842856Y-38552379D01*
X36985713Y-38599999D01*
X37033332Y-38647618D01*
X37366665Y-38552379D02*
X37985713Y-38552379D01*
X37652379Y-38933332D01*
X37795237Y-38933332D01*
X37890475Y-38980951D01*
X37938094Y-39028570D01*
X37985713Y-39123808D01*
X37985713Y-39361903D01*
X37938094Y-39457141D01*
X37890475Y-39504760D01*
X37795237Y-39552379D01*
X37509522Y-39552379D01*
X37414284Y-39504760D01*
X37366665Y-39457141D01*
X34504760Y-102872621D02*
X34409522Y-102825002D01*
X34314284Y-102729763D01*
X34171427Y-102586906D01*
X34076189Y-102539287D01*
X33980951Y-102539287D01*
X34028570Y-102777382D02*
X33933332Y-102729763D01*
X33838094Y-102634525D01*
X33790475Y-102444049D01*
X33790475Y-102110716D01*
X33838094Y-101920240D01*
X33933332Y-101825002D01*
X34028570Y-101777382D01*
X34219046Y-101777382D01*
X34314284Y-101825002D01*
X34409522Y-101920240D01*
X34457141Y-102110716D01*
X34457141Y-102444049D01*
X34409522Y-102634525D01*
X34314284Y-102729763D01*
X34219046Y-102777382D01*
X34028570Y-102777382D01*
X35409522Y-102777382D02*
X34838094Y-102777382D01*
X35123808Y-102777382D02*
X35123808Y-101777382D01*
X35028570Y-101920240D01*
X34933332Y-102015478D01*
X34838094Y-102063097D01*
X75533335Y-39457141D02*
X75485716Y-39504760D01*
X75342859Y-39552379D01*
X75247621Y-39552379D01*
X75104763Y-39504760D01*
X75009525Y-39409522D01*
X74961906Y-39314284D01*
X74914287Y-39123808D01*
X74914287Y-38980951D01*
X74961906Y-38790475D01*
X75009525Y-38695237D01*
X75104763Y-38599999D01*
X75247621Y-38552379D01*
X75342859Y-38552379D01*
X75485716Y-38599999D01*
X75533335Y-38647618D01*
X75866668Y-38552379D02*
X76485716Y-38552379D01*
X76152382Y-38933332D01*
X76295240Y-38933332D01*
X76390478Y-38980951D01*
X76438097Y-39028570D01*
X76485716Y-39123808D01*
X76485716Y-39361903D01*
X76438097Y-39457141D01*
X76390478Y-39504760D01*
X76295240Y-39552379D01*
X76009525Y-39552379D01*
X75914287Y-39504760D01*
X75866668Y-39457141D01*
X93708335Y-102707144D02*
X93660716Y-102754763D01*
X93517859Y-102802382D01*
X93422621Y-102802382D01*
X93279763Y-102754763D01*
X93184525Y-102659525D01*
X93136906Y-102564287D01*
X93089287Y-102373811D01*
X93089287Y-102230954D01*
X93136906Y-102040478D01*
X93184525Y-101945240D01*
X93279763Y-101850002D01*
X93422621Y-101802382D01*
X93517859Y-101802382D01*
X93660716Y-101850002D01*
X93708335Y-101897621D01*
X94041668Y-101802382D02*
X94708335Y-101802382D01*
X94279763Y-102802382D01*
X57658332Y-102669644D02*
X57610713Y-102717263D01*
X57467856Y-102764882D01*
X57372618Y-102764882D01*
X57229760Y-102717263D01*
X57134522Y-102622025D01*
X57086903Y-102526787D01*
X57039284Y-102336311D01*
X57039284Y-102193454D01*
X57086903Y-102002978D01*
X57134522Y-101907740D01*
X57229760Y-101812502D01*
X57372618Y-101764882D01*
X57467856Y-101764882D01*
X57610713Y-101812502D01*
X57658332Y-101860121D01*
X58515475Y-101764882D02*
X58324999Y-101764882D01*
X58229760Y-101812502D01*
X58182141Y-101860121D01*
X58086903Y-102002978D01*
X58039284Y-102193454D01*
X58039284Y-102574406D01*
X58086903Y-102669644D01*
X58134522Y-102717263D01*
X58229760Y-102764882D01*
X58420237Y-102764882D01*
X58515475Y-102717263D01*
X58563094Y-102669644D01*
X58610713Y-102574406D01*
X58610713Y-102336311D01*
X58563094Y-102241073D01*
X58515475Y-102193454D01*
X58420237Y-102145835D01*
X58229760Y-102145835D01*
X58134522Y-102193454D01*
X58086903Y-102241073D01*
X58039284Y-102336311D01*
X55208332Y-65707141D02*
X55160713Y-65754760D01*
X55017856Y-65802379D01*
X54922618Y-65802379D01*
X54779760Y-65754760D01*
X54684522Y-65659522D01*
X54636903Y-65564284D01*
X54589284Y-65373808D01*
X54589284Y-65230951D01*
X54636903Y-65040475D01*
X54684522Y-64945237D01*
X54779760Y-64849999D01*
X54922618Y-64802379D01*
X55017856Y-64802379D01*
X55160713Y-64849999D01*
X55208332Y-64897618D01*
X55541665Y-64802379D02*
X56208332Y-64802379D01*
X55779760Y-65802379D01*
X62327379Y-62386903D02*
X63136903Y-62386903D01*
X63232141Y-62339284D01*
X63279760Y-62291665D01*
X63327379Y-62196427D01*
X63327379Y-62005951D01*
X63279760Y-61910713D01*
X63232141Y-61863094D01*
X63136903Y-61815475D01*
X62327379Y-61815475D01*
X62422618Y-61386903D02*
X62374999Y-61339284D01*
X62327379Y-61244046D01*
X62327379Y-61005951D01*
X62374999Y-60910713D01*
X62422618Y-60863094D01*
X62517856Y-60815475D01*
X62613094Y-60815475D01*
X62755951Y-60863094D01*
X63327379Y-61434522D01*
X63327379Y-60815475D01*
X39608332Y-98477382D02*
X39274999Y-98001192D01*
X39036903Y-98477382D02*
X39036903Y-97477382D01*
X39417856Y-97477382D01*
X39513094Y-97525002D01*
X39560713Y-97572621D01*
X39608332Y-97667859D01*
X39608332Y-97810716D01*
X39560713Y-97905954D01*
X39513094Y-97953573D01*
X39417856Y-98001192D01*
X39036903Y-98001192D01*
X39941665Y-97477382D02*
X40560713Y-97477382D01*
X40227379Y-97858335D01*
X40370237Y-97858335D01*
X40465475Y-97905954D01*
X40513094Y-97953573D01*
X40560713Y-98048811D01*
X40560713Y-98286906D01*
X40513094Y-98382144D01*
X40465475Y-98429763D01*
X40370237Y-98477382D01*
X40084522Y-98477382D01*
X39989284Y-98429763D01*
X39941665Y-98382144D01*
X76522621Y-88258335D02*
X76522621Y-87782144D01*
X77522621Y-87782144D01*
X76617859Y-89163097D02*
X76570240Y-89115478D01*
X76522621Y-88972621D01*
X76522621Y-88877382D01*
X76570240Y-88734525D01*
X76665478Y-88639287D01*
X76760716Y-88591668D01*
X76951192Y-88544049D01*
X77094049Y-88544049D01*
X77284525Y-88591668D01*
X77379763Y-88639287D01*
X77475002Y-88734525D01*
X77522621Y-88877382D01*
X77522621Y-88972621D01*
X77475002Y-89115478D01*
X77427382Y-89163097D01*
X76522621Y-89591668D02*
X77522621Y-89591668D01*
X77522621Y-89829763D01*
X77475002Y-89972621D01*
X77379763Y-90067859D01*
X77284525Y-90115478D01*
X77094049Y-90163097D01*
X76951192Y-90163097D01*
X76760716Y-90115478D01*
X76665478Y-90067859D01*
X76570240Y-89972621D01*
X76522621Y-89829763D01*
X76522621Y-89591668D01*
X76522621Y-91115478D02*
X76522621Y-90544049D01*
X76522621Y-90829763D02*
X77522621Y-90829763D01*
X77379763Y-90734525D01*
X77284525Y-90639287D01*
X77236906Y-90544049D01*
X50436903Y-62052379D02*
X50436903Y-61052379D01*
X50674999Y-61052379D01*
X50817856Y-61099999D01*
X50913094Y-61195237D01*
X50960713Y-61290475D01*
X51008332Y-61480951D01*
X51008332Y-61623808D01*
X50960713Y-61814284D01*
X50913094Y-61909522D01*
X50817856Y-62004760D01*
X50674999Y-62052379D01*
X50436903Y-62052379D01*
X51960713Y-62052379D02*
X51389284Y-62052379D01*
X51674999Y-62052379D02*
X51674999Y-61052379D01*
X51579760Y-61195237D01*
X51484522Y-61290475D01*
X51389284Y-61338094D01*
X48238094Y-34827379D02*
X48238094Y-35636903D01*
X48285713Y-35732141D01*
X48333332Y-35779760D01*
X48428570Y-35827379D01*
X48619046Y-35827379D01*
X48714284Y-35779760D01*
X48761903Y-35732141D01*
X48809522Y-35636903D01*
X48809522Y-34827379D01*
X49809522Y-35827379D02*
X49238094Y-35827379D01*
X49523808Y-35827379D02*
X49523808Y-34827379D01*
X49428570Y-34970237D01*
X49333332Y-35065475D01*
X49238094Y-35113094D01*
X44288094Y-37416665D02*
X44764284Y-37416665D01*
X44192856Y-37702379D02*
X44526189Y-36702379D01*
X44859522Y-37702379D01*
X45192856Y-37035713D02*
X45192856Y-37702379D01*
X45192856Y-37130951D02*
X45240475Y-37083332D01*
X45335713Y-37035713D01*
X45478570Y-37035713D01*
X45573808Y-37083332D01*
X45621427Y-37178570D01*
X45621427Y-37702379D01*
X45954760Y-37035713D02*
X46335713Y-37035713D01*
X46097618Y-36702379D02*
X46097618Y-37559522D01*
X46145237Y-37654760D01*
X46240475Y-37702379D01*
X46335713Y-37702379D01*
X47049999Y-37654760D02*
X46954760Y-37702379D01*
X46764284Y-37702379D01*
X46669046Y-37654760D01*
X46621427Y-37559522D01*
X46621427Y-37178570D01*
X46669046Y-37083332D01*
X46764284Y-37035713D01*
X46954760Y-37035713D01*
X47049999Y-37083332D01*
X47097618Y-37178570D01*
X47097618Y-37273808D01*
X46621427Y-37369046D01*
X47526189Y-37035713D02*
X47526189Y-37702379D01*
X47526189Y-37130951D02*
X47573808Y-37083332D01*
X47669046Y-37035713D01*
X47811903Y-37035713D01*
X47907141Y-37083332D01*
X47954760Y-37178570D01*
X47954760Y-37702379D01*
X48430951Y-37035713D02*
X48430951Y-37702379D01*
X48430951Y-37130951D02*
X48478570Y-37083332D01*
X48573808Y-37035713D01*
X48716665Y-37035713D01*
X48811903Y-37083332D01*
X48859522Y-37178570D01*
X48859522Y-37702379D01*
X49764284Y-37702379D02*
X49764284Y-37178570D01*
X49716665Y-37083332D01*
X49621427Y-37035713D01*
X49430951Y-37035713D01*
X49335713Y-37083332D01*
X49764284Y-37654760D02*
X49669046Y-37702379D01*
X49430951Y-37702379D01*
X49335713Y-37654760D01*
X49288094Y-37559522D01*
X49288094Y-37464284D01*
X49335713Y-37369046D01*
X49430951Y-37321427D01*
X49669046Y-37321427D01*
X49764284Y-37273808D01*
X50954760Y-37416665D02*
X51430951Y-37416665D01*
X50859522Y-37702379D02*
X51192856Y-36702379D01*
X51526189Y-37702379D01*
X51859522Y-37702379D02*
X51859522Y-37035713D01*
X51859522Y-37226189D02*
X51907141Y-37130951D01*
X51954760Y-37083332D01*
X52049999Y-37035713D01*
X52145237Y-37035713D01*
X52859522Y-37654760D02*
X52764284Y-37702379D01*
X52573808Y-37702379D01*
X52478570Y-37654760D01*
X52430951Y-37559522D01*
X52430951Y-37178570D01*
X52478570Y-37083332D01*
X52573808Y-37035713D01*
X52764284Y-37035713D01*
X52859522Y-37083332D01*
X52907141Y-37178570D01*
X52907141Y-37273808D01*
X52430951Y-37369046D01*
X53764284Y-37702379D02*
X53764284Y-37178570D01*
X53716665Y-37083332D01*
X53621427Y-37035713D01*
X53430951Y-37035713D01*
X53335713Y-37083332D01*
X53764284Y-37654760D02*
X53669046Y-37702379D01*
X53430951Y-37702379D01*
X53335713Y-37654760D01*
X53288094Y-37559522D01*
X53288094Y-37464284D01*
X53335713Y-37369046D01*
X53430951Y-37321427D01*
X53669046Y-37321427D01*
X53764284Y-37273808D01*
X101208335Y-78377382D02*
X100875002Y-77901192D01*
X100636906Y-78377382D02*
X100636906Y-77377382D01*
X101017859Y-77377382D01*
X101113097Y-77425002D01*
X101160716Y-77472621D01*
X101208335Y-77567859D01*
X101208335Y-77710716D01*
X101160716Y-77805954D01*
X101113097Y-77853573D01*
X101017859Y-77901192D01*
X100636906Y-77901192D01*
X102113097Y-77377382D02*
X101636906Y-77377382D01*
X101589287Y-77853573D01*
X101636906Y-77805954D01*
X101732144Y-77758335D01*
X101970240Y-77758335D01*
X102065478Y-77805954D01*
X102113097Y-77853573D01*
X102160716Y-77948811D01*
X102160716Y-78186906D01*
X102113097Y-78282144D01*
X102065478Y-78329763D01*
X101970240Y-78377382D01*
X101732144Y-78377382D01*
X101636906Y-78329763D01*
X101589287Y-78282144D01*
X73358335Y-76482144D02*
X73310716Y-76529763D01*
X73167859Y-76577382D01*
X73072621Y-76577382D01*
X72929763Y-76529763D01*
X72834525Y-76434525D01*
X72786906Y-76339287D01*
X72739287Y-76148811D01*
X72739287Y-76005954D01*
X72786906Y-75815478D01*
X72834525Y-75720240D01*
X72929763Y-75625002D01*
X73072621Y-75577382D01*
X73167859Y-75577382D01*
X73310716Y-75625002D01*
X73358335Y-75672621D01*
X73739287Y-75672621D02*
X73786906Y-75625002D01*
X73882144Y-75577382D01*
X74120240Y-75577382D01*
X74215478Y-75625002D01*
X74263097Y-75672621D01*
X74310716Y-75767859D01*
X74310716Y-75863097D01*
X74263097Y-76005954D01*
X73691668Y-76577382D01*
X74310716Y-76577382D01*
X96158335Y-65669641D02*
X96110716Y-65717260D01*
X95967859Y-65764879D01*
X95872621Y-65764879D01*
X95729763Y-65717260D01*
X95634525Y-65622022D01*
X95586906Y-65526784D01*
X95539287Y-65336308D01*
X95539287Y-65193451D01*
X95586906Y-65002975D01*
X95634525Y-64907737D01*
X95729763Y-64812499D01*
X95872621Y-64764879D01*
X95967859Y-64764879D01*
X96110716Y-64812499D01*
X96158335Y-64860118D01*
X97015478Y-64764879D02*
X96825002Y-64764879D01*
X96729763Y-64812499D01*
X96682144Y-64860118D01*
X96586906Y-65002975D01*
X96539287Y-65193451D01*
X96539287Y-65574403D01*
X96586906Y-65669641D01*
X96634525Y-65717260D01*
X96729763Y-65764879D01*
X96920240Y-65764879D01*
X97015478Y-65717260D01*
X97063097Y-65669641D01*
X97110716Y-65574403D01*
X97110716Y-65336308D01*
X97063097Y-65241070D01*
X97015478Y-65193451D01*
X96920240Y-65145832D01*
X96729763Y-65145832D01*
X96634525Y-65193451D01*
X96586906Y-65241070D01*
X96539287Y-65336308D01*
X88936906Y-62052379D02*
X88936906Y-61052379D01*
X89175002Y-61052379D01*
X89317859Y-61099999D01*
X89413097Y-61195237D01*
X89460716Y-61290475D01*
X89508335Y-61480951D01*
X89508335Y-61623808D01*
X89460716Y-61814284D01*
X89413097Y-61909522D01*
X89317859Y-62004760D01*
X89175002Y-62052379D01*
X88936906Y-62052379D01*
X90460716Y-62052379D02*
X89889287Y-62052379D01*
X90175002Y-62052379D02*
X90175002Y-61052379D01*
X90079763Y-61195237D01*
X89984525Y-61290475D01*
X89889287Y-61338094D01*
X72777382Y-62716665D02*
X72301192Y-63049999D01*
X72777382Y-63288094D02*
X71777382Y-63288094D01*
X71777382Y-62907141D01*
X71825002Y-62811903D01*
X71872621Y-62764284D01*
X71967859Y-62716665D01*
X72110716Y-62716665D01*
X72205954Y-62764284D01*
X72253573Y-62811903D01*
X72301192Y-62907141D01*
X72301192Y-63288094D01*
X71872621Y-62335713D02*
X71825002Y-62288094D01*
X71777382Y-62192856D01*
X71777382Y-61954760D01*
X71825002Y-61859522D01*
X71872621Y-61811903D01*
X71967859Y-61764284D01*
X72063097Y-61764284D01*
X72205954Y-61811903D01*
X72777382Y-62383332D01*
X72777382Y-61764284D01*
X65283332Y-78377382D02*
X64949999Y-77901192D01*
X64711903Y-78377382D02*
X64711903Y-77377382D01*
X65092856Y-77377382D01*
X65188094Y-77425002D01*
X65235713Y-77472621D01*
X65283332Y-77567859D01*
X65283332Y-77710716D01*
X65235713Y-77805954D01*
X65188094Y-77853573D01*
X65092856Y-77901192D01*
X64711903Y-77901192D01*
X66140475Y-77377382D02*
X65949999Y-77377382D01*
X65854760Y-77425002D01*
X65807141Y-77472621D01*
X65711903Y-77615478D01*
X65664284Y-77805954D01*
X65664284Y-78186906D01*
X65711903Y-78282144D01*
X65759522Y-78329763D01*
X65854760Y-78377382D01*
X66045237Y-78377382D01*
X66140475Y-78329763D01*
X66188094Y-78282144D01*
X66235713Y-78186906D01*
X66235713Y-77948811D01*
X66188094Y-77853573D01*
X66140475Y-77805954D01*
X66045237Y-77758335D01*
X65854760Y-77758335D01*
X65759522Y-77805954D01*
X65711903Y-77853573D01*
X65664284Y-77948811D01*
X75533335Y-76457144D02*
X75485716Y-76504763D01*
X75342859Y-76552382D01*
X75247621Y-76552382D01*
X75104763Y-76504763D01*
X75009525Y-76409525D01*
X74961906Y-76314287D01*
X74914287Y-76123811D01*
X74914287Y-75980954D01*
X74961906Y-75790478D01*
X75009525Y-75695240D01*
X75104763Y-75600002D01*
X75247621Y-75552382D01*
X75342859Y-75552382D01*
X75485716Y-75600002D01*
X75533335Y-75647621D01*
X75866668Y-75552382D02*
X76485716Y-75552382D01*
X76152382Y-75933335D01*
X76295240Y-75933335D01*
X76390478Y-75980954D01*
X76438097Y-76028573D01*
X76485716Y-76123811D01*
X76485716Y-76361906D01*
X76438097Y-76457144D01*
X76390478Y-76504763D01*
X76295240Y-76552382D01*
X76009525Y-76552382D01*
X75914287Y-76504763D01*
X75866668Y-76457144D01*
X74308335Y-57607141D02*
X74260716Y-57654760D01*
X74117859Y-57702379D01*
X74022621Y-57702379D01*
X73879763Y-57654760D01*
X73784525Y-57559522D01*
X73736906Y-57464284D01*
X73689287Y-57273808D01*
X73689287Y-57130951D01*
X73736906Y-56940475D01*
X73784525Y-56845237D01*
X73879763Y-56749999D01*
X74022621Y-56702379D01*
X74117859Y-56702379D01*
X74260716Y-56749999D01*
X74308335Y-56797618D01*
X75165478Y-57035713D02*
X75165478Y-57702379D01*
X74927382Y-56654760D02*
X74689287Y-57369046D01*
X75308335Y-57369046D01*
X98533335Y-78382144D02*
X98485716Y-78429763D01*
X98342859Y-78477382D01*
X98247621Y-78477382D01*
X98104763Y-78429763D01*
X98009525Y-78334525D01*
X97961906Y-78239287D01*
X97914287Y-78048811D01*
X97914287Y-77905954D01*
X97961906Y-77715478D01*
X98009525Y-77620240D01*
X98104763Y-77525002D01*
X98247621Y-77477382D01*
X98342859Y-77477382D01*
X98485716Y-77525002D01*
X98533335Y-77572621D01*
X99438097Y-77477382D02*
X98961906Y-77477382D01*
X98914287Y-77953573D01*
X98961906Y-77905954D01*
X99057144Y-77858335D01*
X99295240Y-77858335D01*
X99390478Y-77905954D01*
X99438097Y-77953573D01*
X99485716Y-78048811D01*
X99485716Y-78286906D01*
X99438097Y-78382144D01*
X99390478Y-78429763D01*
X99295240Y-78477382D01*
X99057144Y-78477382D01*
X98961906Y-78429763D01*
X98914287Y-78382144D01*
D11*
X60909999Y-80911254D02*
X60909999Y-80388750D01*
X59439999Y-80911254D02*
X59439999Y-80388750D01*
X39139999Y-63097935D02*
X39139999Y-63552063D01*
X40609999Y-63097935D02*
X40609999Y-63552063D01*
X37874999Y-82850002D02*
X37874999Y-91250002D01*
X37874999Y-91250002D02*
X34374999Y-91250002D01*
X34374999Y-91250002D02*
X34374999Y-82850002D01*
X34374999Y-82850002D02*
X37874999Y-82850002D01*
D12*
X33829999Y-90900002D02*
G75*
G03*
X33829999Y-90900002I-155000J0D01*
G01*
D11*
X40049999Y-96750002D02*
X41049999Y-96750002D01*
X40049999Y-71250002D02*
X58049999Y-71250002D01*
X58049999Y-96000002D02*
X58049999Y-96750002D01*
X40049999Y-71250002D02*
X40049999Y-78000002D01*
X58049999Y-71250002D02*
X58049999Y-78000002D01*
X58049999Y-96750002D02*
X57049999Y-96750002D01*
X40049999Y-96000002D02*
X40049999Y-96750002D01*
X58049999Y-77190002D02*
X40049999Y-77190002D01*
X74975002Y-101910002D02*
X74325002Y-101910002D01*
X74975002Y-98790002D02*
X75625002Y-98790002D01*
X74975002Y-101910002D02*
X75625002Y-101910002D01*
X74975002Y-98790002D02*
X73300002Y-98790002D01*
X106650002Y-55674999D02*
X106650002Y-46274999D01*
X104750002Y-46274999D02*
X106650002Y-46274999D01*
X100850002Y-55674999D02*
X102850002Y-55674999D01*
X104750002Y-55674999D02*
X106650002Y-55674999D01*
X100850002Y-46274999D02*
X102850002Y-46274999D01*
X36474999Y-64909999D02*
X37124999Y-64909999D01*
X36474999Y-61789999D02*
X37124999Y-61789999D01*
X36474999Y-61789999D02*
X34799999Y-61789999D01*
X36474999Y-64909999D02*
X35824999Y-64909999D01*
X96550002Y-40189999D02*
X78550002Y-40189999D01*
X78550002Y-34249999D02*
X78550002Y-40999999D01*
X96550002Y-34249999D02*
X96550002Y-40999999D01*
X78550002Y-34249999D02*
X96550002Y-34249999D01*
X78550002Y-58999999D02*
X78550002Y-59749999D01*
X96550002Y-59749999D02*
X95550002Y-59749999D01*
X78550002Y-59749999D02*
X79550002Y-59749999D01*
X96550002Y-58999999D02*
X96550002Y-59749999D01*
X36714999Y-96852066D02*
X36714999Y-96397938D01*
X38184999Y-96852066D02*
X38184999Y-96397938D01*
X92765002Y-55739999D02*
X92195002Y-55739999D01*
X94855002Y-55739999D02*
X94855002Y-49329999D01*
X92195002Y-57134999D02*
X92195002Y-56374999D01*
X92195002Y-55739999D02*
X92195002Y-49329999D01*
X94855002Y-55739999D02*
X94285002Y-55739999D01*
X93217472Y-49329999D02*
X92195002Y-49329999D01*
X94855002Y-49329999D02*
X93832532Y-49329999D01*
X93525002Y-57134999D02*
X92195002Y-57134999D01*
X96550002Y-96750002D02*
X95550002Y-96750002D01*
X78550002Y-96750002D02*
X79550002Y-96750002D01*
X96550002Y-96000002D02*
X96550002Y-96750002D01*
X78550002Y-96000002D02*
X78550002Y-96750002D01*
X96550002Y-77190002D02*
X78550002Y-77190002D01*
X78550002Y-71250002D02*
X78550002Y-78000002D01*
X78550002Y-71250002D02*
X96550002Y-71250002D01*
X96550002Y-71250002D02*
X96550002Y-78000002D01*
X37874999Y-54249999D02*
X34374999Y-54249999D01*
X37874999Y-45849999D02*
X37874999Y-54249999D01*
X34374999Y-45849999D02*
X37874999Y-45849999D01*
X34374999Y-54249999D02*
X34374999Y-45849999D01*
D12*
X33829999Y-53899999D02*
G75*
G03*
X33829999Y-53899999I-155000J0D01*
G01*
D11*
X57064999Y-62376247D02*
X57064999Y-62898751D01*
X58534999Y-62376247D02*
X58534999Y-62898751D01*
X75215002Y-96852066D02*
X75215002Y-96397938D01*
X76685002Y-96852066D02*
X76685002Y-96397938D01*
X56334999Y-99936254D02*
X56334999Y-99413750D01*
X54864999Y-99936254D02*
X54864999Y-99413750D01*
X74975002Y-61789999D02*
X73300002Y-61789999D01*
X74975002Y-61789999D02*
X75625002Y-61789999D01*
X74975002Y-64909999D02*
X75625002Y-64909999D01*
X74975002Y-64909999D02*
X74325002Y-64909999D01*
X83485002Y-101111254D02*
X83485002Y-100588750D01*
X82015002Y-101111254D02*
X82015002Y-100588750D01*
X56354999Y-55739999D02*
X56354999Y-49329999D01*
X53694999Y-57134999D02*
X53694999Y-56374999D01*
X56354999Y-55739999D02*
X55784999Y-55739999D01*
X55024999Y-57134999D02*
X53694999Y-57134999D01*
X56354999Y-49329999D02*
X55332529Y-49329999D01*
X54264999Y-55739999D02*
X53694999Y-55739999D01*
X54717469Y-49329999D02*
X53694999Y-49329999D01*
X53694999Y-55739999D02*
X53694999Y-49329999D01*
X94835002Y-62936251D02*
X94835002Y-62413747D01*
X93365002Y-62936251D02*
X93365002Y-62413747D01*
X34439999Y-59422935D02*
X34439999Y-59877063D01*
X35909999Y-59422935D02*
X35909999Y-59877063D01*
X55024999Y-94135002D02*
X53694999Y-94135002D01*
X53694999Y-92740002D02*
X53694999Y-86330002D01*
X56354999Y-92740002D02*
X55784999Y-92740002D01*
X53694999Y-94135002D02*
X53694999Y-93375002D01*
X56354999Y-92740002D02*
X56354999Y-86330002D01*
X56354999Y-86330002D02*
X55332529Y-86330002D01*
X54264999Y-92740002D02*
X53694999Y-92740002D01*
X54717469Y-86330002D02*
X53694999Y-86330002D01*
X97915002Y-100160002D02*
X99175002Y-100160002D01*
X104735002Y-100160002D02*
X103475002Y-100160002D01*
X97915002Y-96400002D02*
X97915002Y-100160002D01*
X104735002Y-94150002D02*
X104735002Y-100160002D01*
X63809999Y-80802066D02*
X63809999Y-80347938D01*
X62339999Y-80802066D02*
X62339999Y-80347938D01*
X74347938Y-43989999D02*
X74802066Y-43989999D01*
X74347938Y-45459999D02*
X74802066Y-45459999D01*
X104750002Y-83275002D02*
X106650002Y-83275002D01*
X100850002Y-83275002D02*
X102850002Y-83275002D01*
X106650002Y-92675002D02*
X106650002Y-83275002D01*
X100850002Y-92675002D02*
X102850002Y-92675002D01*
X104750002Y-92675002D02*
X106650002Y-92675002D01*
X75215002Y-59852063D02*
X75215002Y-59397935D01*
X76685002Y-59852063D02*
X76685002Y-59397935D01*
X104735002Y-57149999D02*
X104735002Y-63159999D01*
X97915002Y-59399999D02*
X97915002Y-63159999D01*
X104735002Y-63159999D02*
X103475002Y-63159999D01*
X97915002Y-63159999D02*
X99175002Y-63159999D01*
X83485002Y-64111251D02*
X83485002Y-63588747D01*
X82015002Y-64111251D02*
X82015002Y-63588747D01*
X95565002Y-99376250D02*
X95565002Y-99898754D01*
X97035002Y-99376250D02*
X97035002Y-99898754D01*
X77640002Y-100097938D02*
X77640002Y-100552066D01*
X79110002Y-100097938D02*
X79110002Y-100552066D01*
X93525002Y-94135002D02*
X92195002Y-94135002D01*
X94855002Y-92740002D02*
X94285002Y-92740002D01*
X94855002Y-86330002D02*
X93832532Y-86330002D01*
X92195002Y-92740002D02*
X92195002Y-86330002D01*
X94855002Y-92740002D02*
X94855002Y-86330002D01*
X92195002Y-94135002D02*
X92195002Y-93375002D01*
X93217472Y-86330002D02*
X92195002Y-86330002D01*
X92765002Y-92740002D02*
X92195002Y-92740002D01*
X47274999Y-97675002D02*
X47274999Y-98825002D01*
X54574999Y-97675002D02*
X47274999Y-97675002D01*
X54574999Y-103175002D02*
X47274999Y-103175002D01*
X102310002Y-43802063D02*
X102310002Y-43347935D01*
X100840002Y-43802063D02*
X100840002Y-43347935D01*
X99410002Y-43911251D02*
X99410002Y-43388747D01*
X97940002Y-43911251D02*
X97940002Y-43388747D01*
X63809999Y-43802063D02*
X63809999Y-43347935D01*
X62339999Y-43802063D02*
X62339999Y-43347935D01*
X35847935Y-45459999D02*
X36302063Y-45459999D01*
X35847935Y-43989999D02*
X36302063Y-43989999D01*
X41364999Y-64061251D02*
X41364999Y-63538747D01*
X42834999Y-64061251D02*
X42834999Y-63538747D01*
X81335002Y-64061251D02*
X81335002Y-63538747D01*
X79865002Y-64061251D02*
X79865002Y-63538747D01*
X43514999Y-64111251D02*
X43514999Y-63588747D01*
X44984999Y-64111251D02*
X44984999Y-63588747D01*
X60909999Y-43911251D02*
X60909999Y-43388747D01*
X59439999Y-43911251D02*
X59439999Y-43388747D01*
X65934999Y-43802063D02*
X65934999Y-43347935D01*
X64464999Y-43802063D02*
X64464999Y-43347935D01*
X35847935Y-82460002D02*
X36302063Y-82460002D01*
X35847935Y-80990002D02*
X36302063Y-80990002D01*
X36339999Y-78936254D02*
X36339999Y-78413750D01*
X37809999Y-78936254D02*
X37809999Y-78413750D01*
X72715002Y-41961251D02*
X72715002Y-41438747D01*
X74185002Y-41961251D02*
X74185002Y-41438747D01*
X102965002Y-80802066D02*
X102965002Y-80347938D01*
X104435002Y-80802066D02*
X104435002Y-80347938D01*
X93075002Y-103175002D02*
X85775002Y-103175002D01*
X85775002Y-97675002D02*
X85775002Y-98825002D01*
X93075002Y-97675002D02*
X85775002Y-97675002D01*
X35863747Y-54664999D02*
X36386251Y-54664999D01*
X35863747Y-56134999D02*
X36386251Y-56134999D01*
X104435002Y-43802063D02*
X104435002Y-43347935D01*
X102965002Y-43802063D02*
X102965002Y-43347935D01*
X62349999Y-55674999D02*
X64349999Y-55674999D01*
X68149999Y-55674999D02*
X68149999Y-46274999D01*
X66249999Y-55674999D02*
X68149999Y-55674999D01*
X62349999Y-46274999D02*
X64349999Y-46274999D01*
X66249999Y-46274999D02*
X68149999Y-46274999D01*
X35863747Y-93135002D02*
X36386251Y-93135002D01*
X35863747Y-91665002D02*
X36386251Y-91665002D01*
X44984999Y-101111254D02*
X44984999Y-100588750D01*
X43514999Y-101111254D02*
X43514999Y-100588750D01*
X34214999Y-41961251D02*
X34214999Y-41438747D01*
X35684999Y-41961251D02*
X35684999Y-41438747D01*
X42834999Y-101061254D02*
X42834999Y-100538750D01*
X41364999Y-101061254D02*
X41364999Y-100538750D01*
X34439999Y-96422938D02*
X34439999Y-96877066D01*
X35909999Y-96422938D02*
X35909999Y-96877066D01*
X74363750Y-93135002D02*
X74886254Y-93135002D01*
X74363750Y-91665002D02*
X74886254Y-91665002D01*
X59414999Y-96400002D02*
X59414999Y-100160002D01*
X66234999Y-100160002D02*
X64974999Y-100160002D01*
X66234999Y-94150002D02*
X66234999Y-100160002D01*
X59414999Y-100160002D02*
X60674999Y-100160002D01*
X74347938Y-80990002D02*
X74802066Y-80990002D01*
X74347938Y-82460002D02*
X74802066Y-82460002D01*
X74410002Y-96422938D02*
X74410002Y-96877066D01*
X72940002Y-96422938D02*
X72940002Y-96877066D01*
X79865002Y-101061254D02*
X79865002Y-100538750D01*
X81335002Y-101061254D02*
X81335002Y-100538750D01*
X79110002Y-63097935D02*
X79110002Y-63552063D01*
X77640002Y-63097935D02*
X77640002Y-63552063D01*
X62349999Y-83275002D02*
X64349999Y-83275002D01*
X66249999Y-92675002D02*
X68149999Y-92675002D01*
X62349999Y-92675002D02*
X64349999Y-92675002D01*
X66249999Y-83275002D02*
X68149999Y-83275002D01*
X68149999Y-92675002D02*
X68149999Y-83275002D01*
X36714999Y-59852063D02*
X36714999Y-59397935D01*
X38184999Y-59852063D02*
X38184999Y-59397935D01*
X76375002Y-54249999D02*
X72875002Y-54249999D01*
X72875002Y-54249999D02*
X72875002Y-45849999D01*
X72875002Y-45849999D02*
X76375002Y-45849999D01*
X76375002Y-45849999D02*
X76375002Y-54249999D01*
D12*
X72330002Y-53899999D02*
G75*
G03*
X72330002Y-53899999I-155000J0D01*
G01*
D11*
X35684999Y-78961254D02*
X35684999Y-78438750D01*
X34214999Y-78961254D02*
X34214999Y-78438750D01*
X36339999Y-41936251D02*
X36339999Y-41413747D01*
X37809999Y-41936251D02*
X37809999Y-41413747D01*
X36474999Y-101910002D02*
X35824999Y-101910002D01*
X36474999Y-101910002D02*
X37124999Y-101910002D01*
X36474999Y-98790002D02*
X34799999Y-98790002D01*
X36474999Y-98790002D02*
X37124999Y-98790002D01*
X76310002Y-41936251D02*
X76310002Y-41413747D01*
X74840002Y-41936251D02*
X74840002Y-41413747D01*
X93365002Y-99936254D02*
X93365002Y-99413750D01*
X94835002Y-99936254D02*
X94835002Y-99413750D01*
X57064999Y-99376250D02*
X57064999Y-99898754D01*
X58534999Y-99376250D02*
X58534999Y-99898754D01*
X56334999Y-62936251D02*
X56334999Y-62413747D01*
X54864999Y-62936251D02*
X54864999Y-62413747D01*
X66234999Y-63159999D02*
X64974999Y-63159999D01*
X59414999Y-63159999D02*
X60674999Y-63159999D01*
X59414999Y-59399999D02*
X59414999Y-63159999D01*
X66234999Y-57149999D02*
X66234999Y-63159999D01*
X39139999Y-100097938D02*
X39139999Y-100552066D01*
X40609999Y-100097938D02*
X40609999Y-100552066D01*
X76375002Y-82850002D02*
X76375002Y-91250002D01*
X72875002Y-82850002D02*
X76375002Y-82850002D01*
X72875002Y-91250002D02*
X72875002Y-82850002D01*
X76375002Y-91250002D02*
X72875002Y-91250002D01*
D12*
X72330002Y-90900002D02*
G75*
G03*
X72330002Y-90900002I-155000J0D01*
G01*
D11*
X54574999Y-60674999D02*
X47274999Y-60674999D01*
X47274999Y-60674999D02*
X47274999Y-61824999D01*
X54574999Y-66174999D02*
X47274999Y-66174999D01*
X40049999Y-34249999D02*
X58049999Y-34249999D01*
X40049999Y-34249999D02*
X40049999Y-40999999D01*
X58049999Y-58999999D02*
X58049999Y-59749999D01*
X58049999Y-34249999D02*
X58049999Y-40999999D01*
X40049999Y-58999999D02*
X40049999Y-59749999D01*
X40049999Y-59749999D02*
X41049999Y-59749999D01*
X58049999Y-59749999D02*
X57049999Y-59749999D01*
X58049999Y-40189999D02*
X40049999Y-40189999D01*
X102310002Y-80802066D02*
X102310002Y-80347938D01*
X100840002Y-80802066D02*
X100840002Y-80347938D01*
X72715002Y-78961254D02*
X72715002Y-78438750D01*
X74185002Y-78961254D02*
X74185002Y-78438750D01*
X95565002Y-62376247D02*
X95565002Y-62898751D01*
X97035002Y-62376247D02*
X97035002Y-62898751D01*
X93075002Y-60674999D02*
X85775002Y-60674999D01*
X85775002Y-60674999D02*
X85775002Y-61824999D01*
X93075002Y-66174999D02*
X85775002Y-66174999D01*
X72940002Y-59422935D02*
X72940002Y-59877063D01*
X74410002Y-59422935D02*
X74410002Y-59877063D01*
X65934999Y-80802066D02*
X65934999Y-80347938D01*
X64464999Y-80802066D02*
X64464999Y-80347938D01*
X76310002Y-78936254D02*
X76310002Y-78413750D01*
X74840002Y-78936254D02*
X74840002Y-78413750D01*
X74363750Y-54664999D02*
X74886254Y-54664999D01*
X74363750Y-56134999D02*
X74886254Y-56134999D01*
X99410002Y-80911254D02*
X99410002Y-80388750D01*
X97940002Y-80911254D02*
X97940002Y-80388750D01*
%LPC*%
D13*
X60174999Y-81687502D03*
X60174999Y-79612502D03*
D14*
X39874999Y-62324999D03*
X39874999Y-64324999D03*
D15*
X36124999Y-90900002D03*
X36124999Y-90200002D03*
X36124999Y-89500002D03*
X36124999Y-88800002D03*
X36124999Y-88100002D03*
X36124999Y-87400002D03*
X36124999Y-86700002D03*
X36124999Y-86000002D03*
X36124999Y-85300002D03*
X36124999Y-84600002D03*
X36124999Y-83900002D03*
X36124999Y-83200002D03*
D16*
X40299999Y-78740002D03*
X40299999Y-80010002D03*
X40299999Y-81280002D03*
X40299999Y-82550002D03*
X40299999Y-83820002D03*
X40299999Y-85090002D03*
X40299999Y-86360002D03*
X40299999Y-87630002D03*
X40299999Y-88900002D03*
X40299999Y-90170002D03*
X40299999Y-91440002D03*
X40299999Y-92710002D03*
X40299999Y-93980002D03*
X40299999Y-95250002D03*
D17*
X42064999Y-96500002D03*
X43334999Y-96500002D03*
X44604999Y-96500002D03*
X45874999Y-96500002D03*
X47144999Y-96500002D03*
X48414999Y-96500002D03*
X49684999Y-96500002D03*
X50954999Y-96500002D03*
X52224999Y-96500002D03*
X53494999Y-96500002D03*
X54764999Y-96500002D03*
X56034999Y-96500002D03*
D16*
X57799999Y-95250002D03*
X57799999Y-93980002D03*
X57799999Y-92710002D03*
X57799999Y-91440002D03*
X57799999Y-90170002D03*
X57799999Y-88900002D03*
X57799999Y-87630002D03*
X57799999Y-86360002D03*
X57799999Y-85090002D03*
X57799999Y-83820002D03*
X57799999Y-82550002D03*
X57799999Y-81280002D03*
X57799999Y-80010002D03*
X57799999Y-78740002D03*
D18*
X48949999Y-86460002D03*
X48949999Y-85060002D03*
X46149999Y-87860002D03*
X46149999Y-86460002D03*
X46149999Y-85060002D03*
X48949999Y-87860002D03*
X47549999Y-86460002D03*
X47549999Y-85060002D03*
X47549999Y-87860002D03*
D19*
X74037502Y-99400002D03*
X74037502Y-101300002D03*
X75912502Y-100350002D03*
D20*
X100150002Y-48084999D03*
X100150002Y-53864999D03*
D21*
X98705002Y-54224999D03*
X98705002Y-53424999D03*
D22*
X98705002Y-52224999D03*
X98705002Y-51224999D03*
X98705002Y-50724999D03*
X98705002Y-49724999D03*
D21*
X98705002Y-48524999D03*
X98705002Y-47724999D03*
X98705002Y-47724999D03*
X98705002Y-48524999D03*
D22*
X98705002Y-49224999D03*
X98705002Y-50224999D03*
X98705002Y-51724999D03*
X98705002Y-52724999D03*
D21*
X98705002Y-53424999D03*
X98705002Y-54224999D03*
D23*
X99620002Y-55294999D03*
D24*
X103800002Y-55294999D03*
X103800002Y-46654999D03*
D23*
X99620002Y-46654999D03*
D19*
X35537499Y-62399999D03*
X35537499Y-64299999D03*
X37412499Y-63349999D03*
D16*
X78800002Y-41739999D03*
X78800002Y-43009999D03*
X78800002Y-44279999D03*
X78800002Y-45549999D03*
X78800002Y-46819999D03*
X78800002Y-48089999D03*
X78800002Y-49359999D03*
X78800002Y-50629999D03*
X78800002Y-51899999D03*
X78800002Y-53169999D03*
X78800002Y-54439999D03*
X78800002Y-55709999D03*
X78800002Y-56979999D03*
X78800002Y-58249999D03*
D17*
X80565002Y-59499999D03*
X81835002Y-59499999D03*
X83105002Y-59499999D03*
X84375002Y-59499999D03*
X85645002Y-59499999D03*
X86915002Y-59499999D03*
X88185002Y-59499999D03*
X89455002Y-59499999D03*
X90725002Y-59499999D03*
X91995002Y-59499999D03*
X93265002Y-59499999D03*
X94535002Y-59499999D03*
D16*
X96300002Y-58249999D03*
X96300002Y-56979999D03*
X96300002Y-55709999D03*
X96300002Y-54439999D03*
X96300002Y-53169999D03*
X96300002Y-51899999D03*
X96300002Y-50629999D03*
X96300002Y-49359999D03*
X96300002Y-48089999D03*
X96300002Y-46819999D03*
X96300002Y-45549999D03*
X96300002Y-44279999D03*
X96300002Y-43009999D03*
X96300002Y-41739999D03*
D18*
X86050002Y-49459999D03*
X87450002Y-50859999D03*
X87450002Y-49459999D03*
X84650002Y-48059999D03*
X84650002Y-49459999D03*
X86050002Y-50859999D03*
X84650002Y-50859999D03*
X87450002Y-48059999D03*
X86050002Y-48059999D03*
D25*
X37449999Y-97625002D03*
X37449999Y-95625002D03*
D26*
X93525002Y-56374999D03*
D27*
X93525002Y-55104999D03*
X93525002Y-53834999D03*
X93525002Y-52564999D03*
X93525002Y-51294999D03*
X93525002Y-50024999D03*
D16*
X78800002Y-78740002D03*
X78800002Y-80010002D03*
X78800002Y-81280002D03*
X78800002Y-82550002D03*
X78800002Y-83820002D03*
X78800002Y-85090002D03*
X78800002Y-86360002D03*
X78800002Y-87630002D03*
X78800002Y-88900002D03*
X78800002Y-90170002D03*
X78800002Y-91440002D03*
X78800002Y-92710002D03*
X78800002Y-93980002D03*
X78800002Y-95250002D03*
D17*
X80565002Y-96500002D03*
X81835002Y-96500002D03*
X83105002Y-96500002D03*
X84375002Y-96500002D03*
X85645002Y-96500002D03*
X86915002Y-96500002D03*
X88185002Y-96500002D03*
X89455002Y-96500002D03*
X90725002Y-96500002D03*
X91995002Y-96500002D03*
X93265002Y-96500002D03*
X94535002Y-96500002D03*
D16*
X96300002Y-95250002D03*
X96300002Y-93980002D03*
X96300002Y-92710002D03*
X96300002Y-91440002D03*
X96300002Y-90170002D03*
X96300002Y-88900002D03*
X96300002Y-87630002D03*
X96300002Y-86360002D03*
X96300002Y-85090002D03*
X96300002Y-83820002D03*
X96300002Y-82550002D03*
X96300002Y-81280002D03*
X96300002Y-80010002D03*
X96300002Y-78740002D03*
D18*
X86050002Y-87860002D03*
X87450002Y-87860002D03*
X86050002Y-86460002D03*
X86050002Y-85060002D03*
X84650002Y-86460002D03*
X87450002Y-86460002D03*
X87450002Y-85060002D03*
X84650002Y-85060002D03*
X84650002Y-87860002D03*
D15*
X36124999Y-53899999D03*
X36124999Y-53199999D03*
X36124999Y-52499999D03*
X36124999Y-51799999D03*
X36124999Y-51099999D03*
X36124999Y-50399999D03*
X36124999Y-49699999D03*
X36124999Y-48999999D03*
X36124999Y-48299999D03*
X36124999Y-47599999D03*
X36124999Y-46899999D03*
X36124999Y-46199999D03*
D28*
X57799999Y-61599999D03*
X57799999Y-63674999D03*
D25*
X75950002Y-97625002D03*
X75950002Y-95625002D03*
D29*
X96251000Y-27002000D03*
D13*
X55599999Y-100712502D03*
X55599999Y-98637502D03*
D19*
X74037502Y-62399999D03*
X74037502Y-64299999D03*
X75912502Y-63349999D03*
D13*
X82750002Y-101887502D03*
X82750002Y-99812502D03*
D26*
X55024999Y-56374999D03*
D27*
X55024999Y-55104999D03*
X55024999Y-53834999D03*
X55024999Y-52564999D03*
X55024999Y-51294999D03*
X55024999Y-50024999D03*
D13*
X94100002Y-63712499D03*
X94100002Y-61637499D03*
D14*
X35174999Y-58649999D03*
X35174999Y-60649999D03*
D26*
X55024999Y-93375002D03*
D27*
X55024999Y-92105002D03*
X55024999Y-90835002D03*
X55024999Y-89565002D03*
X55024999Y-88295002D03*
X55024999Y-87025002D03*
D30*
X103625002Y-95100002D03*
X101325002Y-95100002D03*
D31*
X101325002Y-101400002D03*
D30*
X99025002Y-95100002D03*
D25*
X63074999Y-81575002D03*
X63074999Y-79575002D03*
D32*
X73575002Y-44724999D03*
X75575002Y-44724999D03*
D20*
X100150002Y-85085002D03*
X100150002Y-90865002D03*
D21*
X98705002Y-91225002D03*
X98705002Y-90425002D03*
D22*
X98705002Y-89225002D03*
X98705002Y-88225002D03*
X98705002Y-87725002D03*
X98705002Y-86725002D03*
D21*
X98705002Y-85525002D03*
X98705002Y-84725002D03*
X98705002Y-84725002D03*
X98705002Y-85525002D03*
D22*
X98705002Y-86225002D03*
X98705002Y-87225002D03*
X98705002Y-88725002D03*
X98705002Y-89725002D03*
D21*
X98705002Y-90425002D03*
X98705002Y-91225002D03*
D23*
X99620002Y-92295002D03*
X99620002Y-83655002D03*
D24*
X103800002Y-83655002D03*
X103800002Y-92295002D03*
D25*
X75950002Y-60624999D03*
X75950002Y-58624999D03*
D30*
X103625002Y-58099999D03*
X101325002Y-58099999D03*
D31*
X101325002Y-64399999D03*
D30*
X99025002Y-58099999D03*
D13*
X82750002Y-64887499D03*
X82750002Y-62812499D03*
D28*
X96300002Y-98600002D03*
X96300002Y-100675002D03*
D14*
X78375002Y-99325002D03*
X78375002Y-101325002D03*
D26*
X93525002Y-93375002D03*
D27*
X93525002Y-92105002D03*
X93525002Y-90835002D03*
X93525002Y-89565002D03*
X93525002Y-88295002D03*
X93525002Y-87025002D03*
D33*
X48474999Y-98825002D03*
X48474999Y-102025002D03*
X53374999Y-102025002D03*
X53374999Y-98825002D03*
D25*
X101575002Y-44574999D03*
X101575002Y-42574999D03*
D29*
X96251000Y-109998000D03*
D13*
X98675002Y-44687499D03*
X98675002Y-42612499D03*
D25*
X63074999Y-44574999D03*
X63074999Y-42574999D03*
D32*
X35074999Y-44724999D03*
X37074999Y-44724999D03*
D13*
X42099999Y-64837499D03*
X42099999Y-62762499D03*
X80600002Y-64837499D03*
X80600002Y-62762499D03*
X44249999Y-64887499D03*
X44249999Y-62812499D03*
X60174999Y-44687499D03*
X60174999Y-42612499D03*
D25*
X65199999Y-44574999D03*
X65199999Y-42574999D03*
D32*
X35074999Y-81725002D03*
X37074999Y-81725002D03*
D13*
X37074999Y-79712502D03*
X37074999Y-77637502D03*
X73450002Y-42737499D03*
X73450002Y-40662499D03*
D25*
X103700002Y-81575002D03*
X103700002Y-79575002D03*
D33*
X86975002Y-98825002D03*
X86975002Y-102025002D03*
X91875002Y-102025002D03*
X91875002Y-98825002D03*
D34*
X35087499Y-55399999D03*
X37162499Y-55399999D03*
D25*
X103700002Y-44574999D03*
X103700002Y-42574999D03*
D20*
X61649999Y-53864999D03*
X61649999Y-48084999D03*
D21*
X60204999Y-54224999D03*
X60204999Y-53424999D03*
D22*
X60204999Y-52224999D03*
X60204999Y-51224999D03*
X60204999Y-50724999D03*
X60204999Y-49724999D03*
D21*
X60204999Y-48524999D03*
X60204999Y-47724999D03*
X60204999Y-47724999D03*
X60204999Y-48524999D03*
D22*
X60204999Y-49224999D03*
X60204999Y-50224999D03*
X60204999Y-51724999D03*
X60204999Y-52724999D03*
D21*
X60204999Y-53424999D03*
X60204999Y-54224999D03*
D24*
X65299999Y-46654999D03*
X65299999Y-55294999D03*
D23*
X61119999Y-46654999D03*
X61119999Y-55294999D03*
D34*
X35087499Y-92400002D03*
X37162499Y-92400002D03*
D13*
X44249999Y-101887502D03*
X44249999Y-99812502D03*
X34949999Y-42737499D03*
X34949999Y-40662499D03*
D35*
X100251000Y-109998000D03*
D13*
X42099999Y-101837502D03*
X42099999Y-99762502D03*
D14*
X35174999Y-95650002D03*
X35174999Y-97650002D03*
D34*
X73587502Y-92400002D03*
X75662502Y-92400002D03*
D30*
X65124999Y-95100002D03*
X62824999Y-95100002D03*
D31*
X62824999Y-101400002D03*
D30*
X60524999Y-95100002D03*
D35*
X38249000Y-27002000D03*
D32*
X73575002Y-81725002D03*
X75575002Y-81725002D03*
D14*
X73675002Y-95650002D03*
X73675002Y-97650002D03*
D13*
X80600002Y-101837502D03*
X80600002Y-99762502D03*
D14*
X78375002Y-62324999D03*
X78375002Y-64324999D03*
D20*
X61649999Y-90865002D03*
X61649999Y-85085002D03*
D21*
X60204999Y-91225002D03*
X60204999Y-90425002D03*
D22*
X60204999Y-89225002D03*
X60204999Y-88225002D03*
X60204999Y-87725002D03*
X60204999Y-86725002D03*
D21*
X60204999Y-85525002D03*
X60204999Y-84725002D03*
X60204999Y-84725002D03*
X60204999Y-85525002D03*
D22*
X60204999Y-86225002D03*
X60204999Y-87225002D03*
X60204999Y-88725002D03*
X60204999Y-89725002D03*
D21*
X60204999Y-90425002D03*
X60204999Y-91225002D03*
D24*
X65299999Y-92295002D03*
D23*
X61119999Y-83655002D03*
X61119999Y-92295002D03*
D24*
X65299999Y-83655002D03*
D25*
X37449999Y-60624999D03*
X37449999Y-58624999D03*
D15*
X74625002Y-53899999D03*
X74625002Y-53199999D03*
X74625002Y-52499999D03*
X74625002Y-51799999D03*
X74625002Y-51099999D03*
X74625002Y-50399999D03*
X74625002Y-49699999D03*
X74625002Y-48999999D03*
X74625002Y-48299999D03*
X74625002Y-47599999D03*
X74625002Y-46899999D03*
X74625002Y-46199999D03*
D13*
X34949999Y-79737502D03*
X34949999Y-77662502D03*
D29*
X42249000Y-109998000D03*
D35*
X100251000Y-27002000D03*
D13*
X37074999Y-42712499D03*
X37074999Y-40637499D03*
D19*
X35537499Y-99400002D03*
X35537499Y-101300002D03*
X37412499Y-100350002D03*
D13*
X75575002Y-42712499D03*
X75575002Y-40637499D03*
X94100002Y-100712502D03*
X94100002Y-98637502D03*
D28*
X57799999Y-98600002D03*
X57799999Y-100675002D03*
D13*
X55599999Y-63712499D03*
X55599999Y-61637499D03*
D30*
X65124999Y-58099999D03*
D31*
X62824999Y-64399999D03*
D30*
X62824999Y-58099999D03*
X60524999Y-58099999D03*
D14*
X39874999Y-99325002D03*
X39874999Y-101325002D03*
D15*
X74625002Y-90900002D03*
X74625002Y-90200002D03*
X74625002Y-89500002D03*
X74625002Y-88800002D03*
X74625002Y-88100002D03*
X74625002Y-87400002D03*
X74625002Y-86700002D03*
X74625002Y-86000002D03*
X74625002Y-85300002D03*
X74625002Y-84600002D03*
X74625002Y-83900002D03*
X74625002Y-83200002D03*
D33*
X48474999Y-61824999D03*
X48474999Y-65024999D03*
X53374999Y-65024999D03*
X53374999Y-61824999D03*
D16*
X40299999Y-41739999D03*
X40299999Y-43009999D03*
X40299999Y-44279999D03*
X40299999Y-45549999D03*
X40299999Y-46819999D03*
X40299999Y-48089999D03*
X40299999Y-49359999D03*
X40299999Y-50629999D03*
X40299999Y-51899999D03*
X40299999Y-53169999D03*
X40299999Y-54439999D03*
X40299999Y-55709999D03*
X40299999Y-56979999D03*
X40299999Y-58249999D03*
D17*
X42064999Y-59499999D03*
X43334999Y-59499999D03*
X44604999Y-59499999D03*
X45874999Y-59499999D03*
X47144999Y-59499999D03*
X48414999Y-59499999D03*
X49684999Y-59499999D03*
X50954999Y-59499999D03*
X52224999Y-59499999D03*
X53494999Y-59499999D03*
X54764999Y-59499999D03*
X56034999Y-59499999D03*
D16*
X57799999Y-58249999D03*
X57799999Y-56979999D03*
X57799999Y-55709999D03*
X57799999Y-54439999D03*
X57799999Y-53169999D03*
X57799999Y-51899999D03*
X57799999Y-50629999D03*
X57799999Y-49359999D03*
X57799999Y-48089999D03*
X57799999Y-46819999D03*
X57799999Y-45549999D03*
X57799999Y-44279999D03*
X57799999Y-43009999D03*
X57799999Y-41739999D03*
D18*
X48949999Y-49459999D03*
X47549999Y-49459999D03*
X48949999Y-50859999D03*
X47549999Y-48059999D03*
X47549999Y-50859999D03*
X48949999Y-48059999D03*
X46149999Y-50859999D03*
X46149999Y-48059999D03*
X46149999Y-49459999D03*
D29*
X42249000Y-27002000D03*
D25*
X101575002Y-81575002D03*
X101575002Y-79575002D03*
D13*
X73450002Y-79737502D03*
X73450002Y-77662502D03*
D35*
X38249000Y-109998000D03*
D28*
X96300002Y-61599999D03*
X96300002Y-63674999D03*
D33*
X86975002Y-61824999D03*
X86975002Y-65024999D03*
X91875002Y-65024999D03*
X91875002Y-61824999D03*
D14*
X73675002Y-58649999D03*
X73675002Y-60649999D03*
D25*
X65199999Y-81575002D03*
X65199999Y-79575002D03*
D13*
X75575002Y-79712502D03*
X75575002Y-77637502D03*
D34*
X73587502Y-55399999D03*
X75662502Y-55399999D03*
D13*
X98675002Y-81687502D03*
X98675002Y-79612502D03*
M02*
