G04 #@! TF.GenerationSoftware,KiCad,Pcbnew,6.0.4-6f826c9f35~116~ubuntu20.04.1*
G04 #@! TF.CreationDate,2022-04-01T21:21:36+11:00*
G04 #@! TF.ProjectId,panel,70616e65-6c2e-46b6-9963-61645f706362,rev?*
G04 #@! TF.SameCoordinates,Original*
G04 #@! TF.FileFunction,Copper,L2,Bot*
G04 #@! TF.FilePolarity,Positive*
%FSLAX46Y46*%
G04 Gerber Fmt 4.6, Leading zero omitted, Abs format (unit mm)*
G04 Created by KiCad (PCBNEW 6.0.4-6f826c9f35~116~ubuntu20.04.1) date 2022-04-01 21:21:36*
%MOMM*%
%LPD*%
G01*
G04 APERTURE LIST*
G04 #@! TA.AperFunction,ComponentPad*
%ADD10O,2.100000X1.000000*%
G04 #@! TD*
G04 #@! TA.AperFunction,ComponentPad*
%ADD11O,1.600000X1.000000*%
G04 #@! TD*
G04 #@! TA.AperFunction,ComponentPad*
%ADD12R,1.000000X1.000000*%
G04 #@! TD*
G04 #@! TA.AperFunction,ComponentPad*
%ADD13O,1.000000X1.000000*%
G04 #@! TD*
G04 #@! TA.AperFunction,SMDPad,CuDef*
%ADD14C,1.000000*%
G04 #@! TD*
G04 #@! TA.AperFunction,ViaPad*
%ADD15C,0.600000*%
G04 #@! TD*
G04 #@! TA.AperFunction,Conductor*
%ADD16C,0.762000*%
G04 #@! TD*
G04 #@! TA.AperFunction,Conductor*
%ADD17C,0.200000*%
G04 #@! TD*
G04 #@! TA.AperFunction,Conductor*
%ADD18C,0.203200*%
G04 #@! TD*
G04 APERTURE END LIST*
D10*
X99620002Y-55294999D03*
D11*
X103800002Y-55294999D03*
X103800002Y-46654999D03*
D10*
X99620002Y-46654999D03*
D12*
X93525002Y-56374999D03*
D13*
X93525002Y-55104999D03*
X93525002Y-53834999D03*
X93525002Y-52564999D03*
X93525002Y-51294999D03*
X93525002Y-50024999D03*
D12*
X55024999Y-56374999D03*
D13*
X55024999Y-55104999D03*
X55024999Y-53834999D03*
X55024999Y-52564999D03*
X55024999Y-51294999D03*
X55024999Y-50024999D03*
D12*
X55024999Y-93375002D03*
D13*
X55024999Y-92105002D03*
X55024999Y-90835002D03*
X55024999Y-89565002D03*
X55024999Y-88295002D03*
X55024999Y-87025002D03*
D10*
X99620002Y-92295002D03*
X99620002Y-83655002D03*
D11*
X103800002Y-83655002D03*
X103800002Y-92295002D03*
D12*
X93525002Y-93375002D03*
D13*
X93525002Y-92105002D03*
X93525002Y-90835002D03*
X93525002Y-89565002D03*
X93525002Y-88295002D03*
X93525002Y-87025002D03*
D11*
X65299999Y-46654999D03*
X65299999Y-55294999D03*
D10*
X61119999Y-46654999D03*
X61119999Y-55294999D03*
D11*
X65299999Y-92295002D03*
D10*
X61119999Y-83655002D03*
X61119999Y-92295002D03*
D11*
X65299999Y-83655002D03*
D14*
X96251000Y-27002000D03*
X42249000Y-27002000D03*
X42249000Y-109998000D03*
X96251000Y-109998000D03*
D15*
X45924999Y-64974999D03*
X33949999Y-57374999D03*
X38674999Y-42999999D03*
X34949999Y-43699999D03*
X53399999Y-63524999D03*
X56399999Y-56774999D03*
X38824999Y-45024999D03*
X56224999Y-42574999D03*
X61649999Y-43449999D03*
X52799999Y-53699999D03*
X41784999Y-41739999D03*
X56224999Y-43324999D03*
X65999999Y-52824999D03*
X49424999Y-63174999D03*
X64424999Y-56349999D03*
X34149999Y-64024999D03*
X46899999Y-60924999D03*
X37324999Y-65274999D03*
X38574999Y-51174999D03*
X51924999Y-51649999D03*
X41699999Y-45849999D03*
X60249999Y-60374999D03*
X56399999Y-45149999D03*
X65899999Y-53674999D03*
X42474999Y-56599999D03*
X53474999Y-40999999D03*
X60724999Y-56524999D03*
X41699999Y-53374999D03*
X47549999Y-46674999D03*
X50199999Y-51099999D03*
X39724999Y-59424999D03*
X53924999Y-53349999D03*
X48374999Y-63549999D03*
X33899999Y-58874999D03*
X49224999Y-57124999D03*
X51274999Y-47099999D03*
X63749999Y-46499999D03*
X63699999Y-51524999D03*
X65399999Y-51399999D03*
X50499999Y-46474999D03*
X38399999Y-65274999D03*
X59174999Y-63724999D03*
X53874999Y-55174999D03*
X59174999Y-61299999D03*
X63599999Y-56349999D03*
X63918034Y-50696486D03*
X54974999Y-48199999D03*
X65274999Y-61849999D03*
X66024999Y-59899999D03*
X64824999Y-48924999D03*
X52299999Y-55999999D03*
X53899999Y-49399999D03*
X50224999Y-49924999D03*
X33999999Y-59649999D03*
X45599999Y-60949999D03*
X49574999Y-40899999D03*
X49524999Y-46774999D03*
X44049999Y-57074999D03*
X65274999Y-52374999D03*
X65699999Y-65274999D03*
X49424999Y-45849999D03*
X50024999Y-57124999D03*
X37374999Y-57049999D03*
X54999999Y-47274999D03*
X44374999Y-52199999D03*
X38562499Y-40662499D03*
X58049999Y-40499999D03*
X64124999Y-49424999D03*
X41774999Y-50774999D03*
X51199999Y-49349999D03*
X51074999Y-50499999D03*
X44274999Y-40924999D03*
X65449999Y-49374999D03*
X65749999Y-63749999D03*
X60949999Y-61549999D03*
X48649999Y-40949999D03*
X66099999Y-49849999D03*
X64324999Y-60499999D03*
X65324999Y-60499999D03*
X33874999Y-60449999D03*
X63699999Y-54624999D03*
X64724999Y-47849999D03*
X59174999Y-58174999D03*
X40574999Y-40549999D03*
X51549999Y-40949999D03*
X55424999Y-40999999D03*
X46574999Y-57099999D03*
X41699999Y-55074999D03*
X63424999Y-52799999D03*
X64124999Y-40749999D03*
X41724999Y-48949999D03*
X63624999Y-55549999D03*
X35999999Y-39574999D03*
X50574999Y-53649999D03*
X48624999Y-46724999D03*
X47549999Y-45749999D03*
X50399999Y-47624999D03*
X66124999Y-56399999D03*
X43249999Y-57049999D03*
X41549999Y-40699999D03*
X61574999Y-41824999D03*
X45249999Y-52899999D03*
X33849999Y-41749999D03*
X55874999Y-45749999D03*
X49474999Y-53649999D03*
X43124999Y-63849999D03*
X41774999Y-46749999D03*
X65474999Y-48399999D03*
X52799999Y-55349999D03*
X66149999Y-48974999D03*
X58874999Y-40549999D03*
X61324999Y-60324999D03*
X36049999Y-45599999D03*
X50274999Y-62549999D03*
X45549999Y-45849999D03*
X47599999Y-51824999D03*
X65099999Y-53399999D03*
X45724999Y-57099999D03*
X52449999Y-40924999D03*
X41774999Y-44049999D03*
X46074999Y-46749999D03*
X48199999Y-53549999D03*
X65649999Y-64549999D03*
X47299999Y-64074999D03*
X48399999Y-57124999D03*
X47574999Y-57124999D03*
X35999999Y-41749999D03*
X43974999Y-48224999D03*
X44699999Y-47774999D03*
X51624999Y-56574999D03*
X41024999Y-61024999D03*
X45724999Y-62299999D03*
X44574999Y-46149999D03*
X56209999Y-41739999D03*
X41824999Y-43149999D03*
X35624999Y-57174999D03*
X59649999Y-46024999D03*
X64124999Y-61799999D03*
X64249999Y-52299999D03*
X41674999Y-54149999D03*
X53924999Y-51849999D03*
X41749999Y-51624999D03*
X57199999Y-40549999D03*
X43724999Y-51424999D03*
X56299999Y-40799999D03*
X46349999Y-40899999D03*
X45449999Y-40874999D03*
X45199999Y-46774999D03*
X39392499Y-40832499D03*
X64599999Y-50124999D03*
X54524999Y-40999999D03*
X50974999Y-51574999D03*
X36099999Y-56299999D03*
X50524999Y-40949999D03*
X54474999Y-48799999D03*
X41674999Y-49824999D03*
X61549999Y-40949999D03*
X60424999Y-62499999D03*
X55224999Y-46474999D03*
X38724999Y-63549999D03*
X40249999Y-60074999D03*
X43174999Y-40849999D03*
X64024999Y-45699999D03*
X52949999Y-51749999D03*
X51324999Y-48249999D03*
X52849999Y-54499999D03*
X41724999Y-44999999D03*
X46549999Y-45899999D03*
X38324999Y-45899999D03*
X44299999Y-46949999D03*
X44899999Y-49549999D03*
X64174999Y-48474999D03*
X41724999Y-52449999D03*
X66099999Y-47774999D03*
X46524999Y-53374999D03*
X46199999Y-61449999D03*
X53849999Y-50249999D03*
X48449999Y-45749999D03*
X64574999Y-51199999D03*
X36149999Y-65349999D03*
X65349999Y-50399999D03*
X64124999Y-53524999D03*
X53899999Y-51074999D03*
X63949999Y-47399999D03*
X42399999Y-40874999D03*
X59199999Y-62949999D03*
X64224999Y-62649999D03*
X47649999Y-40874999D03*
X50424999Y-48799999D03*
X61624999Y-42649999D03*
X44824999Y-48624999D03*
X36274999Y-61524999D03*
X50924999Y-57099999D03*
X65699999Y-62899999D03*
X56224999Y-44149999D03*
X60049999Y-61599999D03*
X41824999Y-56149999D03*
X40849999Y-59324999D03*
X38524999Y-41774999D03*
X57449999Y-59549999D03*
X44874999Y-57074999D03*
X66074999Y-62099999D03*
X38474999Y-50399999D03*
X61324999Y-62524999D03*
X53899999Y-54299999D03*
X59149999Y-62149999D03*
X59974999Y-63274999D03*
X66099999Y-51874999D03*
X33924999Y-61224999D03*
X38374999Y-59624999D03*
X65999999Y-61124999D03*
X61537499Y-52237499D03*
X64149999Y-43599999D03*
X61599999Y-44799999D03*
X61774999Y-49324999D03*
X54374999Y-60874999D03*
X50524999Y-64299999D03*
X59049999Y-55712499D03*
X53999999Y-57675499D03*
X61599999Y-50674999D03*
X53024999Y-58074999D03*
X84425002Y-64974999D03*
X72450002Y-57374999D03*
X77175002Y-42999999D03*
X73450002Y-43699999D03*
X91900002Y-63524999D03*
X94900002Y-56774999D03*
X77325002Y-45024999D03*
X94725002Y-42574999D03*
X100150002Y-43449999D03*
X91300002Y-53699999D03*
X80285002Y-41739999D03*
X94725002Y-43324999D03*
X104500002Y-52824999D03*
X87925002Y-63174999D03*
X102925002Y-56349999D03*
X72650002Y-64024999D03*
X85400002Y-60924999D03*
X75825002Y-65274999D03*
X77075002Y-51174999D03*
X90425002Y-51649999D03*
X80200002Y-45849999D03*
X98750002Y-60374999D03*
X94900002Y-45149999D03*
X104400002Y-53674999D03*
X80975002Y-56599999D03*
X91975002Y-40999999D03*
X99225002Y-56524999D03*
X80200002Y-53374999D03*
X86050002Y-46674999D03*
X88700002Y-51099999D03*
X78225002Y-59424999D03*
X92425002Y-53349999D03*
X86875002Y-63549999D03*
X72400002Y-58874999D03*
X87725002Y-57124999D03*
X89775002Y-47099999D03*
X102250002Y-46499999D03*
X102200002Y-51524999D03*
X103900002Y-51399999D03*
X89000002Y-46474999D03*
X76900002Y-65274999D03*
X97675002Y-63724999D03*
X92375002Y-55174999D03*
X97675002Y-61299999D03*
X102100002Y-56349999D03*
X102418037Y-50696486D03*
X93475002Y-48199999D03*
X103775002Y-61849999D03*
X104525002Y-59899999D03*
X103325002Y-48924999D03*
X90800002Y-55999999D03*
X92400002Y-49399999D03*
X88725002Y-49924999D03*
X72500002Y-59649999D03*
X84100002Y-60949999D03*
X88075002Y-40899999D03*
X88025002Y-46774999D03*
X82550002Y-57074999D03*
X103775002Y-52374999D03*
X104200002Y-65274999D03*
X87925002Y-45849999D03*
X88525002Y-57124999D03*
X75875002Y-57049999D03*
X93500002Y-47274999D03*
X82875002Y-52199999D03*
X77062502Y-40662499D03*
X96550002Y-40499999D03*
X102625002Y-49424999D03*
X80275002Y-50774999D03*
X89700002Y-49349999D03*
X89575002Y-50499999D03*
X82775002Y-40924999D03*
X103950002Y-49374999D03*
X104250002Y-63749999D03*
X99450002Y-61549999D03*
X87150002Y-40949999D03*
X104600002Y-49849999D03*
X102825002Y-60499999D03*
X103825002Y-60499999D03*
X72375002Y-60449999D03*
X102200002Y-54624999D03*
X103225002Y-47849999D03*
X97675002Y-58174999D03*
X79075002Y-40549999D03*
X90050002Y-40949999D03*
X93925002Y-40999999D03*
X85075002Y-57099999D03*
X80200002Y-55074999D03*
X101925002Y-52799999D03*
X102625002Y-40749999D03*
X80225002Y-48949999D03*
X102125002Y-55549999D03*
X74500002Y-39574999D03*
X89075002Y-53649999D03*
X87125002Y-46724999D03*
X86050002Y-45749999D03*
X88900002Y-47624999D03*
X104625002Y-56399999D03*
X81750002Y-57049999D03*
X80050002Y-40699999D03*
X100075002Y-41824999D03*
X83750002Y-52899999D03*
X72350002Y-41749999D03*
X94375002Y-45749999D03*
X87975002Y-53649999D03*
X81625002Y-63849999D03*
X80275002Y-46749999D03*
X103975002Y-48399999D03*
X91300002Y-55349999D03*
X104650002Y-48974999D03*
X97375002Y-40549999D03*
X99825002Y-60324999D03*
X74550002Y-45599999D03*
X88775002Y-62549999D03*
X84050002Y-45849999D03*
X86100002Y-51824999D03*
X103600002Y-53399999D03*
X84225002Y-57099999D03*
X90950002Y-40924999D03*
X80275002Y-44049999D03*
X84575002Y-46749999D03*
X86700002Y-53549999D03*
X104150002Y-64549999D03*
X85800002Y-64074999D03*
X86900002Y-57124999D03*
X86075002Y-57124999D03*
X74500002Y-41749999D03*
X82475002Y-48224999D03*
X83200002Y-47774999D03*
X90125002Y-56574999D03*
X79525002Y-61024999D03*
X84225002Y-62299999D03*
X83075002Y-46149999D03*
X94710002Y-41739999D03*
X80325002Y-43149999D03*
X74125002Y-57174999D03*
X98150002Y-46024999D03*
X102625002Y-61799999D03*
X102750002Y-52299999D03*
X80175002Y-54149999D03*
X92425002Y-51849999D03*
X80250002Y-51624999D03*
X95700002Y-40549999D03*
X82225002Y-51424999D03*
X94800002Y-40799999D03*
X84850002Y-40899999D03*
X83950002Y-40874999D03*
X83700002Y-46774999D03*
X77892502Y-40832499D03*
X103100002Y-50124999D03*
X93025002Y-40999999D03*
X89475002Y-51574999D03*
X74600002Y-56299999D03*
X89025002Y-40949999D03*
X92975002Y-48799999D03*
X80175002Y-49824999D03*
X100050002Y-40949999D03*
X98925002Y-62499999D03*
X93725002Y-46474999D03*
X77225002Y-63549999D03*
X78750002Y-60074999D03*
X81675002Y-40849999D03*
X102525002Y-45699999D03*
X91450002Y-51749999D03*
X89825002Y-48249999D03*
X91350002Y-54499999D03*
X80225002Y-44999999D03*
X85050002Y-45899999D03*
X76825002Y-45899999D03*
X82800002Y-46949999D03*
X83400002Y-49549999D03*
X102675002Y-48474999D03*
X80225002Y-52449999D03*
X104600002Y-47774999D03*
X85025002Y-53374999D03*
X84700002Y-61449999D03*
X92350002Y-50249999D03*
X86950002Y-45749999D03*
X103075002Y-51199999D03*
X74650002Y-65349999D03*
X103850002Y-50399999D03*
X102625002Y-53524999D03*
X92400002Y-51074999D03*
X102450002Y-47399999D03*
X80900002Y-40874999D03*
X97700002Y-62949999D03*
X102725002Y-62649999D03*
X86150002Y-40874999D03*
X88925002Y-48799999D03*
X100125002Y-42649999D03*
X83325002Y-48624999D03*
X74775002Y-61524999D03*
X89425002Y-57099999D03*
X104200002Y-62899999D03*
X94725002Y-44149999D03*
X98550002Y-61599999D03*
X80325002Y-56149999D03*
X79350002Y-59324999D03*
X77025002Y-41774999D03*
X95950002Y-59549999D03*
X83375002Y-57074999D03*
X104575002Y-62099999D03*
X76975002Y-50399999D03*
X99825002Y-62524999D03*
X92400002Y-54299999D03*
X97650002Y-62149999D03*
X98475002Y-63274999D03*
X104600002Y-51874999D03*
X72425002Y-61224999D03*
X76875002Y-59624999D03*
X104500002Y-61124999D03*
X100037502Y-52237499D03*
X102650002Y-43599999D03*
X100100002Y-44799999D03*
X100275002Y-49324999D03*
X92875002Y-60874999D03*
X89025002Y-64299999D03*
X97550002Y-55712499D03*
X92500002Y-57675499D03*
X100100002Y-50674999D03*
X91525002Y-58074999D03*
X45924999Y-101975002D03*
X33949999Y-94375002D03*
X38674999Y-80000002D03*
X34949999Y-80700002D03*
X53399999Y-100525002D03*
X56399999Y-93775002D03*
X38824999Y-82025002D03*
X56224999Y-79575002D03*
X61649999Y-80450002D03*
X52799999Y-90700002D03*
X41784999Y-78740002D03*
X56224999Y-80325002D03*
X65999999Y-89825002D03*
X49424999Y-100175002D03*
X64424999Y-93350002D03*
X34149999Y-101025002D03*
X46899999Y-97925002D03*
X37324999Y-102275002D03*
X38574999Y-88175002D03*
X51924999Y-88650002D03*
X41699999Y-82850002D03*
X60249999Y-97375002D03*
X56399999Y-82150002D03*
X65899999Y-90675002D03*
X42474999Y-93600002D03*
X53474999Y-78000002D03*
X60724999Y-93525002D03*
X41699999Y-90375002D03*
X47549999Y-83675002D03*
X50199999Y-88100002D03*
X39724999Y-96425002D03*
X53924999Y-90350002D03*
X48374999Y-100550002D03*
X33899999Y-95875002D03*
X49224999Y-94125002D03*
X51274999Y-84100002D03*
X63749999Y-83500002D03*
X63699999Y-88525002D03*
X65399999Y-88400002D03*
X50499999Y-83475002D03*
X38399999Y-102275002D03*
X59174999Y-100725002D03*
X53874999Y-92175002D03*
X59174999Y-98300002D03*
X63599999Y-93350002D03*
X63918034Y-87696489D03*
X54974999Y-85200002D03*
X65274999Y-98850002D03*
X66024999Y-96900002D03*
X64824999Y-85925002D03*
X52299999Y-93000002D03*
X53899999Y-86400002D03*
X50224999Y-86925002D03*
X33999999Y-96650002D03*
X45599999Y-97950002D03*
X49574999Y-77900002D03*
X49524999Y-83775002D03*
X44049999Y-94075002D03*
X65274999Y-89375002D03*
X65699999Y-102275002D03*
X49424999Y-82850002D03*
X50024999Y-94125002D03*
X37374999Y-94050002D03*
X54999999Y-84275002D03*
X44374999Y-89200002D03*
X38562499Y-77662502D03*
X58049999Y-77500002D03*
X64124999Y-86425002D03*
X41774999Y-87775002D03*
X51199999Y-86350002D03*
X51074999Y-87500002D03*
X44274999Y-77925002D03*
X65449999Y-86375002D03*
X65749999Y-100750002D03*
X60949999Y-98550002D03*
X48649999Y-77950002D03*
X66099999Y-86850002D03*
X64324999Y-97500002D03*
X65324999Y-97500002D03*
X33874999Y-97450002D03*
X63699999Y-91625002D03*
X64724999Y-84850002D03*
X59174999Y-95175002D03*
X40574999Y-77550002D03*
X51549999Y-77950002D03*
X55424999Y-78000002D03*
X46574999Y-94100002D03*
X41699999Y-92075002D03*
X63424999Y-89800002D03*
X64124999Y-77750002D03*
X41724999Y-85950002D03*
X63624999Y-92550002D03*
X35999999Y-76575002D03*
X50574999Y-90650002D03*
X48624999Y-83725002D03*
X47549999Y-82750002D03*
X50399999Y-84625002D03*
X66124999Y-93400002D03*
X43249999Y-94050002D03*
X41549999Y-77700002D03*
X61574999Y-78825002D03*
X45249999Y-89900002D03*
X33849999Y-78750002D03*
X55874999Y-82750002D03*
X49474999Y-90650002D03*
X43124999Y-100850002D03*
X41774999Y-83750002D03*
X65474999Y-85400002D03*
X52799999Y-92350002D03*
X66149999Y-85975002D03*
X58874999Y-77550002D03*
X61324999Y-97325002D03*
X36049999Y-82600002D03*
X50274999Y-99550002D03*
X45549999Y-82850002D03*
X47599999Y-88825002D03*
X65099999Y-90400002D03*
X45724999Y-94100002D03*
X52449999Y-77925002D03*
X41774999Y-81050002D03*
X46074999Y-83750002D03*
X48199999Y-90550002D03*
X65649999Y-101550002D03*
X47299999Y-101075002D03*
X48399999Y-94125002D03*
X47574999Y-94125002D03*
X35999999Y-78750002D03*
X43974999Y-85225002D03*
X44699999Y-84775002D03*
X51624999Y-93575002D03*
X41024999Y-98025002D03*
X45724999Y-99300002D03*
X44574999Y-83150002D03*
X56209999Y-78740002D03*
X41824999Y-80150002D03*
X35624999Y-94175002D03*
X59649999Y-83025002D03*
X64124999Y-98800002D03*
X64249999Y-89300002D03*
X41674999Y-91150002D03*
X53924999Y-88850002D03*
X41749999Y-88625002D03*
X57199999Y-77550002D03*
X43724999Y-88425002D03*
X56299999Y-77800002D03*
X46349999Y-77900002D03*
X45449999Y-77875002D03*
X45199999Y-83775002D03*
X39392499Y-77832502D03*
X64599999Y-87125002D03*
X54524999Y-78000002D03*
X50974999Y-88575002D03*
X36099999Y-93300002D03*
X50524999Y-77950002D03*
X54474999Y-85800002D03*
X41674999Y-86825002D03*
X61549999Y-77950002D03*
X60424999Y-99500002D03*
X55224999Y-83475002D03*
X38724999Y-100550002D03*
X40249999Y-97075002D03*
X43174999Y-77850002D03*
X64024999Y-82700002D03*
X52949999Y-88750002D03*
X51324999Y-85250002D03*
X52849999Y-91500002D03*
X41724999Y-82000002D03*
X46549999Y-82900002D03*
X38324999Y-82900002D03*
X44299999Y-83950002D03*
X44899999Y-86550002D03*
X64174999Y-85475002D03*
X41724999Y-89450002D03*
X66099999Y-84775002D03*
X46524999Y-90375002D03*
X46199999Y-98450002D03*
X53849999Y-87250002D03*
X48449999Y-82750002D03*
X64574999Y-88200002D03*
X36149999Y-102350002D03*
X65349999Y-87400002D03*
X64124999Y-90525002D03*
X53899999Y-88075002D03*
X63949999Y-84400002D03*
X42399999Y-77875002D03*
X59199999Y-99950002D03*
X64224999Y-99650002D03*
X47649999Y-77875002D03*
X50424999Y-85800002D03*
X61624999Y-79650002D03*
X44824999Y-85625002D03*
X36274999Y-98525002D03*
X50924999Y-94100002D03*
X65699999Y-99900002D03*
X56224999Y-81150002D03*
X60049999Y-98600002D03*
X41824999Y-93150002D03*
X40849999Y-96325002D03*
X38524999Y-78775002D03*
X57449999Y-96550002D03*
X44874999Y-94075002D03*
X66074999Y-99100002D03*
X38474999Y-87400002D03*
X61324999Y-99525002D03*
X53899999Y-91300002D03*
X59149999Y-99150002D03*
X59974999Y-100275002D03*
X66099999Y-88875002D03*
X33924999Y-98225002D03*
X38374999Y-96625002D03*
X65999999Y-98125002D03*
X61537499Y-89237502D03*
X64149999Y-80600002D03*
X61599999Y-81800002D03*
X61774999Y-86325002D03*
X54374999Y-97875002D03*
X50524999Y-101300002D03*
X59049999Y-92712502D03*
X53999999Y-94675502D03*
X61599999Y-87675002D03*
X53024999Y-95075002D03*
X84425002Y-101975002D03*
X72450002Y-94375002D03*
X77175002Y-80000002D03*
X73450002Y-80700002D03*
X91900002Y-100525002D03*
X94900002Y-93775002D03*
X77325002Y-82025002D03*
X94725002Y-79575002D03*
X100150002Y-80450002D03*
X91300002Y-90700002D03*
X80285002Y-78740002D03*
X94725002Y-80325002D03*
X104500002Y-89825002D03*
X87925002Y-100175002D03*
X102925002Y-93350002D03*
X72650002Y-101025002D03*
X85400002Y-97925002D03*
X75825002Y-102275002D03*
X77075002Y-88175002D03*
X90425002Y-88650002D03*
X80200002Y-82850002D03*
X98750002Y-97375002D03*
X94900002Y-82150002D03*
X104400002Y-90675002D03*
X80975002Y-93600002D03*
X91975002Y-78000002D03*
X99225002Y-93525002D03*
X80200002Y-90375002D03*
X86050002Y-83675002D03*
X88700002Y-88100002D03*
X78225002Y-96425002D03*
X92425002Y-90350002D03*
X86875002Y-100550002D03*
X72400002Y-95875002D03*
X87725002Y-94125002D03*
X89775002Y-84100002D03*
X102250002Y-83500002D03*
X102200002Y-88525002D03*
X103900002Y-88400002D03*
X89000002Y-83475002D03*
X76900002Y-102275002D03*
X97675002Y-100725002D03*
X92375002Y-92175002D03*
X97675002Y-98300002D03*
X102100002Y-93350002D03*
X102418037Y-87696489D03*
X93475002Y-85200002D03*
X103775002Y-98850002D03*
X104525002Y-96900002D03*
X103325002Y-85925002D03*
X90800002Y-93000002D03*
X92400002Y-86400002D03*
X88725002Y-86925002D03*
X72500002Y-96650002D03*
X84100002Y-97950002D03*
X88075002Y-77900002D03*
X88025002Y-83775002D03*
X82550002Y-94075002D03*
X103775002Y-89375002D03*
X104200002Y-102275002D03*
X87925002Y-82850002D03*
X88525002Y-94125002D03*
X75875002Y-94050002D03*
X93500002Y-84275002D03*
X82875002Y-89200002D03*
X77062502Y-77662502D03*
X96550002Y-77500002D03*
X102625002Y-86425002D03*
X80275002Y-87775002D03*
X89700002Y-86350002D03*
X89575002Y-87500002D03*
X82775002Y-77925002D03*
X103950002Y-86375002D03*
X104250002Y-100750002D03*
X99450002Y-98550002D03*
X87150002Y-77950002D03*
X104600002Y-86850002D03*
X102825002Y-97500002D03*
X103825002Y-97500002D03*
X72375002Y-97450002D03*
X102200002Y-91625002D03*
X103225002Y-84850002D03*
X97675002Y-95175002D03*
X79075002Y-77550002D03*
X90050002Y-77950002D03*
X93925002Y-78000002D03*
X85075002Y-94100002D03*
X80200002Y-92075002D03*
X101925002Y-89800002D03*
X102625002Y-77750002D03*
X80225002Y-85950002D03*
X102125002Y-92550002D03*
X74500002Y-76575002D03*
X89075002Y-90650002D03*
X87125002Y-83725002D03*
X86050002Y-82750002D03*
X88900002Y-84625002D03*
X104625002Y-93400002D03*
X81750002Y-94050002D03*
X80050002Y-77700002D03*
X100075002Y-78825002D03*
X83750002Y-89900002D03*
X72350002Y-78750002D03*
X94375002Y-82750002D03*
X87975002Y-90650002D03*
X81625002Y-100850002D03*
X80275002Y-83750002D03*
X103975002Y-85400002D03*
X91300002Y-92350002D03*
X104650002Y-85975002D03*
X97375002Y-77550002D03*
X99825002Y-97325002D03*
X74550002Y-82600002D03*
X88775002Y-99550002D03*
X84050002Y-82850002D03*
X86100002Y-88825002D03*
X103600002Y-90400002D03*
X84225002Y-94100002D03*
X90950002Y-77925002D03*
X80275002Y-81050002D03*
X84575002Y-83750002D03*
X86700002Y-90550002D03*
X104150002Y-101550002D03*
X85800002Y-101075002D03*
X86900002Y-94125002D03*
X86075002Y-94125002D03*
X74500002Y-78750002D03*
X82475002Y-85225002D03*
X83200002Y-84775002D03*
X90125002Y-93575002D03*
X79525002Y-98025002D03*
X84225002Y-99300002D03*
X83075002Y-83150002D03*
X94710002Y-78740002D03*
X80325002Y-80150002D03*
X74125002Y-94175002D03*
X98150002Y-83025002D03*
X102625002Y-98800002D03*
X102750002Y-89300002D03*
X80175002Y-91150002D03*
X92425002Y-88850002D03*
X80250002Y-88625002D03*
X95700002Y-77550002D03*
X82225002Y-88425002D03*
X94800002Y-77800002D03*
X84850002Y-77900002D03*
X83950002Y-77875002D03*
X83700002Y-83775002D03*
X77892502Y-77832502D03*
X103100002Y-87125002D03*
X93025002Y-78000002D03*
X89475002Y-88575002D03*
X74600002Y-93300002D03*
X89025002Y-77950002D03*
X92975002Y-85800002D03*
X80175002Y-86825002D03*
X100050002Y-77950002D03*
X98925002Y-99500002D03*
X93725002Y-83475002D03*
X77225002Y-100550002D03*
X78750002Y-97075002D03*
X81675002Y-77850002D03*
X102525002Y-82700002D03*
X91450002Y-88750002D03*
X89825002Y-85250002D03*
X91350002Y-91500002D03*
X80225002Y-82000002D03*
X85050002Y-82900002D03*
X76825002Y-82900002D03*
X82800002Y-83950002D03*
X83400002Y-86550002D03*
X102675002Y-85475002D03*
X80225002Y-89450002D03*
X104600002Y-84775002D03*
X85025002Y-90375002D03*
X84700002Y-98450002D03*
X92350002Y-87250002D03*
X86950002Y-82750002D03*
X103075002Y-88200002D03*
X74650002Y-102350002D03*
X103850002Y-87400002D03*
X102625002Y-90525002D03*
X92400002Y-88075002D03*
X102450002Y-84400002D03*
X80900002Y-77875002D03*
X97700002Y-99950002D03*
X102725002Y-99650002D03*
X86150002Y-77875002D03*
X88925002Y-85800002D03*
X100125002Y-79650002D03*
X83325002Y-85625002D03*
X74775002Y-98525002D03*
X89425002Y-94100002D03*
X104200002Y-99900002D03*
X94725002Y-81150002D03*
X98550002Y-98600002D03*
X80325002Y-93150002D03*
X79350002Y-96325002D03*
X77025002Y-78775002D03*
X95950002Y-96550002D03*
X83375002Y-94075002D03*
X104575002Y-99100002D03*
X76975002Y-87400002D03*
X99825002Y-99525002D03*
X92400002Y-91300002D03*
X97650002Y-99150002D03*
X98475002Y-100275002D03*
X104600002Y-88875002D03*
X72425002Y-98225002D03*
X76875002Y-96625002D03*
X104500002Y-98125002D03*
X100037502Y-89237502D03*
X102650002Y-80600002D03*
X100100002Y-81800002D03*
X100275002Y-86325002D03*
X92875002Y-97875002D03*
X89025002Y-101300002D03*
X97550002Y-92712502D03*
X92500002Y-94675502D03*
X100100002Y-87675002D03*
X91525002Y-95075002D03*
D16*
X41755510Y-65180510D02*
X33949999Y-57374999D01*
X33949999Y-44699999D02*
X33949999Y-57374999D01*
X47230510Y-65180510D02*
X46130510Y-65180510D01*
X46130510Y-65180510D02*
X45924999Y-64974999D01*
X53399999Y-63524999D02*
X51744488Y-65180510D01*
X53479767Y-56374999D02*
X45924999Y-63929767D01*
X37974999Y-43699999D02*
X38674999Y-42999999D01*
X51744488Y-65180510D02*
X47230510Y-65180510D01*
X34949999Y-43699999D02*
X37974999Y-43699999D01*
X34949999Y-43699999D02*
X33949999Y-44699999D01*
X55024999Y-56374999D02*
X53479767Y-56374999D01*
X47230510Y-65180510D02*
X41755510Y-65180510D01*
X45924999Y-63929767D02*
X45924999Y-64974999D01*
D17*
X55024999Y-51294999D02*
X56399999Y-52669999D01*
X56399999Y-52669999D02*
X56399999Y-56774999D01*
X38824999Y-45024999D02*
X38899999Y-45024999D01*
X38899999Y-45024999D02*
X46439999Y-52564999D01*
X46439999Y-52564999D02*
X55024999Y-52564999D01*
X55024999Y-50024999D02*
X57709999Y-50024999D01*
X57709999Y-50024999D02*
X61079999Y-46654999D01*
X61537499Y-52237499D02*
X63049519Y-50725479D01*
X63049519Y-44700479D02*
X64149999Y-43599999D01*
X63049519Y-50725479D02*
X63049519Y-44700479D01*
X61774999Y-49324999D02*
X62649999Y-48449999D01*
X62649999Y-48449999D02*
X62649999Y-45849999D01*
X62649999Y-45849999D02*
X61599999Y-44799999D01*
D18*
X53949999Y-60874999D02*
X50524999Y-64299999D01*
X54374999Y-60874999D02*
X53949999Y-60874999D01*
D17*
X54099499Y-57774999D02*
X57699999Y-57774999D01*
X53999999Y-57675499D02*
X54099499Y-57774999D01*
X57699999Y-57774999D02*
X59049999Y-56424999D01*
X59049999Y-56424999D02*
X59049999Y-55712499D01*
X53024999Y-58074999D02*
X53224999Y-58274999D01*
X58024999Y-58274999D02*
X59730479Y-56569519D01*
X53224999Y-58274999D02*
X58024999Y-58274999D01*
X59730479Y-52544519D02*
X61599999Y-50674999D01*
X59730479Y-56569519D02*
X59730479Y-52544519D01*
D16*
X80255513Y-65180510D02*
X72450002Y-57374999D01*
X72450002Y-44699999D02*
X72450002Y-57374999D01*
X85730513Y-65180510D02*
X84630513Y-65180510D01*
X84630513Y-65180510D02*
X84425002Y-64974999D01*
X91900002Y-63524999D02*
X90244491Y-65180510D01*
X91979770Y-56374999D02*
X84425002Y-63929767D01*
X76475002Y-43699999D02*
X77175002Y-42999999D01*
X90244491Y-65180510D02*
X85730513Y-65180510D01*
X73450002Y-43699999D02*
X76475002Y-43699999D01*
X73450002Y-43699999D02*
X72450002Y-44699999D01*
X93525002Y-56374999D02*
X91979770Y-56374999D01*
X85730513Y-65180510D02*
X80255513Y-65180510D01*
X84425002Y-63929767D02*
X84425002Y-64974999D01*
D17*
X93525002Y-51294999D02*
X94900002Y-52669999D01*
X94900002Y-52669999D02*
X94900002Y-56774999D01*
X77325002Y-45024999D02*
X77400002Y-45024999D01*
X77400002Y-45024999D02*
X84940002Y-52564999D01*
X84940002Y-52564999D02*
X93525002Y-52564999D01*
X93525002Y-50024999D02*
X96210002Y-50024999D01*
X96210002Y-50024999D02*
X99580002Y-46654999D01*
X100037502Y-52237499D02*
X101549522Y-50725479D01*
X101549522Y-44700479D02*
X102650002Y-43599999D01*
X101549522Y-50725479D02*
X101549522Y-44700479D01*
X100275002Y-49324999D02*
X101150002Y-48449999D01*
X101150002Y-48449999D02*
X101150002Y-45849999D01*
X101150002Y-45849999D02*
X100100002Y-44799999D01*
D18*
X92450002Y-60874999D02*
X89025002Y-64299999D01*
X92875002Y-60874999D02*
X92450002Y-60874999D01*
D17*
X92599502Y-57774999D02*
X96200002Y-57774999D01*
X92500002Y-57675499D02*
X92599502Y-57774999D01*
X96200002Y-57774999D02*
X97550002Y-56424999D01*
X97550002Y-56424999D02*
X97550002Y-55712499D01*
X91525002Y-58074999D02*
X91725002Y-58274999D01*
X96525002Y-58274999D02*
X98230482Y-56569519D01*
X91725002Y-58274999D02*
X96525002Y-58274999D01*
X98230482Y-52544519D02*
X100100002Y-50674999D01*
X98230482Y-56569519D02*
X98230482Y-52544519D01*
D16*
X41755510Y-102180513D02*
X33949999Y-94375002D01*
X33949999Y-81700002D02*
X33949999Y-94375002D01*
X47230510Y-102180513D02*
X46130510Y-102180513D01*
X46130510Y-102180513D02*
X45924999Y-101975002D01*
X53399999Y-100525002D02*
X51744488Y-102180513D01*
X53479767Y-93375002D02*
X45924999Y-100929770D01*
X37974999Y-80700002D02*
X38674999Y-80000002D01*
X51744488Y-102180513D02*
X47230510Y-102180513D01*
X34949999Y-80700002D02*
X37974999Y-80700002D01*
X34949999Y-80700002D02*
X33949999Y-81700002D01*
X55024999Y-93375002D02*
X53479767Y-93375002D01*
X47230510Y-102180513D02*
X41755510Y-102180513D01*
X45924999Y-100929770D02*
X45924999Y-101975002D01*
D17*
X55024999Y-88295002D02*
X56399999Y-89670002D01*
X56399999Y-89670002D02*
X56399999Y-93775002D01*
X38824999Y-82025002D02*
X38899999Y-82025002D01*
X38899999Y-82025002D02*
X46439999Y-89565002D01*
X46439999Y-89565002D02*
X55024999Y-89565002D01*
X55024999Y-87025002D02*
X57709999Y-87025002D01*
X57709999Y-87025002D02*
X61079999Y-83655002D01*
X61537499Y-89237502D02*
X63049519Y-87725482D01*
X63049519Y-81700482D02*
X64149999Y-80600002D01*
X63049519Y-87725482D02*
X63049519Y-81700482D01*
X61774999Y-86325002D02*
X62649999Y-85450002D01*
X62649999Y-85450002D02*
X62649999Y-82850002D01*
X62649999Y-82850002D02*
X61599999Y-81800002D01*
D18*
X53949999Y-97875002D02*
X50524999Y-101300002D01*
X54374999Y-97875002D02*
X53949999Y-97875002D01*
D17*
X54099499Y-94775002D02*
X57699999Y-94775002D01*
X53999999Y-94675502D02*
X54099499Y-94775002D01*
X57699999Y-94775002D02*
X59049999Y-93425002D01*
X59049999Y-93425002D02*
X59049999Y-92712502D01*
X53024999Y-95075002D02*
X53224999Y-95275002D01*
X58024999Y-95275002D02*
X59730479Y-93569522D01*
X53224999Y-95275002D02*
X58024999Y-95275002D01*
X59730479Y-89544522D02*
X61599999Y-87675002D01*
X59730479Y-93569522D02*
X59730479Y-89544522D01*
D16*
X80255513Y-102180513D02*
X72450002Y-94375002D01*
X72450002Y-81700002D02*
X72450002Y-94375002D01*
X85730513Y-102180513D02*
X84630513Y-102180513D01*
X84630513Y-102180513D02*
X84425002Y-101975002D01*
X91900002Y-100525002D02*
X90244491Y-102180513D01*
X91979770Y-93375002D02*
X84425002Y-100929770D01*
X76475002Y-80700002D02*
X77175002Y-80000002D01*
X90244491Y-102180513D02*
X85730513Y-102180513D01*
X73450002Y-80700002D02*
X76475002Y-80700002D01*
X73450002Y-80700002D02*
X72450002Y-81700002D01*
X93525002Y-93375002D02*
X91979770Y-93375002D01*
X85730513Y-102180513D02*
X80255513Y-102180513D01*
X84425002Y-100929770D02*
X84425002Y-101975002D01*
D17*
X93525002Y-88295002D02*
X94900002Y-89670002D01*
X94900002Y-89670002D02*
X94900002Y-93775002D01*
X77325002Y-82025002D02*
X77400002Y-82025002D01*
X77400002Y-82025002D02*
X84940002Y-89565002D01*
X84940002Y-89565002D02*
X93525002Y-89565002D01*
X93525002Y-87025002D02*
X96210002Y-87025002D01*
X96210002Y-87025002D02*
X99580002Y-83655002D01*
X100037502Y-89237502D02*
X101549522Y-87725482D01*
X101549522Y-81700482D02*
X102650002Y-80600002D01*
X101549522Y-87725482D02*
X101549522Y-81700482D01*
X100275002Y-86325002D02*
X101150002Y-85450002D01*
X101150002Y-85450002D02*
X101150002Y-82850002D01*
X101150002Y-82850002D02*
X100100002Y-81800002D01*
D18*
X92450002Y-97875002D02*
X89025002Y-101300002D01*
X92875002Y-97875002D02*
X92450002Y-97875002D01*
D17*
X92599502Y-94775002D02*
X96200002Y-94775002D01*
X92500002Y-94675502D02*
X92599502Y-94775002D01*
X96200002Y-94775002D02*
X97550002Y-93425002D01*
X97550002Y-93425002D02*
X97550002Y-92712502D01*
X91525002Y-95075002D02*
X91725002Y-95275002D01*
X96525002Y-95275002D02*
X98230482Y-93569522D01*
X91725002Y-95275002D02*
X96525002Y-95275002D01*
X98230482Y-89544522D02*
X100100002Y-87675002D01*
X98230482Y-93569522D02*
X98230482Y-89544522D01*
G04 #@! TA.AperFunction,Conductor*
G36*
X38196474Y-39243751D02*
G01*
X38223729Y-39290414D01*
X38224999Y-39304523D01*
X38224999Y-40074999D01*
X66410499Y-40074999D01*
X66461279Y-40093481D01*
X66488299Y-40140281D01*
X66489499Y-40153999D01*
X66489499Y-46200315D01*
X66471017Y-46251095D01*
X66424217Y-46278115D01*
X66370999Y-46268731D01*
X66340617Y-46237160D01*
X66310831Y-46180666D01*
X66306074Y-46173613D01*
X66192391Y-46039087D01*
X66186238Y-46033228D01*
X66046315Y-45926249D01*
X66039041Y-45921844D01*
X65879423Y-45847414D01*
X65871357Y-45844668D01*
X65698478Y-45806025D01*
X65692065Y-45805135D01*
X65690722Y-45805060D01*
X65688547Y-45804999D01*
X65488929Y-45804999D01*
X65478258Y-45808883D01*
X65474999Y-45814527D01*
X65474999Y-47491069D01*
X65478883Y-47501740D01*
X65484527Y-47504999D01*
X65644006Y-47504999D01*
X65648253Y-47504769D01*
X65779351Y-47490528D01*
X65787650Y-47488703D01*
X65954586Y-47432523D01*
X65962301Y-47428958D01*
X66113265Y-47338249D01*
X66120052Y-47333098D01*
X66248014Y-47212089D01*
X66253528Y-47205610D01*
X66345160Y-47070779D01*
X66388989Y-47039169D01*
X66442883Y-47043127D01*
X66481624Y-47080801D01*
X66489499Y-47115184D01*
X66489499Y-54840315D01*
X66471017Y-54891095D01*
X66424217Y-54918115D01*
X66370999Y-54908731D01*
X66340617Y-54877160D01*
X66310831Y-54820666D01*
X66306074Y-54813613D01*
X66192391Y-54679087D01*
X66186238Y-54673228D01*
X66046315Y-54566249D01*
X66039041Y-54561844D01*
X65879423Y-54487414D01*
X65871357Y-54484668D01*
X65698478Y-54446025D01*
X65692065Y-54445135D01*
X65690722Y-54445060D01*
X65688547Y-54444999D01*
X65488929Y-54444999D01*
X65478258Y-54448883D01*
X65474999Y-54454527D01*
X65474999Y-56131069D01*
X65478883Y-56141740D01*
X65484527Y-56144999D01*
X65644006Y-56144999D01*
X65648253Y-56144769D01*
X65779351Y-56130528D01*
X65787650Y-56128703D01*
X65954586Y-56072523D01*
X65962301Y-56068958D01*
X66113265Y-55978249D01*
X66120052Y-55973098D01*
X66248014Y-55852089D01*
X66253528Y-55845610D01*
X66345160Y-55710779D01*
X66388989Y-55679169D01*
X66442883Y-55683127D01*
X66481624Y-55720801D01*
X66489499Y-55755184D01*
X66489499Y-65660499D01*
X66471017Y-65711279D01*
X66424217Y-65738299D01*
X66410499Y-65739499D01*
X52283439Y-65739499D01*
X52232659Y-65721017D01*
X52205639Y-65674217D01*
X52215023Y-65620999D01*
X52227578Y-65604638D01*
X53882149Y-63950067D01*
X53941876Y-63873068D01*
X53953507Y-63858074D01*
X53953509Y-63858070D01*
X53956554Y-63854145D01*
X53976342Y-63808419D01*
X54018951Y-63709954D01*
X54020924Y-63705395D01*
X54021701Y-63700490D01*
X54021702Y-63700486D01*
X54045500Y-63550221D01*
X54046278Y-63545309D01*
X54034975Y-63425723D01*
X54031494Y-63388897D01*
X54031494Y-63388895D01*
X54031026Y-63383948D01*
X53976123Y-63231449D01*
X53885020Y-63097395D01*
X53763441Y-62990209D01*
X53619027Y-62916627D01*
X53614173Y-62915542D01*
X53465700Y-62882354D01*
X53465697Y-62882354D01*
X53460849Y-62881270D01*
X53455883Y-62881426D01*
X53455882Y-62881426D01*
X53379849Y-62883815D01*
X53298848Y-62886361D01*
X53143203Y-62931580D01*
X53138923Y-62934111D01*
X53138921Y-62934112D01*
X53038511Y-62993495D01*
X53003694Y-63014086D01*
X51501909Y-64515871D01*
X51452933Y-64538709D01*
X51446048Y-64539010D01*
X51148491Y-64539010D01*
X51097711Y-64520528D01*
X51070691Y-64473728D01*
X51071885Y-64446426D01*
X51071073Y-64446319D01*
X51089660Y-64305134D01*
X51090336Y-64299999D01*
X51089226Y-64291568D01*
X51100922Y-64238810D01*
X51111689Y-64225395D01*
X53975532Y-61361552D01*
X54024508Y-61338714D01*
X54079487Y-61354740D01*
X54092330Y-61364595D01*
X54097117Y-61366578D01*
X54097119Y-61366579D01*
X54142976Y-61385573D01*
X54228679Y-61421073D01*
X54374999Y-61440336D01*
X54521319Y-61421073D01*
X54607022Y-61385573D01*
X54652879Y-61366579D01*
X54652881Y-61366578D01*
X54657668Y-61364595D01*
X54661777Y-61361442D01*
X54661779Y-61361441D01*
X54770649Y-61277902D01*
X54774753Y-61274753D01*
X54864595Y-61157667D01*
X54921073Y-61021319D01*
X54940336Y-60874999D01*
X54921073Y-60728679D01*
X54864595Y-60592331D01*
X54853656Y-60578074D01*
X54777902Y-60479349D01*
X54774753Y-60475245D01*
X54752464Y-60458142D01*
X54661779Y-60388557D01*
X54661777Y-60388556D01*
X54657668Y-60385403D01*
X54652881Y-60383420D01*
X54652879Y-60383419D01*
X54607022Y-60364425D01*
X54521319Y-60328925D01*
X54374999Y-60309662D01*
X54228679Y-60328925D01*
X54142375Y-60364674D01*
X54097120Y-60383419D01*
X54097118Y-60383420D01*
X54092331Y-60385403D01*
X54088222Y-60388556D01*
X54088220Y-60388557D01*
X53993664Y-60461112D01*
X53975245Y-60475245D01*
X53969192Y-60483134D01*
X53919487Y-60512971D01*
X53900771Y-60516085D01*
X53897120Y-60516605D01*
X53847579Y-60522469D01*
X53841696Y-60525293D01*
X53841133Y-60525457D01*
X53840170Y-60525676D01*
X53838988Y-60526050D01*
X53838080Y-60526422D01*
X53837524Y-60526612D01*
X53831087Y-60527684D01*
X53825345Y-60530782D01*
X53825343Y-60530783D01*
X53787188Y-60551371D01*
X53783869Y-60553062D01*
X53743390Y-60572499D01*
X53743385Y-60572502D01*
X53738910Y-60574651D01*
X53734837Y-60578074D01*
X53733742Y-60579169D01*
X53730326Y-60582053D01*
X53724997Y-60584928D01*
X53718154Y-60592331D01*
X53689524Y-60623302D01*
X53687374Y-60625537D01*
X50599602Y-63713309D01*
X50550626Y-63736147D01*
X50533431Y-63735772D01*
X50524999Y-63734662D01*
X50519864Y-63735338D01*
X50513719Y-63736147D01*
X50378679Y-63753925D01*
X50292375Y-63789674D01*
X50247120Y-63808419D01*
X50247118Y-63808420D01*
X50242331Y-63810403D01*
X50238222Y-63813556D01*
X50238220Y-63813557D01*
X50180204Y-63858074D01*
X50125245Y-63900245D01*
X50111112Y-63918664D01*
X50085665Y-63951828D01*
X50035403Y-64017331D01*
X49978925Y-64153679D01*
X49959662Y-64299999D01*
X49960338Y-64305134D01*
X49978925Y-64446319D01*
X49977202Y-64446546D01*
X49973108Y-64493390D01*
X49934900Y-64531605D01*
X49901507Y-64539010D01*
X46645499Y-64539010D01*
X46594719Y-64520528D01*
X46567699Y-64473728D01*
X46566499Y-64460010D01*
X46566499Y-64228207D01*
X46584981Y-64177427D01*
X46589638Y-64172346D01*
X52415117Y-58346867D01*
X52464093Y-58324029D01*
X52516291Y-58338015D01*
X52534755Y-58358164D01*
X52535403Y-58357667D01*
X52625245Y-58474753D01*
X52629349Y-58477902D01*
X52738219Y-58561441D01*
X52738221Y-58561442D01*
X52742330Y-58564595D01*
X52747117Y-58566578D01*
X52747119Y-58566579D01*
X52792976Y-58585573D01*
X52878679Y-58621073D01*
X52988258Y-58635499D01*
X53017206Y-58639310D01*
X53024999Y-58640336D01*
X53117031Y-58628220D01*
X53153517Y-58632007D01*
X53157469Y-58633395D01*
X53157474Y-58633396D01*
X53162161Y-58635042D01*
X53167438Y-58635499D01*
X53169007Y-58635499D01*
X53173406Y-58635872D01*
X53179191Y-58637602D01*
X53185712Y-58637346D01*
X53185713Y-58637346D01*
X53231172Y-58635560D01*
X53234273Y-58635499D01*
X57978107Y-58635499D01*
X57994727Y-58637267D01*
X58007782Y-58640078D01*
X58041841Y-58636047D01*
X58051126Y-58635499D01*
X58054949Y-58635499D01*
X58058167Y-58634963D01*
X58058171Y-58634963D01*
X58073991Y-58632330D01*
X58077675Y-58631806D01*
X58094303Y-58629838D01*
X58126966Y-58625972D01*
X58132850Y-58623147D01*
X58133324Y-58623009D01*
X58134305Y-58622786D01*
X58135550Y-58622392D01*
X58136483Y-58622010D01*
X58136949Y-58621850D01*
X58143386Y-58620779D01*
X58149129Y-58617680D01*
X58149130Y-58617680D01*
X58168306Y-58607333D01*
X58187085Y-58597200D01*
X58190394Y-58595515D01*
X58230667Y-58576176D01*
X58230666Y-58576176D01*
X58235155Y-58574021D01*
X58239209Y-58570613D01*
X58240319Y-58569503D01*
X58243689Y-58566658D01*
X58249007Y-58563789D01*
X58253440Y-58558993D01*
X58253443Y-58558991D01*
X58284318Y-58525590D01*
X58286468Y-58523354D01*
X59952231Y-56857591D01*
X59965232Y-56847090D01*
X59976455Y-56839843D01*
X59997692Y-56812904D01*
X60003871Y-56805951D01*
X60006569Y-56803253D01*
X60017783Y-56787561D01*
X60020016Y-56784587D01*
X60046717Y-56750716D01*
X60050756Y-56745593D01*
X60052918Y-56739438D01*
X60053159Y-56738999D01*
X60053689Y-56738156D01*
X60054296Y-56736987D01*
X60054685Y-56736060D01*
X60054900Y-56735620D01*
X60058695Y-56730310D01*
X60072922Y-56682740D01*
X60074072Y-56679201D01*
X60088875Y-56637049D01*
X60088876Y-56637044D01*
X60090522Y-56632357D01*
X60090979Y-56627080D01*
X60090979Y-56625511D01*
X60091352Y-56621112D01*
X60093082Y-56615327D01*
X60091040Y-56563346D01*
X60090979Y-56560245D01*
X60090979Y-56133516D01*
X60109461Y-56082736D01*
X60156261Y-56055716D01*
X60203366Y-56061918D01*
X60290575Y-56102584D01*
X60298641Y-56105330D01*
X60471520Y-56143973D01*
X60477933Y-56144863D01*
X60479276Y-56144938D01*
X60481451Y-56144999D01*
X60931069Y-56144999D01*
X60941740Y-56141115D01*
X60944999Y-56135471D01*
X60944999Y-56131069D01*
X61294999Y-56131069D01*
X61298883Y-56141740D01*
X61304527Y-56144999D01*
X61714006Y-56144999D01*
X61718253Y-56144769D01*
X61849351Y-56130528D01*
X61857650Y-56128703D01*
X62024586Y-56072523D01*
X62032301Y-56068958D01*
X62183265Y-55978249D01*
X62190052Y-55973098D01*
X62318014Y-55852089D01*
X62323528Y-55845610D01*
X62422527Y-55699939D01*
X62426518Y-55692432D01*
X62491924Y-55528907D01*
X62494215Y-55520703D01*
X62500333Y-55483743D01*
X62498829Y-55475711D01*
X64168739Y-55475711D01*
X64168869Y-55478472D01*
X64203894Y-55605628D01*
X64207024Y-55613533D01*
X64289167Y-55769332D01*
X64293924Y-55776385D01*
X64407607Y-55910911D01*
X64413760Y-55916770D01*
X64553683Y-56023749D01*
X64560957Y-56028154D01*
X64720575Y-56102584D01*
X64728641Y-56105330D01*
X64901520Y-56143973D01*
X64907933Y-56144863D01*
X64909276Y-56144938D01*
X64911451Y-56144999D01*
X65111069Y-56144999D01*
X65121740Y-56141115D01*
X65124999Y-56135471D01*
X65124999Y-55483929D01*
X65121115Y-55473258D01*
X65115471Y-55469999D01*
X64180465Y-55469999D01*
X64169794Y-55473883D01*
X64168739Y-55475711D01*
X62498829Y-55475711D01*
X62498243Y-55472579D01*
X62495103Y-55469999D01*
X61308929Y-55469999D01*
X61298258Y-55473883D01*
X61294999Y-55479527D01*
X61294999Y-56131069D01*
X60944999Y-56131069D01*
X60944999Y-54458929D01*
X60941115Y-54448258D01*
X60935471Y-54444999D01*
X60525992Y-54444999D01*
X60521745Y-54445229D01*
X60390647Y-54459470D01*
X60382348Y-54461295D01*
X60215412Y-54517475D01*
X60203813Y-54522835D01*
X60202857Y-54520766D01*
X60157654Y-54529573D01*
X60110379Y-54503394D01*
X60090979Y-54451540D01*
X60090979Y-53864999D01*
X61059447Y-53864999D01*
X61079570Y-54017845D01*
X61138566Y-54160275D01*
X61232416Y-54282582D01*
X61236521Y-54285732D01*
X61236522Y-54285733D01*
X61289617Y-54326475D01*
X61318652Y-54372051D01*
X61309940Y-54428649D01*
X61294999Y-54454527D01*
X61294999Y-55106069D01*
X61298883Y-55116740D01*
X61304527Y-55119999D01*
X62489533Y-55119999D01*
X62500204Y-55116115D01*
X62501259Y-55114287D01*
X62501129Y-55111526D01*
X62499677Y-55106255D01*
X64169665Y-55106255D01*
X64171755Y-55117419D01*
X64174895Y-55119999D01*
X65111069Y-55119999D01*
X65121740Y-55116115D01*
X65124999Y-55110471D01*
X65124999Y-54458929D01*
X65121115Y-54448258D01*
X65115471Y-54444999D01*
X64955992Y-54444999D01*
X64951745Y-54445229D01*
X64820647Y-54459470D01*
X64812348Y-54461295D01*
X64645412Y-54517475D01*
X64637697Y-54521040D01*
X64486733Y-54611749D01*
X64479946Y-54616900D01*
X64351984Y-54737909D01*
X64346470Y-54744388D01*
X64247471Y-54890059D01*
X64243480Y-54897566D01*
X64178074Y-55061091D01*
X64175783Y-55069295D01*
X64169665Y-55106255D01*
X62499677Y-55106255D01*
X62466104Y-54984370D01*
X62462974Y-54976465D01*
X62380831Y-54820666D01*
X62376074Y-54813613D01*
X62262391Y-54679087D01*
X62256238Y-54673228D01*
X62116315Y-54566249D01*
X62109037Y-54561842D01*
X61974871Y-54499280D01*
X61936659Y-54461069D01*
X61931949Y-54407236D01*
X61960164Y-54365007D01*
X62009784Y-54326932D01*
X62067582Y-54282582D01*
X62161432Y-54160275D01*
X62220428Y-54017845D01*
X62240551Y-53864999D01*
X62220428Y-53712153D01*
X62161432Y-53569723D01*
X62111246Y-53504319D01*
X62070732Y-53451521D01*
X62067582Y-53447416D01*
X62063477Y-53444266D01*
X61949383Y-53356718D01*
X61949382Y-53356717D01*
X61945275Y-53353566D01*
X61940495Y-53351586D01*
X61940493Y-53351585D01*
X61891267Y-53331195D01*
X61802845Y-53294570D01*
X61749633Y-53287564D01*
X61690941Y-53279837D01*
X61690938Y-53279837D01*
X61688372Y-53279499D01*
X61611626Y-53279499D01*
X61609060Y-53279837D01*
X61609057Y-53279837D01*
X61550365Y-53287564D01*
X61497153Y-53294570D01*
X61408731Y-53331195D01*
X61359505Y-53351585D01*
X61359503Y-53351586D01*
X61354723Y-53353566D01*
X61350616Y-53356717D01*
X61350615Y-53356718D01*
X61236521Y-53444266D01*
X61232416Y-53447416D01*
X61229266Y-53451521D01*
X61188753Y-53504319D01*
X61138566Y-53569723D01*
X61079570Y-53712153D01*
X61059447Y-53864999D01*
X60090979Y-53864999D01*
X60090979Y-52726565D01*
X60109461Y-52675785D01*
X60114118Y-52670704D01*
X60923115Y-51861707D01*
X60972091Y-51838869D01*
X61024289Y-51852855D01*
X61055284Y-51897121D01*
X61050574Y-51950955D01*
X61049934Y-51952184D01*
X61047903Y-51954831D01*
X60991425Y-52091179D01*
X60972162Y-52237499D01*
X60972838Y-52242634D01*
X60975064Y-52259539D01*
X60991425Y-52383819D01*
X61021236Y-52455789D01*
X61042151Y-52506280D01*
X61047903Y-52520167D01*
X61051056Y-52524276D01*
X61051057Y-52524278D01*
X61086190Y-52570064D01*
X61137745Y-52637253D01*
X61141849Y-52640402D01*
X61250719Y-52723941D01*
X61250721Y-52723942D01*
X61254830Y-52727095D01*
X61259617Y-52729078D01*
X61259619Y-52729079D01*
X61305476Y-52748073D01*
X61391179Y-52783573D01*
X61537499Y-52802836D01*
X61683819Y-52783573D01*
X61769522Y-52748073D01*
X61815379Y-52729079D01*
X61815381Y-52729078D01*
X61820168Y-52727095D01*
X61824277Y-52723942D01*
X61824279Y-52723941D01*
X61933149Y-52640402D01*
X61937253Y-52637253D01*
X61988808Y-52570064D01*
X62023941Y-52524278D01*
X62023942Y-52524276D01*
X62027095Y-52520167D01*
X62032848Y-52506280D01*
X62053762Y-52455789D01*
X62083573Y-52383819D01*
X62099934Y-52259539D01*
X62102160Y-52242634D01*
X62102836Y-52237499D01*
X62101463Y-52227067D01*
X62113160Y-52174309D01*
X62123926Y-52160896D01*
X63271271Y-51013551D01*
X63284272Y-51003050D01*
X63295495Y-50995803D01*
X63316732Y-50968864D01*
X63322911Y-50961911D01*
X63325609Y-50959213D01*
X63336819Y-50943526D01*
X63339054Y-50940549D01*
X63365751Y-50906684D01*
X63369796Y-50901553D01*
X63371962Y-50895386D01*
X63372195Y-50894962D01*
X63372734Y-50894105D01*
X63373336Y-50892948D01*
X63373725Y-50892018D01*
X63373940Y-50891580D01*
X63377734Y-50886270D01*
X63391961Y-50838700D01*
X63393100Y-50835195D01*
X63409562Y-50788317D01*
X63410019Y-50783040D01*
X63410019Y-50781471D01*
X63410392Y-50777072D01*
X63412122Y-50771287D01*
X63410562Y-50731570D01*
X63410080Y-50719316D01*
X63410019Y-50716214D01*
X63410019Y-46835711D01*
X64168739Y-46835711D01*
X64168869Y-46838472D01*
X64203894Y-46965628D01*
X64207024Y-46973533D01*
X64289167Y-47129332D01*
X64293924Y-47136385D01*
X64407607Y-47270911D01*
X64413760Y-47276770D01*
X64553683Y-47383749D01*
X64560957Y-47388154D01*
X64720575Y-47462584D01*
X64728641Y-47465330D01*
X64901520Y-47503973D01*
X64907933Y-47504863D01*
X64909276Y-47504938D01*
X64911451Y-47504999D01*
X65111069Y-47504999D01*
X65121740Y-47501115D01*
X65124999Y-47495471D01*
X65124999Y-46843929D01*
X65121115Y-46833258D01*
X65115471Y-46829999D01*
X64180465Y-46829999D01*
X64169794Y-46833883D01*
X64168739Y-46835711D01*
X63410019Y-46835711D01*
X63410019Y-46466255D01*
X64169665Y-46466255D01*
X64171755Y-46477419D01*
X64174895Y-46479999D01*
X65111069Y-46479999D01*
X65121740Y-46476115D01*
X65124999Y-46470471D01*
X65124999Y-45818929D01*
X65121115Y-45808258D01*
X65115471Y-45804999D01*
X64955992Y-45804999D01*
X64951745Y-45805229D01*
X64820647Y-45819470D01*
X64812348Y-45821295D01*
X64645412Y-45877475D01*
X64637697Y-45881040D01*
X64486733Y-45971749D01*
X64479946Y-45976900D01*
X64351984Y-46097909D01*
X64346470Y-46104388D01*
X64247471Y-46250059D01*
X64243480Y-46257566D01*
X64178074Y-46421091D01*
X64175783Y-46429295D01*
X64169665Y-46466255D01*
X63410019Y-46466255D01*
X63410019Y-44882525D01*
X63428501Y-44831745D01*
X63433158Y-44826664D01*
X64073396Y-44186426D01*
X64122372Y-44163588D01*
X64139567Y-44163963D01*
X64144862Y-44164660D01*
X64144864Y-44164660D01*
X64149999Y-44165336D01*
X64296319Y-44146073D01*
X64382022Y-44110573D01*
X64427879Y-44091579D01*
X64427881Y-44091578D01*
X64432668Y-44089595D01*
X64436777Y-44086442D01*
X64436779Y-44086441D01*
X64545649Y-44002902D01*
X64549753Y-43999753D01*
X64639595Y-43882667D01*
X64696073Y-43746319D01*
X64715336Y-43599999D01*
X64696073Y-43453679D01*
X64639595Y-43317331D01*
X64603600Y-43270420D01*
X64552902Y-43204349D01*
X64549753Y-43200245D01*
X64498666Y-43161045D01*
X64436779Y-43113557D01*
X64436777Y-43113556D01*
X64432668Y-43110403D01*
X64427881Y-43108420D01*
X64427879Y-43108419D01*
X64382022Y-43089425D01*
X64296319Y-43053925D01*
X64149999Y-43034662D01*
X64003679Y-43053925D01*
X63957409Y-43073091D01*
X63872120Y-43108419D01*
X63872118Y-43108420D01*
X63867331Y-43110403D01*
X63863222Y-43113556D01*
X63863220Y-43113557D01*
X63837386Y-43133380D01*
X63750245Y-43200245D01*
X63747096Y-43204349D01*
X63696399Y-43270420D01*
X63660403Y-43317331D01*
X63603925Y-43453679D01*
X63584662Y-43599999D01*
X63585338Y-43605134D01*
X63585338Y-43605136D01*
X63586035Y-43610431D01*
X63574338Y-43663189D01*
X63563572Y-43676602D01*
X62827767Y-44412407D01*
X62814766Y-44422908D01*
X62803543Y-44430155D01*
X62799499Y-44435285D01*
X62782306Y-44457094D01*
X62776127Y-44464047D01*
X62773429Y-44466745D01*
X62771535Y-44469396D01*
X62762215Y-44482437D01*
X62759982Y-44485411D01*
X62742690Y-44507346D01*
X62729242Y-44524405D01*
X62727080Y-44530560D01*
X62726839Y-44530999D01*
X62726309Y-44531842D01*
X62725702Y-44533011D01*
X62725313Y-44533938D01*
X62725098Y-44534378D01*
X62721303Y-44539688D01*
X62719433Y-44545941D01*
X62707077Y-44587256D01*
X62705926Y-44590797D01*
X62691123Y-44632949D01*
X62691122Y-44632954D01*
X62689476Y-44637641D01*
X62689019Y-44642918D01*
X62689019Y-44644487D01*
X62688646Y-44648886D01*
X62686916Y-44654671D01*
X62687172Y-44661191D01*
X62687172Y-44661193D01*
X62688958Y-44706642D01*
X62689019Y-44709744D01*
X62689019Y-45188473D01*
X62670537Y-45239253D01*
X62623737Y-45266273D01*
X62570519Y-45256889D01*
X62554158Y-45244334D01*
X62186426Y-44876602D01*
X62163588Y-44827626D01*
X62163963Y-44810431D01*
X62164660Y-44805136D01*
X62164660Y-44805134D01*
X62165336Y-44799999D01*
X62146073Y-44653679D01*
X62096090Y-44533011D01*
X62091579Y-44522120D01*
X62091578Y-44522118D01*
X62089595Y-44517331D01*
X62065103Y-44485411D01*
X62002902Y-44404349D01*
X61999753Y-44400245D01*
X61926100Y-44343729D01*
X61886779Y-44313557D01*
X61886777Y-44313556D01*
X61882668Y-44310403D01*
X61877881Y-44308420D01*
X61877879Y-44308419D01*
X61804110Y-44277863D01*
X61746319Y-44253925D01*
X61599999Y-44234662D01*
X61453679Y-44253925D01*
X61388248Y-44281028D01*
X61322120Y-44308419D01*
X61322118Y-44308420D01*
X61317331Y-44310403D01*
X61313222Y-44313556D01*
X61313220Y-44313557D01*
X61218664Y-44386112D01*
X61200245Y-44400245D01*
X61197096Y-44404349D01*
X61134896Y-44485411D01*
X61110403Y-44517331D01*
X61108420Y-44522118D01*
X61108419Y-44522120D01*
X61103908Y-44533011D01*
X61053925Y-44653679D01*
X61034662Y-44799999D01*
X61053925Y-44946319D01*
X61110403Y-45082667D01*
X61113556Y-45086776D01*
X61113557Y-45086778D01*
X61186112Y-45181334D01*
X61200245Y-45199753D01*
X61204349Y-45202902D01*
X61313219Y-45286441D01*
X61313221Y-45286442D01*
X61317330Y-45289595D01*
X61322117Y-45291578D01*
X61322119Y-45291579D01*
X61360959Y-45307667D01*
X61453679Y-45346073D01*
X61599999Y-45365336D01*
X61605134Y-45364660D01*
X61605136Y-45364660D01*
X61610431Y-45363963D01*
X61663189Y-45375660D01*
X61676602Y-45386426D01*
X61998269Y-45708093D01*
X62021107Y-45757069D01*
X62007121Y-45809267D01*
X61962855Y-45840262D01*
X61925175Y-45841051D01*
X61768478Y-45806025D01*
X61762065Y-45805135D01*
X61760722Y-45805060D01*
X61758547Y-45804999D01*
X61308929Y-45804999D01*
X61298258Y-45808883D01*
X61294999Y-45814527D01*
X61294999Y-47491069D01*
X61305641Y-47520309D01*
X61316508Y-47533261D01*
X61316506Y-47587300D01*
X61290364Y-47622951D01*
X61232416Y-47667416D01*
X61138566Y-47789723D01*
X61079570Y-47932153D01*
X61059447Y-48084999D01*
X61079570Y-48237845D01*
X61138566Y-48380275D01*
X61232416Y-48502582D01*
X61354723Y-48596432D01*
X61359503Y-48598412D01*
X61359505Y-48598413D01*
X61408731Y-48618803D01*
X61497153Y-48655428D01*
X61502288Y-48656104D01*
X61530891Y-48659870D01*
X61578824Y-48684823D01*
X61599503Y-48734749D01*
X61583252Y-48786287D01*
X61550810Y-48811180D01*
X61497120Y-48833419D01*
X61497118Y-48833420D01*
X61492331Y-48835403D01*
X61488222Y-48838556D01*
X61488220Y-48838557D01*
X61393664Y-48911112D01*
X61375245Y-48925245D01*
X61285403Y-49042331D01*
X61228925Y-49178679D01*
X61209662Y-49324999D01*
X61228925Y-49471319D01*
X61285403Y-49607667D01*
X61375245Y-49724753D01*
X61379349Y-49727902D01*
X61488219Y-49811441D01*
X61488221Y-49811442D01*
X61492330Y-49814595D01*
X61497117Y-49816578D01*
X61497119Y-49816579D01*
X61542976Y-49835573D01*
X61628679Y-49871073D01*
X61774999Y-49890336D01*
X61921319Y-49871073D01*
X62007022Y-49835573D01*
X62052879Y-49816579D01*
X62052881Y-49816578D01*
X62057668Y-49814595D01*
X62061777Y-49811442D01*
X62061779Y-49811441D01*
X62170649Y-49727902D01*
X62174753Y-49724753D01*
X62264595Y-49607667D01*
X62321073Y-49471319D01*
X62340336Y-49324999D01*
X62338963Y-49314567D01*
X62350660Y-49261809D01*
X62361426Y-49248396D01*
X62554158Y-49055664D01*
X62603134Y-49032826D01*
X62655332Y-49046812D01*
X62686327Y-49091078D01*
X62689019Y-49111525D01*
X62689019Y-50543433D01*
X62670537Y-50594213D01*
X62665880Y-50599294D01*
X62214383Y-51050791D01*
X62165407Y-51073629D01*
X62113209Y-51059643D01*
X62082214Y-51015377D01*
X62086924Y-50961543D01*
X62087564Y-50960314D01*
X62089595Y-50957667D01*
X62146073Y-50821319D01*
X62165336Y-50674999D01*
X62146073Y-50528679D01*
X62089595Y-50392331D01*
X62071454Y-50368688D01*
X62002902Y-50279349D01*
X61999753Y-50275245D01*
X61977464Y-50258142D01*
X61886779Y-50188557D01*
X61886777Y-50188556D01*
X61882668Y-50185403D01*
X61877881Y-50183420D01*
X61877879Y-50183419D01*
X61832022Y-50164425D01*
X61746319Y-50128925D01*
X61599999Y-50109662D01*
X61453679Y-50128925D01*
X61367375Y-50164674D01*
X61322120Y-50183419D01*
X61322118Y-50183420D01*
X61317331Y-50185403D01*
X61313222Y-50188556D01*
X61313220Y-50188557D01*
X61218664Y-50261112D01*
X61200245Y-50275245D01*
X61197096Y-50279349D01*
X61128545Y-50368688D01*
X61110403Y-50392331D01*
X61053925Y-50528679D01*
X61034662Y-50674999D01*
X61035338Y-50680134D01*
X61035338Y-50680136D01*
X61036035Y-50685431D01*
X61024338Y-50738189D01*
X61013572Y-50751602D01*
X59508727Y-52256447D01*
X59495726Y-52266948D01*
X59484503Y-52274195D01*
X59480459Y-52279325D01*
X59463266Y-52301134D01*
X59457087Y-52308087D01*
X59454389Y-52310785D01*
X59452495Y-52313436D01*
X59443175Y-52326477D01*
X59440942Y-52329451D01*
X59423650Y-52351386D01*
X59410202Y-52368445D01*
X59408040Y-52374600D01*
X59407799Y-52375039D01*
X59407269Y-52375882D01*
X59406662Y-52377051D01*
X59406273Y-52377978D01*
X59406058Y-52378418D01*
X59402263Y-52383728D01*
X59400393Y-52389981D01*
X59388037Y-52431296D01*
X59386886Y-52434837D01*
X59372083Y-52476989D01*
X59372082Y-52476994D01*
X59370436Y-52481681D01*
X59369979Y-52486958D01*
X59369979Y-52488527D01*
X59369606Y-52492926D01*
X59367876Y-52498711D01*
X59368132Y-52505231D01*
X59368132Y-52505233D01*
X59369918Y-52550682D01*
X59369979Y-52553784D01*
X59369979Y-55120126D01*
X59351497Y-55170906D01*
X59304697Y-55197926D01*
X59260747Y-55193112D01*
X59248953Y-55188227D01*
X59196319Y-55166425D01*
X59049999Y-55147162D01*
X58903679Y-55166425D01*
X58839252Y-55193112D01*
X58772120Y-55220919D01*
X58772118Y-55220920D01*
X58767331Y-55222903D01*
X58763222Y-55226056D01*
X58763220Y-55226057D01*
X58730019Y-55251533D01*
X58650245Y-55312745D01*
X58560403Y-55429831D01*
X58558420Y-55434618D01*
X58558419Y-55434620D01*
X58543765Y-55469999D01*
X58503925Y-55566179D01*
X58484662Y-55712499D01*
X58503925Y-55858819D01*
X58537517Y-55939916D01*
X58551262Y-55973098D01*
X58560403Y-55995167D01*
X58650245Y-56112253D01*
X58658592Y-56118657D01*
X58687626Y-56164230D01*
X58689499Y-56181331D01*
X58689499Y-56242953D01*
X58671017Y-56293733D01*
X58666360Y-56298814D01*
X57573814Y-57391360D01*
X57524838Y-57414198D01*
X57517953Y-57414499D01*
X56716506Y-57414499D01*
X56665726Y-57396017D01*
X56638706Y-57349217D01*
X56648090Y-57295999D01*
X56677008Y-57267082D01*
X56677882Y-57266577D01*
X56682668Y-57264595D01*
X56799753Y-57174753D01*
X56837333Y-57125777D01*
X56886441Y-57061778D01*
X56886442Y-57061776D01*
X56889595Y-57057667D01*
X56946073Y-56921319D01*
X56965336Y-56774999D01*
X56946073Y-56628679D01*
X56910324Y-56542375D01*
X56891579Y-56497120D01*
X56891578Y-56497118D01*
X56889595Y-56492331D01*
X56859120Y-56452614D01*
X56835922Y-56422382D01*
X56799753Y-56375245D01*
X56791406Y-56368841D01*
X56762372Y-56323268D01*
X56760499Y-56306167D01*
X56760499Y-52716891D01*
X56762267Y-52700271D01*
X56765078Y-52687216D01*
X56761047Y-52653157D01*
X56760499Y-52643872D01*
X56760499Y-52640049D01*
X56759963Y-52636827D01*
X56757330Y-52621007D01*
X56756806Y-52617323D01*
X56751739Y-52574516D01*
X56750972Y-52568032D01*
X56748147Y-52562148D01*
X56748009Y-52561674D01*
X56747786Y-52560693D01*
X56747392Y-52559448D01*
X56747010Y-52558515D01*
X56746850Y-52558049D01*
X56745779Y-52551612D01*
X56722197Y-52507908D01*
X56720512Y-52504599D01*
X56701172Y-52464322D01*
X56701169Y-52464318D01*
X56699021Y-52459844D01*
X56695613Y-52455789D01*
X56694499Y-52454675D01*
X56691657Y-52451307D01*
X56688789Y-52445991D01*
X56650590Y-52410680D01*
X56648354Y-52408530D01*
X55789052Y-51549228D01*
X55766214Y-51500252D01*
X55766682Y-51482372D01*
X55789668Y-51318825D01*
X55789668Y-51318820D01*
X55790013Y-51316368D01*
X55790311Y-51294999D01*
X55771293Y-51125445D01*
X55715182Y-50964319D01*
X55624769Y-50819627D01*
X55586039Y-50780626D01*
X55563373Y-50731570D01*
X55577542Y-50679421D01*
X55590917Y-50665859D01*
X55590466Y-50665358D01*
X55599658Y-50657081D01*
X55713682Y-50530443D01*
X55718520Y-50523784D01*
X55803720Y-50376215D01*
X55807070Y-50368688D01*
X55858767Y-50209583D01*
X55857085Y-50202834D01*
X55853184Y-50199999D01*
X54202640Y-50199999D01*
X54191969Y-50203883D01*
X54190312Y-50206753D01*
X54242928Y-50368688D01*
X54246278Y-50376215D01*
X54331478Y-50523784D01*
X54336316Y-50530443D01*
X54450340Y-50657081D01*
X54459532Y-50665358D01*
X54458107Y-50666940D01*
X54484147Y-50705573D01*
X54478480Y-50759314D01*
X54462761Y-50781102D01*
X54455104Y-50788601D01*
X54431925Y-50811299D01*
X54339500Y-50954714D01*
X54337990Y-50958864D01*
X54337989Y-50958865D01*
X54320249Y-51007605D01*
X54281146Y-51115042D01*
X54272593Y-51182744D01*
X54265539Y-51238588D01*
X54259762Y-51284314D01*
X54276411Y-51454116D01*
X54330266Y-51616011D01*
X54418650Y-51761950D01*
X54529108Y-51876333D01*
X54551088Y-51925699D01*
X54536192Y-51977645D01*
X54527553Y-51987653D01*
X54431925Y-52081299D01*
X54380629Y-52160896D01*
X54375861Y-52168294D01*
X54332817Y-52200966D01*
X54309456Y-52204499D01*
X46622045Y-52204499D01*
X46571265Y-52186017D01*
X46566184Y-52181360D01*
X44225239Y-49840415D01*
X54191231Y-49840415D01*
X54192913Y-49847164D01*
X54196814Y-49849999D01*
X54836069Y-49849999D01*
X54846740Y-49846115D01*
X54849999Y-49840471D01*
X54849999Y-49836069D01*
X55199999Y-49836069D01*
X55203883Y-49846740D01*
X55209527Y-49849999D01*
X55847358Y-49849999D01*
X55858029Y-49846115D01*
X55859686Y-49843245D01*
X55807070Y-49681310D01*
X55803720Y-49673783D01*
X55718520Y-49526214D01*
X55713682Y-49519555D01*
X55599658Y-49392917D01*
X55593551Y-49387418D01*
X55455689Y-49287256D01*
X55448556Y-49283138D01*
X55292893Y-49213832D01*
X55285062Y-49211287D01*
X55213623Y-49196103D01*
X55202380Y-49197683D01*
X55200120Y-49200193D01*
X55199999Y-49200815D01*
X55199999Y-49836069D01*
X54849999Y-49836069D01*
X54849999Y-49207137D01*
X54846115Y-49196466D01*
X54843190Y-49194777D01*
X54842560Y-49194788D01*
X54764936Y-49211287D01*
X54757105Y-49213832D01*
X54601442Y-49283138D01*
X54594309Y-49287256D01*
X54456447Y-49387418D01*
X54450340Y-49392917D01*
X54336316Y-49519555D01*
X54331478Y-49526214D01*
X54246278Y-49673783D01*
X54242928Y-49681310D01*
X54191231Y-49840415D01*
X44225239Y-49840415D01*
X41220535Y-46835711D01*
X59738739Y-46835711D01*
X59738869Y-46838472D01*
X59773894Y-46965628D01*
X59777024Y-46973533D01*
X59859167Y-47129332D01*
X59863924Y-47136385D01*
X59977607Y-47270911D01*
X59983760Y-47276770D01*
X60123683Y-47383749D01*
X60130957Y-47388154D01*
X60290575Y-47462584D01*
X60298641Y-47465330D01*
X60471520Y-47503973D01*
X60477933Y-47504863D01*
X60479276Y-47504938D01*
X60481451Y-47504999D01*
X60931069Y-47504999D01*
X60941740Y-47501115D01*
X60944999Y-47495471D01*
X60944999Y-46843929D01*
X60941115Y-46833258D01*
X60935471Y-46829999D01*
X59750465Y-46829999D01*
X59739794Y-46833883D01*
X59738739Y-46835711D01*
X41220535Y-46835711D01*
X40851079Y-46466255D01*
X59739665Y-46466255D01*
X59741755Y-46477419D01*
X59744895Y-46479999D01*
X60931069Y-46479999D01*
X60941740Y-46476115D01*
X60944999Y-46470471D01*
X60944999Y-45818929D01*
X60941115Y-45808258D01*
X60935471Y-45804999D01*
X60525992Y-45804999D01*
X60521745Y-45805229D01*
X60390647Y-45819470D01*
X60382348Y-45821295D01*
X60215412Y-45877475D01*
X60207697Y-45881040D01*
X60056733Y-45971749D01*
X60049946Y-45976900D01*
X59921984Y-46097909D01*
X59916470Y-46104388D01*
X59817471Y-46250059D01*
X59813480Y-46257566D01*
X59748074Y-46421091D01*
X59745783Y-46429295D01*
X59739665Y-46466255D01*
X40851079Y-46466255D01*
X39406345Y-45021521D01*
X39383882Y-44975972D01*
X39371749Y-44883815D01*
X39371073Y-44878679D01*
X39349926Y-44827626D01*
X39316579Y-44747120D01*
X39316578Y-44747118D01*
X39314595Y-44742331D01*
X39289591Y-44709744D01*
X39227902Y-44629349D01*
X39224753Y-44625245D01*
X39175245Y-44587256D01*
X39111779Y-44538557D01*
X39111777Y-44538556D01*
X39107668Y-44535403D01*
X39102881Y-44533420D01*
X39102879Y-44533419D01*
X39054114Y-44513220D01*
X38971319Y-44478925D01*
X38824999Y-44459662D01*
X38678679Y-44478925D01*
X38595885Y-44513220D01*
X38547120Y-44533419D01*
X38547118Y-44533420D01*
X38542331Y-44535403D01*
X38538222Y-44538556D01*
X38538220Y-44538557D01*
X38470139Y-44590797D01*
X38425245Y-44625245D01*
X38422096Y-44629349D01*
X38360408Y-44709744D01*
X38335403Y-44742331D01*
X38278925Y-44878679D01*
X38259662Y-45024999D01*
X38278925Y-45171319D01*
X38335403Y-45307667D01*
X38338556Y-45311776D01*
X38338557Y-45311778D01*
X38395836Y-45386426D01*
X38425245Y-45424753D01*
X38429349Y-45427902D01*
X38538219Y-45511441D01*
X38538221Y-45511442D01*
X38542330Y-45514595D01*
X38547117Y-45516578D01*
X38547119Y-45516579D01*
X38592976Y-45535573D01*
X38678679Y-45571073D01*
X38824999Y-45590336D01*
X38830134Y-45589660D01*
X38901705Y-45580238D01*
X38954463Y-45591934D01*
X38967877Y-45602701D01*
X46151927Y-52786751D01*
X46162428Y-52799752D01*
X46169675Y-52810975D01*
X46196614Y-52832212D01*
X46203567Y-52838391D01*
X46206265Y-52841089D01*
X46208927Y-52842991D01*
X46221952Y-52852299D01*
X46224929Y-52854534D01*
X46263925Y-52885276D01*
X46270092Y-52887442D01*
X46270516Y-52887675D01*
X46271373Y-52888214D01*
X46272530Y-52888816D01*
X46273460Y-52889205D01*
X46273898Y-52889420D01*
X46279208Y-52893214D01*
X46285459Y-52895084D01*
X46285460Y-52895084D01*
X46326778Y-52907441D01*
X46330283Y-52908580D01*
X46377161Y-52925042D01*
X46382438Y-52925499D01*
X46384007Y-52925499D01*
X46388406Y-52925872D01*
X46394191Y-52927602D01*
X46400711Y-52927346D01*
X46400713Y-52927346D01*
X46446162Y-52925560D01*
X46449264Y-52925499D01*
X54309667Y-52925499D01*
X54360447Y-52943981D01*
X54377240Y-52963574D01*
X54418650Y-53031950D01*
X54529108Y-53146333D01*
X54551088Y-53195699D01*
X54536192Y-53247645D01*
X54527553Y-53257653D01*
X54431925Y-53351299D01*
X54339500Y-53494714D01*
X54281146Y-53655042D01*
X54259762Y-53824314D01*
X54276411Y-53994116D01*
X54277803Y-53998301D01*
X54277804Y-53998305D01*
X54316701Y-54115234D01*
X54330266Y-54156011D01*
X54335336Y-54164383D01*
X54408829Y-54285733D01*
X54418650Y-54301950D01*
X54529108Y-54416333D01*
X54551088Y-54465699D01*
X54536192Y-54517645D01*
X54527553Y-54527653D01*
X54492641Y-54561842D01*
X54431925Y-54621299D01*
X54339500Y-54764714D01*
X54281146Y-54925042D01*
X54279832Y-54935445D01*
X54262923Y-55069295D01*
X54259762Y-55094314D01*
X54262293Y-55120126D01*
X54272176Y-55220919D01*
X54276411Y-55264116D01*
X54277803Y-55268301D01*
X54277804Y-55268305D01*
X54293953Y-55316849D01*
X54330266Y-55426011D01*
X54332551Y-55429784D01*
X54405726Y-55550610D01*
X54416222Y-55603620D01*
X54390189Y-55650975D01*
X54382049Y-55657215D01*
X54337189Y-55687189D01*
X54332868Y-55693656D01*
X54329704Y-55698391D01*
X54286124Y-55730343D01*
X54264019Y-55733499D01*
X53559308Y-55733499D01*
X53550443Y-55732520D01*
X53550414Y-55732822D01*
X53545468Y-55732354D01*
X53540617Y-55731270D01*
X53535651Y-55731426D01*
X53535650Y-55731426D01*
X53470929Y-55733460D01*
X53468448Y-55733499D01*
X53439404Y-55733499D01*
X53436946Y-55733810D01*
X53436939Y-55733810D01*
X53433069Y-55734299D01*
X53425649Y-55734883D01*
X53406863Y-55735473D01*
X53378616Y-55736361D01*
X53373842Y-55737748D01*
X53373841Y-55737748D01*
X53355247Y-55743150D01*
X53343111Y-55745663D01*
X53318964Y-55748714D01*
X53275189Y-55766046D01*
X53268173Y-55768448D01*
X53222971Y-55781580D01*
X53202018Y-55793972D01*
X53190899Y-55799419D01*
X53168266Y-55808380D01*
X53164245Y-55811302D01*
X53164244Y-55811302D01*
X53130192Y-55836042D01*
X53123973Y-55840127D01*
X53087741Y-55861555D01*
X53087739Y-55861557D01*
X53083462Y-55864086D01*
X53066255Y-55881293D01*
X53056828Y-55889344D01*
X53037140Y-55903649D01*
X53033974Y-55907476D01*
X53007137Y-55939916D01*
X53002128Y-55945420D01*
X45527639Y-63419909D01*
X45520674Y-63425489D01*
X45520867Y-63425723D01*
X45517038Y-63428890D01*
X45512841Y-63431554D01*
X45509439Y-63435177D01*
X45465085Y-63482409D01*
X45463357Y-63484191D01*
X45442849Y-63504699D01*
X45441325Y-63506664D01*
X45438937Y-63509742D01*
X45434110Y-63515394D01*
X45401889Y-63549706D01*
X45390162Y-63571037D01*
X45383366Y-63581384D01*
X45368444Y-63600622D01*
X45366471Y-63605182D01*
X45349756Y-63643806D01*
X45346482Y-63650488D01*
X45326203Y-63687377D01*
X45323806Y-63691738D01*
X45322570Y-63696553D01*
X45317755Y-63715307D01*
X45313739Y-63727036D01*
X45307758Y-63740857D01*
X45304074Y-63749371D01*
X45303297Y-63754278D01*
X45296712Y-63795853D01*
X45295203Y-63803139D01*
X45284927Y-63843165D01*
X45283499Y-63848727D01*
X45283499Y-63873068D01*
X45282526Y-63885425D01*
X45278720Y-63909457D01*
X45279188Y-63914408D01*
X45283148Y-63956304D01*
X45283499Y-63963738D01*
X45283499Y-64460010D01*
X45265017Y-64510790D01*
X45218217Y-64537810D01*
X45204499Y-64539010D01*
X42053950Y-64539010D01*
X42003170Y-64520528D01*
X41998089Y-64515871D01*
X34614638Y-57132420D01*
X34591800Y-57083444D01*
X34591499Y-57076559D01*
X34591499Y-44998439D01*
X34609981Y-44947659D01*
X34614638Y-44942578D01*
X35192578Y-44364638D01*
X35241554Y-44341800D01*
X35248439Y-44341499D01*
X37895452Y-44341499D01*
X37904323Y-44342478D01*
X37904351Y-44342177D01*
X37909299Y-44342645D01*
X37914149Y-44343729D01*
X37919115Y-44343573D01*
X37919116Y-44343573D01*
X37983855Y-44341538D01*
X37986337Y-44341499D01*
X38015362Y-44341499D01*
X38018599Y-44341090D01*
X38021700Y-44340699D01*
X38029113Y-44340116D01*
X38051216Y-44339421D01*
X38076150Y-44338637D01*
X38080920Y-44337251D01*
X38080927Y-44337250D01*
X38099521Y-44331848D01*
X38111658Y-44329334D01*
X38130871Y-44326907D01*
X38130872Y-44326907D01*
X38135802Y-44326284D01*
X38179557Y-44308960D01*
X38186595Y-44306551D01*
X38227018Y-44294807D01*
X38227019Y-44294807D01*
X38231795Y-44293419D01*
X38252753Y-44281024D01*
X38263872Y-44275577D01*
X38286500Y-44266618D01*
X38324587Y-44238946D01*
X38330777Y-44234880D01*
X38371304Y-44210912D01*
X38388511Y-44193705D01*
X38397937Y-44185654D01*
X38413607Y-44174269D01*
X38417626Y-44171349D01*
X38447629Y-44135082D01*
X38452638Y-44129578D01*
X39157149Y-43425067D01*
X39186715Y-43386951D01*
X39228507Y-43333074D01*
X39228509Y-43333070D01*
X39231554Y-43329145D01*
X39295923Y-43180395D01*
X39321278Y-43020310D01*
X39306026Y-42858948D01*
X39251122Y-42706450D01*
X39160019Y-42572396D01*
X39038441Y-42465210D01*
X38894026Y-42391627D01*
X38828886Y-42377066D01*
X38740700Y-42357354D01*
X38740697Y-42357354D01*
X38735849Y-42356270D01*
X38730883Y-42356426D01*
X38730882Y-42356426D01*
X38654848Y-42358816D01*
X38573848Y-42361361D01*
X38418203Y-42406580D01*
X38413923Y-42409111D01*
X38413921Y-42409112D01*
X38282977Y-42486553D01*
X38278694Y-42489086D01*
X37732420Y-43035360D01*
X37683444Y-43058198D01*
X37676559Y-43058499D01*
X35029546Y-43058499D01*
X35020675Y-43057520D01*
X35020647Y-43057821D01*
X35015699Y-43057353D01*
X35010849Y-43056269D01*
X35005883Y-43056425D01*
X34941129Y-43058460D01*
X34938648Y-43058499D01*
X34909636Y-43058499D01*
X34907177Y-43058810D01*
X34907173Y-43058810D01*
X34903309Y-43059298D01*
X34895888Y-43059882D01*
X34856574Y-43061117D01*
X34848848Y-43061360D01*
X34826402Y-43067881D01*
X34825476Y-43068150D01*
X34813338Y-43070664D01*
X34789196Y-43073714D01*
X34745429Y-43091043D01*
X34738406Y-43093447D01*
X34693204Y-43106579D01*
X34672253Y-43118970D01*
X34661124Y-43124422D01*
X34638498Y-43133380D01*
X34634480Y-43136299D01*
X34634475Y-43136302D01*
X34600419Y-43161045D01*
X34594205Y-43165127D01*
X34553694Y-43189086D01*
X34536487Y-43206293D01*
X34527060Y-43214344D01*
X34507372Y-43228649D01*
X34504206Y-43232476D01*
X34477369Y-43264916D01*
X34472360Y-43270420D01*
X33645360Y-44097420D01*
X33596384Y-44120258D01*
X33544186Y-44106272D01*
X33513191Y-44062006D01*
X33510499Y-44041559D01*
X33510499Y-39327446D01*
X33528981Y-39276666D01*
X33575781Y-39249646D01*
X33589102Y-39248447D01*
X35882664Y-39236908D01*
X38145603Y-39225524D01*
X38196474Y-39243751D01*
G37*
G04 #@! TD.AperFunction*
G04 #@! TA.AperFunction,Conductor*
G36*
X33628999Y-57965023D02*
G01*
X33645360Y-57977578D01*
X41245652Y-65577870D01*
X41251232Y-65584835D01*
X41251466Y-65584642D01*
X41254634Y-65588471D01*
X41257297Y-65592668D01*
X41260919Y-65596070D01*
X41260923Y-65596074D01*
X41268203Y-65602910D01*
X41292569Y-65651144D01*
X41280230Y-65703755D01*
X41236960Y-65736127D01*
X41214125Y-65739499D01*
X33589499Y-65739499D01*
X33538719Y-65721017D01*
X33511699Y-65674217D01*
X33510499Y-65660499D01*
X33510499Y-58033439D01*
X33528981Y-57982659D01*
X33575781Y-57955639D01*
X33628999Y-57965023D01*
G37*
G04 #@! TD.AperFunction*
G04 #@! TA.AperFunction,Conductor*
G36*
X76696477Y-39243751D02*
G01*
X76723732Y-39290414D01*
X76725002Y-39304523D01*
X76725002Y-40074999D01*
X104910502Y-40074999D01*
X104961282Y-40093481D01*
X104988302Y-40140281D01*
X104989502Y-40153999D01*
X104989502Y-46200315D01*
X104971020Y-46251095D01*
X104924220Y-46278115D01*
X104871002Y-46268731D01*
X104840620Y-46237160D01*
X104810834Y-46180666D01*
X104806077Y-46173613D01*
X104692394Y-46039087D01*
X104686241Y-46033228D01*
X104546318Y-45926249D01*
X104539044Y-45921844D01*
X104379426Y-45847414D01*
X104371360Y-45844668D01*
X104198481Y-45806025D01*
X104192068Y-45805135D01*
X104190725Y-45805060D01*
X104188550Y-45804999D01*
X103988932Y-45804999D01*
X103978261Y-45808883D01*
X103975002Y-45814527D01*
X103975002Y-47491069D01*
X103978886Y-47501740D01*
X103984530Y-47504999D01*
X104144009Y-47504999D01*
X104148256Y-47504769D01*
X104279354Y-47490528D01*
X104287653Y-47488703D01*
X104454589Y-47432523D01*
X104462304Y-47428958D01*
X104613268Y-47338249D01*
X104620055Y-47333098D01*
X104748017Y-47212089D01*
X104753531Y-47205610D01*
X104845163Y-47070779D01*
X104888992Y-47039169D01*
X104942886Y-47043127D01*
X104981627Y-47080801D01*
X104989502Y-47115184D01*
X104989502Y-54840315D01*
X104971020Y-54891095D01*
X104924220Y-54918115D01*
X104871002Y-54908731D01*
X104840620Y-54877160D01*
X104810834Y-54820666D01*
X104806077Y-54813613D01*
X104692394Y-54679087D01*
X104686241Y-54673228D01*
X104546318Y-54566249D01*
X104539044Y-54561844D01*
X104379426Y-54487414D01*
X104371360Y-54484668D01*
X104198481Y-54446025D01*
X104192068Y-54445135D01*
X104190725Y-54445060D01*
X104188550Y-54444999D01*
X103988932Y-54444999D01*
X103978261Y-54448883D01*
X103975002Y-54454527D01*
X103975002Y-56131069D01*
X103978886Y-56141740D01*
X103984530Y-56144999D01*
X104144009Y-56144999D01*
X104148256Y-56144769D01*
X104279354Y-56130528D01*
X104287653Y-56128703D01*
X104454589Y-56072523D01*
X104462304Y-56068958D01*
X104613268Y-55978249D01*
X104620055Y-55973098D01*
X104748017Y-55852089D01*
X104753531Y-55845610D01*
X104845163Y-55710779D01*
X104888992Y-55679169D01*
X104942886Y-55683127D01*
X104981627Y-55720801D01*
X104989502Y-55755184D01*
X104989502Y-65660499D01*
X104971020Y-65711279D01*
X104924220Y-65738299D01*
X104910502Y-65739499D01*
X90783442Y-65739499D01*
X90732662Y-65721017D01*
X90705642Y-65674217D01*
X90715026Y-65620999D01*
X90727581Y-65604638D01*
X92382152Y-63950067D01*
X92441879Y-63873068D01*
X92453510Y-63858074D01*
X92453512Y-63858070D01*
X92456557Y-63854145D01*
X92476345Y-63808419D01*
X92518954Y-63709954D01*
X92520927Y-63705395D01*
X92521704Y-63700490D01*
X92521705Y-63700486D01*
X92545503Y-63550221D01*
X92546281Y-63545309D01*
X92534978Y-63425723D01*
X92531497Y-63388897D01*
X92531497Y-63388895D01*
X92531029Y-63383948D01*
X92476126Y-63231449D01*
X92385023Y-63097395D01*
X92263444Y-62990209D01*
X92119030Y-62916627D01*
X92114176Y-62915542D01*
X91965703Y-62882354D01*
X91965700Y-62882354D01*
X91960852Y-62881270D01*
X91955886Y-62881426D01*
X91955885Y-62881426D01*
X91879852Y-62883815D01*
X91798851Y-62886361D01*
X91643206Y-62931580D01*
X91638926Y-62934111D01*
X91638924Y-62934112D01*
X91538514Y-62993495D01*
X91503697Y-63014086D01*
X90001912Y-64515871D01*
X89952936Y-64538709D01*
X89946051Y-64539010D01*
X89648494Y-64539010D01*
X89597714Y-64520528D01*
X89570694Y-64473728D01*
X89571888Y-64446426D01*
X89571076Y-64446319D01*
X89589663Y-64305134D01*
X89590339Y-64299999D01*
X89589229Y-64291568D01*
X89600925Y-64238810D01*
X89611692Y-64225395D01*
X92475535Y-61361552D01*
X92524511Y-61338714D01*
X92579490Y-61354740D01*
X92592333Y-61364595D01*
X92597120Y-61366578D01*
X92597122Y-61366579D01*
X92642979Y-61385573D01*
X92728682Y-61421073D01*
X92875002Y-61440336D01*
X93021322Y-61421073D01*
X93107025Y-61385573D01*
X93152882Y-61366579D01*
X93152884Y-61366578D01*
X93157671Y-61364595D01*
X93161780Y-61361442D01*
X93161782Y-61361441D01*
X93270652Y-61277902D01*
X93274756Y-61274753D01*
X93364598Y-61157667D01*
X93421076Y-61021319D01*
X93440339Y-60874999D01*
X93421076Y-60728679D01*
X93364598Y-60592331D01*
X93353659Y-60578074D01*
X93277905Y-60479349D01*
X93274756Y-60475245D01*
X93252467Y-60458142D01*
X93161782Y-60388557D01*
X93161780Y-60388556D01*
X93157671Y-60385403D01*
X93152884Y-60383420D01*
X93152882Y-60383419D01*
X93107025Y-60364425D01*
X93021322Y-60328925D01*
X92875002Y-60309662D01*
X92728682Y-60328925D01*
X92642378Y-60364674D01*
X92597123Y-60383419D01*
X92597121Y-60383420D01*
X92592334Y-60385403D01*
X92588225Y-60388556D01*
X92588223Y-60388557D01*
X92493667Y-60461112D01*
X92475248Y-60475245D01*
X92469195Y-60483134D01*
X92419490Y-60512971D01*
X92400774Y-60516085D01*
X92397123Y-60516605D01*
X92347582Y-60522469D01*
X92341699Y-60525293D01*
X92341136Y-60525457D01*
X92340173Y-60525676D01*
X92338991Y-60526050D01*
X92338083Y-60526422D01*
X92337527Y-60526612D01*
X92331090Y-60527684D01*
X92325348Y-60530782D01*
X92325346Y-60530783D01*
X92287191Y-60551371D01*
X92283872Y-60553062D01*
X92243393Y-60572499D01*
X92243388Y-60572502D01*
X92238913Y-60574651D01*
X92234840Y-60578074D01*
X92233745Y-60579169D01*
X92230329Y-60582053D01*
X92225000Y-60584928D01*
X92218157Y-60592331D01*
X92189527Y-60623302D01*
X92187377Y-60625537D01*
X89099605Y-63713309D01*
X89050629Y-63736147D01*
X89033434Y-63735772D01*
X89025002Y-63734662D01*
X89019867Y-63735338D01*
X89013722Y-63736147D01*
X88878682Y-63753925D01*
X88792378Y-63789674D01*
X88747123Y-63808419D01*
X88747121Y-63808420D01*
X88742334Y-63810403D01*
X88738225Y-63813556D01*
X88738223Y-63813557D01*
X88680207Y-63858074D01*
X88625248Y-63900245D01*
X88611115Y-63918664D01*
X88585668Y-63951828D01*
X88535406Y-64017331D01*
X88478928Y-64153679D01*
X88459665Y-64299999D01*
X88460341Y-64305134D01*
X88478928Y-64446319D01*
X88477205Y-64446546D01*
X88473111Y-64493390D01*
X88434903Y-64531605D01*
X88401510Y-64539010D01*
X85145502Y-64539010D01*
X85094722Y-64520528D01*
X85067702Y-64473728D01*
X85066502Y-64460010D01*
X85066502Y-64228207D01*
X85084984Y-64177427D01*
X85089641Y-64172346D01*
X90915120Y-58346867D01*
X90964096Y-58324029D01*
X91016294Y-58338015D01*
X91034758Y-58358164D01*
X91035406Y-58357667D01*
X91125248Y-58474753D01*
X91129352Y-58477902D01*
X91238222Y-58561441D01*
X91238224Y-58561442D01*
X91242333Y-58564595D01*
X91247120Y-58566578D01*
X91247122Y-58566579D01*
X91292979Y-58585573D01*
X91378682Y-58621073D01*
X91488261Y-58635499D01*
X91517209Y-58639310D01*
X91525002Y-58640336D01*
X91617034Y-58628220D01*
X91653520Y-58632007D01*
X91657472Y-58633395D01*
X91657477Y-58633396D01*
X91662164Y-58635042D01*
X91667441Y-58635499D01*
X91669010Y-58635499D01*
X91673409Y-58635872D01*
X91679194Y-58637602D01*
X91685715Y-58637346D01*
X91685716Y-58637346D01*
X91731175Y-58635560D01*
X91734276Y-58635499D01*
X96478110Y-58635499D01*
X96494730Y-58637267D01*
X96507785Y-58640078D01*
X96541844Y-58636047D01*
X96551129Y-58635499D01*
X96554952Y-58635499D01*
X96558170Y-58634963D01*
X96558174Y-58634963D01*
X96573994Y-58632330D01*
X96577678Y-58631806D01*
X96594306Y-58629838D01*
X96626969Y-58625972D01*
X96632853Y-58623147D01*
X96633327Y-58623009D01*
X96634308Y-58622786D01*
X96635553Y-58622392D01*
X96636486Y-58622010D01*
X96636952Y-58621850D01*
X96643389Y-58620779D01*
X96649132Y-58617680D01*
X96649133Y-58617680D01*
X96668309Y-58607333D01*
X96687088Y-58597200D01*
X96690397Y-58595515D01*
X96730670Y-58576176D01*
X96730669Y-58576176D01*
X96735158Y-58574021D01*
X96739212Y-58570613D01*
X96740322Y-58569503D01*
X96743692Y-58566658D01*
X96749010Y-58563789D01*
X96753443Y-58558993D01*
X96753446Y-58558991D01*
X96784321Y-58525590D01*
X96786471Y-58523354D01*
X98452234Y-56857591D01*
X98465235Y-56847090D01*
X98476458Y-56839843D01*
X98497695Y-56812904D01*
X98503874Y-56805951D01*
X98506572Y-56803253D01*
X98517786Y-56787561D01*
X98520019Y-56784587D01*
X98546720Y-56750716D01*
X98550759Y-56745593D01*
X98552921Y-56739438D01*
X98553162Y-56738999D01*
X98553692Y-56738156D01*
X98554299Y-56736987D01*
X98554688Y-56736060D01*
X98554903Y-56735620D01*
X98558698Y-56730310D01*
X98572925Y-56682740D01*
X98574075Y-56679201D01*
X98588878Y-56637049D01*
X98588879Y-56637044D01*
X98590525Y-56632357D01*
X98590982Y-56627080D01*
X98590982Y-56625511D01*
X98591355Y-56621112D01*
X98593085Y-56615327D01*
X98591043Y-56563346D01*
X98590982Y-56560245D01*
X98590982Y-56133516D01*
X98609464Y-56082736D01*
X98656264Y-56055716D01*
X98703369Y-56061918D01*
X98790578Y-56102584D01*
X98798644Y-56105330D01*
X98971523Y-56143973D01*
X98977936Y-56144863D01*
X98979279Y-56144938D01*
X98981454Y-56144999D01*
X99431072Y-56144999D01*
X99441743Y-56141115D01*
X99445002Y-56135471D01*
X99445002Y-56131069D01*
X99795002Y-56131069D01*
X99798886Y-56141740D01*
X99804530Y-56144999D01*
X100214009Y-56144999D01*
X100218256Y-56144769D01*
X100349354Y-56130528D01*
X100357653Y-56128703D01*
X100524589Y-56072523D01*
X100532304Y-56068958D01*
X100683268Y-55978249D01*
X100690055Y-55973098D01*
X100818017Y-55852089D01*
X100823531Y-55845610D01*
X100922530Y-55699939D01*
X100926521Y-55692432D01*
X100991927Y-55528907D01*
X100994218Y-55520703D01*
X101000336Y-55483743D01*
X100998832Y-55475711D01*
X102668742Y-55475711D01*
X102668872Y-55478472D01*
X102703897Y-55605628D01*
X102707027Y-55613533D01*
X102789170Y-55769332D01*
X102793927Y-55776385D01*
X102907610Y-55910911D01*
X102913763Y-55916770D01*
X103053686Y-56023749D01*
X103060960Y-56028154D01*
X103220578Y-56102584D01*
X103228644Y-56105330D01*
X103401523Y-56143973D01*
X103407936Y-56144863D01*
X103409279Y-56144938D01*
X103411454Y-56144999D01*
X103611072Y-56144999D01*
X103621743Y-56141115D01*
X103625002Y-56135471D01*
X103625002Y-55483929D01*
X103621118Y-55473258D01*
X103615474Y-55469999D01*
X102680468Y-55469999D01*
X102669797Y-55473883D01*
X102668742Y-55475711D01*
X100998832Y-55475711D01*
X100998246Y-55472579D01*
X100995106Y-55469999D01*
X99808932Y-55469999D01*
X99798261Y-55473883D01*
X99795002Y-55479527D01*
X99795002Y-56131069D01*
X99445002Y-56131069D01*
X99445002Y-54458929D01*
X99441118Y-54448258D01*
X99435474Y-54444999D01*
X99025995Y-54444999D01*
X99021748Y-54445229D01*
X98890650Y-54459470D01*
X98882351Y-54461295D01*
X98715415Y-54517475D01*
X98703816Y-54522835D01*
X98702860Y-54520766D01*
X98657657Y-54529573D01*
X98610382Y-54503394D01*
X98590982Y-54451540D01*
X98590982Y-53864999D01*
X99559450Y-53864999D01*
X99579573Y-54017845D01*
X99638569Y-54160275D01*
X99732419Y-54282582D01*
X99736524Y-54285732D01*
X99736525Y-54285733D01*
X99789620Y-54326475D01*
X99818655Y-54372051D01*
X99809943Y-54428649D01*
X99795002Y-54454527D01*
X99795002Y-55106069D01*
X99798886Y-55116740D01*
X99804530Y-55119999D01*
X100989536Y-55119999D01*
X101000207Y-55116115D01*
X101001262Y-55114287D01*
X101001132Y-55111526D01*
X100999680Y-55106255D01*
X102669668Y-55106255D01*
X102671758Y-55117419D01*
X102674898Y-55119999D01*
X103611072Y-55119999D01*
X103621743Y-55116115D01*
X103625002Y-55110471D01*
X103625002Y-54458929D01*
X103621118Y-54448258D01*
X103615474Y-54444999D01*
X103455995Y-54444999D01*
X103451748Y-54445229D01*
X103320650Y-54459470D01*
X103312351Y-54461295D01*
X103145415Y-54517475D01*
X103137700Y-54521040D01*
X102986736Y-54611749D01*
X102979949Y-54616900D01*
X102851987Y-54737909D01*
X102846473Y-54744388D01*
X102747474Y-54890059D01*
X102743483Y-54897566D01*
X102678077Y-55061091D01*
X102675786Y-55069295D01*
X102669668Y-55106255D01*
X100999680Y-55106255D01*
X100966107Y-54984370D01*
X100962977Y-54976465D01*
X100880834Y-54820666D01*
X100876077Y-54813613D01*
X100762394Y-54679087D01*
X100756241Y-54673228D01*
X100616318Y-54566249D01*
X100609040Y-54561842D01*
X100474874Y-54499280D01*
X100436662Y-54461069D01*
X100431952Y-54407236D01*
X100460167Y-54365007D01*
X100509787Y-54326932D01*
X100567585Y-54282582D01*
X100661435Y-54160275D01*
X100720431Y-54017845D01*
X100740554Y-53864999D01*
X100720431Y-53712153D01*
X100661435Y-53569723D01*
X100611249Y-53504319D01*
X100570735Y-53451521D01*
X100567585Y-53447416D01*
X100563480Y-53444266D01*
X100449386Y-53356718D01*
X100449385Y-53356717D01*
X100445278Y-53353566D01*
X100440498Y-53351586D01*
X100440496Y-53351585D01*
X100391270Y-53331195D01*
X100302848Y-53294570D01*
X100249636Y-53287564D01*
X100190944Y-53279837D01*
X100190941Y-53279837D01*
X100188375Y-53279499D01*
X100111629Y-53279499D01*
X100109063Y-53279837D01*
X100109060Y-53279837D01*
X100050368Y-53287564D01*
X99997156Y-53294570D01*
X99908734Y-53331195D01*
X99859508Y-53351585D01*
X99859506Y-53351586D01*
X99854726Y-53353566D01*
X99850619Y-53356717D01*
X99850618Y-53356718D01*
X99736524Y-53444266D01*
X99732419Y-53447416D01*
X99729269Y-53451521D01*
X99688756Y-53504319D01*
X99638569Y-53569723D01*
X99579573Y-53712153D01*
X99559450Y-53864999D01*
X98590982Y-53864999D01*
X98590982Y-52726565D01*
X98609464Y-52675785D01*
X98614121Y-52670704D01*
X99423118Y-51861707D01*
X99472094Y-51838869D01*
X99524292Y-51852855D01*
X99555287Y-51897121D01*
X99550577Y-51950955D01*
X99549937Y-51952184D01*
X99547906Y-51954831D01*
X99491428Y-52091179D01*
X99472165Y-52237499D01*
X99472841Y-52242634D01*
X99475067Y-52259539D01*
X99491428Y-52383819D01*
X99521239Y-52455789D01*
X99542154Y-52506280D01*
X99547906Y-52520167D01*
X99551059Y-52524276D01*
X99551060Y-52524278D01*
X99586193Y-52570064D01*
X99637748Y-52637253D01*
X99641852Y-52640402D01*
X99750722Y-52723941D01*
X99750724Y-52723942D01*
X99754833Y-52727095D01*
X99759620Y-52729078D01*
X99759622Y-52729079D01*
X99805479Y-52748073D01*
X99891182Y-52783573D01*
X100037502Y-52802836D01*
X100183822Y-52783573D01*
X100269525Y-52748073D01*
X100315382Y-52729079D01*
X100315384Y-52729078D01*
X100320171Y-52727095D01*
X100324280Y-52723942D01*
X100324282Y-52723941D01*
X100433152Y-52640402D01*
X100437256Y-52637253D01*
X100488811Y-52570064D01*
X100523944Y-52524278D01*
X100523945Y-52524276D01*
X100527098Y-52520167D01*
X100532851Y-52506280D01*
X100553765Y-52455789D01*
X100583576Y-52383819D01*
X100599937Y-52259539D01*
X100602163Y-52242634D01*
X100602839Y-52237499D01*
X100601466Y-52227067D01*
X100613163Y-52174309D01*
X100623929Y-52160896D01*
X101771274Y-51013551D01*
X101784275Y-51003050D01*
X101795498Y-50995803D01*
X101816735Y-50968864D01*
X101822914Y-50961911D01*
X101825612Y-50959213D01*
X101836822Y-50943526D01*
X101839057Y-50940549D01*
X101865754Y-50906684D01*
X101869799Y-50901553D01*
X101871965Y-50895386D01*
X101872198Y-50894962D01*
X101872737Y-50894105D01*
X101873339Y-50892948D01*
X101873728Y-50892018D01*
X101873943Y-50891580D01*
X101877737Y-50886270D01*
X101891964Y-50838700D01*
X101893103Y-50835195D01*
X101909565Y-50788317D01*
X101910022Y-50783040D01*
X101910022Y-50781471D01*
X101910395Y-50777072D01*
X101912125Y-50771287D01*
X101910565Y-50731570D01*
X101910083Y-50719316D01*
X101910022Y-50716214D01*
X101910022Y-46835711D01*
X102668742Y-46835711D01*
X102668872Y-46838472D01*
X102703897Y-46965628D01*
X102707027Y-46973533D01*
X102789170Y-47129332D01*
X102793927Y-47136385D01*
X102907610Y-47270911D01*
X102913763Y-47276770D01*
X103053686Y-47383749D01*
X103060960Y-47388154D01*
X103220578Y-47462584D01*
X103228644Y-47465330D01*
X103401523Y-47503973D01*
X103407936Y-47504863D01*
X103409279Y-47504938D01*
X103411454Y-47504999D01*
X103611072Y-47504999D01*
X103621743Y-47501115D01*
X103625002Y-47495471D01*
X103625002Y-46843929D01*
X103621118Y-46833258D01*
X103615474Y-46829999D01*
X102680468Y-46829999D01*
X102669797Y-46833883D01*
X102668742Y-46835711D01*
X101910022Y-46835711D01*
X101910022Y-46466255D01*
X102669668Y-46466255D01*
X102671758Y-46477419D01*
X102674898Y-46479999D01*
X103611072Y-46479999D01*
X103621743Y-46476115D01*
X103625002Y-46470471D01*
X103625002Y-45818929D01*
X103621118Y-45808258D01*
X103615474Y-45804999D01*
X103455995Y-45804999D01*
X103451748Y-45805229D01*
X103320650Y-45819470D01*
X103312351Y-45821295D01*
X103145415Y-45877475D01*
X103137700Y-45881040D01*
X102986736Y-45971749D01*
X102979949Y-45976900D01*
X102851987Y-46097909D01*
X102846473Y-46104388D01*
X102747474Y-46250059D01*
X102743483Y-46257566D01*
X102678077Y-46421091D01*
X102675786Y-46429295D01*
X102669668Y-46466255D01*
X101910022Y-46466255D01*
X101910022Y-44882525D01*
X101928504Y-44831745D01*
X101933161Y-44826664D01*
X102573399Y-44186426D01*
X102622375Y-44163588D01*
X102639570Y-44163963D01*
X102644865Y-44164660D01*
X102644867Y-44164660D01*
X102650002Y-44165336D01*
X102796322Y-44146073D01*
X102882025Y-44110573D01*
X102927882Y-44091579D01*
X102927884Y-44091578D01*
X102932671Y-44089595D01*
X102936780Y-44086442D01*
X102936782Y-44086441D01*
X103045652Y-44002902D01*
X103049756Y-43999753D01*
X103139598Y-43882667D01*
X103196076Y-43746319D01*
X103215339Y-43599999D01*
X103196076Y-43453679D01*
X103139598Y-43317331D01*
X103103603Y-43270420D01*
X103052905Y-43204349D01*
X103049756Y-43200245D01*
X102998669Y-43161045D01*
X102936782Y-43113557D01*
X102936780Y-43113556D01*
X102932671Y-43110403D01*
X102927884Y-43108420D01*
X102927882Y-43108419D01*
X102882025Y-43089425D01*
X102796322Y-43053925D01*
X102650002Y-43034662D01*
X102503682Y-43053925D01*
X102457412Y-43073091D01*
X102372123Y-43108419D01*
X102372121Y-43108420D01*
X102367334Y-43110403D01*
X102363225Y-43113556D01*
X102363223Y-43113557D01*
X102337389Y-43133380D01*
X102250248Y-43200245D01*
X102247099Y-43204349D01*
X102196402Y-43270420D01*
X102160406Y-43317331D01*
X102103928Y-43453679D01*
X102084665Y-43599999D01*
X102085341Y-43605134D01*
X102085341Y-43605136D01*
X102086038Y-43610431D01*
X102074341Y-43663189D01*
X102063575Y-43676602D01*
X101327770Y-44412407D01*
X101314769Y-44422908D01*
X101303546Y-44430155D01*
X101299502Y-44435285D01*
X101282309Y-44457094D01*
X101276130Y-44464047D01*
X101273432Y-44466745D01*
X101271538Y-44469396D01*
X101262218Y-44482437D01*
X101259985Y-44485411D01*
X101242693Y-44507346D01*
X101229245Y-44524405D01*
X101227083Y-44530560D01*
X101226842Y-44530999D01*
X101226312Y-44531842D01*
X101225705Y-44533011D01*
X101225316Y-44533938D01*
X101225101Y-44534378D01*
X101221306Y-44539688D01*
X101219436Y-44545941D01*
X101207080Y-44587256D01*
X101205929Y-44590797D01*
X101191126Y-44632949D01*
X101191125Y-44632954D01*
X101189479Y-44637641D01*
X101189022Y-44642918D01*
X101189022Y-44644487D01*
X101188649Y-44648886D01*
X101186919Y-44654671D01*
X101187175Y-44661191D01*
X101187175Y-44661193D01*
X101188961Y-44706642D01*
X101189022Y-44709744D01*
X101189022Y-45188473D01*
X101170540Y-45239253D01*
X101123740Y-45266273D01*
X101070522Y-45256889D01*
X101054161Y-45244334D01*
X100686429Y-44876602D01*
X100663591Y-44827626D01*
X100663966Y-44810431D01*
X100664663Y-44805136D01*
X100664663Y-44805134D01*
X100665339Y-44799999D01*
X100646076Y-44653679D01*
X100596093Y-44533011D01*
X100591582Y-44522120D01*
X100591581Y-44522118D01*
X100589598Y-44517331D01*
X100565106Y-44485411D01*
X100502905Y-44404349D01*
X100499756Y-44400245D01*
X100426103Y-44343729D01*
X100386782Y-44313557D01*
X100386780Y-44313556D01*
X100382671Y-44310403D01*
X100377884Y-44308420D01*
X100377882Y-44308419D01*
X100304113Y-44277863D01*
X100246322Y-44253925D01*
X100100002Y-44234662D01*
X99953682Y-44253925D01*
X99888251Y-44281028D01*
X99822123Y-44308419D01*
X99822121Y-44308420D01*
X99817334Y-44310403D01*
X99813225Y-44313556D01*
X99813223Y-44313557D01*
X99718667Y-44386112D01*
X99700248Y-44400245D01*
X99697099Y-44404349D01*
X99634899Y-44485411D01*
X99610406Y-44517331D01*
X99608423Y-44522118D01*
X99608422Y-44522120D01*
X99603911Y-44533011D01*
X99553928Y-44653679D01*
X99534665Y-44799999D01*
X99553928Y-44946319D01*
X99610406Y-45082667D01*
X99613559Y-45086776D01*
X99613560Y-45086778D01*
X99686115Y-45181334D01*
X99700248Y-45199753D01*
X99704352Y-45202902D01*
X99813222Y-45286441D01*
X99813224Y-45286442D01*
X99817333Y-45289595D01*
X99822120Y-45291578D01*
X99822122Y-45291579D01*
X99860962Y-45307667D01*
X99953682Y-45346073D01*
X100100002Y-45365336D01*
X100105137Y-45364660D01*
X100105139Y-45364660D01*
X100110434Y-45363963D01*
X100163192Y-45375660D01*
X100176605Y-45386426D01*
X100498272Y-45708093D01*
X100521110Y-45757069D01*
X100507124Y-45809267D01*
X100462858Y-45840262D01*
X100425178Y-45841051D01*
X100268481Y-45806025D01*
X100262068Y-45805135D01*
X100260725Y-45805060D01*
X100258550Y-45804999D01*
X99808932Y-45804999D01*
X99798261Y-45808883D01*
X99795002Y-45814527D01*
X99795002Y-47491069D01*
X99805644Y-47520309D01*
X99816511Y-47533261D01*
X99816509Y-47587300D01*
X99790367Y-47622951D01*
X99732419Y-47667416D01*
X99638569Y-47789723D01*
X99579573Y-47932153D01*
X99559450Y-48084999D01*
X99579573Y-48237845D01*
X99638569Y-48380275D01*
X99732419Y-48502582D01*
X99854726Y-48596432D01*
X99859506Y-48598412D01*
X99859508Y-48598413D01*
X99908734Y-48618803D01*
X99997156Y-48655428D01*
X100002291Y-48656104D01*
X100030894Y-48659870D01*
X100078827Y-48684823D01*
X100099506Y-48734749D01*
X100083255Y-48786287D01*
X100050813Y-48811180D01*
X99997123Y-48833419D01*
X99997121Y-48833420D01*
X99992334Y-48835403D01*
X99988225Y-48838556D01*
X99988223Y-48838557D01*
X99893667Y-48911112D01*
X99875248Y-48925245D01*
X99785406Y-49042331D01*
X99728928Y-49178679D01*
X99709665Y-49324999D01*
X99728928Y-49471319D01*
X99785406Y-49607667D01*
X99875248Y-49724753D01*
X99879352Y-49727902D01*
X99988222Y-49811441D01*
X99988224Y-49811442D01*
X99992333Y-49814595D01*
X99997120Y-49816578D01*
X99997122Y-49816579D01*
X100042979Y-49835573D01*
X100128682Y-49871073D01*
X100275002Y-49890336D01*
X100421322Y-49871073D01*
X100507025Y-49835573D01*
X100552882Y-49816579D01*
X100552884Y-49816578D01*
X100557671Y-49814595D01*
X100561780Y-49811442D01*
X100561782Y-49811441D01*
X100670652Y-49727902D01*
X100674756Y-49724753D01*
X100764598Y-49607667D01*
X100821076Y-49471319D01*
X100840339Y-49324999D01*
X100838966Y-49314567D01*
X100850663Y-49261809D01*
X100861429Y-49248396D01*
X101054161Y-49055664D01*
X101103137Y-49032826D01*
X101155335Y-49046812D01*
X101186330Y-49091078D01*
X101189022Y-49111525D01*
X101189022Y-50543433D01*
X101170540Y-50594213D01*
X101165883Y-50599294D01*
X100714386Y-51050791D01*
X100665410Y-51073629D01*
X100613212Y-51059643D01*
X100582217Y-51015377D01*
X100586927Y-50961543D01*
X100587567Y-50960314D01*
X100589598Y-50957667D01*
X100646076Y-50821319D01*
X100665339Y-50674999D01*
X100646076Y-50528679D01*
X100589598Y-50392331D01*
X100571457Y-50368688D01*
X100502905Y-50279349D01*
X100499756Y-50275245D01*
X100477467Y-50258142D01*
X100386782Y-50188557D01*
X100386780Y-50188556D01*
X100382671Y-50185403D01*
X100377884Y-50183420D01*
X100377882Y-50183419D01*
X100332025Y-50164425D01*
X100246322Y-50128925D01*
X100100002Y-50109662D01*
X99953682Y-50128925D01*
X99867378Y-50164674D01*
X99822123Y-50183419D01*
X99822121Y-50183420D01*
X99817334Y-50185403D01*
X99813225Y-50188556D01*
X99813223Y-50188557D01*
X99718667Y-50261112D01*
X99700248Y-50275245D01*
X99697099Y-50279349D01*
X99628548Y-50368688D01*
X99610406Y-50392331D01*
X99553928Y-50528679D01*
X99534665Y-50674999D01*
X99535341Y-50680134D01*
X99535341Y-50680136D01*
X99536038Y-50685431D01*
X99524341Y-50738189D01*
X99513575Y-50751602D01*
X98008730Y-52256447D01*
X97995729Y-52266948D01*
X97984506Y-52274195D01*
X97980462Y-52279325D01*
X97963269Y-52301134D01*
X97957090Y-52308087D01*
X97954392Y-52310785D01*
X97952498Y-52313436D01*
X97943178Y-52326477D01*
X97940945Y-52329451D01*
X97923653Y-52351386D01*
X97910205Y-52368445D01*
X97908043Y-52374600D01*
X97907802Y-52375039D01*
X97907272Y-52375882D01*
X97906665Y-52377051D01*
X97906276Y-52377978D01*
X97906061Y-52378418D01*
X97902266Y-52383728D01*
X97900396Y-52389981D01*
X97888040Y-52431296D01*
X97886889Y-52434837D01*
X97872086Y-52476989D01*
X97872085Y-52476994D01*
X97870439Y-52481681D01*
X97869982Y-52486958D01*
X97869982Y-52488527D01*
X97869609Y-52492926D01*
X97867879Y-52498711D01*
X97868135Y-52505231D01*
X97868135Y-52505233D01*
X97869921Y-52550682D01*
X97869982Y-52553784D01*
X97869982Y-55120126D01*
X97851500Y-55170906D01*
X97804700Y-55197926D01*
X97760750Y-55193112D01*
X97748956Y-55188227D01*
X97696322Y-55166425D01*
X97550002Y-55147162D01*
X97403682Y-55166425D01*
X97339255Y-55193112D01*
X97272123Y-55220919D01*
X97272121Y-55220920D01*
X97267334Y-55222903D01*
X97263225Y-55226056D01*
X97263223Y-55226057D01*
X97230022Y-55251533D01*
X97150248Y-55312745D01*
X97060406Y-55429831D01*
X97058423Y-55434618D01*
X97058422Y-55434620D01*
X97043768Y-55469999D01*
X97003928Y-55566179D01*
X96984665Y-55712499D01*
X97003928Y-55858819D01*
X97037520Y-55939916D01*
X97051265Y-55973098D01*
X97060406Y-55995167D01*
X97150248Y-56112253D01*
X97158595Y-56118657D01*
X97187629Y-56164230D01*
X97189502Y-56181331D01*
X97189502Y-56242953D01*
X97171020Y-56293733D01*
X97166363Y-56298814D01*
X96073817Y-57391360D01*
X96024841Y-57414198D01*
X96017956Y-57414499D01*
X95216509Y-57414499D01*
X95165729Y-57396017D01*
X95138709Y-57349217D01*
X95148093Y-57295999D01*
X95177011Y-57267082D01*
X95177885Y-57266577D01*
X95182671Y-57264595D01*
X95299756Y-57174753D01*
X95337336Y-57125777D01*
X95386444Y-57061778D01*
X95386445Y-57061776D01*
X95389598Y-57057667D01*
X95446076Y-56921319D01*
X95465339Y-56774999D01*
X95446076Y-56628679D01*
X95410327Y-56542375D01*
X95391582Y-56497120D01*
X95391581Y-56497118D01*
X95389598Y-56492331D01*
X95359123Y-56452614D01*
X95335925Y-56422382D01*
X95299756Y-56375245D01*
X95291409Y-56368841D01*
X95262375Y-56323268D01*
X95260502Y-56306167D01*
X95260502Y-52716891D01*
X95262270Y-52700271D01*
X95265081Y-52687216D01*
X95261050Y-52653157D01*
X95260502Y-52643872D01*
X95260502Y-52640049D01*
X95259966Y-52636827D01*
X95257333Y-52621007D01*
X95256809Y-52617323D01*
X95251742Y-52574516D01*
X95250975Y-52568032D01*
X95248150Y-52562148D01*
X95248012Y-52561674D01*
X95247789Y-52560693D01*
X95247395Y-52559448D01*
X95247013Y-52558515D01*
X95246853Y-52558049D01*
X95245782Y-52551612D01*
X95222200Y-52507908D01*
X95220515Y-52504599D01*
X95201175Y-52464322D01*
X95201172Y-52464318D01*
X95199024Y-52459844D01*
X95195616Y-52455789D01*
X95194502Y-52454675D01*
X95191660Y-52451307D01*
X95188792Y-52445991D01*
X95150593Y-52410680D01*
X95148357Y-52408530D01*
X94289055Y-51549228D01*
X94266217Y-51500252D01*
X94266685Y-51482372D01*
X94289671Y-51318825D01*
X94289671Y-51318820D01*
X94290016Y-51316368D01*
X94290314Y-51294999D01*
X94271296Y-51125445D01*
X94215185Y-50964319D01*
X94124772Y-50819627D01*
X94086042Y-50780626D01*
X94063376Y-50731570D01*
X94077545Y-50679421D01*
X94090920Y-50665859D01*
X94090469Y-50665358D01*
X94099661Y-50657081D01*
X94213685Y-50530443D01*
X94218523Y-50523784D01*
X94303723Y-50376215D01*
X94307073Y-50368688D01*
X94358770Y-50209583D01*
X94357088Y-50202834D01*
X94353187Y-50199999D01*
X92702643Y-50199999D01*
X92691972Y-50203883D01*
X92690315Y-50206753D01*
X92742931Y-50368688D01*
X92746281Y-50376215D01*
X92831481Y-50523784D01*
X92836319Y-50530443D01*
X92950343Y-50657081D01*
X92959535Y-50665358D01*
X92958110Y-50666940D01*
X92984150Y-50705573D01*
X92978483Y-50759314D01*
X92962764Y-50781102D01*
X92955107Y-50788601D01*
X92931928Y-50811299D01*
X92839503Y-50954714D01*
X92837993Y-50958864D01*
X92837992Y-50958865D01*
X92820252Y-51007605D01*
X92781149Y-51115042D01*
X92772596Y-51182744D01*
X92765542Y-51238588D01*
X92759765Y-51284314D01*
X92776414Y-51454116D01*
X92830269Y-51616011D01*
X92918653Y-51761950D01*
X93029111Y-51876333D01*
X93051091Y-51925699D01*
X93036195Y-51977645D01*
X93027556Y-51987653D01*
X92931928Y-52081299D01*
X92880632Y-52160896D01*
X92875864Y-52168294D01*
X92832820Y-52200966D01*
X92809459Y-52204499D01*
X85122048Y-52204499D01*
X85071268Y-52186017D01*
X85066187Y-52181360D01*
X82725242Y-49840415D01*
X92691234Y-49840415D01*
X92692916Y-49847164D01*
X92696817Y-49849999D01*
X93336072Y-49849999D01*
X93346743Y-49846115D01*
X93350002Y-49840471D01*
X93350002Y-49836069D01*
X93700002Y-49836069D01*
X93703886Y-49846740D01*
X93709530Y-49849999D01*
X94347361Y-49849999D01*
X94358032Y-49846115D01*
X94359689Y-49843245D01*
X94307073Y-49681310D01*
X94303723Y-49673783D01*
X94218523Y-49526214D01*
X94213685Y-49519555D01*
X94099661Y-49392917D01*
X94093554Y-49387418D01*
X93955692Y-49287256D01*
X93948559Y-49283138D01*
X93792896Y-49213832D01*
X93785065Y-49211287D01*
X93713626Y-49196103D01*
X93702383Y-49197683D01*
X93700123Y-49200193D01*
X93700002Y-49200815D01*
X93700002Y-49836069D01*
X93350002Y-49836069D01*
X93350002Y-49207137D01*
X93346118Y-49196466D01*
X93343193Y-49194777D01*
X93342563Y-49194788D01*
X93264939Y-49211287D01*
X93257108Y-49213832D01*
X93101445Y-49283138D01*
X93094312Y-49287256D01*
X92956450Y-49387418D01*
X92950343Y-49392917D01*
X92836319Y-49519555D01*
X92831481Y-49526214D01*
X92746281Y-49673783D01*
X92742931Y-49681310D01*
X92691234Y-49840415D01*
X82725242Y-49840415D01*
X79720538Y-46835711D01*
X98238742Y-46835711D01*
X98238872Y-46838472D01*
X98273897Y-46965628D01*
X98277027Y-46973533D01*
X98359170Y-47129332D01*
X98363927Y-47136385D01*
X98477610Y-47270911D01*
X98483763Y-47276770D01*
X98623686Y-47383749D01*
X98630960Y-47388154D01*
X98790578Y-47462584D01*
X98798644Y-47465330D01*
X98971523Y-47503973D01*
X98977936Y-47504863D01*
X98979279Y-47504938D01*
X98981454Y-47504999D01*
X99431072Y-47504999D01*
X99441743Y-47501115D01*
X99445002Y-47495471D01*
X99445002Y-46843929D01*
X99441118Y-46833258D01*
X99435474Y-46829999D01*
X98250468Y-46829999D01*
X98239797Y-46833883D01*
X98238742Y-46835711D01*
X79720538Y-46835711D01*
X79351082Y-46466255D01*
X98239668Y-46466255D01*
X98241758Y-46477419D01*
X98244898Y-46479999D01*
X99431072Y-46479999D01*
X99441743Y-46476115D01*
X99445002Y-46470471D01*
X99445002Y-45818929D01*
X99441118Y-45808258D01*
X99435474Y-45804999D01*
X99025995Y-45804999D01*
X99021748Y-45805229D01*
X98890650Y-45819470D01*
X98882351Y-45821295D01*
X98715415Y-45877475D01*
X98707700Y-45881040D01*
X98556736Y-45971749D01*
X98549949Y-45976900D01*
X98421987Y-46097909D01*
X98416473Y-46104388D01*
X98317474Y-46250059D01*
X98313483Y-46257566D01*
X98248077Y-46421091D01*
X98245786Y-46429295D01*
X98239668Y-46466255D01*
X79351082Y-46466255D01*
X77906348Y-45021521D01*
X77883885Y-44975972D01*
X77871752Y-44883815D01*
X77871076Y-44878679D01*
X77849929Y-44827626D01*
X77816582Y-44747120D01*
X77816581Y-44747118D01*
X77814598Y-44742331D01*
X77789594Y-44709744D01*
X77727905Y-44629349D01*
X77724756Y-44625245D01*
X77675248Y-44587256D01*
X77611782Y-44538557D01*
X77611780Y-44538556D01*
X77607671Y-44535403D01*
X77602884Y-44533420D01*
X77602882Y-44533419D01*
X77554117Y-44513220D01*
X77471322Y-44478925D01*
X77325002Y-44459662D01*
X77178682Y-44478925D01*
X77095888Y-44513220D01*
X77047123Y-44533419D01*
X77047121Y-44533420D01*
X77042334Y-44535403D01*
X77038225Y-44538556D01*
X77038223Y-44538557D01*
X76970142Y-44590797D01*
X76925248Y-44625245D01*
X76922099Y-44629349D01*
X76860411Y-44709744D01*
X76835406Y-44742331D01*
X76778928Y-44878679D01*
X76759665Y-45024999D01*
X76778928Y-45171319D01*
X76835406Y-45307667D01*
X76838559Y-45311776D01*
X76838560Y-45311778D01*
X76895839Y-45386426D01*
X76925248Y-45424753D01*
X76929352Y-45427902D01*
X77038222Y-45511441D01*
X77038224Y-45511442D01*
X77042333Y-45514595D01*
X77047120Y-45516578D01*
X77047122Y-45516579D01*
X77092979Y-45535573D01*
X77178682Y-45571073D01*
X77325002Y-45590336D01*
X77330137Y-45589660D01*
X77401708Y-45580238D01*
X77454466Y-45591934D01*
X77467880Y-45602701D01*
X84651930Y-52786751D01*
X84662431Y-52799752D01*
X84669678Y-52810975D01*
X84696617Y-52832212D01*
X84703570Y-52838391D01*
X84706268Y-52841089D01*
X84708930Y-52842991D01*
X84721955Y-52852299D01*
X84724932Y-52854534D01*
X84763928Y-52885276D01*
X84770095Y-52887442D01*
X84770519Y-52887675D01*
X84771376Y-52888214D01*
X84772533Y-52888816D01*
X84773463Y-52889205D01*
X84773901Y-52889420D01*
X84779211Y-52893214D01*
X84785462Y-52895084D01*
X84785463Y-52895084D01*
X84826781Y-52907441D01*
X84830286Y-52908580D01*
X84877164Y-52925042D01*
X84882441Y-52925499D01*
X84884010Y-52925499D01*
X84888409Y-52925872D01*
X84894194Y-52927602D01*
X84900714Y-52927346D01*
X84900716Y-52927346D01*
X84946165Y-52925560D01*
X84949267Y-52925499D01*
X92809670Y-52925499D01*
X92860450Y-52943981D01*
X92877243Y-52963574D01*
X92918653Y-53031950D01*
X93029111Y-53146333D01*
X93051091Y-53195699D01*
X93036195Y-53247645D01*
X93027556Y-53257653D01*
X92931928Y-53351299D01*
X92839503Y-53494714D01*
X92781149Y-53655042D01*
X92759765Y-53824314D01*
X92776414Y-53994116D01*
X92777806Y-53998301D01*
X92777807Y-53998305D01*
X92816704Y-54115234D01*
X92830269Y-54156011D01*
X92835339Y-54164383D01*
X92908832Y-54285733D01*
X92918653Y-54301950D01*
X93029111Y-54416333D01*
X93051091Y-54465699D01*
X93036195Y-54517645D01*
X93027556Y-54527653D01*
X92992644Y-54561842D01*
X92931928Y-54621299D01*
X92839503Y-54764714D01*
X92781149Y-54925042D01*
X92779835Y-54935445D01*
X92762926Y-55069295D01*
X92759765Y-55094314D01*
X92762296Y-55120126D01*
X92772179Y-55220919D01*
X92776414Y-55264116D01*
X92777806Y-55268301D01*
X92777807Y-55268305D01*
X92793956Y-55316849D01*
X92830269Y-55426011D01*
X92832554Y-55429784D01*
X92905729Y-55550610D01*
X92916225Y-55603620D01*
X92890192Y-55650975D01*
X92882052Y-55657215D01*
X92837192Y-55687189D01*
X92832871Y-55693656D01*
X92829707Y-55698391D01*
X92786127Y-55730343D01*
X92764022Y-55733499D01*
X92059311Y-55733499D01*
X92050446Y-55732520D01*
X92050417Y-55732822D01*
X92045471Y-55732354D01*
X92040620Y-55731270D01*
X92035654Y-55731426D01*
X92035653Y-55731426D01*
X91970932Y-55733460D01*
X91968451Y-55733499D01*
X91939407Y-55733499D01*
X91936949Y-55733810D01*
X91936942Y-55733810D01*
X91933072Y-55734299D01*
X91925652Y-55734883D01*
X91906866Y-55735473D01*
X91878619Y-55736361D01*
X91873845Y-55737748D01*
X91873844Y-55737748D01*
X91855250Y-55743150D01*
X91843114Y-55745663D01*
X91818967Y-55748714D01*
X91775192Y-55766046D01*
X91768176Y-55768448D01*
X91722974Y-55781580D01*
X91702021Y-55793972D01*
X91690902Y-55799419D01*
X91668269Y-55808380D01*
X91664248Y-55811302D01*
X91664247Y-55811302D01*
X91630195Y-55836042D01*
X91623976Y-55840127D01*
X91587744Y-55861555D01*
X91587742Y-55861557D01*
X91583465Y-55864086D01*
X91566258Y-55881293D01*
X91556831Y-55889344D01*
X91537143Y-55903649D01*
X91533977Y-55907476D01*
X91507140Y-55939916D01*
X91502131Y-55945420D01*
X84027642Y-63419909D01*
X84020677Y-63425489D01*
X84020870Y-63425723D01*
X84017041Y-63428890D01*
X84012844Y-63431554D01*
X84009442Y-63435177D01*
X83965088Y-63482409D01*
X83963360Y-63484191D01*
X83942852Y-63504699D01*
X83941328Y-63506664D01*
X83938940Y-63509742D01*
X83934113Y-63515394D01*
X83901892Y-63549706D01*
X83890165Y-63571037D01*
X83883369Y-63581384D01*
X83868447Y-63600622D01*
X83866474Y-63605182D01*
X83849759Y-63643806D01*
X83846485Y-63650488D01*
X83826206Y-63687377D01*
X83823809Y-63691738D01*
X83822573Y-63696553D01*
X83817758Y-63715307D01*
X83813742Y-63727036D01*
X83807761Y-63740857D01*
X83804077Y-63749371D01*
X83803300Y-63754278D01*
X83796715Y-63795853D01*
X83795206Y-63803139D01*
X83784930Y-63843165D01*
X83783502Y-63848727D01*
X83783502Y-63873068D01*
X83782529Y-63885425D01*
X83778723Y-63909457D01*
X83779191Y-63914408D01*
X83783151Y-63956304D01*
X83783502Y-63963738D01*
X83783502Y-64460010D01*
X83765020Y-64510790D01*
X83718220Y-64537810D01*
X83704502Y-64539010D01*
X80553953Y-64539010D01*
X80503173Y-64520528D01*
X80498092Y-64515871D01*
X73114641Y-57132420D01*
X73091803Y-57083444D01*
X73091502Y-57076559D01*
X73091502Y-44998439D01*
X73109984Y-44947659D01*
X73114641Y-44942578D01*
X73692581Y-44364638D01*
X73741557Y-44341800D01*
X73748442Y-44341499D01*
X76395455Y-44341499D01*
X76404326Y-44342478D01*
X76404354Y-44342177D01*
X76409302Y-44342645D01*
X76414152Y-44343729D01*
X76419118Y-44343573D01*
X76419119Y-44343573D01*
X76483858Y-44341538D01*
X76486340Y-44341499D01*
X76515365Y-44341499D01*
X76518602Y-44341090D01*
X76521703Y-44340699D01*
X76529116Y-44340116D01*
X76551219Y-44339421D01*
X76576153Y-44338637D01*
X76580923Y-44337251D01*
X76580930Y-44337250D01*
X76599524Y-44331848D01*
X76611661Y-44329334D01*
X76630874Y-44326907D01*
X76630875Y-44326907D01*
X76635805Y-44326284D01*
X76679560Y-44308960D01*
X76686598Y-44306551D01*
X76727021Y-44294807D01*
X76727022Y-44294807D01*
X76731798Y-44293419D01*
X76752756Y-44281024D01*
X76763875Y-44275577D01*
X76786503Y-44266618D01*
X76824590Y-44238946D01*
X76830780Y-44234880D01*
X76871307Y-44210912D01*
X76888514Y-44193705D01*
X76897940Y-44185654D01*
X76913610Y-44174269D01*
X76917629Y-44171349D01*
X76947632Y-44135082D01*
X76952641Y-44129578D01*
X77657152Y-43425067D01*
X77686718Y-43386951D01*
X77728510Y-43333074D01*
X77728512Y-43333070D01*
X77731557Y-43329145D01*
X77795926Y-43180395D01*
X77821281Y-43020310D01*
X77806029Y-42858948D01*
X77751125Y-42706450D01*
X77660022Y-42572396D01*
X77538444Y-42465210D01*
X77394029Y-42391627D01*
X77328889Y-42377066D01*
X77240703Y-42357354D01*
X77240700Y-42357354D01*
X77235852Y-42356270D01*
X77230886Y-42356426D01*
X77230885Y-42356426D01*
X77154851Y-42358816D01*
X77073851Y-42361361D01*
X76918206Y-42406580D01*
X76913926Y-42409111D01*
X76913924Y-42409112D01*
X76782980Y-42486553D01*
X76778697Y-42489086D01*
X76232423Y-43035360D01*
X76183447Y-43058198D01*
X76176562Y-43058499D01*
X73529549Y-43058499D01*
X73520678Y-43057520D01*
X73520650Y-43057821D01*
X73515702Y-43057353D01*
X73510852Y-43056269D01*
X73505886Y-43056425D01*
X73441132Y-43058460D01*
X73438651Y-43058499D01*
X73409639Y-43058499D01*
X73407180Y-43058810D01*
X73407176Y-43058810D01*
X73403312Y-43059298D01*
X73395891Y-43059882D01*
X73356577Y-43061117D01*
X73348851Y-43061360D01*
X73326405Y-43067881D01*
X73325479Y-43068150D01*
X73313341Y-43070664D01*
X73289199Y-43073714D01*
X73245432Y-43091043D01*
X73238409Y-43093447D01*
X73193207Y-43106579D01*
X73172256Y-43118970D01*
X73161127Y-43124422D01*
X73138501Y-43133380D01*
X73134483Y-43136299D01*
X73134478Y-43136302D01*
X73100422Y-43161045D01*
X73094208Y-43165127D01*
X73053697Y-43189086D01*
X73036490Y-43206293D01*
X73027063Y-43214344D01*
X73007375Y-43228649D01*
X73004209Y-43232476D01*
X72977372Y-43264916D01*
X72972363Y-43270420D01*
X72145363Y-44097420D01*
X72096387Y-44120258D01*
X72044189Y-44106272D01*
X72013194Y-44062006D01*
X72010502Y-44041559D01*
X72010502Y-39327446D01*
X72028984Y-39276666D01*
X72075784Y-39249646D01*
X72089105Y-39248447D01*
X74382667Y-39236908D01*
X76645606Y-39225524D01*
X76696477Y-39243751D01*
G37*
G04 #@! TD.AperFunction*
G04 #@! TA.AperFunction,Conductor*
G36*
X72129002Y-57965023D02*
G01*
X72145363Y-57977578D01*
X79745655Y-65577870D01*
X79751235Y-65584835D01*
X79751469Y-65584642D01*
X79754637Y-65588471D01*
X79757300Y-65592668D01*
X79760922Y-65596070D01*
X79760926Y-65596074D01*
X79768206Y-65602910D01*
X79792572Y-65651144D01*
X79780233Y-65703755D01*
X79736963Y-65736127D01*
X79714128Y-65739499D01*
X72089502Y-65739499D01*
X72038722Y-65721017D01*
X72011702Y-65674217D01*
X72010502Y-65660499D01*
X72010502Y-58033439D01*
X72028984Y-57982659D01*
X72075784Y-57955639D01*
X72129002Y-57965023D01*
G37*
G04 #@! TD.AperFunction*
G04 #@! TA.AperFunction,Conductor*
G36*
X38196474Y-76243754D02*
G01*
X38223729Y-76290417D01*
X38224999Y-76304526D01*
X38224999Y-77075002D01*
X66410499Y-77075002D01*
X66461279Y-77093484D01*
X66488299Y-77140284D01*
X66489499Y-77154002D01*
X66489499Y-83200318D01*
X66471017Y-83251098D01*
X66424217Y-83278118D01*
X66370999Y-83268734D01*
X66340617Y-83237163D01*
X66310831Y-83180669D01*
X66306074Y-83173616D01*
X66192391Y-83039090D01*
X66186238Y-83033231D01*
X66046315Y-82926252D01*
X66039041Y-82921847D01*
X65879423Y-82847417D01*
X65871357Y-82844671D01*
X65698478Y-82806028D01*
X65692065Y-82805138D01*
X65690722Y-82805063D01*
X65688547Y-82805002D01*
X65488929Y-82805002D01*
X65478258Y-82808886D01*
X65474999Y-82814530D01*
X65474999Y-84491072D01*
X65478883Y-84501743D01*
X65484527Y-84505002D01*
X65644006Y-84505002D01*
X65648253Y-84504772D01*
X65779351Y-84490531D01*
X65787650Y-84488706D01*
X65954586Y-84432526D01*
X65962301Y-84428961D01*
X66113265Y-84338252D01*
X66120052Y-84333101D01*
X66248014Y-84212092D01*
X66253528Y-84205613D01*
X66345160Y-84070782D01*
X66388989Y-84039172D01*
X66442883Y-84043130D01*
X66481624Y-84080804D01*
X66489499Y-84115187D01*
X66489499Y-91840318D01*
X66471017Y-91891098D01*
X66424217Y-91918118D01*
X66370999Y-91908734D01*
X66340617Y-91877163D01*
X66310831Y-91820669D01*
X66306074Y-91813616D01*
X66192391Y-91679090D01*
X66186238Y-91673231D01*
X66046315Y-91566252D01*
X66039041Y-91561847D01*
X65879423Y-91487417D01*
X65871357Y-91484671D01*
X65698478Y-91446028D01*
X65692065Y-91445138D01*
X65690722Y-91445063D01*
X65688547Y-91445002D01*
X65488929Y-91445002D01*
X65478258Y-91448886D01*
X65474999Y-91454530D01*
X65474999Y-93131072D01*
X65478883Y-93141743D01*
X65484527Y-93145002D01*
X65644006Y-93145002D01*
X65648253Y-93144772D01*
X65779351Y-93130531D01*
X65787650Y-93128706D01*
X65954586Y-93072526D01*
X65962301Y-93068961D01*
X66113265Y-92978252D01*
X66120052Y-92973101D01*
X66248014Y-92852092D01*
X66253528Y-92845613D01*
X66345160Y-92710782D01*
X66388989Y-92679172D01*
X66442883Y-92683130D01*
X66481624Y-92720804D01*
X66489499Y-92755187D01*
X66489499Y-102660502D01*
X66471017Y-102711282D01*
X66424217Y-102738302D01*
X66410499Y-102739502D01*
X52283439Y-102739502D01*
X52232659Y-102721020D01*
X52205639Y-102674220D01*
X52215023Y-102621002D01*
X52227578Y-102604641D01*
X53882149Y-100950070D01*
X53941876Y-100873071D01*
X53953507Y-100858077D01*
X53953509Y-100858073D01*
X53956554Y-100854148D01*
X53976342Y-100808422D01*
X54018951Y-100709957D01*
X54020924Y-100705398D01*
X54021701Y-100700493D01*
X54021702Y-100700489D01*
X54045500Y-100550224D01*
X54046278Y-100545312D01*
X54034975Y-100425726D01*
X54031494Y-100388900D01*
X54031494Y-100388898D01*
X54031026Y-100383951D01*
X53976123Y-100231452D01*
X53885020Y-100097398D01*
X53763441Y-99990212D01*
X53619027Y-99916630D01*
X53614173Y-99915545D01*
X53465700Y-99882357D01*
X53465697Y-99882357D01*
X53460849Y-99881273D01*
X53455883Y-99881429D01*
X53455882Y-99881429D01*
X53379849Y-99883818D01*
X53298848Y-99886364D01*
X53143203Y-99931583D01*
X53138923Y-99934114D01*
X53138921Y-99934115D01*
X53038511Y-99993498D01*
X53003694Y-100014089D01*
X51501909Y-101515874D01*
X51452933Y-101538712D01*
X51446048Y-101539013D01*
X51148491Y-101539013D01*
X51097711Y-101520531D01*
X51070691Y-101473731D01*
X51071885Y-101446429D01*
X51071073Y-101446322D01*
X51089660Y-101305137D01*
X51090336Y-101300002D01*
X51089226Y-101291571D01*
X51100922Y-101238813D01*
X51111689Y-101225398D01*
X53975532Y-98361555D01*
X54024508Y-98338717D01*
X54079487Y-98354743D01*
X54092330Y-98364598D01*
X54097117Y-98366581D01*
X54097119Y-98366582D01*
X54142976Y-98385576D01*
X54228679Y-98421076D01*
X54374999Y-98440339D01*
X54521319Y-98421076D01*
X54607022Y-98385576D01*
X54652879Y-98366582D01*
X54652881Y-98366581D01*
X54657668Y-98364598D01*
X54661777Y-98361445D01*
X54661779Y-98361444D01*
X54770649Y-98277905D01*
X54774753Y-98274756D01*
X54864595Y-98157670D01*
X54921073Y-98021322D01*
X54940336Y-97875002D01*
X54921073Y-97728682D01*
X54864595Y-97592334D01*
X54853656Y-97578077D01*
X54777902Y-97479352D01*
X54774753Y-97475248D01*
X54752464Y-97458145D01*
X54661779Y-97388560D01*
X54661777Y-97388559D01*
X54657668Y-97385406D01*
X54652881Y-97383423D01*
X54652879Y-97383422D01*
X54607022Y-97364428D01*
X54521319Y-97328928D01*
X54374999Y-97309665D01*
X54228679Y-97328928D01*
X54142375Y-97364677D01*
X54097120Y-97383422D01*
X54097118Y-97383423D01*
X54092331Y-97385406D01*
X54088222Y-97388559D01*
X54088220Y-97388560D01*
X53993664Y-97461115D01*
X53975245Y-97475248D01*
X53969192Y-97483137D01*
X53919487Y-97512974D01*
X53900771Y-97516088D01*
X53897120Y-97516608D01*
X53847579Y-97522472D01*
X53841696Y-97525296D01*
X53841133Y-97525460D01*
X53840170Y-97525679D01*
X53838988Y-97526053D01*
X53838080Y-97526425D01*
X53837524Y-97526615D01*
X53831087Y-97527687D01*
X53825345Y-97530785D01*
X53825343Y-97530786D01*
X53787188Y-97551374D01*
X53783869Y-97553065D01*
X53743390Y-97572502D01*
X53743385Y-97572505D01*
X53738910Y-97574654D01*
X53734837Y-97578077D01*
X53733742Y-97579172D01*
X53730326Y-97582056D01*
X53724997Y-97584931D01*
X53718154Y-97592334D01*
X53689524Y-97623305D01*
X53687374Y-97625540D01*
X50599602Y-100713312D01*
X50550626Y-100736150D01*
X50533431Y-100735775D01*
X50524999Y-100734665D01*
X50519864Y-100735341D01*
X50513719Y-100736150D01*
X50378679Y-100753928D01*
X50292375Y-100789677D01*
X50247120Y-100808422D01*
X50247118Y-100808423D01*
X50242331Y-100810406D01*
X50238222Y-100813559D01*
X50238220Y-100813560D01*
X50180204Y-100858077D01*
X50125245Y-100900248D01*
X50111112Y-100918667D01*
X50085665Y-100951831D01*
X50035403Y-101017334D01*
X49978925Y-101153682D01*
X49959662Y-101300002D01*
X49960338Y-101305137D01*
X49978925Y-101446322D01*
X49977202Y-101446549D01*
X49973108Y-101493393D01*
X49934900Y-101531608D01*
X49901507Y-101539013D01*
X46645499Y-101539013D01*
X46594719Y-101520531D01*
X46567699Y-101473731D01*
X46566499Y-101460013D01*
X46566499Y-101228210D01*
X46584981Y-101177430D01*
X46589638Y-101172349D01*
X52415117Y-95346870D01*
X52464093Y-95324032D01*
X52516291Y-95338018D01*
X52534755Y-95358167D01*
X52535403Y-95357670D01*
X52625245Y-95474756D01*
X52629349Y-95477905D01*
X52738219Y-95561444D01*
X52738221Y-95561445D01*
X52742330Y-95564598D01*
X52747117Y-95566581D01*
X52747119Y-95566582D01*
X52792976Y-95585576D01*
X52878679Y-95621076D01*
X52988258Y-95635502D01*
X53017206Y-95639313D01*
X53024999Y-95640339D01*
X53117031Y-95628223D01*
X53153517Y-95632010D01*
X53157469Y-95633398D01*
X53157474Y-95633399D01*
X53162161Y-95635045D01*
X53167438Y-95635502D01*
X53169007Y-95635502D01*
X53173406Y-95635875D01*
X53179191Y-95637605D01*
X53185712Y-95637349D01*
X53185713Y-95637349D01*
X53231172Y-95635563D01*
X53234273Y-95635502D01*
X57978107Y-95635502D01*
X57994727Y-95637270D01*
X58007782Y-95640081D01*
X58041841Y-95636050D01*
X58051126Y-95635502D01*
X58054949Y-95635502D01*
X58058167Y-95634966D01*
X58058171Y-95634966D01*
X58073991Y-95632333D01*
X58077675Y-95631809D01*
X58094303Y-95629841D01*
X58126966Y-95625975D01*
X58132850Y-95623150D01*
X58133324Y-95623012D01*
X58134305Y-95622789D01*
X58135550Y-95622395D01*
X58136483Y-95622013D01*
X58136949Y-95621853D01*
X58143386Y-95620782D01*
X58149129Y-95617683D01*
X58149130Y-95617683D01*
X58168306Y-95607336D01*
X58187085Y-95597203D01*
X58190394Y-95595518D01*
X58230667Y-95576179D01*
X58230666Y-95576179D01*
X58235155Y-95574024D01*
X58239209Y-95570616D01*
X58240319Y-95569506D01*
X58243689Y-95566661D01*
X58249007Y-95563792D01*
X58253440Y-95558996D01*
X58253443Y-95558994D01*
X58284318Y-95525593D01*
X58286468Y-95523357D01*
X59952231Y-93857594D01*
X59965232Y-93847093D01*
X59976455Y-93839846D01*
X59997692Y-93812907D01*
X60003871Y-93805954D01*
X60006569Y-93803256D01*
X60017783Y-93787564D01*
X60020016Y-93784590D01*
X60046717Y-93750719D01*
X60050756Y-93745596D01*
X60052918Y-93739441D01*
X60053159Y-93739002D01*
X60053689Y-93738159D01*
X60054296Y-93736990D01*
X60054685Y-93736063D01*
X60054900Y-93735623D01*
X60058695Y-93730313D01*
X60072922Y-93682743D01*
X60074072Y-93679204D01*
X60088875Y-93637052D01*
X60088876Y-93637047D01*
X60090522Y-93632360D01*
X60090979Y-93627083D01*
X60090979Y-93625514D01*
X60091352Y-93621115D01*
X60093082Y-93615330D01*
X60091040Y-93563349D01*
X60090979Y-93560248D01*
X60090979Y-93133519D01*
X60109461Y-93082739D01*
X60156261Y-93055719D01*
X60203366Y-93061921D01*
X60290575Y-93102587D01*
X60298641Y-93105333D01*
X60471520Y-93143976D01*
X60477933Y-93144866D01*
X60479276Y-93144941D01*
X60481451Y-93145002D01*
X60931069Y-93145002D01*
X60941740Y-93141118D01*
X60944999Y-93135474D01*
X60944999Y-93131072D01*
X61294999Y-93131072D01*
X61298883Y-93141743D01*
X61304527Y-93145002D01*
X61714006Y-93145002D01*
X61718253Y-93144772D01*
X61849351Y-93130531D01*
X61857650Y-93128706D01*
X62024586Y-93072526D01*
X62032301Y-93068961D01*
X62183265Y-92978252D01*
X62190052Y-92973101D01*
X62318014Y-92852092D01*
X62323528Y-92845613D01*
X62422527Y-92699942D01*
X62426518Y-92692435D01*
X62491924Y-92528910D01*
X62494215Y-92520706D01*
X62500333Y-92483746D01*
X62498829Y-92475714D01*
X64168739Y-92475714D01*
X64168869Y-92478475D01*
X64203894Y-92605631D01*
X64207024Y-92613536D01*
X64289167Y-92769335D01*
X64293924Y-92776388D01*
X64407607Y-92910914D01*
X64413760Y-92916773D01*
X64553683Y-93023752D01*
X64560957Y-93028157D01*
X64720575Y-93102587D01*
X64728641Y-93105333D01*
X64901520Y-93143976D01*
X64907933Y-93144866D01*
X64909276Y-93144941D01*
X64911451Y-93145002D01*
X65111069Y-93145002D01*
X65121740Y-93141118D01*
X65124999Y-93135474D01*
X65124999Y-92483932D01*
X65121115Y-92473261D01*
X65115471Y-92470002D01*
X64180465Y-92470002D01*
X64169794Y-92473886D01*
X64168739Y-92475714D01*
X62498829Y-92475714D01*
X62498243Y-92472582D01*
X62495103Y-92470002D01*
X61308929Y-92470002D01*
X61298258Y-92473886D01*
X61294999Y-92479530D01*
X61294999Y-93131072D01*
X60944999Y-93131072D01*
X60944999Y-91458932D01*
X60941115Y-91448261D01*
X60935471Y-91445002D01*
X60525992Y-91445002D01*
X60521745Y-91445232D01*
X60390647Y-91459473D01*
X60382348Y-91461298D01*
X60215412Y-91517478D01*
X60203813Y-91522838D01*
X60202857Y-91520769D01*
X60157654Y-91529576D01*
X60110379Y-91503397D01*
X60090979Y-91451543D01*
X60090979Y-90865002D01*
X61059447Y-90865002D01*
X61079570Y-91017848D01*
X61138566Y-91160278D01*
X61232416Y-91282585D01*
X61236521Y-91285735D01*
X61236522Y-91285736D01*
X61289617Y-91326478D01*
X61318652Y-91372054D01*
X61309940Y-91428652D01*
X61294999Y-91454530D01*
X61294999Y-92106072D01*
X61298883Y-92116743D01*
X61304527Y-92120002D01*
X62489533Y-92120002D01*
X62500204Y-92116118D01*
X62501259Y-92114290D01*
X62501129Y-92111529D01*
X62499677Y-92106258D01*
X64169665Y-92106258D01*
X64171755Y-92117422D01*
X64174895Y-92120002D01*
X65111069Y-92120002D01*
X65121740Y-92116118D01*
X65124999Y-92110474D01*
X65124999Y-91458932D01*
X65121115Y-91448261D01*
X65115471Y-91445002D01*
X64955992Y-91445002D01*
X64951745Y-91445232D01*
X64820647Y-91459473D01*
X64812348Y-91461298D01*
X64645412Y-91517478D01*
X64637697Y-91521043D01*
X64486733Y-91611752D01*
X64479946Y-91616903D01*
X64351984Y-91737912D01*
X64346470Y-91744391D01*
X64247471Y-91890062D01*
X64243480Y-91897569D01*
X64178074Y-92061094D01*
X64175783Y-92069298D01*
X64169665Y-92106258D01*
X62499677Y-92106258D01*
X62466104Y-91984373D01*
X62462974Y-91976468D01*
X62380831Y-91820669D01*
X62376074Y-91813616D01*
X62262391Y-91679090D01*
X62256238Y-91673231D01*
X62116315Y-91566252D01*
X62109037Y-91561845D01*
X61974871Y-91499283D01*
X61936659Y-91461072D01*
X61931949Y-91407239D01*
X61960164Y-91365010D01*
X62009784Y-91326935D01*
X62067582Y-91282585D01*
X62161432Y-91160278D01*
X62220428Y-91017848D01*
X62240551Y-90865002D01*
X62220428Y-90712156D01*
X62161432Y-90569726D01*
X62111246Y-90504322D01*
X62070732Y-90451524D01*
X62067582Y-90447419D01*
X62063477Y-90444269D01*
X61949383Y-90356721D01*
X61949382Y-90356720D01*
X61945275Y-90353569D01*
X61940495Y-90351589D01*
X61940493Y-90351588D01*
X61891267Y-90331198D01*
X61802845Y-90294573D01*
X61749633Y-90287567D01*
X61690941Y-90279840D01*
X61690938Y-90279840D01*
X61688372Y-90279502D01*
X61611626Y-90279502D01*
X61609060Y-90279840D01*
X61609057Y-90279840D01*
X61550365Y-90287567D01*
X61497153Y-90294573D01*
X61408731Y-90331198D01*
X61359505Y-90351588D01*
X61359503Y-90351589D01*
X61354723Y-90353569D01*
X61350616Y-90356720D01*
X61350615Y-90356721D01*
X61236521Y-90444269D01*
X61232416Y-90447419D01*
X61229266Y-90451524D01*
X61188753Y-90504322D01*
X61138566Y-90569726D01*
X61079570Y-90712156D01*
X61059447Y-90865002D01*
X60090979Y-90865002D01*
X60090979Y-89726568D01*
X60109461Y-89675788D01*
X60114118Y-89670707D01*
X60923115Y-88861710D01*
X60972091Y-88838872D01*
X61024289Y-88852858D01*
X61055284Y-88897124D01*
X61050574Y-88950958D01*
X61049934Y-88952187D01*
X61047903Y-88954834D01*
X60991425Y-89091182D01*
X60972162Y-89237502D01*
X60972838Y-89242637D01*
X60975064Y-89259542D01*
X60991425Y-89383822D01*
X61021236Y-89455792D01*
X61042151Y-89506283D01*
X61047903Y-89520170D01*
X61051056Y-89524279D01*
X61051057Y-89524281D01*
X61086190Y-89570067D01*
X61137745Y-89637256D01*
X61141849Y-89640405D01*
X61250719Y-89723944D01*
X61250721Y-89723945D01*
X61254830Y-89727098D01*
X61259617Y-89729081D01*
X61259619Y-89729082D01*
X61305476Y-89748076D01*
X61391179Y-89783576D01*
X61537499Y-89802839D01*
X61683819Y-89783576D01*
X61769522Y-89748076D01*
X61815379Y-89729082D01*
X61815381Y-89729081D01*
X61820168Y-89727098D01*
X61824277Y-89723945D01*
X61824279Y-89723944D01*
X61933149Y-89640405D01*
X61937253Y-89637256D01*
X61988808Y-89570067D01*
X62023941Y-89524281D01*
X62023942Y-89524279D01*
X62027095Y-89520170D01*
X62032848Y-89506283D01*
X62053762Y-89455792D01*
X62083573Y-89383822D01*
X62099934Y-89259542D01*
X62102160Y-89242637D01*
X62102836Y-89237502D01*
X62101463Y-89227070D01*
X62113160Y-89174312D01*
X62123926Y-89160899D01*
X63271271Y-88013554D01*
X63284272Y-88003053D01*
X63295495Y-87995806D01*
X63316732Y-87968867D01*
X63322911Y-87961914D01*
X63325609Y-87959216D01*
X63336819Y-87943529D01*
X63339054Y-87940552D01*
X63365751Y-87906687D01*
X63369796Y-87901556D01*
X63371962Y-87895389D01*
X63372195Y-87894965D01*
X63372734Y-87894108D01*
X63373336Y-87892951D01*
X63373725Y-87892021D01*
X63373940Y-87891583D01*
X63377734Y-87886273D01*
X63391961Y-87838703D01*
X63393100Y-87835198D01*
X63409562Y-87788320D01*
X63410019Y-87783043D01*
X63410019Y-87781474D01*
X63410392Y-87777075D01*
X63412122Y-87771290D01*
X63410562Y-87731573D01*
X63410080Y-87719319D01*
X63410019Y-87716217D01*
X63410019Y-83835714D01*
X64168739Y-83835714D01*
X64168869Y-83838475D01*
X64203894Y-83965631D01*
X64207024Y-83973536D01*
X64289167Y-84129335D01*
X64293924Y-84136388D01*
X64407607Y-84270914D01*
X64413760Y-84276773D01*
X64553683Y-84383752D01*
X64560957Y-84388157D01*
X64720575Y-84462587D01*
X64728641Y-84465333D01*
X64901520Y-84503976D01*
X64907933Y-84504866D01*
X64909276Y-84504941D01*
X64911451Y-84505002D01*
X65111069Y-84505002D01*
X65121740Y-84501118D01*
X65124999Y-84495474D01*
X65124999Y-83843932D01*
X65121115Y-83833261D01*
X65115471Y-83830002D01*
X64180465Y-83830002D01*
X64169794Y-83833886D01*
X64168739Y-83835714D01*
X63410019Y-83835714D01*
X63410019Y-83466258D01*
X64169665Y-83466258D01*
X64171755Y-83477422D01*
X64174895Y-83480002D01*
X65111069Y-83480002D01*
X65121740Y-83476118D01*
X65124999Y-83470474D01*
X65124999Y-82818932D01*
X65121115Y-82808261D01*
X65115471Y-82805002D01*
X64955992Y-82805002D01*
X64951745Y-82805232D01*
X64820647Y-82819473D01*
X64812348Y-82821298D01*
X64645412Y-82877478D01*
X64637697Y-82881043D01*
X64486733Y-82971752D01*
X64479946Y-82976903D01*
X64351984Y-83097912D01*
X64346470Y-83104391D01*
X64247471Y-83250062D01*
X64243480Y-83257569D01*
X64178074Y-83421094D01*
X64175783Y-83429298D01*
X64169665Y-83466258D01*
X63410019Y-83466258D01*
X63410019Y-81882528D01*
X63428501Y-81831748D01*
X63433158Y-81826667D01*
X64073396Y-81186429D01*
X64122372Y-81163591D01*
X64139567Y-81163966D01*
X64144862Y-81164663D01*
X64144864Y-81164663D01*
X64149999Y-81165339D01*
X64296319Y-81146076D01*
X64382022Y-81110576D01*
X64427879Y-81091582D01*
X64427881Y-81091581D01*
X64432668Y-81089598D01*
X64436777Y-81086445D01*
X64436779Y-81086444D01*
X64545649Y-81002905D01*
X64549753Y-80999756D01*
X64639595Y-80882670D01*
X64696073Y-80746322D01*
X64715336Y-80600002D01*
X64696073Y-80453682D01*
X64639595Y-80317334D01*
X64603600Y-80270423D01*
X64552902Y-80204352D01*
X64549753Y-80200248D01*
X64498666Y-80161048D01*
X64436779Y-80113560D01*
X64436777Y-80113559D01*
X64432668Y-80110406D01*
X64427881Y-80108423D01*
X64427879Y-80108422D01*
X64382022Y-80089428D01*
X64296319Y-80053928D01*
X64149999Y-80034665D01*
X64003679Y-80053928D01*
X63957409Y-80073094D01*
X63872120Y-80108422D01*
X63872118Y-80108423D01*
X63867331Y-80110406D01*
X63863222Y-80113559D01*
X63863220Y-80113560D01*
X63837386Y-80133383D01*
X63750245Y-80200248D01*
X63747096Y-80204352D01*
X63696399Y-80270423D01*
X63660403Y-80317334D01*
X63603925Y-80453682D01*
X63584662Y-80600002D01*
X63585338Y-80605137D01*
X63585338Y-80605139D01*
X63586035Y-80610434D01*
X63574338Y-80663192D01*
X63563572Y-80676605D01*
X62827767Y-81412410D01*
X62814766Y-81422911D01*
X62803543Y-81430158D01*
X62799499Y-81435288D01*
X62782306Y-81457097D01*
X62776127Y-81464050D01*
X62773429Y-81466748D01*
X62771535Y-81469399D01*
X62762215Y-81482440D01*
X62759982Y-81485414D01*
X62742690Y-81507349D01*
X62729242Y-81524408D01*
X62727080Y-81530563D01*
X62726839Y-81531002D01*
X62726309Y-81531845D01*
X62725702Y-81533014D01*
X62725313Y-81533941D01*
X62725098Y-81534381D01*
X62721303Y-81539691D01*
X62719433Y-81545944D01*
X62707077Y-81587259D01*
X62705926Y-81590800D01*
X62691123Y-81632952D01*
X62691122Y-81632957D01*
X62689476Y-81637644D01*
X62689019Y-81642921D01*
X62689019Y-81644490D01*
X62688646Y-81648889D01*
X62686916Y-81654674D01*
X62687172Y-81661194D01*
X62687172Y-81661196D01*
X62688958Y-81706645D01*
X62689019Y-81709747D01*
X62689019Y-82188476D01*
X62670537Y-82239256D01*
X62623737Y-82266276D01*
X62570519Y-82256892D01*
X62554158Y-82244337D01*
X62186426Y-81876605D01*
X62163588Y-81827629D01*
X62163963Y-81810434D01*
X62164660Y-81805139D01*
X62164660Y-81805137D01*
X62165336Y-81800002D01*
X62146073Y-81653682D01*
X62096090Y-81533014D01*
X62091579Y-81522123D01*
X62091578Y-81522121D01*
X62089595Y-81517334D01*
X62065103Y-81485414D01*
X62002902Y-81404352D01*
X61999753Y-81400248D01*
X61926100Y-81343732D01*
X61886779Y-81313560D01*
X61886777Y-81313559D01*
X61882668Y-81310406D01*
X61877881Y-81308423D01*
X61877879Y-81308422D01*
X61804110Y-81277866D01*
X61746319Y-81253928D01*
X61599999Y-81234665D01*
X61453679Y-81253928D01*
X61388248Y-81281031D01*
X61322120Y-81308422D01*
X61322118Y-81308423D01*
X61317331Y-81310406D01*
X61313222Y-81313559D01*
X61313220Y-81313560D01*
X61218664Y-81386115D01*
X61200245Y-81400248D01*
X61197096Y-81404352D01*
X61134896Y-81485414D01*
X61110403Y-81517334D01*
X61108420Y-81522121D01*
X61108419Y-81522123D01*
X61103908Y-81533014D01*
X61053925Y-81653682D01*
X61034662Y-81800002D01*
X61053925Y-81946322D01*
X61110403Y-82082670D01*
X61113556Y-82086779D01*
X61113557Y-82086781D01*
X61186112Y-82181337D01*
X61200245Y-82199756D01*
X61204349Y-82202905D01*
X61313219Y-82286444D01*
X61313221Y-82286445D01*
X61317330Y-82289598D01*
X61322117Y-82291581D01*
X61322119Y-82291582D01*
X61360959Y-82307670D01*
X61453679Y-82346076D01*
X61599999Y-82365339D01*
X61605134Y-82364663D01*
X61605136Y-82364663D01*
X61610431Y-82363966D01*
X61663189Y-82375663D01*
X61676602Y-82386429D01*
X61998269Y-82708096D01*
X62021107Y-82757072D01*
X62007121Y-82809270D01*
X61962855Y-82840265D01*
X61925175Y-82841054D01*
X61768478Y-82806028D01*
X61762065Y-82805138D01*
X61760722Y-82805063D01*
X61758547Y-82805002D01*
X61308929Y-82805002D01*
X61298258Y-82808886D01*
X61294999Y-82814530D01*
X61294999Y-84491072D01*
X61305641Y-84520312D01*
X61316508Y-84533264D01*
X61316506Y-84587303D01*
X61290364Y-84622954D01*
X61232416Y-84667419D01*
X61138566Y-84789726D01*
X61079570Y-84932156D01*
X61059447Y-85085002D01*
X61079570Y-85237848D01*
X61138566Y-85380278D01*
X61232416Y-85502585D01*
X61354723Y-85596435D01*
X61359503Y-85598415D01*
X61359505Y-85598416D01*
X61408731Y-85618806D01*
X61497153Y-85655431D01*
X61502288Y-85656107D01*
X61530891Y-85659873D01*
X61578824Y-85684826D01*
X61599503Y-85734752D01*
X61583252Y-85786290D01*
X61550810Y-85811183D01*
X61497120Y-85833422D01*
X61497118Y-85833423D01*
X61492331Y-85835406D01*
X61488222Y-85838559D01*
X61488220Y-85838560D01*
X61393664Y-85911115D01*
X61375245Y-85925248D01*
X61285403Y-86042334D01*
X61228925Y-86178682D01*
X61209662Y-86325002D01*
X61228925Y-86471322D01*
X61285403Y-86607670D01*
X61375245Y-86724756D01*
X61379349Y-86727905D01*
X61488219Y-86811444D01*
X61488221Y-86811445D01*
X61492330Y-86814598D01*
X61497117Y-86816581D01*
X61497119Y-86816582D01*
X61542976Y-86835576D01*
X61628679Y-86871076D01*
X61774999Y-86890339D01*
X61921319Y-86871076D01*
X62007022Y-86835576D01*
X62052879Y-86816582D01*
X62052881Y-86816581D01*
X62057668Y-86814598D01*
X62061777Y-86811445D01*
X62061779Y-86811444D01*
X62170649Y-86727905D01*
X62174753Y-86724756D01*
X62264595Y-86607670D01*
X62321073Y-86471322D01*
X62340336Y-86325002D01*
X62338963Y-86314570D01*
X62350660Y-86261812D01*
X62361426Y-86248399D01*
X62554158Y-86055667D01*
X62603134Y-86032829D01*
X62655332Y-86046815D01*
X62686327Y-86091081D01*
X62689019Y-86111528D01*
X62689019Y-87543436D01*
X62670537Y-87594216D01*
X62665880Y-87599297D01*
X62214383Y-88050794D01*
X62165407Y-88073632D01*
X62113209Y-88059646D01*
X62082214Y-88015380D01*
X62086924Y-87961546D01*
X62087564Y-87960317D01*
X62089595Y-87957670D01*
X62146073Y-87821322D01*
X62165336Y-87675002D01*
X62146073Y-87528682D01*
X62089595Y-87392334D01*
X62071454Y-87368691D01*
X62002902Y-87279352D01*
X61999753Y-87275248D01*
X61977464Y-87258145D01*
X61886779Y-87188560D01*
X61886777Y-87188559D01*
X61882668Y-87185406D01*
X61877881Y-87183423D01*
X61877879Y-87183422D01*
X61832022Y-87164428D01*
X61746319Y-87128928D01*
X61599999Y-87109665D01*
X61453679Y-87128928D01*
X61367375Y-87164677D01*
X61322120Y-87183422D01*
X61322118Y-87183423D01*
X61317331Y-87185406D01*
X61313222Y-87188559D01*
X61313220Y-87188560D01*
X61218664Y-87261115D01*
X61200245Y-87275248D01*
X61197096Y-87279352D01*
X61128545Y-87368691D01*
X61110403Y-87392334D01*
X61053925Y-87528682D01*
X61034662Y-87675002D01*
X61035338Y-87680137D01*
X61035338Y-87680139D01*
X61036035Y-87685434D01*
X61024338Y-87738192D01*
X61013572Y-87751605D01*
X59508727Y-89256450D01*
X59495726Y-89266951D01*
X59484503Y-89274198D01*
X59480459Y-89279328D01*
X59463266Y-89301137D01*
X59457087Y-89308090D01*
X59454389Y-89310788D01*
X59452495Y-89313439D01*
X59443175Y-89326480D01*
X59440942Y-89329454D01*
X59423650Y-89351389D01*
X59410202Y-89368448D01*
X59408040Y-89374603D01*
X59407799Y-89375042D01*
X59407269Y-89375885D01*
X59406662Y-89377054D01*
X59406273Y-89377981D01*
X59406058Y-89378421D01*
X59402263Y-89383731D01*
X59400393Y-89389984D01*
X59388037Y-89431299D01*
X59386886Y-89434840D01*
X59372083Y-89476992D01*
X59372082Y-89476997D01*
X59370436Y-89481684D01*
X59369979Y-89486961D01*
X59369979Y-89488530D01*
X59369606Y-89492929D01*
X59367876Y-89498714D01*
X59368132Y-89505234D01*
X59368132Y-89505236D01*
X59369918Y-89550685D01*
X59369979Y-89553787D01*
X59369979Y-92120129D01*
X59351497Y-92170909D01*
X59304697Y-92197929D01*
X59260747Y-92193115D01*
X59248953Y-92188230D01*
X59196319Y-92166428D01*
X59049999Y-92147165D01*
X58903679Y-92166428D01*
X58839252Y-92193115D01*
X58772120Y-92220922D01*
X58772118Y-92220923D01*
X58767331Y-92222906D01*
X58763222Y-92226059D01*
X58763220Y-92226060D01*
X58730019Y-92251536D01*
X58650245Y-92312748D01*
X58560403Y-92429834D01*
X58558420Y-92434621D01*
X58558419Y-92434623D01*
X58543765Y-92470002D01*
X58503925Y-92566182D01*
X58484662Y-92712502D01*
X58503925Y-92858822D01*
X58537517Y-92939919D01*
X58551262Y-92973101D01*
X58560403Y-92995170D01*
X58650245Y-93112256D01*
X58658592Y-93118660D01*
X58687626Y-93164233D01*
X58689499Y-93181334D01*
X58689499Y-93242956D01*
X58671017Y-93293736D01*
X58666360Y-93298817D01*
X57573814Y-94391363D01*
X57524838Y-94414201D01*
X57517953Y-94414502D01*
X56716506Y-94414502D01*
X56665726Y-94396020D01*
X56638706Y-94349220D01*
X56648090Y-94296002D01*
X56677008Y-94267085D01*
X56677882Y-94266580D01*
X56682668Y-94264598D01*
X56799753Y-94174756D01*
X56837333Y-94125780D01*
X56886441Y-94061781D01*
X56886442Y-94061779D01*
X56889595Y-94057670D01*
X56946073Y-93921322D01*
X56965336Y-93775002D01*
X56946073Y-93628682D01*
X56910324Y-93542378D01*
X56891579Y-93497123D01*
X56891578Y-93497121D01*
X56889595Y-93492334D01*
X56859120Y-93452617D01*
X56835922Y-93422385D01*
X56799753Y-93375248D01*
X56791406Y-93368844D01*
X56762372Y-93323271D01*
X56760499Y-93306170D01*
X56760499Y-89716894D01*
X56762267Y-89700274D01*
X56765078Y-89687219D01*
X56761047Y-89653160D01*
X56760499Y-89643875D01*
X56760499Y-89640052D01*
X56759963Y-89636830D01*
X56757330Y-89621010D01*
X56756806Y-89617326D01*
X56751739Y-89574519D01*
X56750972Y-89568035D01*
X56748147Y-89562151D01*
X56748009Y-89561677D01*
X56747786Y-89560696D01*
X56747392Y-89559451D01*
X56747010Y-89558518D01*
X56746850Y-89558052D01*
X56745779Y-89551615D01*
X56722197Y-89507911D01*
X56720512Y-89504602D01*
X56701172Y-89464325D01*
X56701169Y-89464321D01*
X56699021Y-89459847D01*
X56695613Y-89455792D01*
X56694499Y-89454678D01*
X56691657Y-89451310D01*
X56688789Y-89445994D01*
X56650590Y-89410683D01*
X56648354Y-89408533D01*
X55789052Y-88549231D01*
X55766214Y-88500255D01*
X55766682Y-88482375D01*
X55789668Y-88318828D01*
X55789668Y-88318823D01*
X55790013Y-88316371D01*
X55790311Y-88295002D01*
X55771293Y-88125448D01*
X55715182Y-87964322D01*
X55624769Y-87819630D01*
X55586039Y-87780629D01*
X55563373Y-87731573D01*
X55577542Y-87679424D01*
X55590917Y-87665862D01*
X55590466Y-87665361D01*
X55599658Y-87657084D01*
X55713682Y-87530446D01*
X55718520Y-87523787D01*
X55803720Y-87376218D01*
X55807070Y-87368691D01*
X55858767Y-87209586D01*
X55857085Y-87202837D01*
X55853184Y-87200002D01*
X54202640Y-87200002D01*
X54191969Y-87203886D01*
X54190312Y-87206756D01*
X54242928Y-87368691D01*
X54246278Y-87376218D01*
X54331478Y-87523787D01*
X54336316Y-87530446D01*
X54450340Y-87657084D01*
X54459532Y-87665361D01*
X54458107Y-87666943D01*
X54484147Y-87705576D01*
X54478480Y-87759317D01*
X54462761Y-87781105D01*
X54455104Y-87788604D01*
X54431925Y-87811302D01*
X54339500Y-87954717D01*
X54337990Y-87958867D01*
X54337989Y-87958868D01*
X54320249Y-88007608D01*
X54281146Y-88115045D01*
X54272593Y-88182747D01*
X54265539Y-88238591D01*
X54259762Y-88284317D01*
X54276411Y-88454119D01*
X54330266Y-88616014D01*
X54418650Y-88761953D01*
X54529108Y-88876336D01*
X54551088Y-88925702D01*
X54536192Y-88977648D01*
X54527553Y-88987656D01*
X54431925Y-89081302D01*
X54380629Y-89160899D01*
X54375861Y-89168297D01*
X54332817Y-89200969D01*
X54309456Y-89204502D01*
X46622045Y-89204502D01*
X46571265Y-89186020D01*
X46566184Y-89181363D01*
X44225239Y-86840418D01*
X54191231Y-86840418D01*
X54192913Y-86847167D01*
X54196814Y-86850002D01*
X54836069Y-86850002D01*
X54846740Y-86846118D01*
X54849999Y-86840474D01*
X54849999Y-86836072D01*
X55199999Y-86836072D01*
X55203883Y-86846743D01*
X55209527Y-86850002D01*
X55847358Y-86850002D01*
X55858029Y-86846118D01*
X55859686Y-86843248D01*
X55807070Y-86681313D01*
X55803720Y-86673786D01*
X55718520Y-86526217D01*
X55713682Y-86519558D01*
X55599658Y-86392920D01*
X55593551Y-86387421D01*
X55455689Y-86287259D01*
X55448556Y-86283141D01*
X55292893Y-86213835D01*
X55285062Y-86211290D01*
X55213623Y-86196106D01*
X55202380Y-86197686D01*
X55200120Y-86200196D01*
X55199999Y-86200818D01*
X55199999Y-86836072D01*
X54849999Y-86836072D01*
X54849999Y-86207140D01*
X54846115Y-86196469D01*
X54843190Y-86194780D01*
X54842560Y-86194791D01*
X54764936Y-86211290D01*
X54757105Y-86213835D01*
X54601442Y-86283141D01*
X54594309Y-86287259D01*
X54456447Y-86387421D01*
X54450340Y-86392920D01*
X54336316Y-86519558D01*
X54331478Y-86526217D01*
X54246278Y-86673786D01*
X54242928Y-86681313D01*
X54191231Y-86840418D01*
X44225239Y-86840418D01*
X41220535Y-83835714D01*
X59738739Y-83835714D01*
X59738869Y-83838475D01*
X59773894Y-83965631D01*
X59777024Y-83973536D01*
X59859167Y-84129335D01*
X59863924Y-84136388D01*
X59977607Y-84270914D01*
X59983760Y-84276773D01*
X60123683Y-84383752D01*
X60130957Y-84388157D01*
X60290575Y-84462587D01*
X60298641Y-84465333D01*
X60471520Y-84503976D01*
X60477933Y-84504866D01*
X60479276Y-84504941D01*
X60481451Y-84505002D01*
X60931069Y-84505002D01*
X60941740Y-84501118D01*
X60944999Y-84495474D01*
X60944999Y-83843932D01*
X60941115Y-83833261D01*
X60935471Y-83830002D01*
X59750465Y-83830002D01*
X59739794Y-83833886D01*
X59738739Y-83835714D01*
X41220535Y-83835714D01*
X40851079Y-83466258D01*
X59739665Y-83466258D01*
X59741755Y-83477422D01*
X59744895Y-83480002D01*
X60931069Y-83480002D01*
X60941740Y-83476118D01*
X60944999Y-83470474D01*
X60944999Y-82818932D01*
X60941115Y-82808261D01*
X60935471Y-82805002D01*
X60525992Y-82805002D01*
X60521745Y-82805232D01*
X60390647Y-82819473D01*
X60382348Y-82821298D01*
X60215412Y-82877478D01*
X60207697Y-82881043D01*
X60056733Y-82971752D01*
X60049946Y-82976903D01*
X59921984Y-83097912D01*
X59916470Y-83104391D01*
X59817471Y-83250062D01*
X59813480Y-83257569D01*
X59748074Y-83421094D01*
X59745783Y-83429298D01*
X59739665Y-83466258D01*
X40851079Y-83466258D01*
X39406345Y-82021524D01*
X39383882Y-81975975D01*
X39371749Y-81883818D01*
X39371073Y-81878682D01*
X39349926Y-81827629D01*
X39316579Y-81747123D01*
X39316578Y-81747121D01*
X39314595Y-81742334D01*
X39289591Y-81709747D01*
X39227902Y-81629352D01*
X39224753Y-81625248D01*
X39175245Y-81587259D01*
X39111779Y-81538560D01*
X39111777Y-81538559D01*
X39107668Y-81535406D01*
X39102881Y-81533423D01*
X39102879Y-81533422D01*
X39054114Y-81513223D01*
X38971319Y-81478928D01*
X38824999Y-81459665D01*
X38678679Y-81478928D01*
X38595885Y-81513223D01*
X38547120Y-81533422D01*
X38547118Y-81533423D01*
X38542331Y-81535406D01*
X38538222Y-81538559D01*
X38538220Y-81538560D01*
X38470139Y-81590800D01*
X38425245Y-81625248D01*
X38422096Y-81629352D01*
X38360408Y-81709747D01*
X38335403Y-81742334D01*
X38278925Y-81878682D01*
X38259662Y-82025002D01*
X38278925Y-82171322D01*
X38335403Y-82307670D01*
X38338556Y-82311779D01*
X38338557Y-82311781D01*
X38395836Y-82386429D01*
X38425245Y-82424756D01*
X38429349Y-82427905D01*
X38538219Y-82511444D01*
X38538221Y-82511445D01*
X38542330Y-82514598D01*
X38547117Y-82516581D01*
X38547119Y-82516582D01*
X38592976Y-82535576D01*
X38678679Y-82571076D01*
X38824999Y-82590339D01*
X38830134Y-82589663D01*
X38901705Y-82580241D01*
X38954463Y-82591937D01*
X38967877Y-82602704D01*
X46151927Y-89786754D01*
X46162428Y-89799755D01*
X46169675Y-89810978D01*
X46196614Y-89832215D01*
X46203567Y-89838394D01*
X46206265Y-89841092D01*
X46208927Y-89842994D01*
X46221952Y-89852302D01*
X46224929Y-89854537D01*
X46263925Y-89885279D01*
X46270092Y-89887445D01*
X46270516Y-89887678D01*
X46271373Y-89888217D01*
X46272530Y-89888819D01*
X46273460Y-89889208D01*
X46273898Y-89889423D01*
X46279208Y-89893217D01*
X46285459Y-89895087D01*
X46285460Y-89895087D01*
X46326778Y-89907444D01*
X46330283Y-89908583D01*
X46377161Y-89925045D01*
X46382438Y-89925502D01*
X46384007Y-89925502D01*
X46388406Y-89925875D01*
X46394191Y-89927605D01*
X46400711Y-89927349D01*
X46400713Y-89927349D01*
X46446162Y-89925563D01*
X46449264Y-89925502D01*
X54309667Y-89925502D01*
X54360447Y-89943984D01*
X54377240Y-89963577D01*
X54418650Y-90031953D01*
X54529108Y-90146336D01*
X54551088Y-90195702D01*
X54536192Y-90247648D01*
X54527553Y-90257656D01*
X54431925Y-90351302D01*
X54339500Y-90494717D01*
X54281146Y-90655045D01*
X54259762Y-90824317D01*
X54276411Y-90994119D01*
X54277803Y-90998304D01*
X54277804Y-90998308D01*
X54316701Y-91115237D01*
X54330266Y-91156014D01*
X54335336Y-91164386D01*
X54408829Y-91285736D01*
X54418650Y-91301953D01*
X54529108Y-91416336D01*
X54551088Y-91465702D01*
X54536192Y-91517648D01*
X54527553Y-91527656D01*
X54492641Y-91561845D01*
X54431925Y-91621302D01*
X54339500Y-91764717D01*
X54281146Y-91925045D01*
X54279832Y-91935448D01*
X54262923Y-92069298D01*
X54259762Y-92094317D01*
X54262293Y-92120129D01*
X54272176Y-92220922D01*
X54276411Y-92264119D01*
X54277803Y-92268304D01*
X54277804Y-92268308D01*
X54293953Y-92316852D01*
X54330266Y-92426014D01*
X54332551Y-92429787D01*
X54405726Y-92550613D01*
X54416222Y-92603623D01*
X54390189Y-92650978D01*
X54382049Y-92657218D01*
X54337189Y-92687192D01*
X54332868Y-92693659D01*
X54329704Y-92698394D01*
X54286124Y-92730346D01*
X54264019Y-92733502D01*
X53559308Y-92733502D01*
X53550443Y-92732523D01*
X53550414Y-92732825D01*
X53545468Y-92732357D01*
X53540617Y-92731273D01*
X53535651Y-92731429D01*
X53535650Y-92731429D01*
X53470929Y-92733463D01*
X53468448Y-92733502D01*
X53439404Y-92733502D01*
X53436946Y-92733813D01*
X53436939Y-92733813D01*
X53433069Y-92734302D01*
X53425649Y-92734886D01*
X53406863Y-92735476D01*
X53378616Y-92736364D01*
X53373842Y-92737751D01*
X53373841Y-92737751D01*
X53355247Y-92743153D01*
X53343111Y-92745666D01*
X53318964Y-92748717D01*
X53275189Y-92766049D01*
X53268173Y-92768451D01*
X53222971Y-92781583D01*
X53202018Y-92793975D01*
X53190899Y-92799422D01*
X53168266Y-92808383D01*
X53164245Y-92811305D01*
X53164244Y-92811305D01*
X53130192Y-92836045D01*
X53123973Y-92840130D01*
X53087741Y-92861558D01*
X53087739Y-92861560D01*
X53083462Y-92864089D01*
X53066255Y-92881296D01*
X53056828Y-92889347D01*
X53037140Y-92903652D01*
X53033974Y-92907479D01*
X53007137Y-92939919D01*
X53002128Y-92945423D01*
X45527639Y-100419912D01*
X45520674Y-100425492D01*
X45520867Y-100425726D01*
X45517038Y-100428893D01*
X45512841Y-100431557D01*
X45509439Y-100435180D01*
X45465085Y-100482412D01*
X45463357Y-100484194D01*
X45442849Y-100504702D01*
X45441325Y-100506667D01*
X45438937Y-100509745D01*
X45434110Y-100515397D01*
X45401889Y-100549709D01*
X45390162Y-100571040D01*
X45383366Y-100581387D01*
X45368444Y-100600625D01*
X45366471Y-100605185D01*
X45349756Y-100643809D01*
X45346482Y-100650491D01*
X45326203Y-100687380D01*
X45323806Y-100691741D01*
X45322570Y-100696556D01*
X45317755Y-100715310D01*
X45313739Y-100727039D01*
X45307758Y-100740860D01*
X45304074Y-100749374D01*
X45303297Y-100754281D01*
X45296712Y-100795856D01*
X45295203Y-100803142D01*
X45284927Y-100843168D01*
X45283499Y-100848730D01*
X45283499Y-100873071D01*
X45282526Y-100885428D01*
X45278720Y-100909460D01*
X45279188Y-100914411D01*
X45283148Y-100956307D01*
X45283499Y-100963741D01*
X45283499Y-101460013D01*
X45265017Y-101510793D01*
X45218217Y-101537813D01*
X45204499Y-101539013D01*
X42053950Y-101539013D01*
X42003170Y-101520531D01*
X41998089Y-101515874D01*
X34614638Y-94132423D01*
X34591800Y-94083447D01*
X34591499Y-94076562D01*
X34591499Y-81998442D01*
X34609981Y-81947662D01*
X34614638Y-81942581D01*
X35192578Y-81364641D01*
X35241554Y-81341803D01*
X35248439Y-81341502D01*
X37895452Y-81341502D01*
X37904323Y-81342481D01*
X37904351Y-81342180D01*
X37909299Y-81342648D01*
X37914149Y-81343732D01*
X37919115Y-81343576D01*
X37919116Y-81343576D01*
X37983855Y-81341541D01*
X37986337Y-81341502D01*
X38015362Y-81341502D01*
X38018599Y-81341093D01*
X38021700Y-81340702D01*
X38029113Y-81340119D01*
X38051216Y-81339424D01*
X38076150Y-81338640D01*
X38080920Y-81337254D01*
X38080927Y-81337253D01*
X38099521Y-81331851D01*
X38111658Y-81329337D01*
X38130871Y-81326910D01*
X38130872Y-81326910D01*
X38135802Y-81326287D01*
X38179557Y-81308963D01*
X38186595Y-81306554D01*
X38227018Y-81294810D01*
X38227019Y-81294810D01*
X38231795Y-81293422D01*
X38252753Y-81281027D01*
X38263872Y-81275580D01*
X38286500Y-81266621D01*
X38324587Y-81238949D01*
X38330777Y-81234883D01*
X38371304Y-81210915D01*
X38388511Y-81193708D01*
X38397937Y-81185657D01*
X38413607Y-81174272D01*
X38417626Y-81171352D01*
X38447629Y-81135085D01*
X38452638Y-81129581D01*
X39157149Y-80425070D01*
X39186715Y-80386954D01*
X39228507Y-80333077D01*
X39228509Y-80333073D01*
X39231554Y-80329148D01*
X39295923Y-80180398D01*
X39321278Y-80020313D01*
X39306026Y-79858951D01*
X39251122Y-79706453D01*
X39160019Y-79572399D01*
X39038441Y-79465213D01*
X38894026Y-79391630D01*
X38828886Y-79377069D01*
X38740700Y-79357357D01*
X38740697Y-79357357D01*
X38735849Y-79356273D01*
X38730883Y-79356429D01*
X38730882Y-79356429D01*
X38654848Y-79358819D01*
X38573848Y-79361364D01*
X38418203Y-79406583D01*
X38413923Y-79409114D01*
X38413921Y-79409115D01*
X38282977Y-79486556D01*
X38278694Y-79489089D01*
X37732420Y-80035363D01*
X37683444Y-80058201D01*
X37676559Y-80058502D01*
X35029546Y-80058502D01*
X35020675Y-80057523D01*
X35020647Y-80057824D01*
X35015699Y-80057356D01*
X35010849Y-80056272D01*
X35005883Y-80056428D01*
X34941129Y-80058463D01*
X34938648Y-80058502D01*
X34909636Y-80058502D01*
X34907177Y-80058813D01*
X34907173Y-80058813D01*
X34903309Y-80059301D01*
X34895888Y-80059885D01*
X34856574Y-80061120D01*
X34848848Y-80061363D01*
X34826402Y-80067884D01*
X34825476Y-80068153D01*
X34813338Y-80070667D01*
X34789196Y-80073717D01*
X34745429Y-80091046D01*
X34738406Y-80093450D01*
X34693204Y-80106582D01*
X34672253Y-80118973D01*
X34661124Y-80124425D01*
X34638498Y-80133383D01*
X34634480Y-80136302D01*
X34634475Y-80136305D01*
X34600419Y-80161048D01*
X34594205Y-80165130D01*
X34553694Y-80189089D01*
X34536487Y-80206296D01*
X34527060Y-80214347D01*
X34507372Y-80228652D01*
X34504206Y-80232479D01*
X34477369Y-80264919D01*
X34472360Y-80270423D01*
X33645360Y-81097423D01*
X33596384Y-81120261D01*
X33544186Y-81106275D01*
X33513191Y-81062009D01*
X33510499Y-81041562D01*
X33510499Y-76327449D01*
X33528981Y-76276669D01*
X33575781Y-76249649D01*
X33589102Y-76248450D01*
X35882664Y-76236911D01*
X38145603Y-76225527D01*
X38196474Y-76243754D01*
G37*
G04 #@! TD.AperFunction*
G04 #@! TA.AperFunction,Conductor*
G36*
X33628999Y-94965026D02*
G01*
X33645360Y-94977581D01*
X41245652Y-102577873D01*
X41251232Y-102584838D01*
X41251466Y-102584645D01*
X41254634Y-102588474D01*
X41257297Y-102592671D01*
X41260919Y-102596073D01*
X41260923Y-102596077D01*
X41268203Y-102602913D01*
X41292569Y-102651147D01*
X41280230Y-102703758D01*
X41236960Y-102736130D01*
X41214125Y-102739502D01*
X33589499Y-102739502D01*
X33538719Y-102721020D01*
X33511699Y-102674220D01*
X33510499Y-102660502D01*
X33510499Y-95033442D01*
X33528981Y-94982662D01*
X33575781Y-94955642D01*
X33628999Y-94965026D01*
G37*
G04 #@! TD.AperFunction*
G04 #@! TA.AperFunction,Conductor*
G36*
X76696477Y-76243754D02*
G01*
X76723732Y-76290417D01*
X76725002Y-76304526D01*
X76725002Y-77075002D01*
X104910502Y-77075002D01*
X104961282Y-77093484D01*
X104988302Y-77140284D01*
X104989502Y-77154002D01*
X104989502Y-83200318D01*
X104971020Y-83251098D01*
X104924220Y-83278118D01*
X104871002Y-83268734D01*
X104840620Y-83237163D01*
X104810834Y-83180669D01*
X104806077Y-83173616D01*
X104692394Y-83039090D01*
X104686241Y-83033231D01*
X104546318Y-82926252D01*
X104539044Y-82921847D01*
X104379426Y-82847417D01*
X104371360Y-82844671D01*
X104198481Y-82806028D01*
X104192068Y-82805138D01*
X104190725Y-82805063D01*
X104188550Y-82805002D01*
X103988932Y-82805002D01*
X103978261Y-82808886D01*
X103975002Y-82814530D01*
X103975002Y-84491072D01*
X103978886Y-84501743D01*
X103984530Y-84505002D01*
X104144009Y-84505002D01*
X104148256Y-84504772D01*
X104279354Y-84490531D01*
X104287653Y-84488706D01*
X104454589Y-84432526D01*
X104462304Y-84428961D01*
X104613268Y-84338252D01*
X104620055Y-84333101D01*
X104748017Y-84212092D01*
X104753531Y-84205613D01*
X104845163Y-84070782D01*
X104888992Y-84039172D01*
X104942886Y-84043130D01*
X104981627Y-84080804D01*
X104989502Y-84115187D01*
X104989502Y-91840318D01*
X104971020Y-91891098D01*
X104924220Y-91918118D01*
X104871002Y-91908734D01*
X104840620Y-91877163D01*
X104810834Y-91820669D01*
X104806077Y-91813616D01*
X104692394Y-91679090D01*
X104686241Y-91673231D01*
X104546318Y-91566252D01*
X104539044Y-91561847D01*
X104379426Y-91487417D01*
X104371360Y-91484671D01*
X104198481Y-91446028D01*
X104192068Y-91445138D01*
X104190725Y-91445063D01*
X104188550Y-91445002D01*
X103988932Y-91445002D01*
X103978261Y-91448886D01*
X103975002Y-91454530D01*
X103975002Y-93131072D01*
X103978886Y-93141743D01*
X103984530Y-93145002D01*
X104144009Y-93145002D01*
X104148256Y-93144772D01*
X104279354Y-93130531D01*
X104287653Y-93128706D01*
X104454589Y-93072526D01*
X104462304Y-93068961D01*
X104613268Y-92978252D01*
X104620055Y-92973101D01*
X104748017Y-92852092D01*
X104753531Y-92845613D01*
X104845163Y-92710782D01*
X104888992Y-92679172D01*
X104942886Y-92683130D01*
X104981627Y-92720804D01*
X104989502Y-92755187D01*
X104989502Y-102660502D01*
X104971020Y-102711282D01*
X104924220Y-102738302D01*
X104910502Y-102739502D01*
X90783442Y-102739502D01*
X90732662Y-102721020D01*
X90705642Y-102674220D01*
X90715026Y-102621002D01*
X90727581Y-102604641D01*
X92382152Y-100950070D01*
X92441879Y-100873071D01*
X92453510Y-100858077D01*
X92453512Y-100858073D01*
X92456557Y-100854148D01*
X92476345Y-100808422D01*
X92518954Y-100709957D01*
X92520927Y-100705398D01*
X92521704Y-100700493D01*
X92521705Y-100700489D01*
X92545503Y-100550224D01*
X92546281Y-100545312D01*
X92534978Y-100425726D01*
X92531497Y-100388900D01*
X92531497Y-100388898D01*
X92531029Y-100383951D01*
X92476126Y-100231452D01*
X92385023Y-100097398D01*
X92263444Y-99990212D01*
X92119030Y-99916630D01*
X92114176Y-99915545D01*
X91965703Y-99882357D01*
X91965700Y-99882357D01*
X91960852Y-99881273D01*
X91955886Y-99881429D01*
X91955885Y-99881429D01*
X91879852Y-99883818D01*
X91798851Y-99886364D01*
X91643206Y-99931583D01*
X91638926Y-99934114D01*
X91638924Y-99934115D01*
X91538514Y-99993498D01*
X91503697Y-100014089D01*
X90001912Y-101515874D01*
X89952936Y-101538712D01*
X89946051Y-101539013D01*
X89648494Y-101539013D01*
X89597714Y-101520531D01*
X89570694Y-101473731D01*
X89571888Y-101446429D01*
X89571076Y-101446322D01*
X89589663Y-101305137D01*
X89590339Y-101300002D01*
X89589229Y-101291571D01*
X89600925Y-101238813D01*
X89611692Y-101225398D01*
X92475535Y-98361555D01*
X92524511Y-98338717D01*
X92579490Y-98354743D01*
X92592333Y-98364598D01*
X92597120Y-98366581D01*
X92597122Y-98366582D01*
X92642979Y-98385576D01*
X92728682Y-98421076D01*
X92875002Y-98440339D01*
X93021322Y-98421076D01*
X93107025Y-98385576D01*
X93152882Y-98366582D01*
X93152884Y-98366581D01*
X93157671Y-98364598D01*
X93161780Y-98361445D01*
X93161782Y-98361444D01*
X93270652Y-98277905D01*
X93274756Y-98274756D01*
X93364598Y-98157670D01*
X93421076Y-98021322D01*
X93440339Y-97875002D01*
X93421076Y-97728682D01*
X93364598Y-97592334D01*
X93353659Y-97578077D01*
X93277905Y-97479352D01*
X93274756Y-97475248D01*
X93252467Y-97458145D01*
X93161782Y-97388560D01*
X93161780Y-97388559D01*
X93157671Y-97385406D01*
X93152884Y-97383423D01*
X93152882Y-97383422D01*
X93107025Y-97364428D01*
X93021322Y-97328928D01*
X92875002Y-97309665D01*
X92728682Y-97328928D01*
X92642378Y-97364677D01*
X92597123Y-97383422D01*
X92597121Y-97383423D01*
X92592334Y-97385406D01*
X92588225Y-97388559D01*
X92588223Y-97388560D01*
X92493667Y-97461115D01*
X92475248Y-97475248D01*
X92469195Y-97483137D01*
X92419490Y-97512974D01*
X92400774Y-97516088D01*
X92397123Y-97516608D01*
X92347582Y-97522472D01*
X92341699Y-97525296D01*
X92341136Y-97525460D01*
X92340173Y-97525679D01*
X92338991Y-97526053D01*
X92338083Y-97526425D01*
X92337527Y-97526615D01*
X92331090Y-97527687D01*
X92325348Y-97530785D01*
X92325346Y-97530786D01*
X92287191Y-97551374D01*
X92283872Y-97553065D01*
X92243393Y-97572502D01*
X92243388Y-97572505D01*
X92238913Y-97574654D01*
X92234840Y-97578077D01*
X92233745Y-97579172D01*
X92230329Y-97582056D01*
X92225000Y-97584931D01*
X92218157Y-97592334D01*
X92189527Y-97623305D01*
X92187377Y-97625540D01*
X89099605Y-100713312D01*
X89050629Y-100736150D01*
X89033434Y-100735775D01*
X89025002Y-100734665D01*
X89019867Y-100735341D01*
X89013722Y-100736150D01*
X88878682Y-100753928D01*
X88792378Y-100789677D01*
X88747123Y-100808422D01*
X88747121Y-100808423D01*
X88742334Y-100810406D01*
X88738225Y-100813559D01*
X88738223Y-100813560D01*
X88680207Y-100858077D01*
X88625248Y-100900248D01*
X88611115Y-100918667D01*
X88585668Y-100951831D01*
X88535406Y-101017334D01*
X88478928Y-101153682D01*
X88459665Y-101300002D01*
X88460341Y-101305137D01*
X88478928Y-101446322D01*
X88477205Y-101446549D01*
X88473111Y-101493393D01*
X88434903Y-101531608D01*
X88401510Y-101539013D01*
X85145502Y-101539013D01*
X85094722Y-101520531D01*
X85067702Y-101473731D01*
X85066502Y-101460013D01*
X85066502Y-101228210D01*
X85084984Y-101177430D01*
X85089641Y-101172349D01*
X90915120Y-95346870D01*
X90964096Y-95324032D01*
X91016294Y-95338018D01*
X91034758Y-95358167D01*
X91035406Y-95357670D01*
X91125248Y-95474756D01*
X91129352Y-95477905D01*
X91238222Y-95561444D01*
X91238224Y-95561445D01*
X91242333Y-95564598D01*
X91247120Y-95566581D01*
X91247122Y-95566582D01*
X91292979Y-95585576D01*
X91378682Y-95621076D01*
X91488261Y-95635502D01*
X91517209Y-95639313D01*
X91525002Y-95640339D01*
X91617034Y-95628223D01*
X91653520Y-95632010D01*
X91657472Y-95633398D01*
X91657477Y-95633399D01*
X91662164Y-95635045D01*
X91667441Y-95635502D01*
X91669010Y-95635502D01*
X91673409Y-95635875D01*
X91679194Y-95637605D01*
X91685715Y-95637349D01*
X91685716Y-95637349D01*
X91731175Y-95635563D01*
X91734276Y-95635502D01*
X96478110Y-95635502D01*
X96494730Y-95637270D01*
X96507785Y-95640081D01*
X96541844Y-95636050D01*
X96551129Y-95635502D01*
X96554952Y-95635502D01*
X96558170Y-95634966D01*
X96558174Y-95634966D01*
X96573994Y-95632333D01*
X96577678Y-95631809D01*
X96594306Y-95629841D01*
X96626969Y-95625975D01*
X96632853Y-95623150D01*
X96633327Y-95623012D01*
X96634308Y-95622789D01*
X96635553Y-95622395D01*
X96636486Y-95622013D01*
X96636952Y-95621853D01*
X96643389Y-95620782D01*
X96649132Y-95617683D01*
X96649133Y-95617683D01*
X96668309Y-95607336D01*
X96687088Y-95597203D01*
X96690397Y-95595518D01*
X96730670Y-95576179D01*
X96730669Y-95576179D01*
X96735158Y-95574024D01*
X96739212Y-95570616D01*
X96740322Y-95569506D01*
X96743692Y-95566661D01*
X96749010Y-95563792D01*
X96753443Y-95558996D01*
X96753446Y-95558994D01*
X96784321Y-95525593D01*
X96786471Y-95523357D01*
X98452234Y-93857594D01*
X98465235Y-93847093D01*
X98476458Y-93839846D01*
X98497695Y-93812907D01*
X98503874Y-93805954D01*
X98506572Y-93803256D01*
X98517786Y-93787564D01*
X98520019Y-93784590D01*
X98546720Y-93750719D01*
X98550759Y-93745596D01*
X98552921Y-93739441D01*
X98553162Y-93739002D01*
X98553692Y-93738159D01*
X98554299Y-93736990D01*
X98554688Y-93736063D01*
X98554903Y-93735623D01*
X98558698Y-93730313D01*
X98572925Y-93682743D01*
X98574075Y-93679204D01*
X98588878Y-93637052D01*
X98588879Y-93637047D01*
X98590525Y-93632360D01*
X98590982Y-93627083D01*
X98590982Y-93625514D01*
X98591355Y-93621115D01*
X98593085Y-93615330D01*
X98591043Y-93563349D01*
X98590982Y-93560248D01*
X98590982Y-93133519D01*
X98609464Y-93082739D01*
X98656264Y-93055719D01*
X98703369Y-93061921D01*
X98790578Y-93102587D01*
X98798644Y-93105333D01*
X98971523Y-93143976D01*
X98977936Y-93144866D01*
X98979279Y-93144941D01*
X98981454Y-93145002D01*
X99431072Y-93145002D01*
X99441743Y-93141118D01*
X99445002Y-93135474D01*
X99445002Y-93131072D01*
X99795002Y-93131072D01*
X99798886Y-93141743D01*
X99804530Y-93145002D01*
X100214009Y-93145002D01*
X100218256Y-93144772D01*
X100349354Y-93130531D01*
X100357653Y-93128706D01*
X100524589Y-93072526D01*
X100532304Y-93068961D01*
X100683268Y-92978252D01*
X100690055Y-92973101D01*
X100818017Y-92852092D01*
X100823531Y-92845613D01*
X100922530Y-92699942D01*
X100926521Y-92692435D01*
X100991927Y-92528910D01*
X100994218Y-92520706D01*
X101000336Y-92483746D01*
X100998832Y-92475714D01*
X102668742Y-92475714D01*
X102668872Y-92478475D01*
X102703897Y-92605631D01*
X102707027Y-92613536D01*
X102789170Y-92769335D01*
X102793927Y-92776388D01*
X102907610Y-92910914D01*
X102913763Y-92916773D01*
X103053686Y-93023752D01*
X103060960Y-93028157D01*
X103220578Y-93102587D01*
X103228644Y-93105333D01*
X103401523Y-93143976D01*
X103407936Y-93144866D01*
X103409279Y-93144941D01*
X103411454Y-93145002D01*
X103611072Y-93145002D01*
X103621743Y-93141118D01*
X103625002Y-93135474D01*
X103625002Y-92483932D01*
X103621118Y-92473261D01*
X103615474Y-92470002D01*
X102680468Y-92470002D01*
X102669797Y-92473886D01*
X102668742Y-92475714D01*
X100998832Y-92475714D01*
X100998246Y-92472582D01*
X100995106Y-92470002D01*
X99808932Y-92470002D01*
X99798261Y-92473886D01*
X99795002Y-92479530D01*
X99795002Y-93131072D01*
X99445002Y-93131072D01*
X99445002Y-91458932D01*
X99441118Y-91448261D01*
X99435474Y-91445002D01*
X99025995Y-91445002D01*
X99021748Y-91445232D01*
X98890650Y-91459473D01*
X98882351Y-91461298D01*
X98715415Y-91517478D01*
X98703816Y-91522838D01*
X98702860Y-91520769D01*
X98657657Y-91529576D01*
X98610382Y-91503397D01*
X98590982Y-91451543D01*
X98590982Y-90865002D01*
X99559450Y-90865002D01*
X99579573Y-91017848D01*
X99638569Y-91160278D01*
X99732419Y-91282585D01*
X99736524Y-91285735D01*
X99736525Y-91285736D01*
X99789620Y-91326478D01*
X99818655Y-91372054D01*
X99809943Y-91428652D01*
X99795002Y-91454530D01*
X99795002Y-92106072D01*
X99798886Y-92116743D01*
X99804530Y-92120002D01*
X100989536Y-92120002D01*
X101000207Y-92116118D01*
X101001262Y-92114290D01*
X101001132Y-92111529D01*
X100999680Y-92106258D01*
X102669668Y-92106258D01*
X102671758Y-92117422D01*
X102674898Y-92120002D01*
X103611072Y-92120002D01*
X103621743Y-92116118D01*
X103625002Y-92110474D01*
X103625002Y-91458932D01*
X103621118Y-91448261D01*
X103615474Y-91445002D01*
X103455995Y-91445002D01*
X103451748Y-91445232D01*
X103320650Y-91459473D01*
X103312351Y-91461298D01*
X103145415Y-91517478D01*
X103137700Y-91521043D01*
X102986736Y-91611752D01*
X102979949Y-91616903D01*
X102851987Y-91737912D01*
X102846473Y-91744391D01*
X102747474Y-91890062D01*
X102743483Y-91897569D01*
X102678077Y-92061094D01*
X102675786Y-92069298D01*
X102669668Y-92106258D01*
X100999680Y-92106258D01*
X100966107Y-91984373D01*
X100962977Y-91976468D01*
X100880834Y-91820669D01*
X100876077Y-91813616D01*
X100762394Y-91679090D01*
X100756241Y-91673231D01*
X100616318Y-91566252D01*
X100609040Y-91561845D01*
X100474874Y-91499283D01*
X100436662Y-91461072D01*
X100431952Y-91407239D01*
X100460167Y-91365010D01*
X100509787Y-91326935D01*
X100567585Y-91282585D01*
X100661435Y-91160278D01*
X100720431Y-91017848D01*
X100740554Y-90865002D01*
X100720431Y-90712156D01*
X100661435Y-90569726D01*
X100611249Y-90504322D01*
X100570735Y-90451524D01*
X100567585Y-90447419D01*
X100563480Y-90444269D01*
X100449386Y-90356721D01*
X100449385Y-90356720D01*
X100445278Y-90353569D01*
X100440498Y-90351589D01*
X100440496Y-90351588D01*
X100391270Y-90331198D01*
X100302848Y-90294573D01*
X100249636Y-90287567D01*
X100190944Y-90279840D01*
X100190941Y-90279840D01*
X100188375Y-90279502D01*
X100111629Y-90279502D01*
X100109063Y-90279840D01*
X100109060Y-90279840D01*
X100050368Y-90287567D01*
X99997156Y-90294573D01*
X99908734Y-90331198D01*
X99859508Y-90351588D01*
X99859506Y-90351589D01*
X99854726Y-90353569D01*
X99850619Y-90356720D01*
X99850618Y-90356721D01*
X99736524Y-90444269D01*
X99732419Y-90447419D01*
X99729269Y-90451524D01*
X99688756Y-90504322D01*
X99638569Y-90569726D01*
X99579573Y-90712156D01*
X99559450Y-90865002D01*
X98590982Y-90865002D01*
X98590982Y-89726568D01*
X98609464Y-89675788D01*
X98614121Y-89670707D01*
X99423118Y-88861710D01*
X99472094Y-88838872D01*
X99524292Y-88852858D01*
X99555287Y-88897124D01*
X99550577Y-88950958D01*
X99549937Y-88952187D01*
X99547906Y-88954834D01*
X99491428Y-89091182D01*
X99472165Y-89237502D01*
X99472841Y-89242637D01*
X99475067Y-89259542D01*
X99491428Y-89383822D01*
X99521239Y-89455792D01*
X99542154Y-89506283D01*
X99547906Y-89520170D01*
X99551059Y-89524279D01*
X99551060Y-89524281D01*
X99586193Y-89570067D01*
X99637748Y-89637256D01*
X99641852Y-89640405D01*
X99750722Y-89723944D01*
X99750724Y-89723945D01*
X99754833Y-89727098D01*
X99759620Y-89729081D01*
X99759622Y-89729082D01*
X99805479Y-89748076D01*
X99891182Y-89783576D01*
X100037502Y-89802839D01*
X100183822Y-89783576D01*
X100269525Y-89748076D01*
X100315382Y-89729082D01*
X100315384Y-89729081D01*
X100320171Y-89727098D01*
X100324280Y-89723945D01*
X100324282Y-89723944D01*
X100433152Y-89640405D01*
X100437256Y-89637256D01*
X100488811Y-89570067D01*
X100523944Y-89524281D01*
X100523945Y-89524279D01*
X100527098Y-89520170D01*
X100532851Y-89506283D01*
X100553765Y-89455792D01*
X100583576Y-89383822D01*
X100599937Y-89259542D01*
X100602163Y-89242637D01*
X100602839Y-89237502D01*
X100601466Y-89227070D01*
X100613163Y-89174312D01*
X100623929Y-89160899D01*
X101771274Y-88013554D01*
X101784275Y-88003053D01*
X101795498Y-87995806D01*
X101816735Y-87968867D01*
X101822914Y-87961914D01*
X101825612Y-87959216D01*
X101836822Y-87943529D01*
X101839057Y-87940552D01*
X101865754Y-87906687D01*
X101869799Y-87901556D01*
X101871965Y-87895389D01*
X101872198Y-87894965D01*
X101872737Y-87894108D01*
X101873339Y-87892951D01*
X101873728Y-87892021D01*
X101873943Y-87891583D01*
X101877737Y-87886273D01*
X101891964Y-87838703D01*
X101893103Y-87835198D01*
X101909565Y-87788320D01*
X101910022Y-87783043D01*
X101910022Y-87781474D01*
X101910395Y-87777075D01*
X101912125Y-87771290D01*
X101910565Y-87731573D01*
X101910083Y-87719319D01*
X101910022Y-87716217D01*
X101910022Y-83835714D01*
X102668742Y-83835714D01*
X102668872Y-83838475D01*
X102703897Y-83965631D01*
X102707027Y-83973536D01*
X102789170Y-84129335D01*
X102793927Y-84136388D01*
X102907610Y-84270914D01*
X102913763Y-84276773D01*
X103053686Y-84383752D01*
X103060960Y-84388157D01*
X103220578Y-84462587D01*
X103228644Y-84465333D01*
X103401523Y-84503976D01*
X103407936Y-84504866D01*
X103409279Y-84504941D01*
X103411454Y-84505002D01*
X103611072Y-84505002D01*
X103621743Y-84501118D01*
X103625002Y-84495474D01*
X103625002Y-83843932D01*
X103621118Y-83833261D01*
X103615474Y-83830002D01*
X102680468Y-83830002D01*
X102669797Y-83833886D01*
X102668742Y-83835714D01*
X101910022Y-83835714D01*
X101910022Y-83466258D01*
X102669668Y-83466258D01*
X102671758Y-83477422D01*
X102674898Y-83480002D01*
X103611072Y-83480002D01*
X103621743Y-83476118D01*
X103625002Y-83470474D01*
X103625002Y-82818932D01*
X103621118Y-82808261D01*
X103615474Y-82805002D01*
X103455995Y-82805002D01*
X103451748Y-82805232D01*
X103320650Y-82819473D01*
X103312351Y-82821298D01*
X103145415Y-82877478D01*
X103137700Y-82881043D01*
X102986736Y-82971752D01*
X102979949Y-82976903D01*
X102851987Y-83097912D01*
X102846473Y-83104391D01*
X102747474Y-83250062D01*
X102743483Y-83257569D01*
X102678077Y-83421094D01*
X102675786Y-83429298D01*
X102669668Y-83466258D01*
X101910022Y-83466258D01*
X101910022Y-81882528D01*
X101928504Y-81831748D01*
X101933161Y-81826667D01*
X102573399Y-81186429D01*
X102622375Y-81163591D01*
X102639570Y-81163966D01*
X102644865Y-81164663D01*
X102644867Y-81164663D01*
X102650002Y-81165339D01*
X102796322Y-81146076D01*
X102882025Y-81110576D01*
X102927882Y-81091582D01*
X102927884Y-81091581D01*
X102932671Y-81089598D01*
X102936780Y-81086445D01*
X102936782Y-81086444D01*
X103045652Y-81002905D01*
X103049756Y-80999756D01*
X103139598Y-80882670D01*
X103196076Y-80746322D01*
X103215339Y-80600002D01*
X103196076Y-80453682D01*
X103139598Y-80317334D01*
X103103603Y-80270423D01*
X103052905Y-80204352D01*
X103049756Y-80200248D01*
X102998669Y-80161048D01*
X102936782Y-80113560D01*
X102936780Y-80113559D01*
X102932671Y-80110406D01*
X102927884Y-80108423D01*
X102927882Y-80108422D01*
X102882025Y-80089428D01*
X102796322Y-80053928D01*
X102650002Y-80034665D01*
X102503682Y-80053928D01*
X102457412Y-80073094D01*
X102372123Y-80108422D01*
X102372121Y-80108423D01*
X102367334Y-80110406D01*
X102363225Y-80113559D01*
X102363223Y-80113560D01*
X102337389Y-80133383D01*
X102250248Y-80200248D01*
X102247099Y-80204352D01*
X102196402Y-80270423D01*
X102160406Y-80317334D01*
X102103928Y-80453682D01*
X102084665Y-80600002D01*
X102085341Y-80605137D01*
X102085341Y-80605139D01*
X102086038Y-80610434D01*
X102074341Y-80663192D01*
X102063575Y-80676605D01*
X101327770Y-81412410D01*
X101314769Y-81422911D01*
X101303546Y-81430158D01*
X101299502Y-81435288D01*
X101282309Y-81457097D01*
X101276130Y-81464050D01*
X101273432Y-81466748D01*
X101271538Y-81469399D01*
X101262218Y-81482440D01*
X101259985Y-81485414D01*
X101242693Y-81507349D01*
X101229245Y-81524408D01*
X101227083Y-81530563D01*
X101226842Y-81531002D01*
X101226312Y-81531845D01*
X101225705Y-81533014D01*
X101225316Y-81533941D01*
X101225101Y-81534381D01*
X101221306Y-81539691D01*
X101219436Y-81545944D01*
X101207080Y-81587259D01*
X101205929Y-81590800D01*
X101191126Y-81632952D01*
X101191125Y-81632957D01*
X101189479Y-81637644D01*
X101189022Y-81642921D01*
X101189022Y-81644490D01*
X101188649Y-81648889D01*
X101186919Y-81654674D01*
X101187175Y-81661194D01*
X101187175Y-81661196D01*
X101188961Y-81706645D01*
X101189022Y-81709747D01*
X101189022Y-82188476D01*
X101170540Y-82239256D01*
X101123740Y-82266276D01*
X101070522Y-82256892D01*
X101054161Y-82244337D01*
X100686429Y-81876605D01*
X100663591Y-81827629D01*
X100663966Y-81810434D01*
X100664663Y-81805139D01*
X100664663Y-81805137D01*
X100665339Y-81800002D01*
X100646076Y-81653682D01*
X100596093Y-81533014D01*
X100591582Y-81522123D01*
X100591581Y-81522121D01*
X100589598Y-81517334D01*
X100565106Y-81485414D01*
X100502905Y-81404352D01*
X100499756Y-81400248D01*
X100426103Y-81343732D01*
X100386782Y-81313560D01*
X100386780Y-81313559D01*
X100382671Y-81310406D01*
X100377884Y-81308423D01*
X100377882Y-81308422D01*
X100304113Y-81277866D01*
X100246322Y-81253928D01*
X100100002Y-81234665D01*
X99953682Y-81253928D01*
X99888251Y-81281031D01*
X99822123Y-81308422D01*
X99822121Y-81308423D01*
X99817334Y-81310406D01*
X99813225Y-81313559D01*
X99813223Y-81313560D01*
X99718667Y-81386115D01*
X99700248Y-81400248D01*
X99697099Y-81404352D01*
X99634899Y-81485414D01*
X99610406Y-81517334D01*
X99608423Y-81522121D01*
X99608422Y-81522123D01*
X99603911Y-81533014D01*
X99553928Y-81653682D01*
X99534665Y-81800002D01*
X99553928Y-81946322D01*
X99610406Y-82082670D01*
X99613559Y-82086779D01*
X99613560Y-82086781D01*
X99686115Y-82181337D01*
X99700248Y-82199756D01*
X99704352Y-82202905D01*
X99813222Y-82286444D01*
X99813224Y-82286445D01*
X99817333Y-82289598D01*
X99822120Y-82291581D01*
X99822122Y-82291582D01*
X99860962Y-82307670D01*
X99953682Y-82346076D01*
X100100002Y-82365339D01*
X100105137Y-82364663D01*
X100105139Y-82364663D01*
X100110434Y-82363966D01*
X100163192Y-82375663D01*
X100176605Y-82386429D01*
X100498272Y-82708096D01*
X100521110Y-82757072D01*
X100507124Y-82809270D01*
X100462858Y-82840265D01*
X100425178Y-82841054D01*
X100268481Y-82806028D01*
X100262068Y-82805138D01*
X100260725Y-82805063D01*
X100258550Y-82805002D01*
X99808932Y-82805002D01*
X99798261Y-82808886D01*
X99795002Y-82814530D01*
X99795002Y-84491072D01*
X99805644Y-84520312D01*
X99816511Y-84533264D01*
X99816509Y-84587303D01*
X99790367Y-84622954D01*
X99732419Y-84667419D01*
X99638569Y-84789726D01*
X99579573Y-84932156D01*
X99559450Y-85085002D01*
X99579573Y-85237848D01*
X99638569Y-85380278D01*
X99732419Y-85502585D01*
X99854726Y-85596435D01*
X99859506Y-85598415D01*
X99859508Y-85598416D01*
X99908734Y-85618806D01*
X99997156Y-85655431D01*
X100002291Y-85656107D01*
X100030894Y-85659873D01*
X100078827Y-85684826D01*
X100099506Y-85734752D01*
X100083255Y-85786290D01*
X100050813Y-85811183D01*
X99997123Y-85833422D01*
X99997121Y-85833423D01*
X99992334Y-85835406D01*
X99988225Y-85838559D01*
X99988223Y-85838560D01*
X99893667Y-85911115D01*
X99875248Y-85925248D01*
X99785406Y-86042334D01*
X99728928Y-86178682D01*
X99709665Y-86325002D01*
X99728928Y-86471322D01*
X99785406Y-86607670D01*
X99875248Y-86724756D01*
X99879352Y-86727905D01*
X99988222Y-86811444D01*
X99988224Y-86811445D01*
X99992333Y-86814598D01*
X99997120Y-86816581D01*
X99997122Y-86816582D01*
X100042979Y-86835576D01*
X100128682Y-86871076D01*
X100275002Y-86890339D01*
X100421322Y-86871076D01*
X100507025Y-86835576D01*
X100552882Y-86816582D01*
X100552884Y-86816581D01*
X100557671Y-86814598D01*
X100561780Y-86811445D01*
X100561782Y-86811444D01*
X100670652Y-86727905D01*
X100674756Y-86724756D01*
X100764598Y-86607670D01*
X100821076Y-86471322D01*
X100840339Y-86325002D01*
X100838966Y-86314570D01*
X100850663Y-86261812D01*
X100861429Y-86248399D01*
X101054161Y-86055667D01*
X101103137Y-86032829D01*
X101155335Y-86046815D01*
X101186330Y-86091081D01*
X101189022Y-86111528D01*
X101189022Y-87543436D01*
X101170540Y-87594216D01*
X101165883Y-87599297D01*
X100714386Y-88050794D01*
X100665410Y-88073632D01*
X100613212Y-88059646D01*
X100582217Y-88015380D01*
X100586927Y-87961546D01*
X100587567Y-87960317D01*
X100589598Y-87957670D01*
X100646076Y-87821322D01*
X100665339Y-87675002D01*
X100646076Y-87528682D01*
X100589598Y-87392334D01*
X100571457Y-87368691D01*
X100502905Y-87279352D01*
X100499756Y-87275248D01*
X100477467Y-87258145D01*
X100386782Y-87188560D01*
X100386780Y-87188559D01*
X100382671Y-87185406D01*
X100377884Y-87183423D01*
X100377882Y-87183422D01*
X100332025Y-87164428D01*
X100246322Y-87128928D01*
X100100002Y-87109665D01*
X99953682Y-87128928D01*
X99867378Y-87164677D01*
X99822123Y-87183422D01*
X99822121Y-87183423D01*
X99817334Y-87185406D01*
X99813225Y-87188559D01*
X99813223Y-87188560D01*
X99718667Y-87261115D01*
X99700248Y-87275248D01*
X99697099Y-87279352D01*
X99628548Y-87368691D01*
X99610406Y-87392334D01*
X99553928Y-87528682D01*
X99534665Y-87675002D01*
X99535341Y-87680137D01*
X99535341Y-87680139D01*
X99536038Y-87685434D01*
X99524341Y-87738192D01*
X99513575Y-87751605D01*
X98008730Y-89256450D01*
X97995729Y-89266951D01*
X97984506Y-89274198D01*
X97980462Y-89279328D01*
X97963269Y-89301137D01*
X97957090Y-89308090D01*
X97954392Y-89310788D01*
X97952498Y-89313439D01*
X97943178Y-89326480D01*
X97940945Y-89329454D01*
X97923653Y-89351389D01*
X97910205Y-89368448D01*
X97908043Y-89374603D01*
X97907802Y-89375042D01*
X97907272Y-89375885D01*
X97906665Y-89377054D01*
X97906276Y-89377981D01*
X97906061Y-89378421D01*
X97902266Y-89383731D01*
X97900396Y-89389984D01*
X97888040Y-89431299D01*
X97886889Y-89434840D01*
X97872086Y-89476992D01*
X97872085Y-89476997D01*
X97870439Y-89481684D01*
X97869982Y-89486961D01*
X97869982Y-89488530D01*
X97869609Y-89492929D01*
X97867879Y-89498714D01*
X97868135Y-89505234D01*
X97868135Y-89505236D01*
X97869921Y-89550685D01*
X97869982Y-89553787D01*
X97869982Y-92120129D01*
X97851500Y-92170909D01*
X97804700Y-92197929D01*
X97760750Y-92193115D01*
X97748956Y-92188230D01*
X97696322Y-92166428D01*
X97550002Y-92147165D01*
X97403682Y-92166428D01*
X97339255Y-92193115D01*
X97272123Y-92220922D01*
X97272121Y-92220923D01*
X97267334Y-92222906D01*
X97263225Y-92226059D01*
X97263223Y-92226060D01*
X97230022Y-92251536D01*
X97150248Y-92312748D01*
X97060406Y-92429834D01*
X97058423Y-92434621D01*
X97058422Y-92434623D01*
X97043768Y-92470002D01*
X97003928Y-92566182D01*
X96984665Y-92712502D01*
X97003928Y-92858822D01*
X97037520Y-92939919D01*
X97051265Y-92973101D01*
X97060406Y-92995170D01*
X97150248Y-93112256D01*
X97158595Y-93118660D01*
X97187629Y-93164233D01*
X97189502Y-93181334D01*
X97189502Y-93242956D01*
X97171020Y-93293736D01*
X97166363Y-93298817D01*
X96073817Y-94391363D01*
X96024841Y-94414201D01*
X96017956Y-94414502D01*
X95216509Y-94414502D01*
X95165729Y-94396020D01*
X95138709Y-94349220D01*
X95148093Y-94296002D01*
X95177011Y-94267085D01*
X95177885Y-94266580D01*
X95182671Y-94264598D01*
X95299756Y-94174756D01*
X95337336Y-94125780D01*
X95386444Y-94061781D01*
X95386445Y-94061779D01*
X95389598Y-94057670D01*
X95446076Y-93921322D01*
X95465339Y-93775002D01*
X95446076Y-93628682D01*
X95410327Y-93542378D01*
X95391582Y-93497123D01*
X95391581Y-93497121D01*
X95389598Y-93492334D01*
X95359123Y-93452617D01*
X95335925Y-93422385D01*
X95299756Y-93375248D01*
X95291409Y-93368844D01*
X95262375Y-93323271D01*
X95260502Y-93306170D01*
X95260502Y-89716894D01*
X95262270Y-89700274D01*
X95265081Y-89687219D01*
X95261050Y-89653160D01*
X95260502Y-89643875D01*
X95260502Y-89640052D01*
X95259966Y-89636830D01*
X95257333Y-89621010D01*
X95256809Y-89617326D01*
X95251742Y-89574519D01*
X95250975Y-89568035D01*
X95248150Y-89562151D01*
X95248012Y-89561677D01*
X95247789Y-89560696D01*
X95247395Y-89559451D01*
X95247013Y-89558518D01*
X95246853Y-89558052D01*
X95245782Y-89551615D01*
X95222200Y-89507911D01*
X95220515Y-89504602D01*
X95201175Y-89464325D01*
X95201172Y-89464321D01*
X95199024Y-89459847D01*
X95195616Y-89455792D01*
X95194502Y-89454678D01*
X95191660Y-89451310D01*
X95188792Y-89445994D01*
X95150593Y-89410683D01*
X95148357Y-89408533D01*
X94289055Y-88549231D01*
X94266217Y-88500255D01*
X94266685Y-88482375D01*
X94289671Y-88318828D01*
X94289671Y-88318823D01*
X94290016Y-88316371D01*
X94290314Y-88295002D01*
X94271296Y-88125448D01*
X94215185Y-87964322D01*
X94124772Y-87819630D01*
X94086042Y-87780629D01*
X94063376Y-87731573D01*
X94077545Y-87679424D01*
X94090920Y-87665862D01*
X94090469Y-87665361D01*
X94099661Y-87657084D01*
X94213685Y-87530446D01*
X94218523Y-87523787D01*
X94303723Y-87376218D01*
X94307073Y-87368691D01*
X94358770Y-87209586D01*
X94357088Y-87202837D01*
X94353187Y-87200002D01*
X92702643Y-87200002D01*
X92691972Y-87203886D01*
X92690315Y-87206756D01*
X92742931Y-87368691D01*
X92746281Y-87376218D01*
X92831481Y-87523787D01*
X92836319Y-87530446D01*
X92950343Y-87657084D01*
X92959535Y-87665361D01*
X92958110Y-87666943D01*
X92984150Y-87705576D01*
X92978483Y-87759317D01*
X92962764Y-87781105D01*
X92955107Y-87788604D01*
X92931928Y-87811302D01*
X92839503Y-87954717D01*
X92837993Y-87958867D01*
X92837992Y-87958868D01*
X92820252Y-88007608D01*
X92781149Y-88115045D01*
X92772596Y-88182747D01*
X92765542Y-88238591D01*
X92759765Y-88284317D01*
X92776414Y-88454119D01*
X92830269Y-88616014D01*
X92918653Y-88761953D01*
X93029111Y-88876336D01*
X93051091Y-88925702D01*
X93036195Y-88977648D01*
X93027556Y-88987656D01*
X92931928Y-89081302D01*
X92880632Y-89160899D01*
X92875864Y-89168297D01*
X92832820Y-89200969D01*
X92809459Y-89204502D01*
X85122048Y-89204502D01*
X85071268Y-89186020D01*
X85066187Y-89181363D01*
X82725242Y-86840418D01*
X92691234Y-86840418D01*
X92692916Y-86847167D01*
X92696817Y-86850002D01*
X93336072Y-86850002D01*
X93346743Y-86846118D01*
X93350002Y-86840474D01*
X93350002Y-86836072D01*
X93700002Y-86836072D01*
X93703886Y-86846743D01*
X93709530Y-86850002D01*
X94347361Y-86850002D01*
X94358032Y-86846118D01*
X94359689Y-86843248D01*
X94307073Y-86681313D01*
X94303723Y-86673786D01*
X94218523Y-86526217D01*
X94213685Y-86519558D01*
X94099661Y-86392920D01*
X94093554Y-86387421D01*
X93955692Y-86287259D01*
X93948559Y-86283141D01*
X93792896Y-86213835D01*
X93785065Y-86211290D01*
X93713626Y-86196106D01*
X93702383Y-86197686D01*
X93700123Y-86200196D01*
X93700002Y-86200818D01*
X93700002Y-86836072D01*
X93350002Y-86836072D01*
X93350002Y-86207140D01*
X93346118Y-86196469D01*
X93343193Y-86194780D01*
X93342563Y-86194791D01*
X93264939Y-86211290D01*
X93257108Y-86213835D01*
X93101445Y-86283141D01*
X93094312Y-86287259D01*
X92956450Y-86387421D01*
X92950343Y-86392920D01*
X92836319Y-86519558D01*
X92831481Y-86526217D01*
X92746281Y-86673786D01*
X92742931Y-86681313D01*
X92691234Y-86840418D01*
X82725242Y-86840418D01*
X79720538Y-83835714D01*
X98238742Y-83835714D01*
X98238872Y-83838475D01*
X98273897Y-83965631D01*
X98277027Y-83973536D01*
X98359170Y-84129335D01*
X98363927Y-84136388D01*
X98477610Y-84270914D01*
X98483763Y-84276773D01*
X98623686Y-84383752D01*
X98630960Y-84388157D01*
X98790578Y-84462587D01*
X98798644Y-84465333D01*
X98971523Y-84503976D01*
X98977936Y-84504866D01*
X98979279Y-84504941D01*
X98981454Y-84505002D01*
X99431072Y-84505002D01*
X99441743Y-84501118D01*
X99445002Y-84495474D01*
X99445002Y-83843932D01*
X99441118Y-83833261D01*
X99435474Y-83830002D01*
X98250468Y-83830002D01*
X98239797Y-83833886D01*
X98238742Y-83835714D01*
X79720538Y-83835714D01*
X79351082Y-83466258D01*
X98239668Y-83466258D01*
X98241758Y-83477422D01*
X98244898Y-83480002D01*
X99431072Y-83480002D01*
X99441743Y-83476118D01*
X99445002Y-83470474D01*
X99445002Y-82818932D01*
X99441118Y-82808261D01*
X99435474Y-82805002D01*
X99025995Y-82805002D01*
X99021748Y-82805232D01*
X98890650Y-82819473D01*
X98882351Y-82821298D01*
X98715415Y-82877478D01*
X98707700Y-82881043D01*
X98556736Y-82971752D01*
X98549949Y-82976903D01*
X98421987Y-83097912D01*
X98416473Y-83104391D01*
X98317474Y-83250062D01*
X98313483Y-83257569D01*
X98248077Y-83421094D01*
X98245786Y-83429298D01*
X98239668Y-83466258D01*
X79351082Y-83466258D01*
X77906348Y-82021524D01*
X77883885Y-81975975D01*
X77871752Y-81883818D01*
X77871076Y-81878682D01*
X77849929Y-81827629D01*
X77816582Y-81747123D01*
X77816581Y-81747121D01*
X77814598Y-81742334D01*
X77789594Y-81709747D01*
X77727905Y-81629352D01*
X77724756Y-81625248D01*
X77675248Y-81587259D01*
X77611782Y-81538560D01*
X77611780Y-81538559D01*
X77607671Y-81535406D01*
X77602884Y-81533423D01*
X77602882Y-81533422D01*
X77554117Y-81513223D01*
X77471322Y-81478928D01*
X77325002Y-81459665D01*
X77178682Y-81478928D01*
X77095888Y-81513223D01*
X77047123Y-81533422D01*
X77047121Y-81533423D01*
X77042334Y-81535406D01*
X77038225Y-81538559D01*
X77038223Y-81538560D01*
X76970142Y-81590800D01*
X76925248Y-81625248D01*
X76922099Y-81629352D01*
X76860411Y-81709747D01*
X76835406Y-81742334D01*
X76778928Y-81878682D01*
X76759665Y-82025002D01*
X76778928Y-82171322D01*
X76835406Y-82307670D01*
X76838559Y-82311779D01*
X76838560Y-82311781D01*
X76895839Y-82386429D01*
X76925248Y-82424756D01*
X76929352Y-82427905D01*
X77038222Y-82511444D01*
X77038224Y-82511445D01*
X77042333Y-82514598D01*
X77047120Y-82516581D01*
X77047122Y-82516582D01*
X77092979Y-82535576D01*
X77178682Y-82571076D01*
X77325002Y-82590339D01*
X77330137Y-82589663D01*
X77401708Y-82580241D01*
X77454466Y-82591937D01*
X77467880Y-82602704D01*
X84651930Y-89786754D01*
X84662431Y-89799755D01*
X84669678Y-89810978D01*
X84696617Y-89832215D01*
X84703570Y-89838394D01*
X84706268Y-89841092D01*
X84708930Y-89842994D01*
X84721955Y-89852302D01*
X84724932Y-89854537D01*
X84763928Y-89885279D01*
X84770095Y-89887445D01*
X84770519Y-89887678D01*
X84771376Y-89888217D01*
X84772533Y-89888819D01*
X84773463Y-89889208D01*
X84773901Y-89889423D01*
X84779211Y-89893217D01*
X84785462Y-89895087D01*
X84785463Y-89895087D01*
X84826781Y-89907444D01*
X84830286Y-89908583D01*
X84877164Y-89925045D01*
X84882441Y-89925502D01*
X84884010Y-89925502D01*
X84888409Y-89925875D01*
X84894194Y-89927605D01*
X84900714Y-89927349D01*
X84900716Y-89927349D01*
X84946165Y-89925563D01*
X84949267Y-89925502D01*
X92809670Y-89925502D01*
X92860450Y-89943984D01*
X92877243Y-89963577D01*
X92918653Y-90031953D01*
X93029111Y-90146336D01*
X93051091Y-90195702D01*
X93036195Y-90247648D01*
X93027556Y-90257656D01*
X92931928Y-90351302D01*
X92839503Y-90494717D01*
X92781149Y-90655045D01*
X92759765Y-90824317D01*
X92776414Y-90994119D01*
X92777806Y-90998304D01*
X92777807Y-90998308D01*
X92816704Y-91115237D01*
X92830269Y-91156014D01*
X92835339Y-91164386D01*
X92908832Y-91285736D01*
X92918653Y-91301953D01*
X93029111Y-91416336D01*
X93051091Y-91465702D01*
X93036195Y-91517648D01*
X93027556Y-91527656D01*
X92992644Y-91561845D01*
X92931928Y-91621302D01*
X92839503Y-91764717D01*
X92781149Y-91925045D01*
X92779835Y-91935448D01*
X92762926Y-92069298D01*
X92759765Y-92094317D01*
X92762296Y-92120129D01*
X92772179Y-92220922D01*
X92776414Y-92264119D01*
X92777806Y-92268304D01*
X92777807Y-92268308D01*
X92793956Y-92316852D01*
X92830269Y-92426014D01*
X92832554Y-92429787D01*
X92905729Y-92550613D01*
X92916225Y-92603623D01*
X92890192Y-92650978D01*
X92882052Y-92657218D01*
X92837192Y-92687192D01*
X92832871Y-92693659D01*
X92829707Y-92698394D01*
X92786127Y-92730346D01*
X92764022Y-92733502D01*
X92059311Y-92733502D01*
X92050446Y-92732523D01*
X92050417Y-92732825D01*
X92045471Y-92732357D01*
X92040620Y-92731273D01*
X92035654Y-92731429D01*
X92035653Y-92731429D01*
X91970932Y-92733463D01*
X91968451Y-92733502D01*
X91939407Y-92733502D01*
X91936949Y-92733813D01*
X91936942Y-92733813D01*
X91933072Y-92734302D01*
X91925652Y-92734886D01*
X91906866Y-92735476D01*
X91878619Y-92736364D01*
X91873845Y-92737751D01*
X91873844Y-92737751D01*
X91855250Y-92743153D01*
X91843114Y-92745666D01*
X91818967Y-92748717D01*
X91775192Y-92766049D01*
X91768176Y-92768451D01*
X91722974Y-92781583D01*
X91702021Y-92793975D01*
X91690902Y-92799422D01*
X91668269Y-92808383D01*
X91664248Y-92811305D01*
X91664247Y-92811305D01*
X91630195Y-92836045D01*
X91623976Y-92840130D01*
X91587744Y-92861558D01*
X91587742Y-92861560D01*
X91583465Y-92864089D01*
X91566258Y-92881296D01*
X91556831Y-92889347D01*
X91537143Y-92903652D01*
X91533977Y-92907479D01*
X91507140Y-92939919D01*
X91502131Y-92945423D01*
X84027642Y-100419912D01*
X84020677Y-100425492D01*
X84020870Y-100425726D01*
X84017041Y-100428893D01*
X84012844Y-100431557D01*
X84009442Y-100435180D01*
X83965088Y-100482412D01*
X83963360Y-100484194D01*
X83942852Y-100504702D01*
X83941328Y-100506667D01*
X83938940Y-100509745D01*
X83934113Y-100515397D01*
X83901892Y-100549709D01*
X83890165Y-100571040D01*
X83883369Y-100581387D01*
X83868447Y-100600625D01*
X83866474Y-100605185D01*
X83849759Y-100643809D01*
X83846485Y-100650491D01*
X83826206Y-100687380D01*
X83823809Y-100691741D01*
X83822573Y-100696556D01*
X83817758Y-100715310D01*
X83813742Y-100727039D01*
X83807761Y-100740860D01*
X83804077Y-100749374D01*
X83803300Y-100754281D01*
X83796715Y-100795856D01*
X83795206Y-100803142D01*
X83784930Y-100843168D01*
X83783502Y-100848730D01*
X83783502Y-100873071D01*
X83782529Y-100885428D01*
X83778723Y-100909460D01*
X83779191Y-100914411D01*
X83783151Y-100956307D01*
X83783502Y-100963741D01*
X83783502Y-101460013D01*
X83765020Y-101510793D01*
X83718220Y-101537813D01*
X83704502Y-101539013D01*
X80553953Y-101539013D01*
X80503173Y-101520531D01*
X80498092Y-101515874D01*
X73114641Y-94132423D01*
X73091803Y-94083447D01*
X73091502Y-94076562D01*
X73091502Y-81998442D01*
X73109984Y-81947662D01*
X73114641Y-81942581D01*
X73692581Y-81364641D01*
X73741557Y-81341803D01*
X73748442Y-81341502D01*
X76395455Y-81341502D01*
X76404326Y-81342481D01*
X76404354Y-81342180D01*
X76409302Y-81342648D01*
X76414152Y-81343732D01*
X76419118Y-81343576D01*
X76419119Y-81343576D01*
X76483858Y-81341541D01*
X76486340Y-81341502D01*
X76515365Y-81341502D01*
X76518602Y-81341093D01*
X76521703Y-81340702D01*
X76529116Y-81340119D01*
X76551219Y-81339424D01*
X76576153Y-81338640D01*
X76580923Y-81337254D01*
X76580930Y-81337253D01*
X76599524Y-81331851D01*
X76611661Y-81329337D01*
X76630874Y-81326910D01*
X76630875Y-81326910D01*
X76635805Y-81326287D01*
X76679560Y-81308963D01*
X76686598Y-81306554D01*
X76727021Y-81294810D01*
X76727022Y-81294810D01*
X76731798Y-81293422D01*
X76752756Y-81281027D01*
X76763875Y-81275580D01*
X76786503Y-81266621D01*
X76824590Y-81238949D01*
X76830780Y-81234883D01*
X76871307Y-81210915D01*
X76888514Y-81193708D01*
X76897940Y-81185657D01*
X76913610Y-81174272D01*
X76917629Y-81171352D01*
X76947632Y-81135085D01*
X76952641Y-81129581D01*
X77657152Y-80425070D01*
X77686718Y-80386954D01*
X77728510Y-80333077D01*
X77728512Y-80333073D01*
X77731557Y-80329148D01*
X77795926Y-80180398D01*
X77821281Y-80020313D01*
X77806029Y-79858951D01*
X77751125Y-79706453D01*
X77660022Y-79572399D01*
X77538444Y-79465213D01*
X77394029Y-79391630D01*
X77328889Y-79377069D01*
X77240703Y-79357357D01*
X77240700Y-79357357D01*
X77235852Y-79356273D01*
X77230886Y-79356429D01*
X77230885Y-79356429D01*
X77154851Y-79358819D01*
X77073851Y-79361364D01*
X76918206Y-79406583D01*
X76913926Y-79409114D01*
X76913924Y-79409115D01*
X76782980Y-79486556D01*
X76778697Y-79489089D01*
X76232423Y-80035363D01*
X76183447Y-80058201D01*
X76176562Y-80058502D01*
X73529549Y-80058502D01*
X73520678Y-80057523D01*
X73520650Y-80057824D01*
X73515702Y-80057356D01*
X73510852Y-80056272D01*
X73505886Y-80056428D01*
X73441132Y-80058463D01*
X73438651Y-80058502D01*
X73409639Y-80058502D01*
X73407180Y-80058813D01*
X73407176Y-80058813D01*
X73403312Y-80059301D01*
X73395891Y-80059885D01*
X73356577Y-80061120D01*
X73348851Y-80061363D01*
X73326405Y-80067884D01*
X73325479Y-80068153D01*
X73313341Y-80070667D01*
X73289199Y-80073717D01*
X73245432Y-80091046D01*
X73238409Y-80093450D01*
X73193207Y-80106582D01*
X73172256Y-80118973D01*
X73161127Y-80124425D01*
X73138501Y-80133383D01*
X73134483Y-80136302D01*
X73134478Y-80136305D01*
X73100422Y-80161048D01*
X73094208Y-80165130D01*
X73053697Y-80189089D01*
X73036490Y-80206296D01*
X73027063Y-80214347D01*
X73007375Y-80228652D01*
X73004209Y-80232479D01*
X72977372Y-80264919D01*
X72972363Y-80270423D01*
X72145363Y-81097423D01*
X72096387Y-81120261D01*
X72044189Y-81106275D01*
X72013194Y-81062009D01*
X72010502Y-81041562D01*
X72010502Y-76327449D01*
X72028984Y-76276669D01*
X72075784Y-76249649D01*
X72089105Y-76248450D01*
X74382667Y-76236911D01*
X76645606Y-76225527D01*
X76696477Y-76243754D01*
G37*
G04 #@! TD.AperFunction*
G04 #@! TA.AperFunction,Conductor*
G36*
X72129002Y-94965026D02*
G01*
X72145363Y-94977581D01*
X79745655Y-102577873D01*
X79751235Y-102584838D01*
X79751469Y-102584645D01*
X79754637Y-102588474D01*
X79757300Y-102592671D01*
X79760922Y-102596073D01*
X79760926Y-102596077D01*
X79768206Y-102602913D01*
X79792572Y-102651147D01*
X79780233Y-102703758D01*
X79736963Y-102736130D01*
X79714128Y-102739502D01*
X72089502Y-102739502D01*
X72038722Y-102721020D01*
X72011702Y-102674220D01*
X72010502Y-102660502D01*
X72010502Y-95033442D01*
X72028984Y-94982662D01*
X72075784Y-94955642D01*
X72129002Y-94965026D01*
G37*
G04 #@! TD.AperFunction*
M02*
