G04 #@! TF.GenerationSoftware,KiCad,Pcbnew,6.0.4-6f826c9f35~116~ubuntu20.04.1*
G04 #@! TF.CreationDate,2022-04-01T21:21:36+11:00*
G04 #@! TF.ProjectId,panel,70616e65-6c2e-46b6-9963-61645f706362,rev?*
G04 #@! TF.SameCoordinates,Original*
G04 #@! TF.FileFunction,Paste,Top*
G04 #@! TF.FilePolarity,Positive*
%FSLAX46Y46*%
G04 Gerber Fmt 4.6, Leading zero omitted, Abs format (unit mm)*
G04 Created by KiCad (PCBNEW 6.0.4-6f826c9f35~116~ubuntu20.04.1) date 2022-04-01 21:21:36*
%MOMM*%
%LPD*%
G01*
G04 APERTURE LIST*
G04 Aperture macros list*
%AMRoundRect*
0 Rectangle with rounded corners*
0 $1 Rounding radius*
0 $2 $3 $4 $5 $6 $7 $8 $9 X,Y pos of 4 corners*
0 Add a 4 corners polygon primitive as box body*
4,1,4,$2,$3,$4,$5,$6,$7,$8,$9,$2,$3,0*
0 Add four circle primitives for the rounded corners*
1,1,$1+$1,$2,$3*
1,1,$1+$1,$4,$5*
1,1,$1+$1,$6,$7*
1,1,$1+$1,$8,$9*
0 Add four rect primitives between the rounded corners*
20,1,$1+$1,$2,$3,$4,$5,0*
20,1,$1+$1,$4,$5,$6,$7,0*
20,1,$1+$1,$6,$7,$8,$9,0*
20,1,$1+$1,$8,$9,$2,$3,0*%
G04 Aperture macros list end*
%ADD10RoundRect,0.250000X0.475000X-0.337500X0.475000X0.337500X-0.475000X0.337500X-0.475000X-0.337500X0*%
%ADD11RoundRect,0.250000X-0.450000X0.350000X-0.450000X-0.350000X0.450000X-0.350000X0.450000X0.350000X0*%
%ADD12R,3.000000X0.350000*%
%ADD13R,1.500000X0.900000*%
%ADD14R,0.900000X1.500000*%
%ADD15R,0.900000X0.900000*%
%ADD16RoundRect,0.150000X-0.587500X-0.150000X0.587500X-0.150000X0.587500X0.150000X-0.587500X0.150000X0*%
%ADD17R,1.450000X0.600000*%
%ADD18R,1.450000X0.300000*%
%ADD19RoundRect,0.250000X0.450000X-0.350000X0.450000X0.350000X-0.450000X0.350000X-0.450000X-0.350000X0*%
%ADD20RoundRect,0.250000X-0.475000X0.337500X-0.475000X-0.337500X0.475000X-0.337500X0.475000X0.337500X0*%
%ADD21R,1.500000X2.000000*%
%ADD22R,3.800000X2.000000*%
%ADD23RoundRect,0.250000X-0.350000X-0.450000X0.350000X-0.450000X0.350000X0.450000X-0.350000X0.450000X0*%
%ADD24R,1.500000X1.000000*%
%ADD25RoundRect,0.250000X-0.337500X-0.475000X0.337500X-0.475000X0.337500X0.475000X-0.337500X0.475000X0*%
G04 APERTURE END LIST*
D10*
X60174999Y-81687502D03*
X60174999Y-79612502D03*
D11*
X39874999Y-62324999D03*
X39874999Y-64324999D03*
D12*
X36124999Y-90900002D03*
X36124999Y-90200002D03*
X36124999Y-89500002D03*
X36124999Y-88800002D03*
X36124999Y-88100002D03*
X36124999Y-87400002D03*
X36124999Y-86700002D03*
X36124999Y-86000002D03*
X36124999Y-85300002D03*
X36124999Y-84600002D03*
X36124999Y-83900002D03*
X36124999Y-83200002D03*
D13*
X40299999Y-78740002D03*
X40299999Y-80010002D03*
X40299999Y-81280002D03*
X40299999Y-82550002D03*
X40299999Y-83820002D03*
X40299999Y-85090002D03*
X40299999Y-86360002D03*
X40299999Y-87630002D03*
X40299999Y-88900002D03*
X40299999Y-90170002D03*
X40299999Y-91440002D03*
X40299999Y-92710002D03*
X40299999Y-93980002D03*
X40299999Y-95250002D03*
D14*
X42064999Y-96500002D03*
X43334999Y-96500002D03*
X44604999Y-96500002D03*
X45874999Y-96500002D03*
X47144999Y-96500002D03*
X48414999Y-96500002D03*
X49684999Y-96500002D03*
X50954999Y-96500002D03*
X52224999Y-96500002D03*
X53494999Y-96500002D03*
X54764999Y-96500002D03*
X56034999Y-96500002D03*
D13*
X57799999Y-95250002D03*
X57799999Y-93980002D03*
X57799999Y-92710002D03*
X57799999Y-91440002D03*
X57799999Y-90170002D03*
X57799999Y-88900002D03*
X57799999Y-87630002D03*
X57799999Y-86360002D03*
X57799999Y-85090002D03*
X57799999Y-83820002D03*
X57799999Y-82550002D03*
X57799999Y-81280002D03*
X57799999Y-80010002D03*
X57799999Y-78740002D03*
D15*
X48949999Y-86460002D03*
X48949999Y-85060002D03*
X46149999Y-87860002D03*
X46149999Y-86460002D03*
X46149999Y-85060002D03*
X48949999Y-87860002D03*
X47549999Y-86460002D03*
X47549999Y-85060002D03*
X47549999Y-87860002D03*
D16*
X74037502Y-99400002D03*
X74037502Y-101300002D03*
X75912502Y-100350002D03*
D17*
X98705002Y-54224999D03*
X98705002Y-53424999D03*
D18*
X98705002Y-52224999D03*
X98705002Y-51224999D03*
X98705002Y-50724999D03*
X98705002Y-49724999D03*
D17*
X98705002Y-48524999D03*
X98705002Y-47724999D03*
X98705002Y-47724999D03*
X98705002Y-48524999D03*
D18*
X98705002Y-49224999D03*
X98705002Y-50224999D03*
X98705002Y-51724999D03*
X98705002Y-52724999D03*
D17*
X98705002Y-53424999D03*
X98705002Y-54224999D03*
D16*
X35537499Y-62399999D03*
X35537499Y-64299999D03*
X37412499Y-63349999D03*
D13*
X78800002Y-41739999D03*
X78800002Y-43009999D03*
X78800002Y-44279999D03*
X78800002Y-45549999D03*
X78800002Y-46819999D03*
X78800002Y-48089999D03*
X78800002Y-49359999D03*
X78800002Y-50629999D03*
X78800002Y-51899999D03*
X78800002Y-53169999D03*
X78800002Y-54439999D03*
X78800002Y-55709999D03*
X78800002Y-56979999D03*
X78800002Y-58249999D03*
D14*
X80565002Y-59499999D03*
X81835002Y-59499999D03*
X83105002Y-59499999D03*
X84375002Y-59499999D03*
X85645002Y-59499999D03*
X86915002Y-59499999D03*
X88185002Y-59499999D03*
X89455002Y-59499999D03*
X90725002Y-59499999D03*
X91995002Y-59499999D03*
X93265002Y-59499999D03*
X94535002Y-59499999D03*
D13*
X96300002Y-58249999D03*
X96300002Y-56979999D03*
X96300002Y-55709999D03*
X96300002Y-54439999D03*
X96300002Y-53169999D03*
X96300002Y-51899999D03*
X96300002Y-50629999D03*
X96300002Y-49359999D03*
X96300002Y-48089999D03*
X96300002Y-46819999D03*
X96300002Y-45549999D03*
X96300002Y-44279999D03*
X96300002Y-43009999D03*
X96300002Y-41739999D03*
D15*
X86050002Y-49459999D03*
X87450002Y-50859999D03*
X87450002Y-49459999D03*
X84650002Y-48059999D03*
X84650002Y-49459999D03*
X86050002Y-50859999D03*
X84650002Y-50859999D03*
X87450002Y-48059999D03*
X86050002Y-48059999D03*
D19*
X37449999Y-97625002D03*
X37449999Y-95625002D03*
D13*
X78800002Y-78740002D03*
X78800002Y-80010002D03*
X78800002Y-81280002D03*
X78800002Y-82550002D03*
X78800002Y-83820002D03*
X78800002Y-85090002D03*
X78800002Y-86360002D03*
X78800002Y-87630002D03*
X78800002Y-88900002D03*
X78800002Y-90170002D03*
X78800002Y-91440002D03*
X78800002Y-92710002D03*
X78800002Y-93980002D03*
X78800002Y-95250002D03*
D14*
X80565002Y-96500002D03*
X81835002Y-96500002D03*
X83105002Y-96500002D03*
X84375002Y-96500002D03*
X85645002Y-96500002D03*
X86915002Y-96500002D03*
X88185002Y-96500002D03*
X89455002Y-96500002D03*
X90725002Y-96500002D03*
X91995002Y-96500002D03*
X93265002Y-96500002D03*
X94535002Y-96500002D03*
D13*
X96300002Y-95250002D03*
X96300002Y-93980002D03*
X96300002Y-92710002D03*
X96300002Y-91440002D03*
X96300002Y-90170002D03*
X96300002Y-88900002D03*
X96300002Y-87630002D03*
X96300002Y-86360002D03*
X96300002Y-85090002D03*
X96300002Y-83820002D03*
X96300002Y-82550002D03*
X96300002Y-81280002D03*
X96300002Y-80010002D03*
X96300002Y-78740002D03*
D15*
X86050002Y-87860002D03*
X87450002Y-87860002D03*
X86050002Y-86460002D03*
X86050002Y-85060002D03*
X84650002Y-86460002D03*
X87450002Y-86460002D03*
X87450002Y-85060002D03*
X84650002Y-85060002D03*
X84650002Y-87860002D03*
D12*
X36124999Y-53899999D03*
X36124999Y-53199999D03*
X36124999Y-52499999D03*
X36124999Y-51799999D03*
X36124999Y-51099999D03*
X36124999Y-50399999D03*
X36124999Y-49699999D03*
X36124999Y-48999999D03*
X36124999Y-48299999D03*
X36124999Y-47599999D03*
X36124999Y-46899999D03*
X36124999Y-46199999D03*
D20*
X57799999Y-61599999D03*
X57799999Y-63674999D03*
D19*
X75950002Y-97625002D03*
X75950002Y-95625002D03*
D10*
X55599999Y-100712502D03*
X55599999Y-98637502D03*
D16*
X74037502Y-62399999D03*
X74037502Y-64299999D03*
X75912502Y-63349999D03*
D10*
X82750002Y-101887502D03*
X82750002Y-99812502D03*
X94100002Y-63712499D03*
X94100002Y-61637499D03*
D11*
X35174999Y-58649999D03*
X35174999Y-60649999D03*
D21*
X103625002Y-95100002D03*
X101325002Y-95100002D03*
D22*
X101325002Y-101400002D03*
D21*
X99025002Y-95100002D03*
D19*
X63074999Y-81575002D03*
X63074999Y-79575002D03*
D23*
X73575002Y-44724999D03*
X75575002Y-44724999D03*
D17*
X98705002Y-91225002D03*
X98705002Y-90425002D03*
D18*
X98705002Y-89225002D03*
X98705002Y-88225002D03*
X98705002Y-87725002D03*
X98705002Y-86725002D03*
D17*
X98705002Y-85525002D03*
X98705002Y-84725002D03*
X98705002Y-84725002D03*
X98705002Y-85525002D03*
D18*
X98705002Y-86225002D03*
X98705002Y-87225002D03*
X98705002Y-88725002D03*
X98705002Y-89725002D03*
D17*
X98705002Y-90425002D03*
X98705002Y-91225002D03*
D19*
X75950002Y-60624999D03*
X75950002Y-58624999D03*
D21*
X103625002Y-58099999D03*
X101325002Y-58099999D03*
D22*
X101325002Y-64399999D03*
D21*
X99025002Y-58099999D03*
D10*
X82750002Y-64887499D03*
X82750002Y-62812499D03*
D20*
X96300002Y-98600002D03*
X96300002Y-100675002D03*
D11*
X78375002Y-99325002D03*
X78375002Y-101325002D03*
D24*
X48474999Y-98825002D03*
X48474999Y-102025002D03*
X53374999Y-102025002D03*
X53374999Y-98825002D03*
D19*
X101575002Y-44574999D03*
X101575002Y-42574999D03*
D10*
X98675002Y-44687499D03*
X98675002Y-42612499D03*
D19*
X63074999Y-44574999D03*
X63074999Y-42574999D03*
D23*
X35074999Y-44724999D03*
X37074999Y-44724999D03*
D10*
X42099999Y-64837499D03*
X42099999Y-62762499D03*
X80600002Y-64837499D03*
X80600002Y-62762499D03*
X44249999Y-64887499D03*
X44249999Y-62812499D03*
X60174999Y-44687499D03*
X60174999Y-42612499D03*
D19*
X65199999Y-44574999D03*
X65199999Y-42574999D03*
D23*
X35074999Y-81725002D03*
X37074999Y-81725002D03*
D10*
X37074999Y-79712502D03*
X37074999Y-77637502D03*
X73450002Y-42737499D03*
X73450002Y-40662499D03*
D19*
X103700002Y-81575002D03*
X103700002Y-79575002D03*
D24*
X86975002Y-98825002D03*
X86975002Y-102025002D03*
X91875002Y-102025002D03*
X91875002Y-98825002D03*
D25*
X35087499Y-55399999D03*
X37162499Y-55399999D03*
D19*
X103700002Y-44574999D03*
X103700002Y-42574999D03*
D17*
X60204999Y-54224999D03*
X60204999Y-53424999D03*
D18*
X60204999Y-52224999D03*
X60204999Y-51224999D03*
X60204999Y-50724999D03*
X60204999Y-49724999D03*
D17*
X60204999Y-48524999D03*
X60204999Y-47724999D03*
X60204999Y-47724999D03*
X60204999Y-48524999D03*
D18*
X60204999Y-49224999D03*
X60204999Y-50224999D03*
X60204999Y-51724999D03*
X60204999Y-52724999D03*
D17*
X60204999Y-53424999D03*
X60204999Y-54224999D03*
D25*
X35087499Y-92400002D03*
X37162499Y-92400002D03*
D10*
X44249999Y-101887502D03*
X44249999Y-99812502D03*
X34949999Y-42737499D03*
X34949999Y-40662499D03*
X42099999Y-101837502D03*
X42099999Y-99762502D03*
D11*
X35174999Y-95650002D03*
X35174999Y-97650002D03*
D25*
X73587502Y-92400002D03*
X75662502Y-92400002D03*
D21*
X65124999Y-95100002D03*
X62824999Y-95100002D03*
D22*
X62824999Y-101400002D03*
D21*
X60524999Y-95100002D03*
D23*
X73575002Y-81725002D03*
X75575002Y-81725002D03*
D11*
X73675002Y-95650002D03*
X73675002Y-97650002D03*
D10*
X80600002Y-101837502D03*
X80600002Y-99762502D03*
D11*
X78375002Y-62324999D03*
X78375002Y-64324999D03*
D17*
X60204999Y-91225002D03*
X60204999Y-90425002D03*
D18*
X60204999Y-89225002D03*
X60204999Y-88225002D03*
X60204999Y-87725002D03*
X60204999Y-86725002D03*
D17*
X60204999Y-85525002D03*
X60204999Y-84725002D03*
X60204999Y-84725002D03*
X60204999Y-85525002D03*
D18*
X60204999Y-86225002D03*
X60204999Y-87225002D03*
X60204999Y-88725002D03*
X60204999Y-89725002D03*
D17*
X60204999Y-90425002D03*
X60204999Y-91225002D03*
D19*
X37449999Y-60624999D03*
X37449999Y-58624999D03*
D12*
X74625002Y-53899999D03*
X74625002Y-53199999D03*
X74625002Y-52499999D03*
X74625002Y-51799999D03*
X74625002Y-51099999D03*
X74625002Y-50399999D03*
X74625002Y-49699999D03*
X74625002Y-48999999D03*
X74625002Y-48299999D03*
X74625002Y-47599999D03*
X74625002Y-46899999D03*
X74625002Y-46199999D03*
D10*
X34949999Y-79737502D03*
X34949999Y-77662502D03*
X37074999Y-42712499D03*
X37074999Y-40637499D03*
D16*
X35537499Y-99400002D03*
X35537499Y-101300002D03*
X37412499Y-100350002D03*
D10*
X75575002Y-42712499D03*
X75575002Y-40637499D03*
X94100002Y-100712502D03*
X94100002Y-98637502D03*
D20*
X57799999Y-98600002D03*
X57799999Y-100675002D03*
D10*
X55599999Y-63712499D03*
X55599999Y-61637499D03*
D21*
X65124999Y-58099999D03*
D22*
X62824999Y-64399999D03*
D21*
X62824999Y-58099999D03*
X60524999Y-58099999D03*
D11*
X39874999Y-99325002D03*
X39874999Y-101325002D03*
D12*
X74625002Y-90900002D03*
X74625002Y-90200002D03*
X74625002Y-89500002D03*
X74625002Y-88800002D03*
X74625002Y-88100002D03*
X74625002Y-87400002D03*
X74625002Y-86700002D03*
X74625002Y-86000002D03*
X74625002Y-85300002D03*
X74625002Y-84600002D03*
X74625002Y-83900002D03*
X74625002Y-83200002D03*
D24*
X48474999Y-61824999D03*
X48474999Y-65024999D03*
X53374999Y-65024999D03*
X53374999Y-61824999D03*
D13*
X40299999Y-41739999D03*
X40299999Y-43009999D03*
X40299999Y-44279999D03*
X40299999Y-45549999D03*
X40299999Y-46819999D03*
X40299999Y-48089999D03*
X40299999Y-49359999D03*
X40299999Y-50629999D03*
X40299999Y-51899999D03*
X40299999Y-53169999D03*
X40299999Y-54439999D03*
X40299999Y-55709999D03*
X40299999Y-56979999D03*
X40299999Y-58249999D03*
D14*
X42064999Y-59499999D03*
X43334999Y-59499999D03*
X44604999Y-59499999D03*
X45874999Y-59499999D03*
X47144999Y-59499999D03*
X48414999Y-59499999D03*
X49684999Y-59499999D03*
X50954999Y-59499999D03*
X52224999Y-59499999D03*
X53494999Y-59499999D03*
X54764999Y-59499999D03*
X56034999Y-59499999D03*
D13*
X57799999Y-58249999D03*
X57799999Y-56979999D03*
X57799999Y-55709999D03*
X57799999Y-54439999D03*
X57799999Y-53169999D03*
X57799999Y-51899999D03*
X57799999Y-50629999D03*
X57799999Y-49359999D03*
X57799999Y-48089999D03*
X57799999Y-46819999D03*
X57799999Y-45549999D03*
X57799999Y-44279999D03*
X57799999Y-43009999D03*
X57799999Y-41739999D03*
D15*
X48949999Y-49459999D03*
X47549999Y-49459999D03*
X48949999Y-50859999D03*
X47549999Y-48059999D03*
X47549999Y-50859999D03*
X48949999Y-48059999D03*
X46149999Y-50859999D03*
X46149999Y-48059999D03*
X46149999Y-49459999D03*
D19*
X101575002Y-81575002D03*
X101575002Y-79575002D03*
D10*
X73450002Y-79737502D03*
X73450002Y-77662502D03*
D20*
X96300002Y-61599999D03*
X96300002Y-63674999D03*
D24*
X86975002Y-61824999D03*
X86975002Y-65024999D03*
X91875002Y-65024999D03*
X91875002Y-61824999D03*
D11*
X73675002Y-58649999D03*
X73675002Y-60649999D03*
D19*
X65199999Y-81575002D03*
X65199999Y-79575002D03*
D10*
X75575002Y-79712502D03*
X75575002Y-77637502D03*
D25*
X73587502Y-55399999D03*
X75662502Y-55399999D03*
D10*
X98675002Y-81687502D03*
X98675002Y-79612502D03*
M02*
