%FSLAX45Y45*%
G04 Gerber Fmt 4.5, Leading zero omitted, Abs format (unit mm)*
G04 Created by KiCad (PCBNEW 6.0.4-6f826c9f35~116~ubuntu20.04.1) date 2022-04-01 21:22:03*
%MOMM*%
%LPD*%
G01*
G04 APERTURE LIST*
%TA.AperFunction,Profile*%
%ADD10C,0.400000*%
%TD*%
%TA.AperFunction,Profile*%
%ADD11C,0.100000*%
%TD*%
%ADD12C,0.400000*%
%ADD13C,0.200000*%
%ADD14C,0.065000*%
%ADD15C,0.300000*%
G04 APERTURE END LIST*
D10*
X3024900Y-10300000D02*
X10825100Y-10300000D01*
X7175000Y-1900200D02*
X7175000Y-11799800D01*
X3024900Y-6600000D02*
X10825100Y-6600000D01*
X3024900Y-3400000D02*
X10825100Y-3400000D01*
X6675000Y-1900200D02*
X6675000Y-11799800D01*
X3024900Y-7100000D02*
X10825100Y-7100000D01*
D11*
X4591700Y-3399900D02*
X4591700Y-3200200D01*
X4291700Y-10300100D02*
X4291700Y-10499800D01*
X7174923Y-3399936D02*
X7174900Y-4316700D01*
X9558300Y-10499800D02*
X9558300Y-10300100D01*
X8141700Y-7099900D02*
X7174917Y-7099944D01*
X8141700Y-10499800D02*
X5708300Y-10499800D01*
X10525100Y-10499800D02*
X9558300Y-10499800D01*
X8441700Y-6600100D02*
X9258300Y-6600100D01*
X8441700Y-10300100D02*
X9258300Y-10300100D01*
X9258300Y-3200200D02*
X9258300Y-3399900D01*
X9258300Y-6850000D02*
X9258300Y-7099900D01*
X9558300Y-10300100D02*
X10525100Y-10300010D01*
X9258300Y-3399900D02*
X8441700Y-3399900D01*
X4591700Y-10499800D02*
X4591700Y-10300100D01*
X7174944Y-6600083D02*
X8141700Y-6600100D01*
X7174900Y-5383300D02*
X6675100Y-5383300D01*
X3324900Y-2200200D02*
X3324900Y-3200200D01*
X10525100Y-2200200D02*
X3324900Y-2200200D01*
X3324904Y-6600029D02*
X4291700Y-6600100D01*
X7174900Y-8016700D02*
X6675100Y-8016700D01*
X6675100Y-4316700D02*
X6675055Y-3399917D01*
X8141700Y-3399900D02*
X7174923Y-3399936D01*
X8441700Y-3200200D02*
X9258300Y-3200200D01*
X4291700Y-7099900D02*
X3324904Y-7099971D01*
X9558300Y-3399900D02*
X9558300Y-3200200D01*
X3324900Y-10300010D02*
X4291700Y-10300100D01*
X7174900Y-4616700D02*
X7174900Y-5383300D01*
X10525096Y-7099971D02*
X9558300Y-7099900D01*
X7174900Y-8316700D02*
X7174900Y-9083300D01*
X4591700Y-6600100D02*
X5408300Y-6600100D01*
X9258300Y-7099900D02*
X8441700Y-7099900D01*
X3324900Y-10499800D02*
X3324900Y-11499800D01*
X6675100Y-5383300D02*
X6675100Y-4616700D01*
X6675100Y-8316700D02*
X7174900Y-8316700D01*
X7174923Y-10300063D02*
X8141700Y-10300100D01*
X7174900Y-9383300D02*
X7174923Y-10300063D01*
X4291700Y-3399900D02*
X3324900Y-3399990D01*
X5708300Y-7099900D02*
X5708300Y-6600100D01*
X6675098Y-7099980D02*
X5708300Y-7099900D01*
X6675100Y-8016700D02*
X6675098Y-7099980D01*
X6675100Y-5683300D02*
X7174900Y-5683300D01*
X4591700Y-7099900D02*
X4591700Y-6600100D01*
X5708300Y-10499800D02*
X5708300Y-10300100D01*
X6675000Y-10300100D02*
X6675100Y-9383300D01*
X5408300Y-3399900D02*
X4591700Y-3399900D01*
X7174900Y-9083300D02*
X6675100Y-9083300D01*
X5408300Y-10300100D02*
X5408300Y-10499800D01*
X3324900Y-3200200D02*
X4291700Y-3200200D01*
X5408300Y-3200200D02*
X5408300Y-3399900D01*
X8141700Y-3200200D02*
X8141700Y-3399900D01*
X4291700Y-6600100D02*
X4291700Y-7099900D01*
X10525100Y-10300010D02*
X10525096Y-7099971D01*
X9558300Y-3200200D02*
X10525100Y-3200200D01*
X6675055Y-3399917D02*
X5708300Y-3399900D01*
X5408300Y-7099900D02*
X4591700Y-7099900D01*
X9258300Y-10499800D02*
X8441700Y-10499800D01*
X8441700Y-7099900D02*
X8441700Y-6600100D01*
X9558300Y-7099900D02*
X9558300Y-6600100D01*
X10525100Y-11499800D02*
X10525100Y-10499800D01*
X10525100Y-3399990D02*
X9558300Y-3399900D01*
X8441700Y-10499800D02*
X8441700Y-10300100D01*
X7174900Y-5683300D02*
X7174944Y-6600083D01*
X4591700Y-3200200D02*
X5408300Y-3200200D01*
X6675100Y-4616700D02*
X7174900Y-4616700D01*
X5708300Y-6600100D02*
X6675071Y-6600071D01*
X7174917Y-7099944D02*
X7174900Y-8016700D01*
X6675100Y-9083300D02*
X6675100Y-8316700D01*
X10525100Y-3200200D02*
X10525100Y-2200200D01*
X4291700Y-3200200D02*
X4291700Y-3399900D01*
X9558300Y-6600100D02*
X10525096Y-6600029D01*
X9258300Y-6600100D02*
X9258300Y-6850000D01*
X5708300Y-10300100D02*
X6675000Y-10300100D01*
X3324904Y-7099971D02*
X3324900Y-10300010D01*
X3324900Y-11499800D02*
X10525100Y-11499800D01*
X8441700Y-3399900D02*
X8441700Y-3200200D01*
X6675071Y-6600071D02*
X6675100Y-5683300D01*
X3324900Y-3399990D02*
X3324904Y-6600029D01*
X10525096Y-6600029D02*
X10525100Y-3399990D01*
X5408300Y-6600100D02*
X5408300Y-7099900D01*
X8141700Y-6600100D02*
X8141700Y-7099900D01*
X8141700Y-10300100D02*
X8141700Y-10499800D01*
X5408300Y-10499800D02*
X4591700Y-10499800D01*
X5708300Y-3200200D02*
X8141700Y-3200200D01*
X6675100Y-9383300D02*
X7174900Y-9383300D01*
X4291700Y-10499800D02*
X3324900Y-10499800D01*
X9258300Y-10300100D02*
X9258300Y-10499800D01*
X5708300Y-3399900D02*
X5708300Y-3200200D01*
X7174900Y-4316700D02*
X6675100Y-4316700D01*
X4591700Y-10300100D02*
X5408300Y-10300100D01*
D12*
X11170148Y-6490476D02*
X11236814Y-6690476D01*
X11303481Y-6490476D01*
X11370148Y-6614286D02*
X11522528Y-6614286D01*
X11732052Y-6671428D02*
X11722528Y-6680952D01*
X11693957Y-6690476D01*
X11674909Y-6690476D01*
X11646338Y-6680952D01*
X11627290Y-6661905D01*
X11617767Y-6642857D01*
X11608243Y-6604762D01*
X11608243Y-6576190D01*
X11617767Y-6538095D01*
X11627290Y-6519048D01*
X11646338Y-6500000D01*
X11674909Y-6490476D01*
X11693957Y-6490476D01*
X11722528Y-6500000D01*
X11732052Y-6509524D01*
X11817767Y-6490476D02*
X11817767Y-6652381D01*
X11827290Y-6671428D01*
X11836814Y-6680952D01*
X11855862Y-6690476D01*
X11893957Y-6690476D01*
X11913005Y-6680952D01*
X11922528Y-6671428D01*
X11932052Y-6652381D01*
X11932052Y-6490476D01*
X11998719Y-6490476D02*
X12113005Y-6490476D01*
X12055862Y-6690476D02*
X12055862Y-6490476D01*
X11170148Y-3290476D02*
X11236814Y-3490476D01*
X11303481Y-3290476D01*
X11370148Y-3414286D02*
X11522528Y-3414286D01*
X11732052Y-3471428D02*
X11722528Y-3480952D01*
X11693957Y-3490476D01*
X11674909Y-3490476D01*
X11646338Y-3480952D01*
X11627290Y-3461905D01*
X11617767Y-3442857D01*
X11608243Y-3404762D01*
X11608243Y-3376190D01*
X11617767Y-3338095D01*
X11627290Y-3319048D01*
X11646338Y-3300000D01*
X11674909Y-3290476D01*
X11693957Y-3290476D01*
X11722528Y-3300000D01*
X11732052Y-3309524D01*
X11817767Y-3290476D02*
X11817767Y-3452381D01*
X11827290Y-3471428D01*
X11836814Y-3480952D01*
X11855862Y-3490476D01*
X11893957Y-3490476D01*
X11913005Y-3480952D01*
X11922528Y-3471428D01*
X11932052Y-3452381D01*
X11932052Y-3290476D01*
X11998719Y-3290476D02*
X12113005Y-3290476D01*
X12055862Y-3490476D02*
X12055862Y-3290476D01*
X7065476Y-1555152D02*
X7265476Y-1488486D01*
X7065476Y-1421819D01*
X7189286Y-1355152D02*
X7189286Y-1202771D01*
X7246428Y-993248D02*
X7255952Y-1002771D01*
X7265476Y-1031343D01*
X7265476Y-1050390D01*
X7255952Y-1078962D01*
X7236905Y-1098010D01*
X7217857Y-1107533D01*
X7179762Y-1117057D01*
X7151190Y-1117057D01*
X7113095Y-1107533D01*
X7094048Y-1098010D01*
X7075000Y-1078962D01*
X7065476Y-1050390D01*
X7065476Y-1031343D01*
X7075000Y-1002771D01*
X7084524Y-993248D01*
X7065476Y-907533D02*
X7227381Y-907533D01*
X7246428Y-898009D01*
X7255952Y-888486D01*
X7265476Y-869438D01*
X7265476Y-831343D01*
X7255952Y-812295D01*
X7246428Y-802771D01*
X7227381Y-793248D01*
X7065476Y-793248D01*
X7065476Y-726581D02*
X7065476Y-612295D01*
X7265476Y-669438D02*
X7065476Y-669438D01*
X6565476Y-1555152D02*
X6765476Y-1488486D01*
X6565476Y-1421819D01*
X6689286Y-1355152D02*
X6689286Y-1202771D01*
X6746428Y-993248D02*
X6755952Y-1002771D01*
X6765476Y-1031343D01*
X6765476Y-1050390D01*
X6755952Y-1078962D01*
X6736905Y-1098010D01*
X6717857Y-1107533D01*
X6679762Y-1117057D01*
X6651190Y-1117057D01*
X6613095Y-1107533D01*
X6594048Y-1098010D01*
X6575000Y-1078962D01*
X6565476Y-1050390D01*
X6565476Y-1031343D01*
X6575000Y-1002771D01*
X6584524Y-993248D01*
X6565476Y-907533D02*
X6727381Y-907533D01*
X6746428Y-898009D01*
X6755952Y-888486D01*
X6765476Y-869438D01*
X6765476Y-831343D01*
X6755952Y-812295D01*
X6746428Y-802771D01*
X6727381Y-793248D01*
X6565476Y-793248D01*
X6565476Y-726581D02*
X6565476Y-612295D01*
X6765476Y-669438D02*
X6565476Y-669438D01*
X11170148Y-6990476D02*
X11236814Y-7190476D01*
X11303481Y-6990476D01*
X11370148Y-7114286D02*
X11522528Y-7114286D01*
X11732052Y-7171428D02*
X11722528Y-7180952D01*
X11693957Y-7190476D01*
X11674909Y-7190476D01*
X11646338Y-7180952D01*
X11627290Y-7161905D01*
X11617767Y-7142857D01*
X11608243Y-7104762D01*
X11608243Y-7076190D01*
X11617767Y-7038095D01*
X11627290Y-7019048D01*
X11646338Y-7000000D01*
X11674909Y-6990476D01*
X11693957Y-6990476D01*
X11722528Y-7000000D01*
X11732052Y-7009524D01*
X11817767Y-6990476D02*
X11817767Y-7152381D01*
X11827290Y-7171428D01*
X11836814Y-7180952D01*
X11855862Y-7190476D01*
X11893957Y-7190476D01*
X11913005Y-7180952D01*
X11922528Y-7171428D01*
X11932052Y-7152381D01*
X11932052Y-6990476D01*
X11998719Y-6990476D02*
X12113005Y-6990476D01*
X12055862Y-7190476D02*
X12055862Y-6990476D01*
X11170148Y-10190476D02*
X11236814Y-10390476D01*
X11303481Y-10190476D01*
X11370148Y-10314286D02*
X11522528Y-10314286D01*
X11732052Y-10371429D02*
X11722528Y-10380952D01*
X11693957Y-10390476D01*
X11674909Y-10390476D01*
X11646338Y-10380952D01*
X11627290Y-10361905D01*
X11617767Y-10342857D01*
X11608243Y-10304762D01*
X11608243Y-10276190D01*
X11617767Y-10238095D01*
X11627290Y-10219048D01*
X11646338Y-10200000D01*
X11674909Y-10190476D01*
X11693957Y-10190476D01*
X11722528Y-10200000D01*
X11732052Y-10209524D01*
X11817767Y-10190476D02*
X11817767Y-10352381D01*
X11827290Y-10371429D01*
X11836814Y-10380952D01*
X11855862Y-10390476D01*
X11893957Y-10390476D01*
X11913005Y-10380952D01*
X11922528Y-10371429D01*
X11932052Y-10352381D01*
X11932052Y-10190476D01*
X11998719Y-10190476D02*
X12113005Y-10190476D01*
X12055862Y-10390476D02*
X12055862Y-10190476D01*
D13*
D14*
X6132500Y-4776000D02*
X6197500Y-4841000D01*
X6197500Y-4776000D02*
X6132500Y-4841000D01*
X6132500Y-5354000D02*
X6197500Y-5419000D01*
X6197500Y-5354000D02*
X6132500Y-5419000D01*
X6132500Y-8476000D02*
X6197500Y-8541000D01*
X6197500Y-8476000D02*
X6132500Y-8541000D01*
X6132500Y-9054000D02*
X6197500Y-9119000D01*
X6197500Y-9054000D02*
X6132500Y-9119000D01*
X9982500Y-4776000D02*
X10047500Y-4841000D01*
X10047500Y-4776000D02*
X9982500Y-4841000D01*
X9982500Y-5354000D02*
X10047500Y-5419000D01*
X10047500Y-5354000D02*
X9982500Y-5419000D01*
X9982500Y-8476000D02*
X10047500Y-8541000D01*
X10047500Y-8476000D02*
X9982500Y-8541000D01*
X9982500Y-9054000D02*
X10047500Y-9119000D01*
X10047500Y-9054000D02*
X9982500Y-9119000D01*
D15*
X3974900Y-2700200D02*
G75*
G03*
X3974900Y-2700200I-150000J0D01*
G01*
X3974900Y-10999800D02*
G75*
G03*
X3974900Y-10999800I-150000J0D01*
G01*
X10175100Y-2700200D02*
G75*
G03*
X10175100Y-2700200I-150000J0D01*
G01*
X10175100Y-10999800D02*
G75*
G03*
X10175100Y-10999800I-150000J0D01*
G01*
D13*
X3262519Y-12130276D02*
X3262519Y-11930276D01*
X3310138Y-11930276D01*
X3338709Y-11939800D01*
X3357757Y-11958848D01*
X3367281Y-11977895D01*
X3376805Y-12015990D01*
X3376805Y-12044562D01*
X3367281Y-12082657D01*
X3357757Y-12101705D01*
X3338709Y-12120752D01*
X3310138Y-12130276D01*
X3262519Y-12130276D01*
X3462519Y-12130276D02*
X3462519Y-11996943D01*
X3462519Y-12035038D02*
X3472043Y-12015990D01*
X3481567Y-12006467D01*
X3500614Y-11996943D01*
X3519662Y-11996943D01*
X3586328Y-12130276D02*
X3586328Y-11996943D01*
X3586328Y-11930276D02*
X3576805Y-11939800D01*
X3586328Y-11949324D01*
X3595852Y-11939800D01*
X3586328Y-11930276D01*
X3586328Y-11949324D01*
X3710138Y-12130276D02*
X3691090Y-12120752D01*
X3681567Y-12101705D01*
X3681567Y-11930276D01*
X3814900Y-12130276D02*
X3795852Y-12120752D01*
X3786328Y-12101705D01*
X3786328Y-11930276D01*
X4043471Y-12130276D02*
X4043471Y-11930276D01*
X4110138Y-12073133D01*
X4176805Y-11930276D01*
X4176805Y-12130276D01*
X4357757Y-12130276D02*
X4357757Y-12025514D01*
X4348233Y-12006467D01*
X4329186Y-11996943D01*
X4291090Y-11996943D01*
X4272043Y-12006467D01*
X4357757Y-12120752D02*
X4338710Y-12130276D01*
X4291090Y-12130276D01*
X4272043Y-12120752D01*
X4262519Y-12101705D01*
X4262519Y-12082657D01*
X4272043Y-12063609D01*
X4291090Y-12054086D01*
X4338710Y-12054086D01*
X4357757Y-12044562D01*
X4452995Y-11996943D02*
X4452995Y-12196943D01*
X4452995Y-12006467D02*
X4472043Y-11996943D01*
X4510138Y-11996943D01*
X4529186Y-12006467D01*
X4538710Y-12015990D01*
X4548233Y-12035038D01*
X4548233Y-12092181D01*
X4538710Y-12111228D01*
X4529186Y-12120752D01*
X4510138Y-12130276D01*
X4472043Y-12130276D01*
X4452995Y-12120752D01*
X4633948Y-12111228D02*
X4643471Y-12120752D01*
X4633948Y-12130276D01*
X4624424Y-12120752D01*
X4633948Y-12111228D01*
X4633948Y-12130276D01*
X4633948Y-12006467D02*
X4643471Y-12015990D01*
X4633948Y-12025514D01*
X4624424Y-12015990D01*
X4633948Y-12006467D01*
X4633948Y-12025514D01*
D14*
X2939900Y-12427300D02*
X3004900Y-12492300D01*
X3004900Y-12427300D02*
X2939900Y-12492300D01*
D13*
X3300614Y-12350276D02*
X3319662Y-12350276D01*
X3338709Y-12359800D01*
X3348233Y-12369324D01*
X3357757Y-12388371D01*
X3367281Y-12426467D01*
X3367281Y-12474086D01*
X3357757Y-12512181D01*
X3348233Y-12531228D01*
X3338709Y-12540752D01*
X3319662Y-12550276D01*
X3300614Y-12550276D01*
X3281567Y-12540752D01*
X3272043Y-12531228D01*
X3262519Y-12512181D01*
X3252995Y-12474086D01*
X3252995Y-12426467D01*
X3262519Y-12388371D01*
X3272043Y-12369324D01*
X3281567Y-12359800D01*
X3300614Y-12350276D01*
X3452995Y-12531228D02*
X3462519Y-12540752D01*
X3452995Y-12550276D01*
X3443471Y-12540752D01*
X3452995Y-12531228D01*
X3452995Y-12550276D01*
X3633948Y-12350276D02*
X3595852Y-12350276D01*
X3576805Y-12359800D01*
X3567281Y-12369324D01*
X3548233Y-12397895D01*
X3538709Y-12435990D01*
X3538709Y-12512181D01*
X3548233Y-12531228D01*
X3557757Y-12540752D01*
X3576805Y-12550276D01*
X3614900Y-12550276D01*
X3633948Y-12540752D01*
X3643471Y-12531228D01*
X3652995Y-12512181D01*
X3652995Y-12464562D01*
X3643471Y-12445514D01*
X3633948Y-12435990D01*
X3614900Y-12426467D01*
X3576805Y-12426467D01*
X3557757Y-12435990D01*
X3548233Y-12445514D01*
X3538709Y-12464562D01*
X3833948Y-12350276D02*
X3738709Y-12350276D01*
X3729186Y-12445514D01*
X3738709Y-12435990D01*
X3757757Y-12426467D01*
X3805376Y-12426467D01*
X3824424Y-12435990D01*
X3833948Y-12445514D01*
X3843471Y-12464562D01*
X3843471Y-12512181D01*
X3833948Y-12531228D01*
X3824424Y-12540752D01*
X3805376Y-12550276D01*
X3757757Y-12550276D01*
X3738709Y-12540752D01*
X3729186Y-12531228D01*
X3967281Y-12350276D02*
X3986328Y-12350276D01*
X4005376Y-12359800D01*
X4014900Y-12369324D01*
X4024424Y-12388371D01*
X4033948Y-12426467D01*
X4033948Y-12474086D01*
X4024424Y-12512181D01*
X4014900Y-12531228D01*
X4005376Y-12540752D01*
X3986328Y-12550276D01*
X3967281Y-12550276D01*
X3948233Y-12540752D01*
X3938709Y-12531228D01*
X3929186Y-12512181D01*
X3919662Y-12474086D01*
X3919662Y-12426467D01*
X3929186Y-12388371D01*
X3938709Y-12369324D01*
X3948233Y-12359800D01*
X3967281Y-12350276D01*
X4119662Y-12550276D02*
X4119662Y-12416943D01*
X4119662Y-12435990D02*
X4129186Y-12426467D01*
X4148233Y-12416943D01*
X4176805Y-12416943D01*
X4195852Y-12426467D01*
X4205376Y-12445514D01*
X4205376Y-12550276D01*
X4205376Y-12445514D02*
X4214900Y-12426467D01*
X4233948Y-12416943D01*
X4262519Y-12416943D01*
X4281567Y-12426467D01*
X4291090Y-12445514D01*
X4291090Y-12550276D01*
X4386329Y-12550276D02*
X4386329Y-12416943D01*
X4386329Y-12435990D02*
X4395852Y-12426467D01*
X4414900Y-12416943D01*
X4443471Y-12416943D01*
X4462519Y-12426467D01*
X4472043Y-12445514D01*
X4472043Y-12550276D01*
X4472043Y-12445514D02*
X4481567Y-12426467D01*
X4500614Y-12416943D01*
X4529186Y-12416943D01*
X4548233Y-12426467D01*
X4557757Y-12445514D01*
X4557757Y-12550276D01*
X4948233Y-12340752D02*
X4776805Y-12597895D01*
X5205376Y-12350276D02*
X5224424Y-12350276D01*
X5243471Y-12359800D01*
X5252995Y-12369324D01*
X5262519Y-12388371D01*
X5272043Y-12426467D01*
X5272043Y-12474086D01*
X5262519Y-12512181D01*
X5252995Y-12531228D01*
X5243471Y-12540752D01*
X5224424Y-12550276D01*
X5205376Y-12550276D01*
X5186329Y-12540752D01*
X5176805Y-12531228D01*
X5167281Y-12512181D01*
X5157757Y-12474086D01*
X5157757Y-12426467D01*
X5167281Y-12388371D01*
X5176805Y-12369324D01*
X5186329Y-12359800D01*
X5205376Y-12350276D01*
X5357757Y-12531228D02*
X5367281Y-12540752D01*
X5357757Y-12550276D01*
X5348233Y-12540752D01*
X5357757Y-12531228D01*
X5357757Y-12550276D01*
X5491090Y-12350276D02*
X5510138Y-12350276D01*
X5529186Y-12359800D01*
X5538710Y-12369324D01*
X5548233Y-12388371D01*
X5557757Y-12426467D01*
X5557757Y-12474086D01*
X5548233Y-12512181D01*
X5538710Y-12531228D01*
X5529186Y-12540752D01*
X5510138Y-12550276D01*
X5491090Y-12550276D01*
X5472043Y-12540752D01*
X5462519Y-12531228D01*
X5452995Y-12512181D01*
X5443471Y-12474086D01*
X5443471Y-12426467D01*
X5452995Y-12388371D01*
X5462519Y-12369324D01*
X5472043Y-12359800D01*
X5491090Y-12350276D01*
X5633948Y-12369324D02*
X5643471Y-12359800D01*
X5662519Y-12350276D01*
X5710138Y-12350276D01*
X5729186Y-12359800D01*
X5738709Y-12369324D01*
X5748233Y-12388371D01*
X5748233Y-12407419D01*
X5738709Y-12435990D01*
X5624424Y-12550276D01*
X5748233Y-12550276D01*
X5929186Y-12350276D02*
X5833948Y-12350276D01*
X5824424Y-12445514D01*
X5833948Y-12435990D01*
X5852995Y-12426467D01*
X5900614Y-12426467D01*
X5919662Y-12435990D01*
X5929186Y-12445514D01*
X5938709Y-12464562D01*
X5938709Y-12512181D01*
X5929186Y-12531228D01*
X5919662Y-12540752D01*
X5900614Y-12550276D01*
X5852995Y-12550276D01*
X5833948Y-12540752D01*
X5824424Y-12531228D01*
X6110138Y-12350276D02*
X6072043Y-12350276D01*
X6052995Y-12359800D01*
X6043471Y-12369324D01*
X6024424Y-12397895D01*
X6014900Y-12435990D01*
X6014900Y-12512181D01*
X6024424Y-12531228D01*
X6033948Y-12540752D01*
X6052995Y-12550276D01*
X6091090Y-12550276D01*
X6110138Y-12540752D01*
X6119662Y-12531228D01*
X6129186Y-12512181D01*
X6129186Y-12464562D01*
X6119662Y-12445514D01*
X6110138Y-12435990D01*
X6091090Y-12426467D01*
X6052995Y-12426467D01*
X6033948Y-12435990D01*
X6024424Y-12445514D01*
X6014900Y-12464562D01*
X6205376Y-12350276D02*
X6205376Y-12388371D01*
X6281567Y-12350276D02*
X6281567Y-12388371D01*
X6576805Y-12626467D02*
X6567281Y-12616943D01*
X6548233Y-12588371D01*
X6538709Y-12569324D01*
X6529186Y-12540752D01*
X6519662Y-12493133D01*
X6519662Y-12455038D01*
X6529186Y-12407419D01*
X6538709Y-12378848D01*
X6548233Y-12359800D01*
X6567281Y-12331228D01*
X6576805Y-12321705D01*
X6681567Y-12435990D02*
X6662519Y-12426467D01*
X6652995Y-12416943D01*
X6643471Y-12397895D01*
X6643471Y-12388371D01*
X6652995Y-12369324D01*
X6662519Y-12359800D01*
X6681567Y-12350276D01*
X6719662Y-12350276D01*
X6738709Y-12359800D01*
X6748233Y-12369324D01*
X6757757Y-12388371D01*
X6757757Y-12397895D01*
X6748233Y-12416943D01*
X6738709Y-12426467D01*
X6719662Y-12435990D01*
X6681567Y-12435990D01*
X6662519Y-12445514D01*
X6652995Y-12455038D01*
X6643471Y-12474086D01*
X6643471Y-12512181D01*
X6652995Y-12531228D01*
X6662519Y-12540752D01*
X6681567Y-12550276D01*
X6719662Y-12550276D01*
X6738709Y-12540752D01*
X6748233Y-12531228D01*
X6757757Y-12512181D01*
X6757757Y-12474086D01*
X6748233Y-12455038D01*
X6738709Y-12445514D01*
X6719662Y-12435990D01*
X6995852Y-12550276D02*
X6995852Y-12350276D01*
X7081567Y-12550276D02*
X7081567Y-12445514D01*
X7072043Y-12426467D01*
X7052995Y-12416943D01*
X7024424Y-12416943D01*
X7005376Y-12426467D01*
X6995852Y-12435990D01*
X7205376Y-12550276D02*
X7186328Y-12540752D01*
X7176805Y-12531228D01*
X7167281Y-12512181D01*
X7167281Y-12455038D01*
X7176805Y-12435990D01*
X7186328Y-12426467D01*
X7205376Y-12416943D01*
X7233948Y-12416943D01*
X7252995Y-12426467D01*
X7262519Y-12435990D01*
X7272043Y-12455038D01*
X7272043Y-12512181D01*
X7262519Y-12531228D01*
X7252995Y-12540752D01*
X7233948Y-12550276D01*
X7205376Y-12550276D01*
X7386328Y-12550276D02*
X7367281Y-12540752D01*
X7357757Y-12521705D01*
X7357757Y-12350276D01*
X7538709Y-12540752D02*
X7519662Y-12550276D01*
X7481567Y-12550276D01*
X7462519Y-12540752D01*
X7452995Y-12521705D01*
X7452995Y-12445514D01*
X7462519Y-12426467D01*
X7481567Y-12416943D01*
X7519662Y-12416943D01*
X7538709Y-12426467D01*
X7548233Y-12445514D01*
X7548233Y-12464562D01*
X7452995Y-12483609D01*
X7624424Y-12540752D02*
X7643471Y-12550276D01*
X7681567Y-12550276D01*
X7700614Y-12540752D01*
X7710138Y-12521705D01*
X7710138Y-12512181D01*
X7700614Y-12493133D01*
X7681567Y-12483609D01*
X7652995Y-12483609D01*
X7633948Y-12474086D01*
X7624424Y-12455038D01*
X7624424Y-12445514D01*
X7633948Y-12426467D01*
X7652995Y-12416943D01*
X7681567Y-12416943D01*
X7700614Y-12426467D01*
X7776805Y-12626467D02*
X7786328Y-12616943D01*
X7805376Y-12588371D01*
X7814900Y-12569324D01*
X7824424Y-12540752D01*
X7833948Y-12493133D01*
X7833948Y-12455038D01*
X7824424Y-12407419D01*
X7814900Y-12378848D01*
X7805376Y-12359800D01*
X7786328Y-12331228D01*
X7776805Y-12321705D01*
X8138709Y-12626467D02*
X8129186Y-12616943D01*
X8110138Y-12588371D01*
X8100614Y-12569324D01*
X8091090Y-12540752D01*
X8081567Y-12493133D01*
X8081567Y-12455038D01*
X8091090Y-12407419D01*
X8100614Y-12378848D01*
X8110138Y-12359800D01*
X8129186Y-12331228D01*
X8138709Y-12321705D01*
X8214900Y-12416943D02*
X8214900Y-12550276D01*
X8214900Y-12435990D02*
X8224424Y-12426467D01*
X8243471Y-12416943D01*
X8272043Y-12416943D01*
X8291090Y-12426467D01*
X8300614Y-12445514D01*
X8300614Y-12550276D01*
X8424424Y-12550276D02*
X8405376Y-12540752D01*
X8395852Y-12531228D01*
X8386328Y-12512181D01*
X8386328Y-12455038D01*
X8395852Y-12435990D01*
X8405376Y-12426467D01*
X8424424Y-12416943D01*
X8452995Y-12416943D01*
X8472043Y-12426467D01*
X8481567Y-12435990D01*
X8491090Y-12455038D01*
X8491090Y-12512181D01*
X8481567Y-12531228D01*
X8472043Y-12540752D01*
X8452995Y-12550276D01*
X8424424Y-12550276D01*
X8548233Y-12416943D02*
X8624424Y-12416943D01*
X8576805Y-12350276D02*
X8576805Y-12521705D01*
X8586329Y-12540752D01*
X8605376Y-12550276D01*
X8624424Y-12550276D01*
X8843471Y-12416943D02*
X8843471Y-12616943D01*
X8843471Y-12426467D02*
X8862519Y-12416943D01*
X8900614Y-12416943D01*
X8919662Y-12426467D01*
X8929186Y-12435990D01*
X8938710Y-12455038D01*
X8938710Y-12512181D01*
X8929186Y-12531228D01*
X8919662Y-12540752D01*
X8900614Y-12550276D01*
X8862519Y-12550276D01*
X8843471Y-12540752D01*
X9052995Y-12550276D02*
X9033948Y-12540752D01*
X9024424Y-12521705D01*
X9024424Y-12350276D01*
X9214900Y-12550276D02*
X9214900Y-12445514D01*
X9205376Y-12426467D01*
X9186329Y-12416943D01*
X9148233Y-12416943D01*
X9129186Y-12426467D01*
X9214900Y-12540752D02*
X9195852Y-12550276D01*
X9148233Y-12550276D01*
X9129186Y-12540752D01*
X9119662Y-12521705D01*
X9119662Y-12502657D01*
X9129186Y-12483609D01*
X9148233Y-12474086D01*
X9195852Y-12474086D01*
X9214900Y-12464562D01*
X9281567Y-12416943D02*
X9357757Y-12416943D01*
X9310138Y-12350276D02*
X9310138Y-12521705D01*
X9319662Y-12540752D01*
X9338710Y-12550276D01*
X9357757Y-12550276D01*
X9500614Y-12540752D02*
X9481567Y-12550276D01*
X9443471Y-12550276D01*
X9424424Y-12540752D01*
X9414900Y-12521705D01*
X9414900Y-12445514D01*
X9424424Y-12426467D01*
X9443471Y-12416943D01*
X9481567Y-12416943D01*
X9500614Y-12426467D01*
X9510138Y-12445514D01*
X9510138Y-12464562D01*
X9414900Y-12483609D01*
X9681567Y-12550276D02*
X9681567Y-12350276D01*
X9681567Y-12540752D02*
X9662519Y-12550276D01*
X9624424Y-12550276D01*
X9605376Y-12540752D01*
X9595852Y-12531228D01*
X9586329Y-12512181D01*
X9586329Y-12455038D01*
X9595852Y-12435990D01*
X9605376Y-12426467D01*
X9624424Y-12416943D01*
X9662519Y-12416943D01*
X9681567Y-12426467D01*
X9757757Y-12626467D02*
X9767281Y-12616943D01*
X9786329Y-12588371D01*
X9795852Y-12569324D01*
X9805376Y-12540752D01*
X9814900Y-12493133D01*
X9814900Y-12455038D01*
X9805376Y-12407419D01*
X9795852Y-12378848D01*
X9786329Y-12359800D01*
X9767281Y-12331228D01*
X9757757Y-12321705D01*
X3004900Y-12723800D02*
G75*
G03*
X3004900Y-12723800I-100000J0D01*
G01*
X3243471Y-12614276D02*
X3367281Y-12614276D01*
X3300614Y-12690467D01*
X3329186Y-12690467D01*
X3348233Y-12699990D01*
X3357757Y-12709514D01*
X3367281Y-12728562D01*
X3367281Y-12776181D01*
X3357757Y-12795228D01*
X3348233Y-12804752D01*
X3329186Y-12814276D01*
X3272043Y-12814276D01*
X3252995Y-12804752D01*
X3243471Y-12795228D01*
X3452995Y-12795228D02*
X3462519Y-12804752D01*
X3452995Y-12814276D01*
X3443471Y-12804752D01*
X3452995Y-12795228D01*
X3452995Y-12814276D01*
X3586328Y-12614276D02*
X3605376Y-12614276D01*
X3624424Y-12623800D01*
X3633948Y-12633324D01*
X3643471Y-12652371D01*
X3652995Y-12690467D01*
X3652995Y-12738086D01*
X3643471Y-12776181D01*
X3633948Y-12795228D01*
X3624424Y-12804752D01*
X3605376Y-12814276D01*
X3586328Y-12814276D01*
X3567281Y-12804752D01*
X3557757Y-12795228D01*
X3548233Y-12776181D01*
X3538709Y-12738086D01*
X3538709Y-12690467D01*
X3548233Y-12652371D01*
X3557757Y-12633324D01*
X3567281Y-12623800D01*
X3586328Y-12614276D01*
X3776805Y-12614276D02*
X3795852Y-12614276D01*
X3814900Y-12623800D01*
X3824424Y-12633324D01*
X3833948Y-12652371D01*
X3843471Y-12690467D01*
X3843471Y-12738086D01*
X3833948Y-12776181D01*
X3824424Y-12795228D01*
X3814900Y-12804752D01*
X3795852Y-12814276D01*
X3776805Y-12814276D01*
X3757757Y-12804752D01*
X3748233Y-12795228D01*
X3738709Y-12776181D01*
X3729186Y-12738086D01*
X3729186Y-12690467D01*
X3738709Y-12652371D01*
X3748233Y-12633324D01*
X3757757Y-12623800D01*
X3776805Y-12614276D01*
X3967281Y-12614276D02*
X3986328Y-12614276D01*
X4005376Y-12623800D01*
X4014900Y-12633324D01*
X4024424Y-12652371D01*
X4033948Y-12690467D01*
X4033948Y-12738086D01*
X4024424Y-12776181D01*
X4014900Y-12795228D01*
X4005376Y-12804752D01*
X3986328Y-12814276D01*
X3967281Y-12814276D01*
X3948233Y-12804752D01*
X3938709Y-12795228D01*
X3929186Y-12776181D01*
X3919662Y-12738086D01*
X3919662Y-12690467D01*
X3929186Y-12652371D01*
X3938709Y-12633324D01*
X3948233Y-12623800D01*
X3967281Y-12614276D01*
X4119662Y-12814276D02*
X4119662Y-12680943D01*
X4119662Y-12699990D02*
X4129186Y-12690467D01*
X4148233Y-12680943D01*
X4176805Y-12680943D01*
X4195852Y-12690467D01*
X4205376Y-12709514D01*
X4205376Y-12814276D01*
X4205376Y-12709514D02*
X4214900Y-12690467D01*
X4233948Y-12680943D01*
X4262519Y-12680943D01*
X4281567Y-12690467D01*
X4291090Y-12709514D01*
X4291090Y-12814276D01*
X4386329Y-12814276D02*
X4386329Y-12680943D01*
X4386329Y-12699990D02*
X4395852Y-12690467D01*
X4414900Y-12680943D01*
X4443471Y-12680943D01*
X4462519Y-12690467D01*
X4472043Y-12709514D01*
X4472043Y-12814276D01*
X4472043Y-12709514D02*
X4481567Y-12690467D01*
X4500614Y-12680943D01*
X4529186Y-12680943D01*
X4548233Y-12690467D01*
X4557757Y-12709514D01*
X4557757Y-12814276D01*
X4948233Y-12604752D02*
X4776805Y-12861895D01*
X5205376Y-12614276D02*
X5224424Y-12614276D01*
X5243471Y-12623800D01*
X5252995Y-12633324D01*
X5262519Y-12652371D01*
X5272043Y-12690467D01*
X5272043Y-12738086D01*
X5262519Y-12776181D01*
X5252995Y-12795228D01*
X5243471Y-12804752D01*
X5224424Y-12814276D01*
X5205376Y-12814276D01*
X5186329Y-12804752D01*
X5176805Y-12795228D01*
X5167281Y-12776181D01*
X5157757Y-12738086D01*
X5157757Y-12690467D01*
X5167281Y-12652371D01*
X5176805Y-12633324D01*
X5186329Y-12623800D01*
X5205376Y-12614276D01*
X5357757Y-12795228D02*
X5367281Y-12804752D01*
X5357757Y-12814276D01*
X5348233Y-12804752D01*
X5357757Y-12795228D01*
X5357757Y-12814276D01*
X5557757Y-12814276D02*
X5443471Y-12814276D01*
X5500614Y-12814276D02*
X5500614Y-12614276D01*
X5481567Y-12642848D01*
X5462519Y-12661895D01*
X5443471Y-12671419D01*
X5748233Y-12814276D02*
X5633948Y-12814276D01*
X5691090Y-12814276D02*
X5691090Y-12614276D01*
X5672043Y-12642848D01*
X5652995Y-12661895D01*
X5633948Y-12671419D01*
X5862519Y-12699990D02*
X5843471Y-12690467D01*
X5833948Y-12680943D01*
X5824424Y-12661895D01*
X5824424Y-12652371D01*
X5833948Y-12633324D01*
X5843471Y-12623800D01*
X5862519Y-12614276D01*
X5900614Y-12614276D01*
X5919662Y-12623800D01*
X5929186Y-12633324D01*
X5938709Y-12652371D01*
X5938709Y-12661895D01*
X5929186Y-12680943D01*
X5919662Y-12690467D01*
X5900614Y-12699990D01*
X5862519Y-12699990D01*
X5843471Y-12709514D01*
X5833948Y-12719038D01*
X5824424Y-12738086D01*
X5824424Y-12776181D01*
X5833948Y-12795228D01*
X5843471Y-12804752D01*
X5862519Y-12814276D01*
X5900614Y-12814276D01*
X5919662Y-12804752D01*
X5929186Y-12795228D01*
X5938709Y-12776181D01*
X5938709Y-12738086D01*
X5929186Y-12719038D01*
X5919662Y-12709514D01*
X5900614Y-12699990D01*
X6129186Y-12814276D02*
X6014900Y-12814276D01*
X6072043Y-12814276D02*
X6072043Y-12614276D01*
X6052995Y-12642848D01*
X6033948Y-12661895D01*
X6014900Y-12671419D01*
X6205376Y-12614276D02*
X6205376Y-12652371D01*
X6281567Y-12614276D02*
X6281567Y-12652371D01*
X6576805Y-12890467D02*
X6567281Y-12880943D01*
X6548233Y-12852371D01*
X6538709Y-12833324D01*
X6529186Y-12804752D01*
X6519662Y-12757133D01*
X6519662Y-12719038D01*
X6529186Y-12671419D01*
X6538709Y-12642848D01*
X6548233Y-12623800D01*
X6567281Y-12595228D01*
X6576805Y-12585705D01*
X6738709Y-12680943D02*
X6738709Y-12814276D01*
X6691090Y-12604752D02*
X6643471Y-12747609D01*
X6767281Y-12747609D01*
X6995852Y-12814276D02*
X6995852Y-12614276D01*
X7081567Y-12814276D02*
X7081567Y-12709514D01*
X7072043Y-12690467D01*
X7052995Y-12680943D01*
X7024424Y-12680943D01*
X7005376Y-12690467D01*
X6995852Y-12699990D01*
X7205376Y-12814276D02*
X7186328Y-12804752D01*
X7176805Y-12795228D01*
X7167281Y-12776181D01*
X7167281Y-12719038D01*
X7176805Y-12699990D01*
X7186328Y-12690467D01*
X7205376Y-12680943D01*
X7233948Y-12680943D01*
X7252995Y-12690467D01*
X7262519Y-12699990D01*
X7272043Y-12719038D01*
X7272043Y-12776181D01*
X7262519Y-12795228D01*
X7252995Y-12804752D01*
X7233948Y-12814276D01*
X7205376Y-12814276D01*
X7386328Y-12814276D02*
X7367281Y-12804752D01*
X7357757Y-12785705D01*
X7357757Y-12614276D01*
X7538709Y-12804752D02*
X7519662Y-12814276D01*
X7481567Y-12814276D01*
X7462519Y-12804752D01*
X7452995Y-12785705D01*
X7452995Y-12709514D01*
X7462519Y-12690467D01*
X7481567Y-12680943D01*
X7519662Y-12680943D01*
X7538709Y-12690467D01*
X7548233Y-12709514D01*
X7548233Y-12728562D01*
X7452995Y-12747609D01*
X7624424Y-12804752D02*
X7643471Y-12814276D01*
X7681567Y-12814276D01*
X7700614Y-12804752D01*
X7710138Y-12785705D01*
X7710138Y-12776181D01*
X7700614Y-12757133D01*
X7681567Y-12747609D01*
X7652995Y-12747609D01*
X7633948Y-12738086D01*
X7624424Y-12719038D01*
X7624424Y-12709514D01*
X7633948Y-12690467D01*
X7652995Y-12680943D01*
X7681567Y-12680943D01*
X7700614Y-12690467D01*
X7776805Y-12890467D02*
X7786328Y-12880943D01*
X7805376Y-12852371D01*
X7814900Y-12833324D01*
X7824424Y-12804752D01*
X7833948Y-12757133D01*
X7833948Y-12719038D01*
X7824424Y-12671419D01*
X7814900Y-12642848D01*
X7805376Y-12623800D01*
X7786328Y-12595228D01*
X7776805Y-12585705D01*
X8138709Y-12890467D02*
X8129186Y-12880943D01*
X8110138Y-12852371D01*
X8100614Y-12833324D01*
X8091090Y-12804752D01*
X8081567Y-12757133D01*
X8081567Y-12719038D01*
X8091090Y-12671419D01*
X8100614Y-12642848D01*
X8110138Y-12623800D01*
X8129186Y-12595228D01*
X8138709Y-12585705D01*
X8214900Y-12680943D02*
X8214900Y-12814276D01*
X8214900Y-12699990D02*
X8224424Y-12690467D01*
X8243471Y-12680943D01*
X8272043Y-12680943D01*
X8291090Y-12690467D01*
X8300614Y-12709514D01*
X8300614Y-12814276D01*
X8424424Y-12814276D02*
X8405376Y-12804752D01*
X8395852Y-12795228D01*
X8386328Y-12776181D01*
X8386328Y-12719038D01*
X8395852Y-12699990D01*
X8405376Y-12690467D01*
X8424424Y-12680943D01*
X8452995Y-12680943D01*
X8472043Y-12690467D01*
X8481567Y-12699990D01*
X8491090Y-12719038D01*
X8491090Y-12776181D01*
X8481567Y-12795228D01*
X8472043Y-12804752D01*
X8452995Y-12814276D01*
X8424424Y-12814276D01*
X8548233Y-12680943D02*
X8624424Y-12680943D01*
X8576805Y-12614276D02*
X8576805Y-12785705D01*
X8586329Y-12804752D01*
X8605376Y-12814276D01*
X8624424Y-12814276D01*
X8843471Y-12680943D02*
X8843471Y-12880943D01*
X8843471Y-12690467D02*
X8862519Y-12680943D01*
X8900614Y-12680943D01*
X8919662Y-12690467D01*
X8929186Y-12699990D01*
X8938710Y-12719038D01*
X8938710Y-12776181D01*
X8929186Y-12795228D01*
X8919662Y-12804752D01*
X8900614Y-12814276D01*
X8862519Y-12814276D01*
X8843471Y-12804752D01*
X9052995Y-12814276D02*
X9033948Y-12804752D01*
X9024424Y-12785705D01*
X9024424Y-12614276D01*
X9214900Y-12814276D02*
X9214900Y-12709514D01*
X9205376Y-12690467D01*
X9186329Y-12680943D01*
X9148233Y-12680943D01*
X9129186Y-12690467D01*
X9214900Y-12804752D02*
X9195852Y-12814276D01*
X9148233Y-12814276D01*
X9129186Y-12804752D01*
X9119662Y-12785705D01*
X9119662Y-12766657D01*
X9129186Y-12747609D01*
X9148233Y-12738086D01*
X9195852Y-12738086D01*
X9214900Y-12728562D01*
X9281567Y-12680943D02*
X9357757Y-12680943D01*
X9310138Y-12614276D02*
X9310138Y-12785705D01*
X9319662Y-12804752D01*
X9338710Y-12814276D01*
X9357757Y-12814276D01*
X9500614Y-12804752D02*
X9481567Y-12814276D01*
X9443471Y-12814276D01*
X9424424Y-12804752D01*
X9414900Y-12785705D01*
X9414900Y-12709514D01*
X9424424Y-12690467D01*
X9443471Y-12680943D01*
X9481567Y-12680943D01*
X9500614Y-12690467D01*
X9510138Y-12709514D01*
X9510138Y-12728562D01*
X9414900Y-12747609D01*
X9681567Y-12814276D02*
X9681567Y-12614276D01*
X9681567Y-12804752D02*
X9662519Y-12814276D01*
X9624424Y-12814276D01*
X9605376Y-12804752D01*
X9595852Y-12795228D01*
X9586329Y-12776181D01*
X9586329Y-12719038D01*
X9595852Y-12699990D01*
X9605376Y-12690467D01*
X9624424Y-12680943D01*
X9662519Y-12680943D01*
X9681567Y-12690467D01*
X9757757Y-12890467D02*
X9767281Y-12880943D01*
X9786329Y-12852371D01*
X9795852Y-12833324D01*
X9805376Y-12804752D01*
X9814900Y-12757133D01*
X9814900Y-12719038D01*
X9805376Y-12671419D01*
X9795852Y-12642848D01*
X9786329Y-12623800D01*
X9767281Y-12595228D01*
X9757757Y-12585705D01*
M02*
